<?xml version="1.0" encoding="UTF-8" standalone="no"?>
<!-- Created with Inkscape (http://www.inkscape.org/) -->

<svg
   xmlns:dc="http://purl.org/dc/elements/1.1/"
   xmlns:cc="http://creativecommons.org/ns#"
   xmlns:rdf="http://www.w3.org/1999/02/22-rdf-syntax-ns#"
   xmlns:svg="http://www.w3.org/2000/svg"
   xmlns="http://www.w3.org/2000/svg"
   xmlns:sodipodi="http://sodipodi.sourceforge.net/DTD/sodipodi-0.dtd"
   xmlns:inkscape="http://www.inkscape.org/namespaces/inkscape"
   version="1.1"
   id="svg45"
   width="1020"
   height="1020"
   viewBox="0 0 1020 1020"
   sodipodi:docname="angular-js-logo.svg"
   inkscape:version="0.92.2 5c3e80d, 2017-08-06">
  <metadata
     id="metadata51">
    <rdf:RDF>
      <cc:Work
         rdf:about="">
        <dc:format>image/svg+xml</dc:format>
        <dc:type
           rdf:resource="http://purl.org/dc/dcmitype/StillImage" />
        <dc:title></dc:title>
      </cc:Work>
    </rdf:RDF>
  </metadata>
  <defs
     id="defs49" />
  <sodipodi:namedview
     pagecolor="#ffffff"
     bordercolor="#666666"
     borderopacity="1"
     objecttolerance="10"
     gridtolerance="10"
     guidetolerance="10"
     inkscape:pageopacity="0"
     inkscape:pageshadow="2"
     inkscape:window-width="1440"
     inkscape:window-height="816"
     id="namedview47"
     showgrid="false"
     inkscape:zoom="0.29558824"
     inkscape:cx="1261.4783"
     inkscape:cy="39.613519"
     inkscape:window-x="0"
     inkscape:window-y="1"
     inkscape:window-maximized="1"
     inkscape:current-layer="svg45" />
  <g
     id="g55"
     transform="translate(3.5200694,-3.1353037)">
    <path
       style="fill:#fefefe"
       d="M 0,510 V 0 h 510 510 v 510 510 H 510 0 Z"
       id="path71"
       inkscape:connector-curvature="0" />
    <path
       style="fill:#cececf"
       d="m 408.31039,712.33933 c -54.55428,-30.0202 -99.42865,-55.20512 -99.72081,-55.96649 -0.29217,-0.76137 -8.9222,-70.9503 -19.17784,-155.97541 C 273.71055,370.22572 270.98111,345.60692 272.13255,344.54398 273.76381,343.03809 506.86312,261 509.51061,261 c 3.79864,0 238.59722,81.33267 239.37568,82.91815 0.91205,1.85757 -36.2397,310.8559 -37.52158,312.07436 -2.46748,2.3454 -200.08178,111.00158 -201.81929,110.96825 -1.12498,-0.0216 -46.68074,-24.60122 -101.23503,-54.62143 z m -8.09982,-82.99759 15.71057,-0.65161 14.43455,-36.08423 c 12.4164,-31.03919 14.76378,-36.17668 16.78942,-36.74539 1.29519,-0.36363 15.51739,-0.70601 31.60489,-0.76083 L 508,555 v -20 -20 l -19.25,-0.0136 c -22.737,-0.0161 -24.15318,-0.25078 -23.40611,-3.87825 0.29543,-1.43445 10.0139,-25.05271 21.59662,-52.48501 L 508,408.74619 v -48.5731 c 0,-29.25146 -0.36243,-48.19519 -0.91112,-47.62309 -0.69852,0.72833 -132.56216,293.25857 -141.18094,313.2 l -1.83687,4.25 10.21447,-0.003 c 5.61795,-0.002 17.28422,-0.29655 25.92503,-0.65493 z"
       id="path69"
       inkscape:connector-curvature="0" />
    <path
       style="fill:#e19a9d"
       d="M 410.63186,711.56491 C 356.3222,681.71207 311.44075,656.84075 310.89532,656.29532 310.06441,655.46441 273.017,353.527 273.00425,347.48206 c -0.004,-1.77862 13.90077,-6.9094 117.24575,-43.26379 64.4875,-22.68523 118.20154,-41.23966 119.36454,-41.23207 1.79559,0.0117 237.02319,80.31819 237.93618,81.23119 0.7728,0.77279 -36.94083,309.40443 -37.93906,310.47648 -1.00319,1.07737 -184.77278,103.286 -195.67331,108.82921 l -4.56165,2.31972 z m 5.48317,-82.136 c 0.3702,-0.2288 7.05739,-16.36919 14.86041,-35.86755 7.80303,-19.49836 14.75135,-35.91965 15.44071,-36.49177 0.79234,-0.65759 12.62497,-1.13757 32.16861,-1.3049 L 509.5,555.5 V 535 514.5 L 488,513.94971 c -11.825,-0.30266 -21.6125,-0.64016 -21.75,-0.75 -0.1375,-0.10984 -0.25,-0.74968 -0.25,-1.42186 0,-1.86177 41.10219,-99.04914 42.65833,-100.86691 1.1156,-1.30316 1.31369,-10.61403 1.10101,-51.75027 -0.16753,-32.4026 -0.61337,-50.24444 -1.25934,-50.39632 -0.86792,-0.20405 -145.33867,319.25089 -145.45585,321.63321 -0.0424,0.86291 51.63347,-0.0803 53.07088,-0.96865 z"
       id="path67"
       inkscape:connector-curvature="0" />
    <path
       style="fill:#b2b0b0"
       d="M 410.63186,711.56491 C 356.3222,681.71207 311.44075,656.84075 310.89532,656.29532 310.06441,655.46441 273.017,353.527 273.00425,347.48206 c -0.004,-1.77862 13.90077,-6.9094 117.24575,-43.26379 64.4875,-22.68523 118.20154,-41.23966 119.36454,-41.23207 1.79559,0.0117 237.02319,80.31819 237.93618,81.23119 0.7728,0.77279 -36.94083,309.40443 -37.93906,310.47648 -1.00319,1.07737 -184.77278,103.286 -195.67331,108.82921 l -4.56165,2.31972 z M 507,740.52568 c 0,-0.26088 -1.35,-1.17243 -3,-2.02568 -3.76088,-1.94483 -3.98844,-1.10011 -0.25,0.92803 3.14255,1.70486 3.25,1.74115 3.25,1.09765 z m -9,-5 c 0,-0.26088 -1.35,-1.17243 -3,-2.02568 -3.76088,-1.94483 -3.98844,-1.10011 -0.25,0.92803 3.14255,1.70486 3.25,1.74115 3.25,1.09765 z m -9,-5 c 0,-0.26088 -1.35,-1.17243 -3,-2.02568 -3.76088,-1.94483 -3.98844,-1.10011 -0.25,0.92803 3.14255,1.70486 3.25,1.74115 3.25,1.09765 z m -9,-5 c 0,-0.26088 -1.35,-1.17243 -3,-2.02568 -3.76088,-1.94483 -3.98844,-1.10011 -0.25,0.92803 3.14255,1.70486 3.25,1.74115 3.25,1.09765 z m -9,-5 c 0,-0.26088 -1.35,-1.17243 -3,-2.02568 -3.76088,-1.94483 -3.98844,-1.10011 -0.25,0.92803 3.14255,1.70486 3.25,1.74115 3.25,1.09765 z m -9,-5 c 0,-0.26088 -1.35,-1.17243 -3,-2.02568 -3.76088,-1.94483 -3.98844,-1.10011 -0.25,0.92803 3.14255,1.70486 3.25,1.74115 3.25,1.09765 z m -9,-5 c 0,-0.26088 -1.35,-1.17243 -3,-2.02568 -3.76088,-1.94483 -3.98844,-1.10011 -0.25,0.92803 3.14255,1.70486 3.25,1.74115 3.25,1.09765 z m -9,-5 c 0,-0.26088 -1.35,-1.17243 -3,-2.02568 -3.76088,-1.94483 -3.98844,-1.10011 -0.25,0.92803 3.14255,1.70486 3.25,1.74115 3.25,1.09765 z m -9,-5 c 0,-0.26088 -1.35,-1.17243 -3,-2.02568 -3.76088,-1.94483 -3.98844,-1.10011 -0.25,0.92803 3.14255,1.70486 3.25,1.74115 3.25,1.09765 z m -11,-6 c 0,-0.26088 -1.35,-1.17243 -3,-2.02568 -3.76088,-1.94483 -3.98844,-1.10011 -0.25,0.92803 3.14255,1.70486 3.25,1.74115 3.25,1.09765 z m -9,-5 c 0,-0.26088 -1.35,-1.17243 -3,-2.02568 -3.76088,-1.94483 -3.98844,-1.10011 -0.25,0.92803 3.14255,1.70486 3.25,1.74115 3.25,1.09765 z m -9,-5 c 0,-0.26088 -1.35,-1.17243 -3,-2.02568 -3.76088,-1.94483 -3.98844,-1.10011 -0.25,0.92803 3.14255,1.70486 3.25,1.74115 3.25,1.09765 z m -9,-5 c 0,-0.26088 -1.35,-1.17243 -3,-2.02568 -3.76088,-1.94483 -3.98844,-1.10011 -0.25,0.92803 3.14255,1.70486 3.25,1.74115 3.25,1.09765 z m -9,-5 c 0,-0.26088 -1.35,-1.17243 -3,-2.02568 -3.76088,-1.94483 -3.98844,-1.10011 -0.25,0.92803 3.14255,1.70486 3.25,1.74115 3.25,1.09765 z m -9,-5 c 0,-0.26088 -1.35,-1.17243 -3,-2.02568 -3.76088,-1.94483 -3.98844,-1.10011 -0.25,0.92803 3.14255,1.70486 3.25,1.74115 3.25,1.09765 z m -9,-5 c 0,-0.26088 -1.35,-1.17243 -3,-2.02568 -3.76088,-1.94483 -3.98844,-1.10011 -0.25,0.92803 3.14255,1.70486 3.25,1.74115 3.25,1.09765 z m -9,-5 c 0,-0.26088 -1.35,-1.17243 -3,-2.02568 -3.76088,-1.94483 -3.98844,-1.10011 -0.25,0.92803 3.14255,1.70486 3.25,1.74115 3.25,1.09765 z m -9,-5 c 0,-0.26088 -1.35,-1.17243 -3,-2.02568 -3.76088,-1.94483 -3.98844,-1.10011 -0.25,0.92803 3.14255,1.70486 3.25,1.74115 3.25,1.09765 z m -9,-5 c 0,-0.26088 -1.35,-1.17243 -3,-2.02568 -3.76088,-1.94483 -3.98844,-1.10011 -0.25,0.92803 3.14255,1.70486 3.25,1.74115 3.25,1.09765 z m -10.66017,-6.29792 c -1.18809,-0.95027 -2.37339,-2.62776 -2.634,-3.72776 -0.43718,-1.8453 -0.4828,-1.83034 -0.58983,0.1933 -0.0651,1.23042 0.8597,2.8767 2.10651,3.75 2.99725,2.09935 3.81446,1.94171 1.11732,-0.21554 z m -3.63257,-12.4661 c -0.23919,-1.24391 -0.44398,-0.46166 -0.45508,1.73834 -0.0111,2.2 0.18461,3.21775 0.4349,2.26166 0.25029,-0.95609 0.25937,-2.75609 0.0202,-4 z m 74.64469,0.36633 13.85196,-0.62799 14.37391,-35.92607 c 7.90565,-19.75933 14.94727,-36.28994 15.64805,-36.73468 0.70077,-0.44475 29.84913,-0.91888 64.77413,-1.05364 52.48223,-0.2025 57.77423,-0.33529 30.5,-0.76531 L 509.5,555.5 V 535 c 0,-12.51021 0.38975,-20.78634 1,-21.23469 0.55,-0.40408 -8.76094,-0.74158 -20.69098,-0.75 -12.66784,-0.009 -21.93627,-0.41218 -22.28063,-0.96937 -0.69682,-1.12749 39.96913,-98.08437 41.75187,-99.54594 1.50422,-1.23323 1.80314,-104.66999 0.2998,-103.74062 -0.50597,0.31279 -0.63259,-0.18011 -0.28138,-1.09534 0.74769,-1.94844 -0.61139,-2.22413 -2.04112,-0.41404 C 505.78736,309.11134 362,629.37383 362,630.78712 c 0,1.34018 16.33864,1.47487 41.35195,0.34087 z m 230.37722,0.26784 c -0.33229,-0.33229 -1.1948,-0.36781 -1.91667,-0.0789 -0.79773,0.31922 -0.56078,0.55618 0.60417,0.60416 1.05416,0.0434 1.64479,-0.19293 1.3125,-0.52522 z M 327.68933,622.25 c -0.25153,-0.9625 -0.45733,-0.175 -0.45733,1.75 0,1.925 0.2058,2.7125 0.45733,1.75 0.25152,-0.9625 0.25152,-2.5375 0,-3.5 z m -1,-9 c -0.25153,-0.9625 -0.45733,-0.175 -0.45733,1.75 0,1.925 0.2058,2.7125 0.45733,1.75 0.25152,-0.9625 0.25152,-2.5375 0,-3.5 z m -0.98207,-8.48834 c -0.23919,-1.24391 -0.44398,-0.46166 -0.45508,1.73834 -0.0111,2.2 0.18461,3.21775 0.4349,2.26166 0.25029,-0.95609 0.25937,-2.75609 0.0202,-4 z M 324.68933,596.25 c -0.25153,-0.9625 -0.45733,-0.175 -0.45733,1.75 0,1.925 0.2058,2.7125 0.45733,1.75 0.25152,-0.9625 0.25152,-2.5375 0,-3.5 z m -1,-9 c -0.25153,-0.9625 -0.45733,-0.175 -0.45733,1.75 0,1.925 0.2058,2.7125 0.45733,1.75 0.25152,-0.9625 0.25152,-2.5375 0,-3.5 z m -0.98207,-8.48834 c -0.23919,-1.24391 -0.44398,-0.46166 -0.45508,1.73834 -0.0111,2.2 0.18461,3.21775 0.4349,2.26166 0.25029,-0.95609 0.25937,-2.75609 0.0202,-4 z M 321.68933,570.25 c -0.25153,-0.9625 -0.45733,-0.175 -0.45733,1.75 0,1.925 0.2058,2.7125 0.45733,1.75 0.25152,-0.9625 0.25152,-2.5375 0,-3.5 z m -0.98207,-8.48834 c -0.23919,-1.24391 -0.44398,-0.46166 -0.45508,1.73834 -0.0111,2.2 0.18461,3.21775 0.4349,2.26166 0.25029,-0.95609 0.25937,-2.75609 0.0202,-4 z m -1,-9 c -0.23919,-1.24391 -0.44398,-0.46166 -0.45508,1.73834 -0.0111,2.2 0.18461,3.21775 0.4349,2.26166 0.25029,-0.95609 0.25937,-2.75609 0.0202,-4 z M 318.68933,544.25 c -0.25153,-0.9625 -0.45733,-0.175 -0.45733,1.75 0,1.925 0.2058,2.7125 0.45733,1.75 0.25152,-0.9625 0.25152,-2.5375 0,-3.5 z m -0.98207,-8.48834 c -0.23919,-1.24391 -0.44398,-0.46166 -0.45508,1.73834 -0.0111,2.2 0.18461,3.21775 0.4349,2.26166 0.25029,-0.95609 0.25937,-2.75609 0.0202,-4 z m -1,-9 c -0.23919,-1.24391 -0.44398,-0.46166 -0.45508,1.73834 -0.0111,2.2 0.18461,3.21775 0.4349,2.26166 0.25029,-0.95609 0.25937,-2.75609 0.0202,-4 z M 315.68933,518.25 c -0.25153,-0.9625 -0.45733,-0.175 -0.45733,1.75 0,1.925 0.2058,2.7125 0.45733,1.75 0.25152,-0.9625 0.25152,-2.5375 0,-3.5 z m -0.98207,-8.48834 c -0.23919,-1.24391 -0.44398,-0.46166 -0.45508,1.73834 -0.0111,2.2 0.18461,3.21775 0.4349,2.26166 0.25029,-0.95609 0.25937,-2.75609 0.0202,-4 z M 313.68933,501.25 c -0.25153,-0.9625 -0.45733,-0.175 -0.45733,1.75 0,1.925 0.2058,2.7125 0.45733,1.75 0.25152,-0.9625 0.25152,-2.5375 0,-3.5 z m -1,-9 c -0.25153,-0.9625 -0.45733,-0.175 -0.45733,1.75 0,1.925 0.2058,2.7125 0.45733,1.75 0.25152,-0.9625 0.25152,-2.5375 0,-3.5 z m -0.98207,-8.48834 c -0.23919,-1.24391 -0.44398,-0.46166 -0.45508,1.73834 -0.0111,2.2 0.18461,3.21775 0.4349,2.26166 0.25029,-0.95609 0.25937,-2.75609 0.0202,-4 z M 310.68933,475.25 c -0.25153,-0.9625 -0.45733,-0.175 -0.45733,1.75 0,1.925 0.2058,2.7125 0.45733,1.75 0.25152,-0.9625 0.25152,-2.5375 0,-3.5 z m -1,-9 c -0.25153,-0.9625 -0.45733,-0.175 -0.45733,1.75 0,1.925 0.2058,2.7125 0.45733,1.75 0.25152,-0.9625 0.25152,-2.5375 0,-3.5 z m -0.98207,-8.48834 c -0.23919,-1.24391 -0.44398,-0.46166 -0.45508,1.73834 -0.0111,2.2 0.18461,3.21775 0.4349,2.26166 0.25029,-0.95609 0.25937,-2.75609 0.0202,-4 z M 307.68933,449.25 c -0.25153,-0.9625 -0.45733,-0.175 -0.45733,1.75 0,1.925 0.2058,2.7125 0.45733,1.75 0.25152,-0.9625 0.25152,-2.5375 0,-3.5 z m -1,-9 c -0.25153,-0.9625 -0.45733,-0.175 -0.45733,1.75 0,1.925 0.2058,2.7125 0.45733,1.75 0.25152,-0.9625 0.25152,-2.5375 0,-3.5 z m -0.98207,-8.48834 c -0.23919,-1.24391 -0.44398,-0.46166 -0.45508,1.73834 -0.0111,2.2 0.18461,3.21775 0.4349,2.26166 0.25029,-0.95609 0.25937,-2.75609 0.0202,-4 z M 304.68933,423.25 c -0.25153,-0.9625 -0.45733,-0.175 -0.45733,1.75 0,1.925 0.2058,2.7125 0.45733,1.75 0.25152,-0.9625 0.25152,-2.5375 0,-3.5 z m -1,-9 c -0.25153,-0.9625 -0.45733,-0.175 -0.45733,1.75 0,1.925 0.2058,2.7125 0.45733,1.75 0.25152,-0.9625 0.25152,-2.5375 0,-3.5 z m -0.98207,-8.48834 c -0.23919,-1.24391 -0.44398,-0.46166 -0.45508,1.73834 -0.0111,2.2 0.18461,3.21775 0.4349,2.26166 0.25029,-0.95609 0.25937,-2.75609 0.0202,-4 z M 301.68933,397.25 c -0.25153,-0.9625 -0.45733,-0.175 -0.45733,1.75 0,1.925 0.2058,2.7125 0.45733,1.75 0.25152,-0.9625 0.25152,-2.5375 0,-3.5 z m -1,-9 c -0.25153,-0.9625 -0.45733,-0.175 -0.45733,1.75 0,1.925 0.2058,2.7125 0.45733,1.75 0.25152,-0.9625 0.25152,-2.5375 0,-3.5 z m -0.98207,-8.48834 c -0.23919,-1.24391 -0.44398,-0.46166 -0.45508,1.73834 -0.0111,2.2 0.18461,3.21775 0.4349,2.26166 0.25029,-0.95609 0.25937,-2.75609 0.0202,-4 z M 298.68933,371.25 c -0.25153,-0.9625 -0.45733,-0.175 -0.45733,1.75 0,1.925 0.2058,2.7125 0.45733,1.75 0.25152,-0.9625 0.25152,-2.5375 0,-3.5 z m 2.31662,-9.79877 c 1.37173,-0.7592 2.03168,-1.39631 1.46656,-1.41579 -2.16255,-0.0746 -5.46838,3.16876 -5.37283,5.27126 0.0973,2.14011 0.11559,2.13669 0.75595,-0.1409 0.36094,-1.28381 1.77859,-2.95537 3.15032,-3.71457 z M 316,355.83129 c 1.04249,-0.64411 0.73748,-0.72283 -1,-0.25808 -1.375,0.3678 -3.175,1.08577 -4,1.5955 -1.04249,0.64411 -0.73748,0.72283 1,0.25808 1.375,-0.3678 3.175,-1.08577 4,-1.5955 z M 330,351 c 0.825,-0.53316 1.05,-0.96937 0.5,-0.96937 -0.55,0 -1.675,0.43621 -2.5,0.96937 -0.825,0.53316 -1.05,0.96937 -0.5,0.96937 0.55,0 1.675,-0.43621 2.5,-0.96937 z m 14,-5 c 0.825,-0.53316 1.05,-0.96937 0.5,-0.96937 -0.55,0 -1.675,0.43621 -2.5,0.96937 -0.825,0.53316 -1.05,0.96937 -0.5,0.96937 0.55,0 1.675,-0.43621 2.5,-0.96937 z m 14,-5 c 0.825,-0.53316 1.05,-0.96937 0.5,-0.96937 -0.55,0 -1.675,0.43621 -2.5,0.96937 -0.825,0.53316 -1.05,0.96937 -0.5,0.96937 0.55,0 1.675,-0.43621 2.5,-0.96937 z m 14,-5 c 0.825,-0.53316 1.05,-0.96937 0.5,-0.96937 -0.55,0 -1.675,0.43621 -2.5,0.96937 -0.825,0.53316 -1.05,0.96937 -0.5,0.96937 0.55,0 1.675,-0.43621 2.5,-0.96937 z m 14,-5 c 0.825,-0.53316 1.05,-0.96937 0.5,-0.96937 -0.55,0 -1.675,0.43621 -2.5,0.96937 -0.825,0.53316 -1.05,0.96937 -0.5,0.96937 0.55,0 1.675,-0.43621 2.5,-0.96937 z m 17,-6.16871 c 1.04249,-0.64411 0.73748,-0.72283 -1,-0.25808 -1.375,0.3678 -3.175,1.08577 -4,1.5955 -1.04249,0.64411 -0.73748,0.72283 1,0.25808 1.375,-0.3678 3.175,-1.08577 4,-1.5955 z m 14,-5 c 1.04249,-0.64411 0.73748,-0.72283 -1,-0.25808 -1.375,0.3678 -3.175,1.08577 -4,1.5955 -1.04249,0.64411 -0.73748,0.72283 1,0.25808 1.375,-0.3678 3.175,-1.08577 4,-1.5955 z M 431,315 c 0.825,-0.53316 1.05,-0.96937 0.5,-0.96937 -0.55,0 -1.675,0.43621 -2.5,0.96937 -0.825,0.53316 -1.05,0.96937 -0.5,0.96937 0.55,0 1.675,-0.43621 2.5,-0.96937 z m 14,-5 c 0.825,-0.53316 1.05,-0.96937 0.5,-0.96937 -0.55,0 -1.675,0.43621 -2.5,0.96937 -0.825,0.53316 -1.05,0.96937 -0.5,0.96937 0.55,0 1.675,-0.43621 2.5,-0.96937 z m 14,-5 c 0.825,-0.53316 1.05,-0.96937 0.5,-0.96937 -0.55,0 -1.675,0.43621 -2.5,0.96937 -0.825,0.53316 -1.05,0.96937 -0.5,0.96937 0.55,0 1.675,-0.43621 2.5,-0.96937 z m 14,-5 c 0.825,-0.53316 1.05,-0.96937 0.5,-0.96937 -0.55,0 -1.675,0.43621 -2.5,0.96937 -0.825,0.53316 -1.05,0.96937 -0.5,0.96937 0.55,0 1.675,-0.43621 2.5,-0.96937 z m 14,-5 c 0.825,-0.53316 1.05,-0.96937 0.5,-0.96937 -0.55,0 -1.675,0.43621 -2.5,0.96937 -0.825,0.53316 -1.05,0.96937 -0.5,0.96937 0.55,0 1.675,-0.43621 2.5,-0.96937 z m 17,-6.16871 c 1.04249,-0.64411 0.73748,-0.72283 -1,-0.25808 -1.375,0.3678 -3.175,1.08577 -4,1.5955 -1.04249,0.64411 -0.73748,0.72283 1,0.25808 1.375,-0.3678 3.175,-1.08577 4,-1.5955 z m 4.72917,-1.43546 c -0.33229,-0.33229 -1.1948,-0.36781 -1.91667,-0.0789 -0.79773,0.31922 -0.56078,0.55618 0.60417,0.60416 1.05416,0.0434 1.64479,-0.19293 1.3125,-0.52522 z"
       id="path65"
       inkscape:connector-curvature="0" />
    <path
       style="fill:#da5b5f"
       d="m 419,691.58294 -88.5,-49.21656 -0.76568,-3.93319 C 329.31319,636.26994 321.95668,573.59151 313.38652,499.1478 302.76087,406.84937 298.12993,363.47007 298.82781,362.77219 300.32019,361.27981 506.03946,287.96832 509,287.87383 c 3.02068,-0.0964 213.99669,71.72998 215.68921,73.43099 0.9193,0.92391 -2.76396,32.61919 -16.22794,139.64534 -14.6406,116.37921 -17.69964,138.72247 -19.18921,140.15835 -2.38927,2.30315 -179.00362,99.91836 -180.55142,99.79124 C 508.04929,740.84461 467.675,718.65205 419,691.58294 Z m -1.89709,-61.40318 c 0.33161,-0.37387 7.00129,-16.73147 14.82153,-36.35022 7.90842,-19.83999 14.87294,-35.92155 15.69301,-36.23623 0.81091,-0.31118 30.33731,-0.58483 65.6142,-0.6081 50.84369,-0.0335 64.38169,0.22273 65.30661,1.23624 0.64173,0.7032 7.82452,16.80355 15.96174,35.77855 8.13722,18.975 15.29109,35.04178 15.89748,35.70396 0.76746,0.83807 8.66887,1.41829 25.99953,1.90919 l 24.897,0.70522 -0.51927,-2.40918 c -0.43399,-2.01351 -150.31965,-322.52256 -151.44789,-323.84967 -0.20596,-0.24226 -0.98473,0.20774 -1.73059,1 C 505.945,308.81349 362,629.01494 362,630.93414 c 0,1.13083 4.59046,1.23908 27.25,0.64265 14.9875,-0.3945 27.52131,-1.02316 27.85291,-1.39703 z M 489.58219,513.0295 c -13.28942,-0.32105 -22.03115,-0.92317 -22.20573,-1.5295 -0.56954,-1.97814 41.12585,-99 42.54551,-99 1.33682,0 48.07803,96.27735 48.07803,99.03094 0,0.69029 -0.7118,1.52823 -1.58179,1.86207 -1.70171,0.65301 -31.45801,0.49117 -66.83602,-0.36351 z"
       id="path63"
       inkscape:connector-curvature="0" />
    <path
       style="fill:#b35c5e"
       d="M 507.64136,740.23469 C 508.30068,739.81028 471.41079,718.8059 420.29255,690.5 371.62296,663.55 331.64675,641.05 331.45653,640.5 330.87967,638.83205 300,369.49263 300,366.12903 300,364.40806 300.17892,363 300.39759,363 c 1.53953,0 208.09335,-74.17448 208.53792,-74.88698 0.63592,-1.01919 213.90159,71.32743 215.7537,73.19064 0.91936,0.92488 -2.76297,32.61249 -16.22794,139.6465 -14.6406,116.37921 -17.69964,138.72247 -19.18921,140.15835 -2.68665,2.58981 -179.07524,99.89376 -181.05142,99.87618 -1.10442,-0.01 -1.31188,-0.27843 -0.57928,-0.75 z m -89.9674,-109.5372 c 0.64567,-0.65862 7.34647,-16.72249 14.89065,-35.69749 7.54418,-18.975 14.2159,-35.01884 14.82604,-35.65298 0.79783,-0.82921 19.06776,-1.39084 65.06011,-2 56.24072,-0.7449 64.15208,-0.66618 65.62067,0.65298 0.91845,0.825 8.31948,17.025 16.44672,36 8.12724,18.975 15.27294,35.04178 15.87933,35.70396 0.76746,0.83807 8.66887,1.41829 25.99953,1.90919 l 24.897,0.70522 -0.51957,-2.40918 c -0.43838,-2.03275 -151.32355,-324.61227 -152.40362,-325.82586 -0.20395,-0.22916 -0.6394,-0.14808 -0.96767,0.18019 C 505.92042,305.74625 361,629.41815 361,631.24702 c 0,2.04732 0.16926,2.05558 27.75,1.35392 19.39879,-0.4935 28.1033,-1.06634 28.92396,-1.90345 z M 510,513 c -0.83684,-0.54081 -10.20556,-0.97614 -21.19098,-0.98469 -10.83004,-0.008 -19.87922,-0.35281 -20.10928,-0.76531 -0.23007,-0.4125 8.72885,-22.35 19.9087,-48.75 11.17986,-26.4 20.34153,-48.6 20.35928,-49.33333 0.0178,-0.73334 0.56543,-1.15562 1.21707,-0.93841 C 511.4298,412.64327 558,509.36029 558,511.53094 c 0,0.69029 -0.7118,1.52823 -1.58179,1.86207 C 553.77893,514.4058 511.62302,514.04888 510,513 Z"
       id="path61"
       inkscape:connector-curvature="0" />
    <path
       style="fill:#e23036"
       d="M 419.5,690.0658 C 371.1,663.19487 331.39495,640.59992 331.26656,639.85479 330.43782,635.04515 300,368.67096 300,366.22792 c 0,-2.68098 0.50182,-3.21208 4.25,-4.49804 2.3375,-0.80196 49.35631,-17.53774 104.48624,-37.19061 l 100.23623,-35.73249 107.13766,36.55383 c 58.92571,20.10461 107.32328,36.73946 107.55015,36.96634 0.73828,0.73828 -34.29012,276.70369 -35.23909,277.62527 -1.78049,1.72912 -178.33273,99.04732 -179.61926,99.00879 C 508.08587,738.93957 467.9,716.93672 419.5,690.0658 Z M 662.80884,631.76676 C 663.23711,629.52654 511.07971,304.96782 509.27685,304.276 c -0.74971,-0.28769 -1.61228,-0.2739 -1.91683,0.0306 C 505.90572,305.76095 361,629.45269 361,631.24702 c 0,2.04732 0.16926,2.05558 27.75,1.35392 19.39879,-0.4935 28.1033,-1.06634 28.92396,-1.90345 0.64567,-0.65862 7.35251,-16.72249 14.90409,-35.69749 7.55157,-18.975 14.1686,-35.06576 14.7045,-35.75725 0.76833,-0.99139 14.62584,-1.20285 65.53294,-1 l 64.55857,0.25725 15.66204,36.29907 c 8.61412,19.96448 16.07889,36.71592 16.58839,37.22542 0.84747,0.84747 23.52278,1.62353 44.36426,1.51835 7.23871,-0.0365 8.53754,-0.29807 8.82009,-1.77608 z M 468.69974,511.25 c -0.55853,-1.00143 39.76456,-96.32345 40.84803,-96.56295 0.88543,-0.19573 46.33886,93.88543 46.41088,96.06295 0.0325,0.98145 -9.29146,1.25 -43.39963,1.25 -23.89254,0 -43.62922,-0.3375 -43.85928,-0.75 z"
       id="path59"
       inkscape:connector-curvature="0" />
    <path
       style="fill:#b42e31"
       d="m 509,648.59386 v -90.62012 l 34.18724,0.26313 34.18725,0.26313 15.66182,36.29907 c 8.614,19.96448 16.06724,36.67464 16.56276,37.13367 0.49551,0.45903 12.59236,0.99946 26.88188,1.20093 24.00551,0.33848 26.0067,0.23475 26.31957,-1.36415 C 663.09417,630.26883 519.68139,322.63279 511.90045,308.07242 509.51364,303.606 509,301.43666 509,295.82242 509,292.07009 509.12293,289 509.27317,289 c 0.69636,0 214.02609,72.96593 214.38809,73.32792 0.73765,0.73765 -34.29192,276.70352 -35.24007,277.62416 -0.92737,0.90047 -175.83966,97.86982 -178.17119,98.77604 -0.99438,0.3865 -1.25,-18.04571 -1.25,-90.13426 z M 509,462.8 c 0,-30.85844 0.35192,-48.84584 0.944,-48.25 C 511.193,415.80695 556,509.59112 556,510.94843 556,511.65402 548.26829,512 532.5,512 H 509 Z"
       id="path57"
       inkscape:connector-curvature="0" />
  </g>
</svg>
