<?xml version="1.0" encoding="UTF-8" standalone="no"?>
<!-- Created with Inkscape (http://www.inkscape.org/) -->

<svg
   xmlns:dc="http://purl.org/dc/elements/1.1/"
   xmlns:cc="http://creativecommons.org/ns#"
   xmlns:rdf="http://www.w3.org/1999/02/22-rdf-syntax-ns#"
   xmlns:svg="http://www.w3.org/2000/svg"
   xmlns="http://www.w3.org/2000/svg"
   xmlns:sodipodi="http://sodipodi.sourceforge.net/DTD/sodipodi-0.dtd"
   xmlns:inkscape="http://www.inkscape.org/namespaces/inkscape"
   version="1.1"
   id="svg61"
   width="978"
   height="489"
   viewBox="0 0 978 489"
   sodipodi:docname="asp-mvc-logo.svg"
   inkscape:version="0.92.2 5c3e80d, 2017-08-06">
  <metadata
     id="metadata67">
    <rdf:RDF>
      <cc:Work
         rdf:about="">
        <dc:format>image/svg+xml</dc:format>
        <dc:type
           rdf:resource="http://purl.org/dc/dcmitype/StillImage" />
        <dc:title></dc:title>
      </cc:Work>
    </rdf:RDF>
  </metadata>
  <defs
     id="defs65" />
  <sodipodi:namedview
     pagecolor="#ffffff"
     bordercolor="#666666"
     borderopacity="1"
     objecttolerance="10"
     gridtolerance="10"
     guidetolerance="10"
     inkscape:pageopacity="0"
     inkscape:pageshadow="2"
     inkscape:window-width="1440"
     inkscape:window-height="816"
     id="namedview63"
     showgrid="false"
     inkscape:zoom="0.87195376"
     inkscape:cx="498.74123"
     inkscape:cy="228.54453"
     inkscape:window-x="0"
     inkscape:window-y="1"
     inkscape:window-maximized="1"
     inkscape:current-layer="svg61" />
  <g
     id="g71"
     transform="translate(0,1.1468495)">
    <path
       style="fill:#fdfefe"
       d="M 0,244.5 V 0 H 489 978 V 244.5 489 H 489 0 Z"
       id="path87"
       inkscape:connector-curvature="0" />
    <path
       style="fill:#9ed7f2"
       d="M 194.722,443.86452 C 190.80301,440.94133 189,436.90425 189,431.05254 c 0,-4.38216 0.47021,-5.56725 3.57057,-8.99897 8.40833,-9.30701 22.72699,-4.46522 24.15077,8.16648 0.59212,5.25336 -1.18297,9.30771 -5.76215,13.16083 -4.05192,3.40947 -11.99738,3.64613 -16.23719,0.48364 z M 741.5,443.31343 c -18.06802,-6.65242 -29.08626,-19.049 -33.90305,-38.1442 -2.08461,-8.26401 -2.09774,-25.88578 -0.0259,-34.81922 4.85689,-20.94249 19.73091,-36.75252 39.92898,-42.44167 7.59102,-2.13815 30.49561,-1.84042 37.31841,0.48509 6.65457,2.26817 8.00297,4.6471 6.05321,10.67945 -1.84236,5.70003 -3.66642,6.71072 -9.07896,5.03052 -7.188,-2.23134 -22.74375,-2.55024 -29.44017,-0.60354 -14.65201,4.25945 -23.23504,14.40608 -26.91275,31.81552 -1.82025,8.61661 -1.81146,13.24028 0.0436,22.93467 3.30651,17.27951 12.14168,27.07303 28.19625,31.25471 7.90938,2.06014 15.27428,1.87308 25.11906,-0.63799 9.69752,-2.4735 10.69538,-2.06481 12.29029,5.03362 1.34693,5.99475 0.11496,7.53913 -7.97395,9.99606 -5.66276,1.72001 -9.44977,2.09359 -20.77024,2.04892 -12.32124,-0.0486 -14.61506,-0.33824 -20.84476,-2.63194 z M 224.75,442.9199 c -1.63413,-0.9518 -1.75,-4.77664 -1.75,-57.76959 0,-42.8058 0.29486,-57.04517 1.2,-57.95031 1.82813,-1.82813 22.2267,-1.63044 24.09062,0.23347 2.65728,2.65728 30.11834,48.56048 38.3112,64.04002 3.09474,5.84717 5.87924,10.37878 6.18779,10.07024 0.30854,-0.30855 0.4491,-16.69197 0.31236,-36.4076 C 292.81057,323.12153 292.04655,326 303.48964,326 c 4.04073,0 8.05859,0.27314 8.92857,0.60699 C 313.83516,327.15072 314,333.19146 314,384.57181 314,450.70308 315.28236,444 302.63084,444 c -9.65436,0 -11.84441,-0.9123 -14.82907,-6.17729 C 286.454,435.44522 280.3962,425.175 274.33998,415 262.44363,395.01303 261.05823,392.59943 251.10006,374.51215 L 244.5,362.5243 l -0.25404,39.48785 c -0.22969,35.70481 -0.41566,39.6076 -1.94112,40.73785 -2.0342,1.50717 -15.04273,1.63307 -17.55484,0.1699 z m 102.5,0.0489 -2.25,-0.90439 v -56.99704 c 0,-55.05078 0.0651,-57.0319 1.90736,-58.01783 2.79273,-1.49463 145.94352,-1.41823 147.74739,0.0788 C 475.57151,327.88928 476,330.73129 476,336.05102 476,347.05289 476.08246,347 458.92857,347 H 445 v 46.92857 c 0,42.41875 -0.15976,47.08833 -1.66242,48.591 -2.25469,2.25469 -19.87861,1.82599 -21.35975,-0.51957 -0.56074,-0.88798 -0.95345,-20.5451 -0.96252,-48.17795 L 421,347.14409 405.75,346.82205 C 397.3625,346.64492 381.05,346.725 369.5,347 l -21,0.5 -0.28166,12.35939 c -0.18819,8.25828 0.1013,12.82083 0.87245,13.75 0.91079,1.09744 5.12642,1.39061 19.99647,1.39061 17.60545,0 18.91033,0.12698 19.87756,1.93426 1.43422,2.67987 1.31259,14.38833 -0.16482,15.86574 -0.85035,0.85035 -6.81799,1.2 -20.48095,1.2 -22.71155,0 -20.54966,-1.77392 -20.10865,16.5 l 0.2896,12 22.28811,0.5 c 18.34101,0.41145 22.45574,0.76564 23.23469,2 0.52061,0.825 0.95347,4.99864 0.96189,9.27475 0.0146,7.43173 -0.0979,7.81778 -2.54979,8.75 -3.23958,1.23169 -62.10714,1.18119 -65.1849,-0.0559 z m 179.5,0.34183 c -1.50583,-0.39351 -1.75069,-1.73769 -1.75495,-9.63399 -0.003,-5.04718 0.45135,-14.80168 1.00905,-21.67668 2.28791,-28.20376 3.12437,-40.45528 4.04166,-59.19779 0.93676,-19.14031 1.80809,-24.45316 4.2668,-26.01655 1.99184,-1.26652 16.15125,-0.90078 17.97658,0.46434 1.45515,1.08827 6.30605,14.59821 18.58144,51.75 3.37834,10.22463 4.01744,12.29461 6.63804,21.5 0.93945,3.3 2.02496,7.09687 2.41224,8.4375 0.38728,1.34062 1.19593,2.60143 1.797,2.80179 1.08101,0.36033 1.42798,-0.52878 4.77621,-12.23929 1.77442,-6.20611 8.30159,-25.97563 10.89538,-33 4.76915,-12.91559 9.97803,-27.63961 11.25162,-31.8051 2.31802,-7.58153 4.00414,-8.6949 13.1678,-8.6949 11.76381,0 11.56014,-0.30783 12.35103,18.6675 0.93138,22.34598 3.63651,67.25567 4.26659,70.8325 0.76996,4.37092 0.90062,26.50623 0.16082,27.24602 -0.34617,0.34617 -3.21285,0.81627 -6.3704,1.04467 -4.54577,0.32881 -6.20042,0.0295 -7.94773,-1.43771 -2.3875,-2.00477 -2.86889,-7.87882 -5.27387,-64.35298 -0.48015,-11.275 -0.90052,-20.9125 -0.93415,-21.41667 -0.13592,-2.03718 -1.17931,0.58681 -4.95822,12.46924 -2.17722,6.84608 -7.40028,22.34743 -11.6068,34.44743 -4.20651,12.1 -8.77615,25.375 -10.15475,29.5 -1.37861,4.125 -3.41924,8.2875 -4.53476,9.25 -3.51711,3.03468 -11.83007,2.0678 -13.62077,-1.58423 C 552.60179,439.4746 549.57912,430.4 546.46883,420.5 c -3.11029,-9.9 -6.69472,-21.15 -7.9654,-25 -2.96611,-8.98696 -10.0758,-32.09996 -11.0738,-36 -0.75321,-2.94342 -0.78197,-2.91513 -1.52454,1.5 -0.41626,2.475 -0.7902,9.48435 -0.83097,15.57632 -0.0408,6.09198 -0.50511,15.76698 -1.03187,21.5 -0.52676,5.73303 -1.25147,17.56089 -1.61046,26.28414 -0.76766,18.65348 -1.26773,19.71681 -9.18179,19.52354 -2.6125,-0.0638 -5.5375,-0.3218 -6.5,-0.57333 z m 147.61083,-0.77049 c -1.25095,-0.8762 -2.98565,-4.37439 -4.33901,-8.75 -1.24016,-4.0096 -3.26935,-10.44018 -4.50933,-14.29018 -2.87952,-8.94063 -10.38452,-32.92679 -11.73332,-37.5 -0.56775,-1.925 -1.61664,-5.3 -2.33086,-7.5 -0.71422,-2.2 -3.17567,-10.075 -5.4699,-17.5 -2.29422,-7.425 -5.02791,-16.16182 -6.07486,-19.41516 -3.39148,-10.5388 -2.71988,-11.54341 7.73567,-11.57119 8.33118,-0.0221 7.92782,-0.77352 17.97623,33.48635 0.80657,2.75 1.86683,6.35 2.35613,8 3.8658,13.03605 9.48624,32.1327 11.47831,39 0.79772,2.75 1.70641,6.2375 2.01931,7.75 0.87428,4.22615 2.09255,3.30411 3.96378,-3 8.7604,-29.5135 26.04389,-81.15814 27.87701,-83.29908 1.30772,-1.5273 2.95763,-1.95092 7.59844,-1.95092 7.42307,0 9.09157,0.63407 9.09157,3.45504 0,1.23258 -3.63744,12.77194 -8.08319,25.64301 -4.44576,12.87107 -9.81849,28.57695 -11.93941,34.90195 -13.92572,41.52933 -17.2623,50.63113 -19.15402,52.25 -2.6223,2.24408 -13.4017,2.43408 -16.46255,0.29018 z M 195.96028,284.25 l -3.07127,-2.75 1.43716,-5.5 c 23.74329,-90.8653 71.75894,-175.05756 119.28588,-209.159897 9.40055,-6.745244 20.12735,-12.276707 27.56337,-14.213546 4.33898,-1.130159 17.44816,-1.430265 66.3658,-1.519302 66.81234,-0.121606 83.93023,0.600618 92.78831,3.914847 13.66571,5.113 25.74691,18.32118 36.10944,39.477898 9.20703,18.79756 14.85628,36.15136 24.57783,75.5 2.78562,11.275 5.6993,22.975 6.47483,26 0.77553,3.025 2.15411,8.65 3.0635,12.5 0.90939,3.85 2.02051,8.125 2.46915,9.5 0.44865,1.375 1.58832,5.0875 2.53261,8.25 0.94429,3.1625 2.24566,5.75 2.89194,5.75 1.97405,0 5.89453,-6.20116 6.61861,-10.46886 0.60095,-3.54204 14.34898,-49.71442 31.36773,-105.34767 8.03606,-26.269358 13.64997,-36.418084 27.23338,-49.231983 8.49398,-8.012796 19.52176,-13.913107 32.89954,-17.602604 9.71468,-2.679239 10.6482,-2.747407 42.68122,-3.11667 29.88014,-0.344447 33.10737,-0.219541 36.83641,1.425707 l 4.08711,1.803228 -0.68012,5.519426 C 759.11864,58.016258 758.74225,60.95 758.65629,61.5 c -0.086,0.55 0.51871,0.794593 1.34371,0.543541 0.825,-0.251052 4.61103,-0.628362 8.4134,-0.838465 6.52426,-0.360503 7.12493,-0.602175 10.6716,-4.293541 7.19575,-7.489334 6.74144,-5.530514 -3.44565,14.856576 -11.63019,23.275123 -40.30922,74.873259 -59.3232,106.731889 -1.64127,2.75 -7.77014,12.31621 -13.61973,21.25825 -32.50608,49.69085 -56.18178,73.14995 -80.09536,79.36264 -6.53589,1.69801 -12.14349,1.8462 -70.45672,1.86197 -69.07622,0.0187 -69.13269,0.0146 -81.08511,-5.82476 -6.59552,-3.22225 -18.41091,-14.53678 -23.38476,-22.39347 -11.5364,-18.22286 -21.76159,-46.65652 -31.02213,-86.26463 -2.89372,-12.37669 -11.46453,-46.80925 -13.19255,-53 -0.92112,-3.3 -2.01704,-7.40942 -2.43537,-9.13205 -1.32333,-5.449319 -1.97556,-5.785067 -5.24501,-2.69995 -4.23779,3.99887 -22.2498,24.49493 -28.85287,32.832 -11.71363,14.78969 -10.97898,13.15129 -22.41985,50 -14.22498,45.81573 -16.43808,52.06662 -21.29528,60.14825 -9.23569,15.36675 -19.75106,25.60578 -32.74504,31.8845 C 273.82115,284.57575 258.33095,287 223.58388,287 h -24.55233 z m 484.64671,-5.83179 C 680.27314,277.54823 680,274.39383 680,271.40843 c 0,-4.19052 -0.45596,-5.81841 -2,-7.14046 -1.1,-0.94185 -2,-2.29858 -2,-3.01496 0,-2.1413 5.07412,-3.47304 10,-2.62459 2.475,0.42631 5.65206,0.66697 7.06013,0.5348 2.75787,-0.25887 4.82688,1.56639 7.05708,6.22567 1.95423,4.08273 3.08303,3.76843 4.98813,-1.38889 1.51929,-4.11291 1.95185,-4.5 5.02847,-4.5 H 713.5 l 0.7941,8 c 0.91459,9.21387 -0.0246,12.5 -3.57266,12.5 -1.27679,0 -2.80839,-0.48695 -3.40354,-1.0821 -0.77614,-0.77614 -1.68094,-0.70812 -3.2,0.24054 -1.70525,1.06495 -2.50758,1.07929 -4.1179,0.0736 -1.59951,-0.99891 -2.40118,-0.99848 -4.00346,0.002 -3.76852,2.35348 -5.45905,-0.0275 -5.79173,-8.15727 -0.3802,-9.29094 -2.56709,-9.31707 -3.00802,-0.0359 -0.16677,3.51026 -0.78437,6.96204 -1.37245,7.67063 -1.48008,1.78339 -4.48526,1.61437 -5.21735,-0.29344 z"
       id="path85"
       inkscape:connector-curvature="0" />
    <path
       style="fill:#67c7ef"
       d="m 196.30433,444.044 c -6.50194,-3.96448 -8.93491,-11.80555 -5.74736,-18.52282 2.33592,-4.92257 6.69733,-7.51272 12.65823,-7.51744 14.05057,-0.0111 18.25351,20.27518 5.45856,26.34678 -4.58225,2.17442 -8.45809,2.07837 -12.36943,-0.30652 z m 549.66852,0.14146 c -19.18535,-5.38078 -32.48595,-18.94038 -37.47887,-38.20869 -7.66696,-29.58777 4.15121,-60.76002 27.58698,-72.7649 9.5039,-4.86834 15.77322,-6.18651 29.48754,-6.2 11.85552,-0.0117 20.99099,1.60603 24.28781,4.30083 1.94903,1.59313 0.87463,9.4008 -1.63961,11.91505 -1.91008,1.91008 -2.23069,1.93138 -6.86021,0.45576 -11.61488,-3.70213 -26.43766,-2.90471 -36.00732,1.93709 -6.79971,3.44035 -13.76844,10.81741 -16.89322,17.8831 -1.32395,2.99367 -3.13323,9.41157 -4.02062,14.26199 -1.48052,8.09236 -1.48192,9.58113 -0.017,18.06973 3.11144,18.02987 11.2543,28.5178 26.00984,33.50045 6.40525,2.16292 22.64231,2.2562 28.57186,0.16413 8.47572,-2.99041 11.06322,-1.58899 11.33414,6.13868 0.14515,4.14026 -0.1463,4.88093 -2.33414,5.93175 -5.89673,2.8322 -10.23557,3.60619 -22.5,4.0137 -10.51989,0.34955 -14.24523,0.0827 -19.52715,-1.39867 z M 224.2,441.8 c -0.90436,-0.90436 -1.2,-14.80405 -1.2,-56.41821 0,-30.37002 0.27314,-55.93002 0.60699,-56.8 C 224.11313,327.2628 226.17864,327 236.03923,327 h 11.82526 l 6.90117,11.25 c 14.08141,22.95494 26.15414,43.53419 31.23888,53.25 2.87841,5.5 5.74242,10.9 6.36447,12 0.86227,1.5248 1.24979,-7.26634 1.63099,-37 l 0.5,-39 h 9.5 9.5 v 57.5 57.5 l -10.56608,0.28197 c -9.12206,0.24343 -10.77213,0.0384 -12.0737,-1.5 -3.07795,-3.63807 -39.85831,-66.98819 -43.87533,-75.57043 -1.23272,-2.63365 -2.49351,-4.53625 -2.80177,-4.22799 -0.30826,0.30825 -0.43884,17.83652 -0.29018,38.9517 0.18896,26.84017 -0.0657,39.0191 -0.84651,40.47799 -0.99398,1.85727 -2.02572,2.08676 -9.38161,2.08676 -5.09486,0 -8.72508,-0.46026 -9.46482,-1.2 z m 102,0 c -1.73178,-1.73178 -1.73178,-111.86822 0,-113.6 0.91162,-0.91162 18.90956,-1.2 74.89301,-1.2 66.2759,0 73.75411,0.15921 74.3,1.58179 0.98993,2.5797 0.6909,13.39291 -0.42819,15.48395 -0.95022,1.77549 -2.22252,1.93426 -15.5,1.93426 -7.95565,0 -14.56639,0.1125 -14.69053,0.25 -0.12414,0.1375 -0.46164,21.85 -0.75,48.25 L 443.5,442.5 H 433 422.5 l -0.52429,-48 c -0.28836,-26.4 -0.62586,-48.11811 -0.75,-48.26247 -0.12414,-0.14436 -16.53821,-0.14436 -36.47571,0 L 348.5,346.5 v 14 14 l 19,0.5 c 10.45,0.275 19.5625,0.86406 20.25,1.30902 1.65737,1.07267 1.69912,14.84186 0.05,16.49098 -0.85055,0.85055 -6.82816,1.2 -20.52673,1.2 h -19.32674 l 0.27674,14.75 0.27673,14.75 22.45596,0.5 22.45596,0.5 0.69436,2.5 c 1.08324,3.90014 1.0025,11.92822 -0.14146,14.06574 C 392.9737,442.91767 391.53497,443 360.16482,443 336.0144,443 327.0845,442.6845 326.2,441.8 Z m 179.11221,-0.42877 c -0.34376,-0.89582 -0.1054,-8.43332 0.52969,-16.75 0.63508,-8.31667 1.39291,-19.39623 1.68405,-24.62123 0.59125,-10.61059 1.84996,-29.51126 3.56289,-53.5 0.62837,-8.8 1.55628,-16.7875 2.06201,-17.75 0.76998,-1.4654 2.35754,-1.75 9.76189,-1.75 5.88678,0 9.16855,0.41782 9.81821,1.25 1.36889,1.75346 21.52903,62.12562 24.79439,74.25 3.57923,13.28977 3.90655,13.79544 5.8771,9.07924 0.87866,-2.10292 1.59756,-4.34153 1.59756,-4.97469 0,-1.33912 9.35867,-30.17819 13.82575,-42.60455 1.68059,-4.675 5.11963,-14.31874 7.64231,-21.43053 2.52268,-7.11179 5.07948,-13.52429 5.68176,-14.25 1.48207,-1.78578 18.17632,-1.84487 19.62586,-0.0695 0.93129,1.14065 1.78846,12.66473 4.22113,56.75 0.47042,8.525 1.39725,24.36006 2.05964,35.18902 0.66238,10.82896 0.93477,20.39146 0.60532,21.25 -0.45582,1.18785 -2.10046,1.55732 -6.88039,1.54567 -3.45476,-0.008 -6.94239,-0.43336 -7.75029,-0.94431 -1.13164,-0.7157 -1.63371,-4.44324 -2.18669,-16.23469 -0.39478,-8.41813 -1.18764,-23.40569 -1.7619,-33.30569 -0.57427,-9.9 -1.05276,-22.36094 -1.06331,-27.69098 -0.0204,-10.31017 -1.2664,-13.30515 -2.94928,-7.08919 -1.51768,5.6058 -8.00299,25.12437 -16.04173,48.28017 -3.91422,11.275 -8.03043,23.2 -9.14715,26.5 -3.29282,9.73058 -4.05639,10.5 -10.42026,10.5 -6.57444,0 -5.95861,1.01854 -13.30175,-22 -12.57385,-39.41522 -16.19913,-51.02124 -18.08337,-57.89243 -1.11494,-4.06583 -2.24118,-7.60643 -2.50274,-7.868 -0.93904,-0.93903 -1.43211,4.63473 -2.54423,28.76043 -2.04935,44.45709 -2.87821,56.11377 -4.09422,57.57897 -1.77852,2.14299 -13.78565,1.97241 -14.62225,-0.20774 z m 148.19803,0.64533 c -0.33429,-0.54089 -1.4401,-3.57839 -2.45736,-6.75 -3.14073,-9.79215 -13.06572,-41.36152 -15.48875,-49.26656 -2.94953,-9.62269 -9.74409,-31.32916 -14.34427,-45.82538 -3.02754,-9.54048 -3.36747,-11.46869 -2.15691,-12.23469 2.33262,-1.47598 14.52127,-1.14584 15.82804,0.42872 0.97908,1.17971 4.35577,11.18341 7.13277,21.13135 0.46061,1.65 1.51183,5.25 2.33605,8 11.1916,37.34064 16.07496,54.13854 17.07934,58.75 0.32943,1.5125 0.97078,2.75 1.42523,2.75 0.45446,0 2.05019,-4.1625 3.54607,-9.25 4.32528,-14.71027 21.47224,-67.56106 24.41418,-75.25 l 2.67834,-7 7.76365,-0.29234 c 5.85034,-0.22029 7.89293,0.0446 8.28821,1.07463 0.53745,1.40058 -1.31036,7.28004 -11.06834,35.21771 -3.07364,8.8 -7.33387,21.175 -9.46717,27.5 -12.28452,36.4222 -16.28598,47.73333 -17.5997,49.75 -1.31621,2.02048 -2.27342,2.25 -9.38366,2.25 -4.35486,0 -8.19143,-0.44255 -8.52572,-0.98344 z M 198.37502,283.53489 c -0.30922,-0.80581 0.98926,-4.06831 2.8855,-7.25 1.89625,-3.18169 6.5062,-11.63489 10.24434,-18.78489 3.73814,-7.15 8.47495,-16.15 10.52624,-20 2.23776,-4.2 5.80394,-14.2 8.91544,-25 5.37618,-18.66069 14.25492,-43.31569 20.43677,-56.75 1.96141,-4.2625 3.19979,-7.75 2.75196,-7.75 -0.44783,0 -1.34125,1.0125 -1.98538,2.25 -0.64412,1.2375 -2.06107,3.6 -3.14877,5.25 -1.0877,1.65 -2.3245,3.675 -2.74844,4.5 -2.50879,4.88223 -7.69245,12.1807 -7.99869,11.26198 -0.47927,-1.43782 8.20021,-18.63741 16.16379,-32.03079 25.11413,-42.23765 56.22492,-73.781556 81.90337,-83.043584 10.4015,-3.751745 17.70121,-4.538492 29.99117,-3.232382 10.62013,1.12865 18.13305,3.76105 21.7636,7.625594 1.24999,1.33055 2.98177,2.405753 3.84839,2.38934 0.9589,-0.01816 -0.14733,-1.519268 -2.82601,-3.834797 -3.89607,-3.367867 -4.18325,-3.889394 -2.5,-4.540006 1.04593,-0.404277 19.72304,-1.204783 41.50468,-1.778901 44.7808,-1.180329 45.51965,-1.102031 56.4438,5.9815 7.20335,4.670861 13.30164,10.507141 20.34898,19.474716 2.90774,3.700032 5.51028,6.72733 5.78342,6.72733 0.27314,0 0.19899,-1.761615 -0.16477,-3.9147 l -0.66138,-3.9147 4.07348,0.546369 c 4.57511,0.61365 5.05972,-0.302752 2.62663,-4.966969 -3.86496,-7.409115 5.06041,1.50639 11.60777,11.594943 11.52774,17.762597 20.03786,42.193557 33.81121,97.065597 10.22518,40.73638 13.74705,52.72126 15.67021,53.32546 2.24799,0.70625 36.70727,-39.74385 41.09206,-48.236 1.44197,-2.7927 7.88462,-27.04537 8.63353,-32.5 0.5306,-3.86459 0.44234,-4.21167 -0.62504,-2.45802 -4.52575,7.43555 -5.90599,8.45802 -11.41752,8.45802 -5.15883,0 -5.33903,0.0969 -6.83489,3.67705 -1.01984,2.44083 -1.87113,3.34229 -2.53209,2.68133 -1.14064,-1.14064 1.0022,-9.95957 10.17085,-41.85838 7.11801,-24.764412 10.18645,-32.526948 16.89977,-42.753025 12.16452,-18.529648 31.38397,-29.59267 57.95349,-33.358961 13.43516,-1.904465 60.87302,-1.928114 61.60113,-0.03071 0.28646,0.746518 -1.01962,4.009018 -2.90241,7.25 -12.12735,20.875682 -38.33987,75.916706 -37.43998,78.616396 0.20784,0.6235 1.89913,-0.98466 3.75843,-3.57369 1.8593,-2.58903 4.3075,-4.89213 5.44044,-5.11799 5.31481,-1.05957 7.64584,-1.20199 8.08348,-0.49387 0.50391,0.81534 -4.62071,16.11958 -9.56719,28.57164 -3.89527,9.80577 -3.88506,11.65411 0.0436,7.89021 1.65,-1.5808 3,-2.555 3,-2.16489 0,1.4243 -8.41453,17.39257 -14.30597,27.14846 -16.90936,28.00096 -32.39077,49.06383 -47.68736,64.87993 -10.8972,11.2673 -18.77932,17.52586 -27.73751,22.02415 -10.92722,5.48702 -12.35256,5.58457 -81.26916,5.56195 -65.90351,-0.0216 -68.533,-0.1659 -78.06712,-4.28317 C 467.64375,271.9505 458.2205,264.07986 453.01256,257.19304 444.60992,246.0816 432.0113,218.20244 428.0708,202 c -0.46817,-1.925 -2.42085,-9.8 -4.33929,-17.5 -1.91845,-7.7 -4.26087,-17.6 -5.20539,-22 -3.09398,-14.41317 -6.08261,-25.56803 -15.53099,-57.96839 -2.19888,-7.540366 -3.97358,-8.831876 -7.55516,-5.498146 -3.95677,3.682956 -25.76732,28.786996 -33.13586,38.139536 -8.42961,10.69929 -9.07102,12.08885 -15.61427,33.827 -17.46749,58.031 -19.69516,64.4616 -25.84679,74.61175 C 312.49769,259.38153 301.61288,269.45969 288.5,275.55791 272.54141,282.97954 258.84114,285 224.4752,285 c -21.50762,0 -25.6267,-0.23122 -26.10018,-1.46511 z m 167.13753,-174.553 c 1.53151,-2.20997 2.55259,-4.25008 2.26908,-4.53359 -0.63327,-0.63328 -6.78163,6.24478 -6.78163,7.5865 0,2.0469 1.84197,0.80074 4.51255,-3.05291 z m 342.64213,168.95376 c -1.65107,-1.77222 -2.00207,-1.82446 -3.1296,-0.46587 -1.83618,2.21246 -4.76806,1.87899 -6.14789,-0.69925 l -1.19318,-2.22948 -0.99482,2.22948 c -1.0525,2.35873 -4.09728,2.99622 -5.26745,1.10285 -0.38296,-0.61965 -0.61823,-4.21965 -0.52283,-8 C 691.03827,264.3513 690.77727,263 689.57137,263 687.25437,263 686,266.32461 686,272.46564 c 0,4.15943 -0.40256,5.75161 -1.56722,6.19853 -2.65036,1.01704 -3.90515,-1.46839 -3.93393,-7.79208 -0.0208,-4.57055 -0.45291,-6.36533 -1.7632,-7.32344 C 675.10512,260.89394 677.30654,259 684.02277,259 c 2.12256,0 4.13791,0.45097 4.47857,1.00217 0.34843,0.56378 2.25724,0.74026 4.3636,0.40344 3.61327,-0.57779 3.80893,-0.45525 5.59411,3.50358 3.06837,6.80442 4.22767,7.05841 6.68447,1.46451 2.83441,-6.45367 4.48705,-7.60028 7.1362,-4.95112 1.42545,1.42545 2.2444,13.24537 1.15949,16.73504 -0.80912,2.60257 -3.24992,2.96193 -5.28453,0.77803 z"
       id="path83"
       inkscape:connector-curvature="0" />
    <path
       style="fill:#55b1e2"
       d="m 196.30433,444.044 c -6.50194,-3.96448 -8.93491,-11.80555 -5.74736,-18.52282 2.33592,-4.92257 6.69733,-7.51272 12.65823,-7.51744 14.05057,-0.0111 18.25351,20.27518 5.45856,26.34678 -4.58225,2.17442 -8.45809,2.07837 -12.36943,-0.30652 z m 549.66852,0.14146 c -19.18535,-5.38078 -32.48595,-18.94038 -37.47887,-38.20869 -7.66696,-29.58777 4.15121,-60.76002 27.58698,-72.7649 9.5039,-4.86834 15.77322,-6.18651 29.48754,-6.2 11.85552,-0.0117 20.99099,1.60603 24.28781,4.30083 1.94903,1.59313 0.87463,9.4008 -1.63961,11.91505 -1.91008,1.91008 -2.23069,1.93138 -6.86021,0.45576 -11.61488,-3.70213 -26.43766,-2.90471 -36.00732,1.93709 -6.79971,3.44035 -13.76844,10.81741 -16.89322,17.8831 -1.32395,2.99367 -3.13323,9.41157 -4.02062,14.26199 -1.48052,8.09236 -1.48192,9.58113 -0.017,18.06973 3.11144,18.02987 11.2543,28.5178 26.00984,33.50045 6.40525,2.16292 22.64231,2.2562 28.57186,0.16413 8.47572,-2.99041 11.06322,-1.58899 11.33414,6.13868 0.14515,4.14026 -0.1463,4.88093 -2.33414,5.93175 -5.89673,2.8322 -10.23557,3.60619 -22.5,4.0137 -10.51989,0.34955 -14.24523,0.0827 -19.52715,-1.39867 z M 224.2,441.8 c -0.90436,-0.90436 -1.2,-14.80405 -1.2,-56.41821 0,-30.37002 0.27314,-55.93002 0.60699,-56.8 C 224.11313,327.2628 226.17864,327 236.03923,327 h 11.82526 l 6.90117,11.25 c 14.08141,22.95494 26.15414,43.53419 31.23888,53.25 2.87841,5.5 5.74242,10.9 6.36447,12 0.86227,1.5248 1.24979,-7.26634 1.63099,-37 l 0.5,-39 h 9.5 9.5 v 57.5 57.5 l -10.56608,0.28197 c -9.12206,0.24343 -10.77213,0.0384 -12.0737,-1.5 -3.07795,-3.63807 -39.85831,-66.98819 -43.87533,-75.57043 -1.23272,-2.63365 -2.49351,-4.53625 -2.80177,-4.22799 -0.30826,0.30825 -0.43884,17.83652 -0.29018,38.9517 0.18896,26.84017 -0.0657,39.0191 -0.84651,40.47799 -0.99398,1.85727 -2.02572,2.08676 -9.38161,2.08676 -5.09486,0 -8.72508,-0.46026 -9.46482,-1.2 z m 102,0 c -1.73178,-1.73178 -1.73178,-111.86822 0,-113.6 0.91162,-0.91162 18.90956,-1.2 74.89301,-1.2 66.2759,0 73.75411,0.15921 74.3,1.58179 0.98993,2.5797 0.6909,13.39291 -0.42819,15.48395 -0.95022,1.77549 -2.22252,1.93426 -15.5,1.93426 -7.95565,0 -14.56639,0.1125 -14.69053,0.25 -0.12414,0.1375 -0.46164,21.85 -0.75,48.25 L 443.5,442.5 H 433 422.5 l -0.52429,-48 c -0.28836,-26.4 -0.62586,-48.11811 -0.75,-48.26247 -0.12414,-0.14436 -16.53821,-0.14436 -36.47571,0 L 348.5,346.5 v 14 14 l 19,0.5 c 10.45,0.275 19.5625,0.86406 20.25,1.30902 1.65737,1.07267 1.69912,14.84186 0.05,16.49098 -0.85055,0.85055 -6.82816,1.2 -20.52673,1.2 h -19.32674 l 0.27674,14.75 0.27673,14.75 22.45596,0.5 22.45596,0.5 0.69436,2.5 c 1.08324,3.90014 1.0025,11.92822 -0.14146,14.06574 C 392.9737,442.91767 391.53497,443 360.16482,443 336.0144,443 327.0845,442.6845 326.2,441.8 Z m 179.11221,-0.42877 c -0.34376,-0.89582 -0.1054,-8.43332 0.52969,-16.75 0.63508,-8.31667 1.39291,-19.39623 1.68405,-24.62123 0.59125,-10.61059 1.84996,-29.51126 3.56289,-53.5 0.62837,-8.8 1.55628,-16.7875 2.06201,-17.75 0.76998,-1.4654 2.35754,-1.75 9.76189,-1.75 5.88678,0 9.16855,0.41782 9.81821,1.25 1.36889,1.75346 21.52903,62.12562 24.79439,74.25 3.57923,13.28977 3.90655,13.79544 5.8771,9.07924 0.87866,-2.10292 1.59756,-4.34153 1.59756,-4.97469 0,-1.33912 9.35867,-30.17819 13.82575,-42.60455 1.68059,-4.675 5.11963,-14.31874 7.64231,-21.43053 2.52268,-7.11179 5.07948,-13.52429 5.68176,-14.25 1.48207,-1.78578 18.17632,-1.84487 19.62586,-0.0695 0.93129,1.14065 1.78846,12.66473 4.22113,56.75 0.47042,8.525 1.39725,24.36006 2.05964,35.18902 0.66238,10.82896 0.93477,20.39146 0.60532,21.25 -0.45582,1.18785 -2.10046,1.55732 -6.88039,1.54567 -3.45476,-0.008 -6.94239,-0.43336 -7.75029,-0.94431 -1.13164,-0.7157 -1.63371,-4.44324 -2.18669,-16.23469 -0.39478,-8.41813 -1.18764,-23.40569 -1.7619,-33.30569 -0.57427,-9.9 -1.05276,-22.36094 -1.06331,-27.69098 -0.0204,-10.31017 -1.2664,-13.30515 -2.94928,-7.08919 -1.51768,5.6058 -8.00299,25.12437 -16.04173,48.28017 -3.91422,11.275 -8.03043,23.2 -9.14715,26.5 -3.29282,9.73058 -4.05639,10.5 -10.42026,10.5 -6.57444,0 -5.95861,1.01854 -13.30175,-22 -12.57385,-39.41522 -16.19913,-51.02124 -18.08337,-57.89243 -1.11494,-4.06583 -2.24118,-7.60643 -2.50274,-7.868 -0.93904,-0.93903 -1.43211,4.63473 -2.54423,28.76043 -2.04935,44.45709 -2.87821,56.11377 -4.09422,57.57897 -1.77852,2.14299 -13.78565,1.97241 -14.62225,-0.20774 z m 148.19803,0.64533 c -0.33429,-0.54089 -1.4401,-3.57839 -2.45736,-6.75 -3.14073,-9.79215 -13.06572,-41.36152 -15.48875,-49.26656 -2.94953,-9.62269 -9.74409,-31.32916 -14.34427,-45.82538 -3.02754,-9.54048 -3.36747,-11.46869 -2.15691,-12.23469 2.33262,-1.47598 14.52127,-1.14584 15.82804,0.42872 0.97908,1.17971 4.35577,11.18341 7.13277,21.13135 0.46061,1.65 1.51183,5.25 2.33605,8 11.1916,37.34064 16.07496,54.13854 17.07934,58.75 0.32943,1.5125 0.97078,2.75 1.42523,2.75 0.45446,0 2.05019,-4.1625 3.54607,-9.25 4.32528,-14.71027 21.47224,-67.56106 24.41418,-75.25 l 2.67834,-7 7.76365,-0.29234 c 5.85034,-0.22029 7.89293,0.0446 8.28821,1.07463 0.53745,1.40058 -1.31036,7.28004 -11.06834,35.21771 -3.07364,8.8 -7.33387,21.175 -9.46717,27.5 -12.28452,36.4222 -16.28598,47.73333 -17.5997,49.75 -1.31621,2.02048 -2.27342,2.25 -9.38366,2.25 -4.35486,0 -8.19143,-0.44255 -8.52572,-0.98344 z M 208.5035,284.25225 c -4.39808,-0.18989 -8.39091,-0.73966 -8.87296,-1.22171 -0.50193,-0.50193 -0.0196,-2.08447 1.12888,-3.7035 1.10294,-1.55487 7.0501,-12.41517 13.21593,-24.13399 10.32176,-19.61764 11.87463,-23.32754 19.58612,-46.79222 13.71292,-41.72593 26.08568,-68.27287 45.56534,-97.76478 2.13025,-3.22518 3.87793,-6.60018 3.88373,-7.5 0.0149,-2.30765 14.72531,-19.516547 22.56231,-26.394363 12.81864,-11.24974 27.44128,-19.595191 39.18385,-22.36305 9.18124,-2.164124 26.05263,-1.454751 32.30735,1.358392 4.95843,2.230118 13.68147,8.256562 18.33268,12.665411 l 3.062,2.90244 4.52063,-2.507381 c 2.48635,-1.379061 8.12064,-4.60923 12.52064,-7.178155 9.9,-5.780082 15.12149,-7.386182 28.5,-8.766436 14.22275,-1.467354 25.71815,-0.593046 32.3136,2.457682 17.81338,8.239579 30.86953,25.265708 44.62142,58.18941 7.36766,17.63906 8.52177,19.20656 11.89422,16.15454 0.96511,-0.87342 3.08585,-1.49049 4.71275,-1.37128 2.88108,0.2111 2.95003,0.10866 2.65107,-3.93905 -0.16881,-2.28569 0.14293,-4.43383 0.69275,-4.77364 1.6753,-1.03539 6.96282,13.14937 12.08843,32.42943 0.51176,1.925 1.61351,5.975 2.44832,9 2.35183,8.522 3.36104,12.3456 7.61955,28.86833 4.8918,18.97984 10.8119,39.71715 12.22197,42.81191 0.58132,1.27587 1.85339,2.31976 2.82681,2.31976 3.11608,0 28.84034,-29.27752 38.94487,-44.32428 2.15119,-3.20335 4.32491,-7.25335 4.83049,-9 0.50557,-1.74664 2.97416,-10.15072 5.48574,-18.67572 5.24744,-17.81128 11.0826,-39.70758 12.0989,-45.40083 l 0.69633,-3.90083 -3.22797,2.71615 c -2.48799,2.09351 -4.10093,2.65313 -7.03602,2.44121 -4.31359,-0.31145 -7.87014,2.28428 -9.92414,7.24308 -1.26651,3.05761 -3.66078,4.16189 -2.49605,1.15122 0.37236,-0.9625 0.92277,-3.1 1.22313,-4.75 1.2438,-6.83277 5.55484,-21.4 7.9904,-27 3.18088,-7.313688 10.40721,-18.810729 14.67468,-23.347325 1.73181,-1.841029 5.9179,-5.337095 9.30242,-7.769036 C 667.69245,52.140442 690.24392,46.989713 726.70481,47.013655 747.44021,47.02727 752,47.412612 752,49.151319 c 0,0.504931 -2.08435,4.591428 -4.63188,9.081104 C 732.23539,84.901756 695.9719,160.88355 692.59351,173 c -0.66414,2.3819 -0.62484,2.40978 0.83183,0.59016 5.05333,-6.31242 6.8281,-7.75715 8.87248,-7.22253 1.36598,0.35721 3.28461,-0.33723 5.40946,-1.95794 2.06585,-1.57569 3.28543,-2.02676 3.27316,-1.21058 -0.0108,0.71549 -2.03576,6.22248 -4.5,12.23776 -4.19738,10.24591 -5.49499,14.46916 -3.70646,12.06313 1.64807,-2.21707 6.22602,-5.78349 6.22602,-4.85033 0,1.19074 -12.49009,22.22606 -18.28727,30.79871 -21.26295,31.4428 -43.54051,54.01019 -60.21273,60.99609 -9.98675,4.18459 -15.49764,4.55817 -66.31538,4.49538 -26.77654,-0.0331 -56.44022,-0.41124 -65.91929,-0.84035 l -17.23468,-0.7802 -7.76532,-3.83469 C 456.3714,265.142 444.09669,247.2675 433.44634,215.5 429.06007,202.41677 424,180.24878 424,174.11589 c 0,-2.36479 9.82259,-2.1843 11.15974,0.20507 0.5168,0.92347 1.39485,1.67904 1.95122,1.67904 1.3202,0 0.31948,-6.86556 -2.73604,-18.77114 C 431.92027,147.66456 423.86423,129 422.19071,129 c -0.5202,0 -1.50602,0.675 -2.19071,1.5 -3.82739,4.61172 -7.19563,-0.26658 -13.46383,-19.5 -4.50895,-13.835319 -4.77835,-14.407183 -6.99223,-14.842365 -2.18829,-0.430155 -4.65917,1.908245 -20.86131,19.742795 -7.19529,7.92023 -13.24469,13.91338 -13.44312,13.31809 -0.19843,-0.59528 0.79151,-3.24689 2.19986,-5.89247 C 369.14764,120.11707 370,116.942 370,113.78759 c 0,-2.91939 0.95643,-6.81929 2.5,-10.19388 1.375,-3.00605 2.5,-5.730947 2.5,-6.055313 0,-1.368165 -5.80977,2.624453 -9.64954,6.631393 -5.75565,6.00625 -21.12044,25.48472 -23.05781,29.23118 l -1.59798,3.09015 4.40267,-3.5901 c 4.39302,-3.58223 8.88893,-6.35897 9.28093,-5.73204 0.11384,0.18206 1.24154,2.41113 2.50599,4.95349 2.23072,4.4852 2.24774,4.72278 0.57298,8 -0.94931,1.85764 -2.50383,4.50253 -3.45451,5.87753 -0.95067,1.375 -3.76676,9.475 -6.25797,18 -9.01823,30.86068 -18.67857,61.65246 -21.56078,68.72384 -4.56074,11.18955 -11.37004,21.23526 -19.90516,29.36594 -11.94723,11.38111 -24.24432,16.89886 -46.65494,20.93424 -10.76713,1.93879 -26.11984,2.30766 -51.12038,1.22823 z m 499.65118,-6.3166 c -1.65107,-1.77222 -2.00207,-1.82446 -3.1296,-0.46587 -1.83618,2.21246 -4.76806,1.87899 -6.14789,-0.69925 l -1.19318,-2.22948 -0.99482,2.22948 c -1.0525,2.35873 -4.09728,2.99622 -5.26745,1.10285 -0.38296,-0.61965 -0.61823,-4.21965 -0.52283,-8 C 691.03827,264.3513 690.77727,263 689.57137,263 687.25437,263 686,266.32461 686,272.46564 c 0,4.15943 -0.40256,5.75161 -1.56722,6.19853 -2.65036,1.01704 -3.90515,-1.46839 -3.93393,-7.79208 -0.0208,-4.57055 -0.45291,-6.36533 -1.7632,-7.32344 C 675.10512,260.89394 677.30654,259 684.02277,259 c 2.12256,0 4.13791,0.45097 4.47857,1.00217 0.34843,0.56378 2.25724,0.74026 4.3636,0.40344 3.61327,-0.57779 3.80893,-0.45525 5.59411,3.50358 3.06837,6.80442 4.22767,7.05841 6.68447,1.46451 2.83441,-6.45367 4.48705,-7.60028 7.1362,-4.95112 1.42545,1.42545 2.2444,13.24537 1.15949,16.73504 -0.80912,2.60257 -3.24992,2.96193 -5.28453,0.77803 z"
       id="path81"
       inkscape:connector-curvature="0" />
    <path
       style="fill:#9f9f9f"
       d="m 196.30433,444.044 c -6.50194,-3.96448 -8.93491,-11.80555 -5.74736,-18.52282 2.33592,-4.92257 6.69733,-7.51272 12.65823,-7.51744 14.05057,-0.0111 18.25351,20.27518 5.45856,26.34678 -4.58225,2.17442 -8.45809,2.07837 -12.36943,-0.30652 z m 549.66852,0.14146 c -19.18535,-5.38078 -32.48595,-18.94038 -37.47887,-38.20869 -7.66696,-29.58777 4.15121,-60.76002 27.58698,-72.7649 9.5039,-4.86834 15.77322,-6.18651 29.48754,-6.2 11.85552,-0.0117 20.99099,1.60603 24.28781,4.30083 1.94903,1.59313 0.87463,9.4008 -1.63961,11.91505 -1.91008,1.91008 -2.23069,1.93138 -6.86021,0.45576 -11.61488,-3.70213 -26.43766,-2.90471 -36.00732,1.93709 -6.79971,3.44035 -13.76844,10.81741 -16.89322,17.8831 -1.32395,2.99367 -3.13323,9.41157 -4.02062,14.26199 -1.48052,8.09236 -1.48192,9.58113 -0.017,18.06973 3.11144,18.02987 11.2543,28.5178 26.00984,33.50045 6.40525,2.16292 22.64231,2.2562 28.57186,0.16413 8.47572,-2.99041 11.06322,-1.58899 11.33414,6.13868 0.14515,4.14026 -0.1463,4.88093 -2.33414,5.93175 -5.89673,2.8322 -10.23557,3.60619 -22.5,4.0137 -10.51989,0.34955 -14.24523,0.0827 -19.52715,-1.39867 z M 224.2,441.8 c -0.90436,-0.90436 -1.2,-14.80405 -1.2,-56.41821 0,-30.37002 0.27314,-55.93002 0.60699,-56.8 C 224.11313,327.2628 226.17864,327 236.03923,327 h 11.82526 l 6.90117,11.25 c 14.08141,22.95494 26.15414,43.53419 31.23888,53.25 2.87841,5.5 5.74242,10.9 6.36447,12 0.86227,1.5248 1.24979,-7.26634 1.63099,-37 l 0.5,-39 h 9.5 9.5 v 57.5 57.5 l -10.56608,0.28197 c -9.12206,0.24343 -10.77213,0.0384 -12.0737,-1.5 -3.07795,-3.63807 -39.85831,-66.98819 -43.87533,-75.57043 -1.23272,-2.63365 -2.49351,-4.53625 -2.80177,-4.22799 -0.30826,0.30825 -0.43884,17.83652 -0.29018,38.9517 0.18896,26.84017 -0.0657,39.0191 -0.84651,40.47799 -0.99398,1.85727 -2.02572,2.08676 -9.38161,2.08676 -5.09486,0 -8.72508,-0.46026 -9.46482,-1.2 z m 102,0 c -1.73178,-1.73178 -1.73178,-111.86822 0,-113.6 0.91162,-0.91162 18.90956,-1.2 74.89301,-1.2 66.2759,0 73.75411,0.15921 74.3,1.58179 0.98993,2.5797 0.6909,13.39291 -0.42819,15.48395 -0.95022,1.77549 -2.22252,1.93426 -15.5,1.93426 -7.95565,0 -14.56639,0.1125 -14.69053,0.25 -0.12414,0.1375 -0.46164,21.85 -0.75,48.25 L 443.5,442.5 H 433 422.5 l -0.52429,-48 c -0.28836,-26.4 -0.62586,-48.11811 -0.75,-48.26247 -0.12414,-0.14436 -16.53821,-0.14436 -36.47571,0 L 348.5,346.5 v 14 14 l 19,0.5 c 10.45,0.275 19.5625,0.86406 20.25,1.30902 1.65737,1.07267 1.69912,14.84186 0.05,16.49098 -0.85055,0.85055 -6.82816,1.2 -20.52673,1.2 h -19.32674 l 0.27674,14.75 0.27673,14.75 22.45596,0.5 22.45596,0.5 0.69436,2.5 c 1.08324,3.90014 1.0025,11.92822 -0.14146,14.06574 C 392.9737,442.91767 391.53497,443 360.16482,443 336.0144,443 327.0845,442.6845 326.2,441.8 Z m 179.11221,-0.42877 c -0.34376,-0.89582 -0.1054,-8.43332 0.52969,-16.75 0.63508,-8.31667 1.39291,-19.39623 1.68405,-24.62123 0.59125,-10.61059 1.84996,-29.51126 3.56289,-53.5 0.62837,-8.8 1.55628,-16.7875 2.06201,-17.75 0.76998,-1.4654 2.35754,-1.75 9.76189,-1.75 5.88678,0 9.16855,0.41782 9.81821,1.25 1.36889,1.75346 21.52903,62.12562 24.79439,74.25 3.57923,13.28977 3.90655,13.79544 5.8771,9.07924 0.87866,-2.10292 1.59756,-4.34153 1.59756,-4.97469 0,-1.33912 9.35867,-30.17819 13.82575,-42.60455 1.68059,-4.675 5.11963,-14.31874 7.64231,-21.43053 2.52268,-7.11179 5.07948,-13.52429 5.68176,-14.25 1.48207,-1.78578 18.17632,-1.84487 19.62586,-0.0695 0.93129,1.14065 1.78846,12.66473 4.22113,56.75 0.47042,8.525 1.39725,24.36006 2.05964,35.18902 0.66238,10.82896 0.93477,20.39146 0.60532,21.25 -0.45582,1.18785 -2.10046,1.55732 -6.88039,1.54567 -3.45476,-0.008 -6.94239,-0.43336 -7.75029,-0.94431 -1.13164,-0.7157 -1.63371,-4.44324 -2.18669,-16.23469 -0.39478,-8.41813 -1.18764,-23.40569 -1.7619,-33.30569 -0.57427,-9.9 -1.05276,-22.36094 -1.06331,-27.69098 -0.0204,-10.31017 -1.2664,-13.30515 -2.94928,-7.08919 -1.51768,5.6058 -8.00299,25.12437 -16.04173,48.28017 -3.91422,11.275 -8.03043,23.2 -9.14715,26.5 -3.29282,9.73058 -4.05639,10.5 -10.42026,10.5 -6.57444,0 -5.95861,1.01854 -13.30175,-22 -12.57385,-39.41522 -16.19913,-51.02124 -18.08337,-57.89243 -1.11494,-4.06583 -2.24118,-7.60643 -2.50274,-7.868 -0.93904,-0.93903 -1.43211,4.63473 -2.54423,28.76043 -2.04935,44.45709 -2.87821,56.11377 -4.09422,57.57897 -1.77852,2.14299 -13.78565,1.97241 -14.62225,-0.20774 z m 148.19803,0.64533 c -0.33429,-0.54089 -1.4401,-3.57839 -2.45736,-6.75 -3.14073,-9.79215 -13.06572,-41.36152 -15.48875,-49.26656 -2.94953,-9.62269 -9.74409,-31.32916 -14.34427,-45.82538 -3.02754,-9.54048 -3.36747,-11.46869 -2.15691,-12.23469 2.33262,-1.47598 14.52127,-1.14584 15.82804,0.42872 0.97908,1.17971 4.35577,11.18341 7.13277,21.13135 0.46061,1.65 1.51183,5.25 2.33605,8 11.1916,37.34064 16.07496,54.13854 17.07934,58.75 0.32943,1.5125 0.97078,2.75 1.42523,2.75 0.45446,0 2.05019,-4.1625 3.54607,-9.25 4.32528,-14.71027 21.47224,-67.56106 24.41418,-75.25 l 2.67834,-7 7.76365,-0.29234 c 5.85034,-0.22029 7.89293,0.0446 8.28821,1.07463 0.53745,1.40058 -1.31036,7.28004 -11.06834,35.21771 -3.07364,8.8 -7.33387,21.175 -9.46717,27.5 -12.28452,36.4222 -16.28598,47.73333 -17.5997,49.75 -1.31621,2.02048 -2.27342,2.25 -9.38366,2.25 -4.35486,0 -8.19143,-0.44255 -8.52572,-0.98344 z M 218.66118,283.76531 c -0.63865,-0.40408 -4.87368,-0.74158 -9.41118,-0.75 -4.56948,-0.008 -8.25,-0.4418 -8.25,-0.9713 0,-0.5258 1.31471,-3.18575 2.92158,-5.91101 7.95948,-13.49932 23.60629,-45.21431 27.50712,-55.75502 2.41765,-6.53289 5.78368,-15.25298 7.48008,-19.37798 1.6964,-4.125 3.08591,-8.06861 3.08779,-8.76357 0.002,-0.69496 0.42943,-2.04496 0.95009,-3 0.52066,-0.95504 1.87474,-4.56252 3.00907,-8.01663 4.29576,-13.08089 17.72735,-39.73538 24.64297,-48.90308 1.32072,-1.7508 2.4013,-3.59759 2.4013,-4.10398 0,-0.50638 1.15883,-2.1711 2.57518,-3.69936 1.41635,-1.52827 2.98021,-3.84398 3.47525,-5.14603 0.49504,-1.30204 1.47371,-2.37167 2.17482,-2.37696 0.70111,-0.005 4.9999,-5.37792 9.55285,-11.9392 4.55296,-6.561271 11.0996,-15.452917 14.54811,-19.759209 7.91482,-9.883574 8.26522,-10.44714 5.97573,-9.610961 -3.07484,1.123004 1.2919,-3.216593 8.16135,-8.110624 8.45151,-6.021143 17.38347,-10.327255 25.28669,-12.190756 9.06684,-2.137867 25.11098,-1.434479 31.34432,1.374159 5.11452,2.30452 17.62214,11.396355 19.63877,14.275497 C 396.49226,72.113183 397.5879,73 398.16783,73 c 0.57993,0 4.71691,-2.198956 9.19329,-4.886569 20.43687,-12.270265 26.63902,-14.172778 47.01575,-14.42213 l 14.30666,-0.175071 8.64413,4.283332 c 18.5422,9.188025 33.24361,30.703322 42.63121,62.390168 1.68,5.67065 3.77087,12.56027 4.64639,15.31027 2.25487,7.08252 11.35284,27.67217 13.12039,29.69279 1.38638,1.58488 1.61373,1.56894 3.56613,-0.25 2.73103,-2.54434 9.75946,-2.64864 11.99534,-0.17802 0.87841,0.97063 2.03345,3.55813 2.56676,5.75 0.53331,2.19188 1.43296,5.33523 1.99923,6.98523 0.56627,1.65 1.76696,5.925 2.66821,9.5 0.90124,3.575 2.27196,8.75 3.04605,11.5 0.77408,2.75 2.52161,9.05 3.88339,14 3.96713,14.42023 7.06715,22.79332 8.85687,23.92225 1.36605,0.86168 2.94136,-0.20591 8.7587,-5.9358 13.5977,-13.3933 36.05475,-41.78205 37.7914,-47.77342 0.51222,-1.76716 3.62033,-12.21303 6.90691,-23.21303 3.28657,-11 8.31032,-28.1 11.16389,-38 5.5977,-19.42034 9.01777,-29.292865 12.71955,-36.716756 1.29356,-2.594216 2.35192,-4.956716 2.35192,-5.25 0,-1.138023 -2.81854,-0.456811 -4,0.966756 -0.80741,0.97287 -3.02891,1.5 -6.32148,1.5 -4.8144,0 -5.32456,0.264117 -9.87756,5.113664 -2.64053,2.812515 -4.77935,4.725015 -4.75293,4.25 0.0459,-0.82547 0.73138,-2.171037 5.60731,-11.007052 2.44983,-4.439509 9.56689,-11.377969 16.65721,-16.239205 10.2526,-7.029346 20.31206,-10.340715 44.18745,-14.545616 11.91816,-2.099009 51.29031,-2.281797 52.07315,-0.241753 0.28071,0.731521 -1.138,4.219021 -3.1527,7.75 C 740.6122,67.259659 707.23541,133.74868 698.26964,153 682.44058,186.9882 667,221.10847 667,222.09899 c 0,0.55153 1.50498,-0.14511 3.34439,-1.5481 1.83942,-1.40299 3.64473,-2.55089 4.01182,-2.55089 0.36708,0 0.37001,1.85991 0.007,4.13313 -0.76312,4.77232 -0.0615,4.66707 6.04848,-0.90738 1.97384,-1.80084 3.5888,-2.97626 3.5888,-2.61205 0,1.77558 -12.38893,18.7556 -19.55743,26.80503 C 650.45975,261.11987 641.21993,268.49839 629,273.72165 l -6.5,2.77835 -65,0.32463 c -47.30874,0.23627 -66.90521,-0.002 -72,-0.8748 -12.61661,-2.16183 -23.76497,-9.55949 -31.44125,-20.86331 -7.60602,-11.20036 -14.57526,-27.42344 -13.88136,-32.31317 0.46059,-3.24566 7.00984,-3.75038 10.94194,-0.84324 1.53983,1.13844 3.10042,2.06989 3.46799,2.06989 1.16259,0 -0.44337,-7.36 -5.49738,-25.1942 -2.69735,-9.51819 -6.76472,-24.2808 -9.03861,-32.8058 -7.70089,-28.87132 -27.15244,-71.326387 -31.85302,-69.522603 -0.84613,0.324688 -1.83888,0.10417 -2.20612,-0.490042 -0.36725,-0.594211 -2.54069,-1.155073 -4.82987,-1.246359 -3.67136,-0.146404 -4.72227,0.366919 -8.91224,4.35325 -8.06577,7.673764 -8.56924,7.881504 -6.21772,2.565504 1.2236,-2.76614 1.78488,-5.539749 1.41737,-7.004011 -0.38231,-1.523245 0.17194,-3.953992 1.49123,-6.540013 3.45875,-6.779707 -0.51249,-5.045986 -15.25254,6.658786 -11.26776,8.947508 -34.92011,37.789798 -46.03613,56.137678 -5.30906,8.76302 -5.752,11.52728 -1.28395,8.01272 2.29399,-1.80446 3.95855,-2.18446 8.91709,-2.03568 3.35313,0.10062 6.67991,0.66704 7.39285,1.25873 0.71294,0.59169 1.97698,0.81457 2.80899,0.4953 0.99012,-0.37995 1.50959,0.0132 1.50365,1.13812 -0.008,1.50314 -4.45918,17.87521 -8.48772,31.21862 -0.74723,2.475 -2.71011,9 -4.36196,14.5 -9.77316,32.54085 -15.52396,43.90987 -28.39567,56.13674 -11.71499,11.12809 -27.31619,17.72564 -48.49557,20.50815 -5.0875,0.66839 -9.25,1.49657 -9.25,1.8404 0,0.88231 -27.9276,0.67292 -29.33882,-0.21998 z M 337,182.44904 c 0,-0.83567 0.71731,-2.61415 1.59401,-3.95218 0.87671,-1.33803 1.40872,-2.98866 1.18225,-3.66808 -0.39847,-1.19541 -8.80609,13.02499 -8.74695,14.79433 0.0511,1.52833 5.97069,-5.58435 5.97069,-7.17407 z m 110.63798,-27.63412 c -2.6088,-7.57823 -5.94799,-14.35762 -6.40434,-13.00241 -0.83416,2.47715 0.86862,10.04778 2.81708,12.52484 1.0721,1.36296 1.94928,2.87963 1.94928,3.37038 0,1.40766 2.43409,3.49001 2.79919,2.39469 0.17831,-0.53492 -0.34423,-2.9143 -1.16121,-5.2875 z m 62.40819,-18.03525 C 508.91598,131.50978 507.52894,129 505.74671,129 c -1.46666,0 -0.2978,5.85557 2.41918,12.11909 1.84963,4.26403 2.40149,4.90589 2.65871,3.09238 0.17853,-1.2587 -0.17176,-4.603 -0.77843,-7.4318 z m -102.442,-43.508837 c -1.01652,-1.016515 -1.85525,0.513892 -1.02122,1.863382 0.63003,1.019417 0.86558,1.020206 1.2043,0.004 0.2316,-0.694785 0.14921,-1.535121 -0.18308,-1.867413 z M 708.15468,277.93565 c -1.65107,-1.77222 -2.00207,-1.82446 -3.1296,-0.46587 -1.83618,2.21246 -4.76806,1.87899 -6.14789,-0.69925 l -1.19318,-2.22948 -0.99482,2.22948 c -1.0525,2.35873 -4.09728,2.99622 -5.26745,1.10285 -0.38296,-0.61965 -0.61823,-4.21965 -0.52283,-8 C 691.03827,264.3513 690.77727,263 689.57137,263 687.25437,263 686,266.32461 686,272.46564 c 0,4.15943 -0.40256,5.75161 -1.56722,6.19853 -2.65036,1.01704 -3.90515,-1.46839 -3.93393,-7.79208 -0.0208,-4.57055 -0.45291,-6.36533 -1.7632,-7.32344 C 675.10512,260.89394 677.30654,259 684.02277,259 c 2.12256,0 4.13791,0.45097 4.47857,1.00217 0.34843,0.56378 2.25724,0.74026 4.3636,0.40344 3.61327,-0.57779 3.80893,-0.45525 5.59411,3.50358 3.06837,6.80442 4.22767,7.05841 6.68447,1.46451 2.83441,-6.45367 4.48705,-7.60028 7.1362,-4.95112 1.42545,1.42545 2.2444,13.24537 1.15949,16.73504 -0.80912,2.60257 -3.24992,2.96193 -5.28453,0.77803 z"
       id="path79"
       inkscape:connector-curvature="0" />
    <path
       style="fill:#1e98d9"
       d="m 195.38678,440.71565 c -7.15844,-6.56022 -4.95175,-17.42748 4.18552,-20.61236 3.58533,-1.2497 4.40226,-1.2092 7.76145,0.38484 4.52241,2.14603 6.66625,5.92147 6.66625,11.7397 0,4.95073 -1.86023,8.13141 -6.01104,10.27788 -4.71706,2.43929 -8.58699,1.88959 -12.60218,-1.79006 z m 551.39486,1.73141 c -22.8187,-5.53201 -36.7805,-23.84213 -38.36238,-50.31014 -1.93256,-32.33542 15.15545,-56.65523 43.9377,-62.53254 9.84549,-2.01043 15.21866,-2.01785 25.78257,-0.0356 9.84019,1.84647 11.36667,2.95336 10.47332,7.59446 -1.13947,5.91974 -1.62634,6.17939 -8.07292,4.30532 -4.3773,-1.27252 -8.54109,-1.5787 -17.39726,-1.2793 -10.15588,0.34334 -12.36086,0.74116 -17.26666,3.11517 -16.59513,8.03071 -24.74728,24.21585 -23.63836,46.9312 0.99871,20.45777 10.01191,34.37527 26.13941,40.36249 6.33034,2.35009 23.24684,2.60689 31.90543,0.48434 6.60134,-1.61824 7.50456,-1.1696 8.36895,4.15702 0.4931,3.03863 0.22855,3.75493 -1.78631,4.83662 -7.02827,3.77314 -28.9508,5.06986 -40.08349,2.37093 z M 225.45888,440.75 c -0.26309,-0.6875 -0.36147,-26.225 -0.21861,-56.75 l 0.25973,-55.5 9.85242,-0.28745 c 5.79696,-0.16913 10.36854,0.1409 11.1063,0.75319 0.68964,0.57235 4.54192,6.5517 8.56062,13.28745 4.0187,6.73574 8.96618,14.94681 10.99439,18.24681 8.07503,13.13846 18.09365,31.0082 22.3134,39.79933 4.63354,9.65321 7.02992,12.81973 7.92823,10.47619 0.26891,-0.70153 0.12528,-6.67552 -0.31918,-13.27552 -1.32574,-19.68677 -1.1434,-66.89278 0.26382,-68.3 0.69682,-0.69682 4.03663,-1.2 7.96482,-1.2 5.66472,0 6.93315,0.31455 7.8,1.93426 1.42587,2.66428 1.42587,107.4672 0,110.13148 -0.89564,1.67351 -2.1426,1.9322 -9.25,1.91895 -4.51815,-0.008 -8.7278,-0.34592 -9.35478,-0.75 -1.83623,-1.18343 -34.81669,-57.50519 -42.14979,-71.98052 -6.00823,-11.86007 -8.98155,-15.68652 -9.32778,-12.00417 -0.0646,0.6875 -0.0179,19.64453 0.10394,42.12674 0.18133,33.46724 -0.0239,41.03226 -1.13247,41.73469 -2.18399,1.38391 -14.84086,1.08677 -15.39506,-0.36143 z M 328.75,440.9199 c -1.63299,-0.95113 -1.75,-4.6851 -1.75,-55.84715 0,-44.16916 0.25639,-55.04065 1.31886,-55.92242 0.9338,-0.77498 22.32046,-1.02971 73.25,-0.87244 L 473.5,328.5 v 7.5 7.5 l -14.45874,0.27873 c -10.02991,0.19335 -14.69642,0.65281 -15.23469,1.5 -0.42677,0.6717 -0.78284,22.43563 -0.79126,48.36428 C 442.99793,447.17095 444.01543,442 433.5,442 c -10.51399,0 -9.5,5.11432 -9.5,-47.91586 0,-36.50649 -0.28105,-47.08624 -1.28739,-48.46249 -1.1893,-1.62647 -4.05976,-1.75712 -37.6763,-1.71483 -24.47003,0.0308 -36.74059,0.39653 -37.46261,1.11662 -1.44881,1.44494 -2.01303,25.7043 -0.67925,29.20485 l 1.03954,2.72829 19.28301,0.27171 19.283,0.27171 0.29381,7.25 0.29381,7.25 h -18.97238 c -15.91429,0 -19.22568,0.25329 -20.54381,1.57143 -1.26569,1.26569 -1.57143,4.07417 -1.57143,14.4349 0,7.07491 0.43886,14.01777 0.97525,15.42857 L 347.9505,426 h 21.32475 c 15.25258,0 21.66645,0.3417 22.52475,1.2 0.66,0.66 1.2,3.79417 1.2,6.96482 0,4.67605 -0.36531,5.96032 -1.93426,6.8 -2.5954,1.38901 -59.92477,1.34769 -62.31574,-0.0449 z m 178.59052,-0.47491 c -0.54676,-1.42482 -0.009,-10.97044 2.64404,-46.94499 0.52732,-7.15 1.20529,-17.725 1.5066,-23.5 1.1594,-22.22135 2.90693,-40.53036 3.93571,-41.23469 0.59022,-0.40408 3.99813,-0.73468 7.57313,-0.73468 3.575,0 6.97713,0.3306 7.5603,0.73468 1.74243,1.20734 20.13144,56.15252 26.48968,79.14942 2.76924,10.016 4.22686,13.14176 5.52363,11.845 0.33381,-0.33382 3.2396,-9.30382 6.4573,-19.93334 3.2177,-10.62951 7.72522,-24.50139 10.01672,-30.82639 2.29149,-6.325 6.37585,-17.77817 9.07636,-25.45149 2.70051,-7.67332 5.46486,-14.30393 6.14301,-14.73469 2.10194,-1.33514 14.37489,-0.95024 15.56875,0.48827 0.62852,0.75732 1.73037,13.20416 2.63361,29.75 0.85414,15.64635 2.03994,36.32291 2.63512,45.94791 0.59517,9.625 1.15265,21.775 1.23883,27 l 0.15669,9.5 -3.38837,0.32368 c -7.03567,0.67209 -7.76663,-0.0241 -8.45989,-8.05775 -0.95663,-11.08557 -2.41339,-35.6178 -3.72713,-62.76593 -1.06812,-22.07237 -1.99775,-29.08609 -3.30264,-24.91722 -0.24398,0.77947 -2.30221,7.49222 -4.57384,14.91722 -3.91814,12.80675 -11.23107,34.40792 -22.15642,65.44633 -2.69997,7.67049 -5.46763,14.3011 -6.15037,14.73469 -2.02618,1.28679 -7.40669,0.92713 -8.65637,-0.57864 -0.63795,-0.76868 -2.89412,-6.95618 -5.0137,-13.75 -2.11959,-6.79381 -4.98055,-15.72738 -6.35769,-19.85238 -3.15872,-9.46136 -13.86121,-44.22625 -16.47016,-53.5 -3.4968,-12.42968 -3.76253,-10.9431 -6.16693,34.5 -2.19492,41.48371 -3.08621,52.38741 -4.34775,53.18881 -2.30026,1.46125 -9.74666,0.92807 -10.38822,-0.74382 z M 655.79799,440.75 c -0.87135,-0.6875 -3.47024,-7.325 -5.77531,-14.75 -2.30507,-7.425 -5.92659,-19.125 -8.04782,-26 -2.12124,-6.875 -5.63414,-18.125 -7.80645,-25 -12.66987,-40.098 -13.9222,-44.5277 -12.93406,-45.75 1.13129,-1.39936 9.54315,-1.6775 11.58463,-0.38304 0.72544,0.45999 3.72941,8.89059 6.6755,18.73469 13.25415,44.28761 17.38762,58.36836 19.05121,64.89835 2.07908,8.16086 4.31142,13.09286 5.37037,11.8649 0.41022,-0.47569 1.55476,-3.7899 2.54342,-7.3649 6.07751,-21.97625 26.78747,-85.38771 28.60099,-87.57286 1.26834,-1.52826 9.53582,-1.97077 11.65547,-0.62386 1.48274,0.94219 1.79991,-0.11366 -12.22525,40.69672 -5.85951,17.05 -13.70608,39.9358 -17.43682,50.85733 -3.73074,10.92153 -7.40657,20.25214 -8.16851,20.73469 -2.08784,1.32224 -11.2826,1.08195 -13.08737,-0.34202 z M 209.75,283.25543 c -4.8125,-0.18331 -8.75,-0.74597 -8.75,-1.25036 0,-0.50438 1.31471,-3.14681 2.92158,-5.87207 7.95948,-13.49932 23.60629,-45.21431 27.50712,-55.75502 2.41765,-6.53289 5.78368,-15.25298 7.48008,-19.37798 1.6964,-4.125 3.08591,-8.06861 3.08779,-8.76357 0.002,-0.69496 0.42943,-2.04496 0.95009,-3 0.52066,-0.95504 1.87474,-4.56252 3.00907,-8.01663 4.29576,-13.08089 17.72735,-39.73538 24.64297,-48.90308 1.32072,-1.7508 2.4013,-3.59759 2.4013,-4.10398 0,-0.50638 1.15883,-2.1711 2.57518,-3.69936 1.41635,-1.52827 2.98021,-3.84398 3.47525,-5.14603 0.49504,-1.30204 1.47371,-2.37167 2.17482,-2.37696 0.70111,-0.005 4.9999,-5.37792 9.55285,-11.9392 4.55296,-6.561271 11.0996,-15.452917 14.54811,-19.759209 7.91482,-9.883574 8.26522,-10.44714 5.97573,-9.610961 -3.07484,1.123004 1.2919,-3.216593 8.16135,-8.110624 8.45151,-6.021143 17.38347,-10.327255 25.28669,-12.190756 9.06684,-2.137867 25.11098,-1.434479 31.34432,1.374159 5.11452,2.30452 17.62214,11.396355 19.63877,14.275497 C 396.49226,72.113183 397.5879,73 398.16783,73 c 0.57993,0 4.71691,-2.198956 9.19329,-4.886569 20.43687,-12.270265 26.63902,-14.172778 47.01575,-14.42213 l 14.30666,-0.175071 8.64413,4.283332 c 18.5422,9.188025 33.24361,30.703322 42.63121,62.390168 1.68,5.67065 3.77087,12.56027 4.64639,15.31027 2.25487,7.08252 11.35284,27.67217 13.12039,29.69279 1.38638,1.58488 1.61373,1.56894 3.56613,-0.25 2.73103,-2.54434 9.75946,-2.64864 11.99534,-0.17802 0.87841,0.97063 2.03345,3.55813 2.56676,5.75 0.53331,2.19188 1.43296,5.33523 1.99923,6.98523 0.56627,1.65 1.76696,5.925 2.66821,9.5 0.90124,3.575 2.27196,8.75 3.04605,11.5 0.77408,2.75 2.52161,9.05 3.88339,14 3.96713,14.42023 7.06715,22.79332 8.85687,23.92225 1.36605,0.86168 2.94136,-0.20591 8.7587,-5.9358 13.5977,-13.3933 36.05475,-41.78205 37.7914,-47.77342 0.51222,-1.76716 3.62033,-12.21303 6.90691,-23.21303 3.28657,-11 8.31032,-28.1 11.16389,-38 5.5977,-19.42034 9.01777,-29.292865 12.71955,-36.716756 1.29356,-2.594216 2.35192,-4.956716 2.35192,-5.25 0,-1.138023 -2.81854,-0.456811 -4,0.966756 -0.80741,0.97287 -3.02891,1.5 -6.32148,1.5 -4.8144,0 -5.32456,0.264117 -9.87756,5.113664 -2.64053,2.812515 -4.77935,4.725015 -4.75293,4.25 0.0459,-0.82547 0.73138,-2.171037 5.60731,-11.007052 2.44983,-4.439509 9.56689,-11.377969 16.65721,-16.239205 10.2526,-7.029346 20.31206,-10.340715 44.18745,-14.545616 11.91816,-2.099009 51.29031,-2.281797 52.07315,-0.241753 0.28071,0.731521 -1.138,4.219021 -3.1527,7.75 C 740.6122,67.259659 707.23541,133.74868 698.26964,153 682.44058,186.9882 667,221.10847 667,222.09899 c 0,0.55153 1.50498,-0.14511 3.34439,-1.5481 1.83942,-1.40299 3.64473,-2.55089 4.01182,-2.55089 0.36708,0 0.37001,1.85991 0.007,4.13313 -0.76312,4.77232 -0.0615,4.66707 6.04848,-0.90738 1.97384,-1.80084 3.5888,-2.97626 3.5888,-2.61205 0,1.77558 -12.38893,18.7556 -19.55743,26.80503 C 650.45975,261.11987 641.21993,268.49839 629,273.72165 l -6.5,2.77835 -65,0.32463 c -47.30874,0.23627 -66.90521,-0.002 -72,-0.8748 -12.61661,-2.16183 -23.76497,-9.55949 -31.44125,-20.86331 -7.60602,-11.20036 -14.57526,-27.42344 -13.88136,-32.31317 0.46059,-3.24566 7.00984,-3.75038 10.94194,-0.84324 1.53983,1.13844 3.10042,2.06989 3.46799,2.06989 1.16259,0 -0.44337,-7.36 -5.49738,-25.1942 -2.69735,-9.51819 -6.76472,-24.2808 -9.03861,-32.8058 -7.70089,-28.87132 -27.15244,-71.326387 -31.85302,-69.522603 -0.84613,0.324688 -1.83888,0.10417 -2.20612,-0.490042 -0.36725,-0.594211 -2.54069,-1.155073 -4.82987,-1.246359 -3.67136,-0.146404 -4.72227,0.366919 -8.91224,4.35325 -8.06577,7.673764 -8.56924,7.881504 -6.21772,2.565504 1.2236,-2.76614 1.78488,-5.539749 1.41737,-7.004011 -0.38231,-1.523245 0.17194,-3.953992 1.49123,-6.540013 3.45875,-6.779707 -0.51249,-5.045986 -15.25254,6.658786 -11.26776,8.947508 -34.92011,37.789798 -46.03613,56.137678 -5.30906,8.76302 -5.752,11.52728 -1.28395,8.01272 2.29399,-1.80446 3.95855,-2.18446 8.91709,-2.03568 3.35313,0.10062 6.67991,0.66704 7.39285,1.25873 0.71294,0.59169 1.97698,0.81457 2.80899,0.4953 0.99012,-0.37995 1.50959,0.0132 1.50365,1.13812 -0.008,1.50314 -4.45918,17.87521 -8.48772,31.21862 -0.74723,2.475 -2.71011,9 -4.36196,14.5 -9.65754,32.15589 -15.41564,43.66431 -27.81286,55.58822 -11.96829,11.51134 -25.61605,17.42794 -48.32838,20.95141 -12.11421,1.87934 -23.37872,2.16318 -48.25,1.2158 z M 337,182.44904 c 0,-0.83567 0.71731,-2.61415 1.59401,-3.95218 0.87671,-1.33803 1.40872,-2.98866 1.18225,-3.66808 -0.39847,-1.19541 -8.80609,13.02499 -8.74695,14.79433 0.0511,1.52833 5.97069,-5.58435 5.97069,-7.17407 z m 110.63798,-27.63412 c -2.6088,-7.57823 -5.94799,-14.35762 -6.40434,-13.00241 -0.83416,2.47715 0.86862,10.04778 2.81708,12.52484 1.0721,1.36296 1.94928,2.87963 1.94928,3.37038 0,1.40766 2.43409,3.49001 2.79919,2.39469 0.17831,-0.53492 -0.34423,-2.9143 -1.16121,-5.2875 z m 62.40819,-18.03525 C 508.91598,131.50978 507.52894,129 505.74671,129 c -1.46666,0 -0.2978,5.85557 2.41918,12.11909 1.84963,4.26403 2.40149,4.90589 2.65871,3.09238 0.17853,-1.2587 -0.17176,-4.603 -0.77843,-7.4318 z m -102.442,-43.508837 c -1.01652,-1.016515 -1.85525,0.513892 -1.02122,1.863382 0.63003,1.019417 0.86558,1.020206 1.2043,0.004 0.2316,-0.694785 0.14921,-1.535121 -0.18308,-1.867413 z M 701,274.5 c 0,-0.825 0.45,-1.5 1,-1.5 0.55,0 1,0.675 1,1.5 0,0.825 -0.45,1.5 -1,1.5 -0.55,0 -1,-0.675 -1,-1.5 z m 6.42352,-6.8387 c -0.6729,-1.75357 1.17354,-5.6613 2.67502,-5.6613 1.45272,0 0.66713,6.25876 -0.84801,6.75615 -0.68721,0.22559 -1.50937,-0.26709 -1.82701,-1.09485 z M 694.68333,267.35 c -0.99755,-0.99755 -0.83596,-4.35 0.20968,-4.35 1.30643,0 2.31566,3.19133 1.32311,4.18388 -0.4672,0.4672 -1.15695,0.54195 -1.53279,0.16612 z m -12.13054,-4.26459 c -0.32198,-0.52097 -0.15917,-1.21065 0.3618,-1.53262 0.52097,-0.32198 1.21065,-0.15917 1.53262,0.3618 0.32198,0.52097 0.15917,1.21065 -0.3618,1.53262 -0.52097,0.32198 -1.21065,0.15917 -1.53262,-0.3618 z"
       id="path77"
       inkscape:connector-curvature="0" />
    <path
       style="fill:#1369af"
       d="m 195.38678,440.71565 c -7.15844,-6.56022 -4.95175,-17.42748 4.18552,-20.61236 3.58533,-1.2497 4.40226,-1.2092 7.76145,0.38484 4.52241,2.14603 6.66625,5.92147 6.66625,11.7397 0,4.95073 -1.86023,8.13141 -6.01104,10.27788 -4.71706,2.43929 -8.58699,1.88959 -12.60218,-1.79006 z m 551.39486,1.73141 c -22.8187,-5.53201 -36.7805,-23.84213 -38.36238,-50.31014 -1.93256,-32.33542 15.15545,-56.65523 43.9377,-62.53254 9.84549,-2.01043 15.21866,-2.01785 25.78257,-0.0356 9.84019,1.84647 11.36667,2.95336 10.47332,7.59446 -1.13947,5.91974 -1.62634,6.17939 -8.07292,4.30532 -4.3773,-1.27252 -8.54109,-1.5787 -17.39726,-1.2793 -10.15588,0.34334 -12.36086,0.74116 -17.26666,3.11517 -16.59513,8.03071 -24.74728,24.21585 -23.63836,46.9312 0.99871,20.45777 10.01191,34.37527 26.13941,40.36249 6.33034,2.35009 23.24684,2.60689 31.90543,0.48434 6.60134,-1.61824 7.50456,-1.1696 8.36895,4.15702 0.4931,3.03863 0.22855,3.75493 -1.78631,4.83662 -7.02827,3.77314 -28.9508,5.06986 -40.08349,2.37093 z M 225.45888,440.75 c -0.26309,-0.6875 -0.36147,-26.225 -0.21861,-56.75 l 0.25973,-55.5 9.85242,-0.28745 c 5.79696,-0.16913 10.36854,0.1409 11.1063,0.75319 0.68964,0.57235 4.54192,6.5517 8.56062,13.28745 4.0187,6.73574 8.96618,14.94681 10.99439,18.24681 8.07503,13.13846 18.09365,31.0082 22.3134,39.79933 4.63354,9.65321 7.02992,12.81973 7.92823,10.47619 0.26891,-0.70153 0.12528,-6.67552 -0.31918,-13.27552 -1.32574,-19.68677 -1.1434,-66.89278 0.26382,-68.3 0.69682,-0.69682 4.03663,-1.2 7.96482,-1.2 5.66472,0 6.93315,0.31455 7.8,1.93426 1.42587,2.66428 1.42587,107.4672 0,110.13148 -0.89564,1.67351 -2.1426,1.9322 -9.25,1.91895 -4.51815,-0.008 -8.7278,-0.34592 -9.35478,-0.75 -1.83623,-1.18343 -34.81669,-57.50519 -42.14979,-71.98052 -6.00823,-11.86007 -8.98155,-15.68652 -9.32778,-12.00417 -0.0646,0.6875 -0.0179,19.64453 0.10394,42.12674 0.18133,33.46724 -0.0239,41.03226 -1.13247,41.73469 -2.18399,1.38391 -14.84086,1.08677 -15.39506,-0.36143 z M 328.75,440.9199 c -1.63299,-0.95113 -1.75,-4.6851 -1.75,-55.84715 0,-44.16916 0.25639,-55.04065 1.31886,-55.92242 0.9338,-0.77498 22.32046,-1.02971 73.25,-0.87244 L 473.5,328.5 v 7.5 7.5 l -14.45874,0.27873 c -10.02991,0.19335 -14.69642,0.65281 -15.23469,1.5 -0.42677,0.6717 -0.78284,22.43563 -0.79126,48.36428 C 442.99793,447.17095 444.01543,442 433.5,442 c -10.51399,0 -9.5,5.11432 -9.5,-47.91586 0,-36.50649 -0.28105,-47.08624 -1.28739,-48.46249 -1.1893,-1.62647 -4.05976,-1.75712 -37.6763,-1.71483 -24.47003,0.0308 -36.74059,0.39653 -37.46261,1.11662 -1.44881,1.44494 -2.01303,25.7043 -0.67925,29.20485 l 1.03954,2.72829 19.28301,0.27171 19.283,0.27171 0.29381,7.25 0.29381,7.25 h -18.97238 c -15.91429,0 -19.22568,0.25329 -20.54381,1.57143 -1.26569,1.26569 -1.57143,4.07417 -1.57143,14.4349 0,7.07491 0.43886,14.01777 0.97525,15.42857 L 347.9505,426 h 21.32475 c 15.25258,0 21.66645,0.3417 22.52475,1.2 0.66,0.66 1.2,3.79417 1.2,6.96482 0,4.67605 -0.36531,5.96032 -1.93426,6.8 -2.5954,1.38901 -59.92477,1.34769 -62.31574,-0.0449 z m 178.59052,-0.47491 c -0.54676,-1.42482 -0.009,-10.97044 2.64404,-46.94499 0.52732,-7.15 1.20529,-17.725 1.5066,-23.5 1.1594,-22.22135 2.90693,-40.53036 3.93571,-41.23469 0.59022,-0.40408 3.99813,-0.73468 7.57313,-0.73468 3.575,0 6.97713,0.3306 7.5603,0.73468 1.74243,1.20734 20.13144,56.15252 26.48968,79.14942 2.76924,10.016 4.22686,13.14176 5.52363,11.845 0.33381,-0.33382 3.2396,-9.30382 6.4573,-19.93334 3.2177,-10.62951 7.72522,-24.50139 10.01672,-30.82639 2.29149,-6.325 6.37585,-17.77817 9.07636,-25.45149 2.70051,-7.67332 5.46486,-14.30393 6.14301,-14.73469 2.10194,-1.33514 14.37489,-0.95024 15.56875,0.48827 0.62852,0.75732 1.73037,13.20416 2.63361,29.75 0.85414,15.64635 2.03994,36.32291 2.63512,45.94791 0.59517,9.625 1.15265,21.775 1.23883,27 l 0.15669,9.5 -3.38837,0.32368 c -7.03567,0.67209 -7.76663,-0.0241 -8.45989,-8.05775 -0.95663,-11.08557 -2.41339,-35.6178 -3.72713,-62.76593 -1.06812,-22.07237 -1.99775,-29.08609 -3.30264,-24.91722 -0.24398,0.77947 -2.30221,7.49222 -4.57384,14.91722 -3.91814,12.80675 -11.23107,34.40792 -22.15642,65.44633 -2.69997,7.67049 -5.46763,14.3011 -6.15037,14.73469 -2.02618,1.28679 -7.40669,0.92713 -8.65637,-0.57864 -0.63795,-0.76868 -2.89412,-6.95618 -5.0137,-13.75 -2.11959,-6.79381 -4.98055,-15.72738 -6.35769,-19.85238 -3.15872,-9.46136 -13.86121,-44.22625 -16.47016,-53.5 -3.4968,-12.42968 -3.76253,-10.9431 -6.16693,34.5 -2.19492,41.48371 -3.08621,52.38741 -4.34775,53.18881 -2.30026,1.46125 -9.74666,0.92807 -10.38822,-0.74382 z M 655.79799,440.75 c -0.87135,-0.6875 -3.47024,-7.325 -5.77531,-14.75 -2.30507,-7.425 -5.92659,-19.125 -8.04782,-26 -2.12124,-6.875 -5.63414,-18.125 -7.80645,-25 -12.66987,-40.098 -13.9222,-44.5277 -12.93406,-45.75 1.13129,-1.39936 9.54315,-1.6775 11.58463,-0.38304 0.72544,0.45999 3.72941,8.89059 6.6755,18.73469 13.25415,44.28761 17.38762,58.36836 19.05121,64.89835 2.07908,8.16086 4.31142,13.09286 5.37037,11.8649 0.41022,-0.47569 1.55476,-3.7899 2.54342,-7.3649 6.07751,-21.97625 26.78747,-85.38771 28.60099,-87.57286 1.26834,-1.52826 9.53582,-1.97077 11.65547,-0.62386 1.48274,0.94219 1.79991,-0.11366 -12.22525,40.69672 -5.85951,17.05 -13.70608,39.9358 -17.43682,50.85733 -3.73074,10.92153 -7.40657,20.25214 -8.16851,20.73469 -2.08784,1.32224 -11.2826,1.08195 -13.08737,-0.34202 z M 218.04427,283.04852 c -1.65113,-1.04445 -1.00716,-6.26735 3.56733,-28.93286 4.13496,-20.48773 7.81718,-29.17186 31.85029,-75.11566 24.0874,-46.04759 36.33587,-67.239 49.22097,-85.158533 11.7194,-16.298357 27.59803,-29.825255 40.81714,-34.771828 7.83964,-2.933582 22.11125,-3.824065 28.62758,-1.78623 5.85455,1.830876 14.55341,7.57925 20.31824,13.42668 l 4.4632,4.527148 3.12912,-1.975426 c 16.62949,-10.498275 25.74947,-14.929571 36.47685,-17.723701 7.47869,-1.947951 26.92142,-2.501698 28.60833,-0.814792 0.94815,0.948156 0.84912,1.326796 -0.4561,1.743899 -0.91697,0.293031 -2.41609,0.772006 -3.33137,1.06439 -1.28723,0.411198 -0.37715,1.678705 4.01799,5.596029 9.53975,8.50264 18.73224,23.4369 26.54492,43.125274 3.76359,9.48445 9.3537,29.19766 8.91929,31.45337 -0.30814,1.60002 -0.55685,1.55492 -2.57953,-0.46776 C 496.05064,135.05064 495.48117,135 473.06739,135 c -22.42066,0 -22.9475,0.0469 -23.59934,2.10066 -0.3667,1.15537 -1.0485,1.71787 -1.51511,1.25 -0.8801,-0.88245 -1.32621,-1.68556 -12.394,-22.31209 C 427.66321,101.32364 416.50909,84 414.93037,84 c -0.6132,0 -2.25908,0.9 -3.6575,2 -1.39842,1.1 -3.09119,2 -3.76171,2 -0.67051,0 -2.46769,1.157138 -3.99372,2.571417 -3.43703,3.18533 -4.08558,2.619799 -7.19081,-6.270325 -1.30655,-3.740601 -2.86564,-6.968124 -3.46464,-7.172274 -0.59899,-0.204151 -1.813,-1.216651 -2.69778,-2.25 -2.06332,-2.409789 -2.83324,-2.365754 -4.22879,0.241859 -0.79768,1.490475 -0.80814,1.918692 -0.0352,1.440983 0.60487,-0.373832 1.08844,-0.09064 1.07459,0.629323 -0.0138,0.719959 -5.7113,7.159017 -12.66101,14.309017 -35.43817,36.45951 -64.2003,77.25013 -88.13954,125 -3.86037,7.7 -7.33983,15.35 -7.73214,17 l -0.71329,3 3.08941,-2.89285 c 2.55956,-2.39671 4.25497,-3.00118 9.88558,-3.52451 3.7379,-0.34742 7.35868,-0.9847 8.04618,-1.41617 3.01113,-1.88979 0.79909,4.90465 -6.19234,19.02023 -11.62436,23.46938 -19.39895,30.67988 -36.98057,34.29744 -10.46147,2.15253 -34.72487,2.84061 -37.53282,1.06438 z m 300.41664,-6.92094 C 518.20741,275.87408 518,274.91745 518,274.00175 c 0,-0.91571 -2.22909,-3.10932 -4.95353,-4.8747 -14.8766,-9.6397 -30.22804,-33.9336 -44.45061,-70.34377 -6.29371,-16.11207 -16.8467,-46.56845 -18.05538,-52.10859 l -0.61639,-2.82532 2.46804,1.82532 c 1.35742,1.00392 2.68654,2.62874 2.95359,3.61072 0.4482,1.64804 2.14441,1.77701 22.04613,1.67628 11.85832,-0.06 22.03243,0.1825 22.60914,0.53892 0.57671,0.35643 0.98412,0.2771 0.90537,-0.17628 -0.0788,-0.45338 -0.0899,-2.60826 -0.0248,-4.78862 0.10202,-3.41521 0.30984,-3.76147 1.5005,-2.5 0.76015,0.80536 2.82839,5.28929 4.59611,9.96429 1.76771,4.675 3.83223,10.075 4.58782,12 0.75558,1.925 4.07487,11.03417 7.37619,20.24261 11.40859,31.82218 17.69995,45.84546 26.62734,59.35163 7.31261,11.06319 7.52971,11.20421 11.91231,7.73751 4.29494,-3.39735 5.28055,-6.40519 3.11292,-9.49991 -2.18664,-3.12187 -2.188,-9.27346 -0.002,-8.43456 0.8761,0.33619 2.67264,0.88225 3.99233,1.21347 1.94298,0.48765 2.28514,1.05754 1.79869,2.99573 -0.78036,3.1092 0.34498,3.02743 3.79256,-0.27556 2.44462,-2.34209 3.09696,-2.52736 5.3248,-1.51229 1.39638,0.63623 2.99479,2.39982 3.55202,3.91908 3.63879,9.92093 7.47213,17.30775 8.84459,17.04344 3.69552,-0.71169 15.22172,-23.68823 25.56902,-50.96974 5.47795,-14.44308 12.30973,-27.14567 17.51235,-32.56141 3.2216,-3.35357 5.208,-4.18631 4.77074,-2 -0.36715,1.83576 44.83533,2.33457 47.04071,0.51909 4.31718,-3.55391 -2.48061,14.76957 -13.99772,37.73091 -8.46086,16.86818 -15.673,28.90158 -23.36026,38.97636 -3.63949,4.76985 -6.36161,8.9281 -6.04916,9.24055 0.65552,0.65552 0.19742,0.97637 12.61643,-8.83646 5.225,-4.1285 10.84957,-8.34934 12.49904,-9.37964 2.75413,-1.72029 2.63769,-1.42934 -1.42591,3.56296 -11.25291,13.82466 -18.52765,20.14862 -29.7212,25.83677 -10.97218,5.57566 -15.00019,5.92362 -67.14102,5.80004 -26.009,-0.0616 -47.4965,-0.3195 -47.75,-0.573 z M 701,274.5 c 0,-0.825 0.45,-1.5 1,-1.5 0.55,0 1,0.675 1,1.5 0,0.825 -0.45,1.5 -1,1.5 -0.55,0 -1,-0.675 -1,-1.5 z m 6.42352,-6.8387 c -0.6729,-1.75357 1.17354,-5.6613 2.67502,-5.6613 1.45272,0 0.66713,6.25876 -0.84801,6.75615 -0.68721,0.22559 -1.50937,-0.26709 -1.82701,-1.09485 z M 694.68333,267.35 c -0.99755,-0.99755 -0.83596,-4.35 0.20968,-4.35 1.30643,0 2.31566,3.19133 1.32311,4.18388 -0.4672,0.4672 -1.15695,0.54195 -1.53279,0.16612 z m -12.13054,-4.26459 c -0.32198,-0.52097 -0.15917,-1.21065 0.3618,-1.53262 0.52097,-0.32198 1.21065,-0.15917 1.53262,0.3618 0.32198,0.52097 0.15917,1.21065 -0.3618,1.53262 -0.52097,0.32198 -1.21065,0.15917 -1.53262,-0.3618 z"
       id="path75"
       inkscape:connector-curvature="0" />
    <path
       style="fill:#161616"
       d="m 196.61488,441.9117 c -5.51983,-4.3419 -7.09452,-11.14763 -3.75218,-16.21677 4.65758,-7.06389 12.01625,-8.01598 17.7373,-2.29493 2.74314,2.74314 3.4,4.17952 3.4,7.4349 0,5.73959 -1.46468,8.86819 -5.22507,11.1609 -4.22565,2.57638 -8.81818,2.54462 -12.16005,-0.0841 z m 549.70917,0.0972 c -8.62246,-2.26012 -12.15819,-3.97433 -19.07089,-9.24598 -6.82211,-5.20258 -12.56993,-13.93149 -15.87304,-24.10554 -2.23318,-6.8785 -2.66089,-10.03871 -2.72816,-20.15739 -0.12936,-19.45928 4.44811,-32.23814 15.73133,-43.91689 11.91689,-12.33463 30.40385,-18.257 48.89764,-15.66457 5.07049,0.71078 10.7402,1.92141 12.59936,2.6903 3.17192,1.31181 3.3435,1.62466 2.78354,5.07532 -0.91864,5.66088 -2.43082,6.66215 -7.40896,4.90576 -6.04663,-2.13337 -16.85203,-2.90539 -24.06465,-1.71936 C 734.87966,343.53926 722,360.49514 722,386.19796 c 0,21.78004 7.89577,36.23254 23.82181,43.60368 5.15465,2.38576 6.83071,2.63131 18.17819,2.66322 7.83409,0.022 14.29347,-0.48568 17.30472,-1.36014 5.47316,-1.5894 6.25604,-1.1488 7.2126,4.05918 0.81935,4.46095 -0.18724,5.1631 -10.51672,7.33597 -9.65468,2.03093 -22.8348,1.82665 -31.67655,-0.49096 z m -520.08253,-0.83848 c -0.99188,-0.6297 -1.20372,-12.64857 -1,-56.73469 L 225.5,328.5 l 9.71422,-0.28578 c 8.44666,-0.24849 9.96239,-0.0376 11.61616,1.61616 3.05613,3.05613 30.89235,50.27946 39.425,66.88336 4.30004,8.36755 8.21929,15.46159 8.70944,15.76452 1.72102,1.06365 1.99391,-3.0967 1.04806,-15.97826 -0.525,-7.15 -0.96767,-24.9824 -0.98371,-39.62756 -0.0238,-21.71981 0.23071,-26.84323 1.38082,-27.79774 0.86204,-0.71543 4.06812,-1.05448 8.25,-0.87244 L 311.5,328.5 l 0.25848,55.93574 c 0.20372,44.08612 -0.008,56.10499 -1,56.73469 -0.69216,0.43942 -4.47113,0.80584 -8.3977,0.81426 -8.54539,0.0183 -9.24421,-0.47406 -15.59003,-10.98469 -13.71724,-22.71995 -28.6795,-48.74683 -35.35962,-61.50809 -7.02501,-13.42012 -9.20301,-16.44183 -9.54455,-13.24191 -0.0734,0.6875 -0.0216,19.86646 0.11498,42.61992 0.20456,34.06708 0.007,41.52257 -1.11658,42.23469 -1.71641,1.08741 -12.93474,1.1379 -14.62346,0.0658 z M 329.25,440.96884 327,440.06445 v -54.99704 c 0,-52.49341 0.0842,-55.04213 1.85058,-55.98744 1.99244,-1.06632 140.87526,-1.50614 143.61499,-0.45481 1.17332,0.45025 1.53443,2.20652 1.53443,7.46278 0,8.26278 0.94587,7.82131 -17.5,8.16784 l -13,0.24422 -0.25989,47.40946 c -0.18079,32.97839 -0.59855,47.8175 -1.37245,48.75 -1.15798,1.39528 -11.33453,1.85809 -15.61766,0.71025 L 424,440.76674 V 394.0745 c 0,-35.81428 -0.29121,-47.07352 -1.25,-48.32883 -1.02338,-1.33987 -3.87884,-1.72259 -15.75,-2.11098 -7.975,-0.26092 -14.95,-0.46368 -15.5,-0.45057 -0.55,0.0131 -10.45,0.21972 -22,0.45915 -18.02114,0.37358 -21.17731,0.66965 -22.25,2.08716 -1.5576,2.05831 -1.73652,26.49198 -0.21482,29.33531 0.96481,1.80275 2.27357,1.9353 19.25,1.94957 10.01815,0.008 18.80065,0.3869 19.51666,0.84106 0.90406,0.57343 1.20962,2.78405 1,7.23469 L 386.5,391.5 l -18.9249,0.27271 c -11.89393,0.17139 -19.4172,0.68128 -20.25,1.37244 -1.6403,1.36133 -1.88943,27.93188 -0.28992,30.92059 0.97148,1.81522 2.28957,1.93426 21.41822,1.93426 11.21066,0 21.09483,0.27314 21.96481,0.60699 1.22705,0.47086 1.58179,2.12669 1.58179,7.38337 0,6.18203 -0.19735,6.82926 -2.25,7.37935 -3.58202,0.95995 -58.01172,0.59929 -60.5,-0.40087 z m 178.85909,0.11974 c -1.4539,-0.92068 -1.50912,0.44281 1.88678,-46.58858 0.51627,-7.15 1.18454,-17.5 1.48506,-23 1.25614,-22.98992 2.87902,-41.08027 3.79023,-42.25 1.35531,-1.73984 14.12537,-1.68207 15.57986,0.0705 0.60275,0.72627 3.11086,7.36377 5.57358,14.75 2.46272,7.38623 6.56571,19.47986 9.11776,26.87473 2.55205,7.39487 6.82687,21.07521 9.49961,30.40075 4.83288,16.86255 6.16337,19.95063 7.80002,18.10403 0.4631,-0.5225 2.80303,-7.7 5.19986,-15.95 4.57042,-15.73159 7.247,-23.70493 18.52732,-55.19151 7.56272,-21.10972 6.89662,-20.27054 16.1094,-20.29484 5.78909,-0.0153 8.32143,1.66582 8.32143,5.52414 0,4.77388 2.94606,55.51278 5.1559,88.79811 1.01141,15.23414 0.977,17.96701 -0.23588,18.73469 -1.71034,1.08254 -7.97606,1.19033 -9.53879,0.1641 -1.12132,-0.73636 -2.24649,-14.24929 -4.43265,-53.23469 -2.1329,-38.03549 -2.45947,-42.0381 -3.44858,-42.26778 -0.55,-0.12772 -1.98097,3.14278 -3.17994,7.26778 -3.98865,13.72285 -7.11619,23.29697 -15.35329,47 -4.4916,12.925 -9.30786,26.82376 -10.7028,30.88614 -1.39493,4.06237 -3.37498,8.22487 -4.40011,9.25 -2.14827,2.14827 -5.76958,2.42369 -8.07142,0.61386 -0.8744,-0.6875 -4.37221,-10.025 -7.77291,-20.75 -3.4007,-10.725 -7.94456,-24.9 -10.09747,-31.5 -2.15291,-6.6 -5.88256,-18.975 -8.28811,-27.5 -2.40554,-8.525 -4.76977,-15.39572 -5.25383,-15.26826 -0.83658,0.22027 -1.82534,12.92634 -4.33977,55.76826 -0.61332,10.45 -1.37217,23.275 -1.68633,28.5 -0.41847,6.95975 -0.99436,9.83424 -2.15374,10.75 -1.82141,1.43868 -7.04666,1.63328 -9.09119,0.33858 z m 147.60123,-0.52112 c -0.7879,-0.78789 -2.65383,-5.40039 -4.14652,-10.25 -1.49268,-4.8496 -4.90059,-15.79246 -7.57312,-24.31746 -2.67253,-8.525 -7.17177,-22.925 -9.99833,-32 -2.82655,-9.075 -6.94249,-22.22013 -9.14652,-29.2114 -2.20404,-6.99127 -3.85446,-13.51627 -3.66759,-14.5 0.25999,-1.36873 1.47092,-1.86089 5.15845,-2.09656 2.65028,-0.16938 5.43876,0.20664 6.19662,0.8356 0.75785,0.62897 2.94988,6.16755 4.87116,12.30797 6.29061,20.10474 15.68507,51.90707 19.24965,65.16439 3.7574,13.9744 5.3675,18.13116 6.88422,17.77277 0.52892,-0.12498 3.25999,-7.99998 6.06906,-17.5 6.26014,-21.17125 22.52304,-71.18224 24.48008,-75.28013 1.28376,-2.68808 1.96378,-3.02344 6.68204,-3.29529 4.1976,-0.24185 5.38359,0.0381 5.90369,1.39343 0.37865,0.98675 -2.58884,11.15056 -7.09555,24.30265 -4.26051,12.43361 -12.63719,36.96689 -18.61483,54.51838 -5.97764,17.5515 -11.45217,32.28211 -12.16563,32.73469 -2.20153,1.39653 -11.52378,0.98406 -13.08688,-0.57904 z M 701,275 c 0,-0.55 0.45,-1 1,-1 0.55,0 1,0.45 1,1 0,0.55 -0.45,1 -1,1 -0.55,0 -1,-0.45 -1,-1 z m 7.17306,-9.5639 c 0.17982,-1.53002 0.92406,-2.97811 1.65388,-3.21796 0.93523,-0.30736 1.23043,0.38509 1,2.34576 -0.17982,1.53002 -0.92406,2.97811 -1.65388,3.21796 -0.93523,0.30736 -1.23043,-0.38509 -1,-2.34576 z M 694,265 c 0,-1.1 0.45,-2 1,-2 0.55,0 1,0.9 1,2 0,1.1 -0.45,2 -1,2 -0.55,0 -1,-0.9 -1,-2 z"
       id="path73"
       inkscape:connector-curvature="0" />
  </g>
</svg>
