<?xml version="1.0" encoding="UTF-8" standalone="no"?>
<!-- Created with Inkscape (http://www.inkscape.org/) -->

<svg
   xmlns:dc="http://purl.org/dc/elements/1.1/"
   xmlns:cc="http://creativecommons.org/ns#"
   xmlns:rdf="http://www.w3.org/1999/02/22-rdf-syntax-ns#"
   xmlns:svg="http://www.w3.org/2000/svg"
   xmlns="http://www.w3.org/2000/svg"
   xmlns:sodipodi="http://sodipodi.sourceforge.net/DTD/sodipodi-0.dtd"
   xmlns:inkscape="http://www.inkscape.org/namespaces/inkscape"
   version="1.1"
   id="svg64"
   width="678"
   height="281"
   viewBox="0 0 678 281"
   sodipodi:docname="express-routing-logo.svg"
   inkscape:version="0.92.2 5c3e80d, 2017-08-06">
  <metadata
     id="metadata70">
    <rdf:RDF>
      <cc:Work
         rdf:about="">
        <dc:format>image/svg+xml</dc:format>
        <dc:type
           rdf:resource="http://purl.org/dc/dcmitype/StillImage" />
        <dc:title></dc:title>
      </cc:Work>
    </rdf:RDF>
  </metadata>
  <defs
     id="defs68" />
  <sodipodi:namedview
     pagecolor="#ffffff"
     bordercolor="#666666"
     borderopacity="1"
     objecttolerance="10"
     gridtolerance="10"
     guidetolerance="10"
     inkscape:pageopacity="0"
     inkscape:pageshadow="2"
     inkscape:window-width="1440"
     inkscape:window-height="816"
     id="namedview66"
     showgrid="false"
     inkscape:zoom="0.95575221"
     inkscape:cx="332.05081"
     inkscape:cy="165.5456"
     inkscape:window-x="0"
     inkscape:window-y="1"
     inkscape:window-maximized="1"
     inkscape:current-layer="svg64" />
  <g
     id="g74"
     transform="matrix(0.90895061,0,0,0.82499671,28.630811,24.509868)">
    <path
       style="fill:#fefefe"
       d="M 0,140.5 V 0 H 339 678 V 140.5 281 H 339 0 Z"
       id="path90"
       inkscape:connector-curvature="0" />
    <path
       style="fill:#e8e8e8"
       d="m 588.86721,278.9855 c -1.05441,-0.61587 -1.87515,-2.99613 -2.317,-6.7196 -1.55729,-13.12355 -5.28093,-19.30849 -12.85205,-21.34718 -5.62117,-1.51362 -9.8019,-0.11672 -18.19631,6.07992 C 551.63429,259.85361 547.65592,262 546.23174,262 542.84587,262 535,254.15413 535,250.76826 c 0,-1.42418 2.14639,-5.40255 5.00136,-9.27011 6.19664,-8.39441 7.59354,-12.57514 6.07992,-18.19631 -2.04331,-7.58827 -8.19284,-11.27382 -21.33188,-12.78465 -3.16283,-0.36369 -6.38427,-1.29492 -7.15876,-2.0694 -2.08219,-2.0822 -2.8825,-8.65017 -1.62367,-13.32511 1.21148,-4.49912 1.06654,-4.42724 12.40859,-6.15425 8.07355,-1.22934 11.45999,-2.79584 14.91156,-6.89781 5.49088,-6.52553 4.42784,-13.35415 -3.77831,-24.27075 -5.73098,-7.62389 -5.75097,-9.82087 -0.14039,-15.43145 5.61058,-5.61058 7.80756,-5.59059 15.43145,0.14039 10.9166,8.20615 17.74522,9.26919 24.27075,3.77831 4.10197,-3.45157 5.66847,-6.83801 6.89781,-14.91156 1.72701,-11.34205 1.65513,-11.19711 6.15425,-12.40859 4.67494,-1.25883 11.24291,-0.45852 13.32511,1.62367 0.77448,0.77449 1.70571,3.99593 2.0694,7.15876 1.51083,13.13904 5.19638,19.28857 12.78465,21.33188 5.62117,1.51362 9.8019,0.11672 18.19631,-6.07992 C 642.36571,140.14639 646.34408,138 647.76826,138 651.15413,138 659,145.84587 659,149.23174 c 0,1.42418 -2.14639,5.40255 -5.00136,9.27011 -6.19664,8.39441 -7.59354,12.57514 -6.07992,18.19631 2.02129,7.50647 8.08808,11.19986 21.08128,12.83404 3.025,0.38046 6.0625,1.14646 6.75,1.70222 0.80568,0.65129 1.25,3.76708 1.25,8.76558 0,4.98512 -0.44648,8.125 -1.25,8.79068 -0.6875,0.56956 -4.75609,1.52271 -9.04131,2.11812 -8.9201,1.2394 -12.42606,2.77817 -15.99581,7.02058 -5.49088,6.52553 -4.42784,13.35415 3.77831,24.27075 2.5792,3.43109 4.50881,7.08185 4.50881,8.53053 C 659,254.15363 651.17981,262 647.76826,262 c -1.42418,0 -5.40255,-2.14639 -9.27011,-5.00136 -8.39441,-6.19664 -12.57514,-7.59354 -18.19631,-6.07992 -7.50647,2.02129 -11.19986,8.08808 -12.83404,21.08128 -0.38046,3.025 -1.14646,6.0625 -1.70222,6.75 -1.2052,1.49089 -14.43341,1.67524 -16.89837,0.2355 z m 22.78404,-46.98538 c 7.83975,-3.57193 13.74956,-9.49512 17.52645,-17.56616 2.53419,-5.41543 2.98019,-7.57558 2.98019,-14.43396 0,-6.85838 -0.446,-9.01853 -2.98019,-14.43396 -12.96809,-27.71217 -51.19249,-27.85224 -64.25747,-0.23548 -2.51208,5.31002 -2.91865,7.35351 -2.91865,14.66944 0,7.31593 0.40657,9.35942 2.91865,14.66944 8.58463,18.1462 28.62708,25.57915 46.73102,17.33068 z m -140.34606,-9.01087 c -1.51211,-0.60901 -2.3937,-2.06679 -2.83421,-4.68661 -1.34032,-7.97119 -2.57965,-10.4501 -5.9229,-11.847 -3.92983,-1.64199 -6.82528,-0.98201 -11.94812,2.72341 -4.84103,3.50158 -6.25986,3.52097 -9.79524,0.13386 -3.52695,-3.37903 -3.516,-4.94202 0.0691,-9.86591 3.91735,-5.38017 4.46375,-7.70324 2.76701,-11.76411 -1.50202,-3.59484 -3.81556,-4.78736 -11.93606,-6.15248 -4.49017,-0.75483 -6.3827,-4.16366 -4.99738,-9.00132 0.6531,-2.2807 1.65713,-3.16749 4.32167,-3.81701 10.35383,-2.52391 10.97134,-2.81224 12.54646,-5.85818 1.94176,-3.75495 1.31831,-6.63728 -2.60803,-12.05743 -3.68347,-5.08489 -3.70967,-6.71127 -0.1628,-10.10938 3.54178,-3.39324 4.86628,-3.36787 9.74828,0.18676 5.39491,3.92808 7.70112,4.46464 11.81023,2.74774 3.59903,-1.50377 3.68957,-1.68333 6.34885,-12.5925 0.64952,-2.66454 1.53631,-3.66857 3.81701,-4.32167 4.83766,-1.38532 8.24649,0.50721 9.00132,4.99738 1.26551,7.52794 2.58694,10.30452 5.66059,11.89397 3.73016,1.92894 6.91319,1.23304 12.22392,-2.67251 4.94906,-3.63959 6.50914,-3.65874 9.89799,-0.12154 3.38924,3.5376 3.36676,4.86086 -0.16557,9.74828 -3.55316,4.91623 -4.28371,7.75736 -2.96637,11.53629 1.23229,3.53493 3.07643,4.632 9.99034,5.9432 5.91519,1.12179 6.79806,2.02667 6.79806,6.96751 0,4.94084 -0.88287,5.84572 -6.79806,6.96751 -6.91391,1.3112 -8.75805,2.40827 -9.99034,5.9432 -1.31734,3.77893 -0.58679,6.62006 2.96637,11.53629 3.56294,4.92976 3.57052,6.49106 0.0479,9.86591 -3.5376,3.38924 -4.86086,3.36676 -9.74828,-0.16557 -5.12047,-3.70078 -8.02181,-4.35184 -11.99508,-2.6917 -3.34249,1.39658 -4.58288,3.87665 -5.92151,11.83956 -0.84028,4.99852 -4.87288,6.84974 -10.22522,4.69405 z m 11.46328,-29.53698 c 4.94146,-2.06467 8.10723,-5.11129 10.34149,-9.95227 3.46696,-7.5119 1.57634,-17.85369 -4.24169,-23.20227 -7.50405,-6.89857 -20.23249,-6.89857 -27.73654,0 -7.59356,6.98084 -7.99635,20.77955 -0.834,28.57054 5.15844,5.6112 15.13929,7.64728 22.47074,4.584 z m -329.5271,-62.28193 c -0.99172,-0.62959 -1.20378,-12.4487 -1,-55.734689 L 152.5,20.5 155.81532,20.181769 C 160.40338,19.741372 162,21.413064 162,26.657241 v 4.412351 l 2.9318,-3.33914 c 4.3834,-4.992407 13.23474,-8.937858 21.35489,-9.518852 17.77957,-1.272122 32.59188,8.904587 37.90415,26.041829 3.19048,10.292421 3.17958,25.47609 -0.0254,35.320402 C 218.8921,95.771522 206.14965,104.97626 189,104.97626 c -9.73361,0 -18.06074,-2.90745 -23.75,-8.292421 L 162,93.607666 v 17.261904 c 0,9.98673 -0.43629,18.07712 -1.03518,19.19617 -1.06929,1.99798 -5.35151,2.61041 -7.72345,1.1046 z M 200.48158,92.903656 C 210.6651,88.116833 216.26607,77.398116 216.36874,62.5 216.4713,47.616032 212.02752,37.355432 202.84789,31.280644 199.44668,29.029826 197.30503,28.453274 191.20028,28.144998 182.2081,27.690914 177.15322,29.04856 172.4452,33.182261 165.26931,39.482773 162,48.608771 162,62.339122 162,83.637793 171.28511,95 188.69021,95 c 5.35896,0 8.53153,-0.564039 11.79137,-2.096344 z M 569.5,129.30657 c -3.38332,-0.88269 -4.37724,-2.28975 -5.04235,-7.13834 C 562.68057,109.21363 559.38313,105 551.02236,105 c -4.16403,0 -5.64338,0.6158 -10.81052,4.5 -3.29247,2.475 -6.6964,4.5 -7.56428,4.5 -2.28914,0 -8.56438,-5.82039 -9.25896,-8.58784 -0.45085,-1.7963 0.51315,-3.83727 4.00891,-8.487663 C 531.38536,91.619482 532,90.157586 532,85.977641 532,77.616872 527.78637,74.319427 514.83177,72.542352 508.99885,71.74221 507.61538,70.10454 507.61538,64 c 0,-6.10454 1.38347,-7.74221 7.21639,-8.542352 C 527.78637,53.680573 532,50.383128 532,42.022359 c 0,-4.16403 -0.6158,-5.643382 -4.5,-10.810514 -2.475,-3.292478 -4.5,-6.696407 -4.5,-7.564288 0,-2.289135 5.82039,-8.564373 8.58784,-9.258959 1.7963,-0.450844 3.83727,0.513151 8.48766,4.008912 5.28097,3.969773 6.77787,4.60249 10.88873,4.60249 3.31116,0 5.5723,-0.634196 7.40723,-2.077552 3.55061,-2.79291 4.36003,-4.526321 5.54269,-11.8700279 C 565.2476,0.77249551 566.02295,0 573,0 c 6.97705,0 7.7524,0.77249551 9.08585,9.0524201 1.18266,7.3437069 1.99208,9.0771179 5.54269,11.8700279 C 589.46347,22.365804 591.72461,23 595.03577,23 c 4.11086,0 5.60776,-0.632717 10.88873,-4.60249 4.65039,-3.495761 6.69136,-4.459756 8.48766,-4.008912 2.76745,0.694586 8.58784,6.969824 8.58784,9.258959 0,0.867881 -2.025,4.27181 -4.5,7.564288 -3.8842,5.167132 -4.5,6.646484 -4.5,10.810514 0,8.360769 4.21363,11.658214 17.16823,13.435289 5.83292,0.800142 7.21639,2.437812 7.21639,8.542352 0,6.10454 -1.38347,7.74221 -7.21639,8.542352 C 618.21363,74.319427 614,77.616872 614,85.977641 c 0,4.179945 0.61464,5.641841 4.60249,10.946856 3.49576,4.650393 4.45976,6.691363 4.00891,8.487663 -0.69458,2.76745 -6.96982,8.58784 -9.25896,8.58784 -0.86788,0 -4.27181,-2.025 -7.56428,-4.5 -5.16714,-3.8842 -6.64649,-4.5 -10.81052,-4.5 -8.36077,0 -11.65821,4.21363 -13.43529,17.16823 -0.3522,2.56753 -1.18082,5.11476 -1.84136,5.66051 -1.54195,1.27399 -7.61179,2.15334 -10.20099,1.47783 z m 16,-40.063749 C 590.19837,86.807476 596.01954,80.936813 598.63117,76 c 1.38233,-2.613035 1.85154,-5.654059 1.85154,-12 0,-9.582051 -1.27665,-12.94363 -7.34289,-19.334734 C 587.05163,38.251045 582.77927,36.523997 573,36.523997 c -9.77927,0 -14.05163,1.727048 -20.13982,8.141269 -6.06624,6.391104 -7.34289,9.752683 -7.34289,19.334734 0,9.582666 1.27749,12.946058 7.34289,19.332421 6.34913,6.685103 11.72275,8.745949 21.63982,8.299136 4.61849,-0.208086 8.36086,-1.020772 11,-2.388736 z M 24.994309,103.63422 C 7.527032,98.585368 -0.00192315,86.194167 0.00117802,62.500374 0.00414454,39.83534 6.2485238,27.803815 21.670499,20.748429 25.613391,18.944599 28.335819,18.535406 36.5,18.519492 c 8.924989,-0.0174 10.606468,0.278336 15.641507,2.750976 6.235121,3.061984 12.607077,9.356229 15.792216,15.599619 5.008016,9.816521 6.779634,25.142585 3.132018,27.094729 C 69.854019,64.61331 57.769533,65 38.715086,65 H 8.2986894 l 0.7829046,4.952625 c 1.05447,6.670538 4.336764,13.826216 8.21963,17.919487 4.891804,5.156882 9.978516,7.083964 18.698776,7.083964 12.321417,0 18.694804,-4.225925 24.5,-16.244919 2.620167,-5.424757 3.390617,-6.249275 6.085175,-6.512222 4.986386,-0.486595 6.099167,1.78877 4.051576,8.284478 -3.400402,10.787314 -11.816393,19.644207 -21.459442,22.583667 -5.67933,1.73121 -19.06932,2.04523 -24.183,0.56714 z M 61.978038,51.75 C 61.952458,47.964643 58.973961,40.96571 55.387687,36.263863 49.058431,27.96578 34.643003,25.383658 24.067395,30.653706 18.122306,33.616269 13.543708,39.204956 10.827504,46.814464 7.6592154,55.690495 5.5779537,55 35.5,55 H 62 Z M 299.99209,103.63989 C 291.33932,101.12702 283.16727,94.370681 279.00748,86.290611 272.23222,73.130175 272.3055,51.122295 279.1694,37.667944 288.921,18.553233 314.25395,12.122113 332.41425,24.151 c 5.18925,3.437213 11.74118,12.418861 13.67243,18.742701 1.87797,6.149368 2.40382,20.181624 0.79449,21.200901 -0.75964,0.481125 -15.27618,0.881663 -32.25898,0.890085 L 283.74438,65 l 0.65602,4.25 c 2.63027,17.040268 11.78288,25.730462 27.0996,25.730462 12.47623,0 20.5323,-5.642793 25.08847,-17.572958 1.78363,-4.670354 4.35983,-6.193463 8.33936,-4.93041 3.04732,0.967183 2.6753,5.996493 -0.98547,13.322335 -3.68457,7.373477 -11.08815,14.356891 -17.69816,16.693761 -6.26853,2.21614 -20.43834,2.83508 -26.25211,1.1467 z M 337.53227,51.25 C 335.77323,41.69442 329.87969,33.323891 322.5,29.89985 c -5.68496,-2.637716 -16.15109,-2.544159 -21.98158,0.196494 -7.71416,3.626085 -13.18861,11.029935 -15.38561,20.80809 L 284.21259,55 h 27.005 27.00499 z m 40.85124,52.40174 C 365.87721,100.46139 357.45376,91.825192 355.52451,80.215414 354.67806,75.121667 355.99406,73 360,73 c 3.31416,0 4.25511,1.110991 5.92864,7 1.59142,5.600065 8.0406,12.074995 13.72257,13.777355 5.21265,1.561747 16.44691,1.573138 21.62439,0.02193 2.2042,-0.660396 5.51891,-2.62603 7.36602,-4.368078 C 411.58218,86.657898 412,85.64216 412,81.266782 412,77.806878 411.39314,75.498221 410.0272,73.761707 406.74316,69.586722 403.62466,68.442965 382,63.482287 364.84502,59.54695 358,52.840603 358,39.968492 c 0,-14.257608 14.37225,-23.309718 34.36769,-21.645882 10.55339,0.878156 14.47484,2.471617 20.2925,8.245752 9.57757,9.505916 10.13603,23.175486 0.85162,20.845247 -1.66535,-0.417978 -2.7277,-1.536293 -3.11033,-3.274202 -1.97547,-8.972659 -4.07261,-11.850571 -10.63301,-14.591679 -5.30772,-2.217706 -18.11775,-2.026434 -23.34707,0.348603 -7.91657,3.595527 -10.72668,11.057463 -6.4343,17.085559 2.49577,3.504978 6.96194,5.296539 21.21262,8.509227 19.51414,4.39929 25.0636,7.235652 28.98972,14.816815 2.73171,5.274794 2.99665,15.635035 0.52021,20.341699 -2.46162,4.678472 -9.4501,10.187529 -15.16597,11.955399 -6.88206,2.12856 -20.81447,2.6655 -27.16017,1.04671 z m 74.02339,-0.0583 C 439.5897,100.48192 429.28599,88.349455 430.17944,77.420984 430.49456,73.566596 430.56794,73.5 434.5,73.5 c 3.93617,0 4.02637,0.08232 5.65241,5.158495 3.61545,11.286727 10.98359,16.345386 23.79393,16.335928 10.09004,-0.0074 14.74833,-1.453802 19.28111,-5.986583 C 486.21925,86.016041 487,84.476327 487,81.567987 487,72.683849 481.14106,68.588708 463.31885,65.0159 c -12.2842,-2.462603 -17.65834,-4.294818 -22.57321,-7.695922 -12.603,-8.721301 -10.85203,-28.123436 3.18428,-35.284224 5.59532,-2.854521 15.28094,-4.384113 23.71961,-3.745898 13.65871,1.033006 22.7542,7.521059 25.97588,18.529278 1.90622,6.513407 1.25468,9.743161 -2.13722,10.594475 -3.76576,0.945145 -6.30967,-0.918015 -7.06684,-5.175762 -1.76297,-9.913543 -8.37219,-14.251212 -21.66045,-14.215885 -13.42383,0.03569 -20.34264,4.569321 -20.11681,13.181786 0.19405,7.400492 5.4166,10.511589 24.733,14.733547 7.40863,1.619296 15.2347,3.844332 17.39126,4.944525 4.93301,2.516637 9.65317,7.835329 11.25146,12.678204 1.83893,5.572017 0.7024,14.750247 -2.40863,19.451341 -6.36422,9.616975 -25.22601,14.461075 -41.20428,10.582125 z M 72.638341,101.49991 c -0.36065,-0.93983 4.395676,-8.145858 12.735276,-19.294446 7.321003,-9.7869 14.079305,-18.967077 15.018453,-20.400392 L 102.0996,59.199043 88.549801,41.691684 C 81.046418,31.99675 75,23.250725 75,22.092162 75,20.232007 75.588713,20 80.30882,20 h 5.308821 l 11.414515,15.5 c 6.277984,8.525 11.651514,15.486188 11.941184,15.469306 0.28966,-0.01688 5.14919,-6.25621 10.79894,-13.865174 5.64975,-7.608964 11.11626,-14.598273 12.14779,-15.531798 2.39164,-2.164404 10.43328,-1.846362 10.81344,0.427666 0.13792,0.825 -5.63456,9.15 -12.82774,18.5 -7.19317,9.35 -13.30718,17.547899 -13.58667,18.217554 -0.2795,0.669655 6.05937,9.94246 14.08636,20.606234 C 138.8816,90.584242 145,99.633096 145,100.90849 c 0,2.01985 -0.41937,2.17178 -5.22737,1.89377 L 134.54527,102.5 122.02263,85.294448 c -6.88745,-9.463054 -12.77873,-17.225554 -13.09173,-17.25 -0.31301,-0.02445 -5.26301,6.356058 -11.000001,14.1789 C 82.870535,102.75933 82.633913,103 77.503397,103 c -2.890435,0 -4.477162,-0.48925 -4.865056,-1.50009 z m 163.988339,-0.0304 c -0.94882,-2.472573 -0.72034,-78.773512 0.24042,-80.288721 0.52413,-0.826605 2.29208,-1.20001 4.73469,-1 L 245.5,20.5 l 0.30226,5.25 c 0.16624,2.8875 0.5617,5.25 0.8788,5.25 0.3171,0 2.25971,-1.520641 4.31691,-3.379202 5.06579,-4.57664 13.9254,-7.795749 20.41419,-7.417434 L 276.5,20.5 v 3.995527 c 0,3.948307 -0.0532,4.005136 -4.5,4.808667 -12.57613,2.272481 -18.95664,6.669722 -23.08312,15.908131 -2.23105,4.994921 -2.39102,6.727172 -2.88935,31.287675 l -0.52753,26 -4.12332,0.30131 c -3.08276,0.22527 -4.28147,-0.11082 -4.75,-1.33179 z"
       id="path88"
       inkscape:connector-curvature="0" />
    <path
       style="fill:#cfcfcf"
       d="m 589.75125,278.75 c -1.0572,-0.81024 -2.0058,-4.01518 -2.69634,-9.10986 -0.58594,-4.32293 -1.80832,-9.42559 -2.71641,-11.33924 -2.36383,-4.9814 -8.153,-8.51749 -14.06169,-8.58903 -5.39507,-0.0653 -9.31053,1.68737 -16.54563,7.40639 C 551.03025,259.25322 547.73581,261 546.4102,261 543.38132,261 536,253.819 536,250.87231 c 0,-1.17022 2.28252,-5.20663 5.07227,-8.96979 7.548,-10.1817 8.44613,-15.90106 3.71908,-23.68361 -2.68424,-4.41931 -8.16825,-7.01684 -17.5137,-8.29547 -4.27771,-0.58527 -8.45265,-1.72354 -9.27765,-2.5295 -0.99988,-0.97679 -1.5,-3.44204 -1.5,-7.39394 0,-3.9519 0.50012,-6.41715 1.5,-7.39394 0.825,-0.80596 5.03694,-1.94938 9.35986,-2.54093 12.64357,-1.73017 17.74967,-5.32392 19.73762,-13.89162 1.34224,-5.7848 0.075,-9.6678 -5.69221,-17.44143 -2.95098,-3.97764 -5.37439,-8.24458 -5.38534,-9.48208 -0.0262,-2.95456 7.26497,-10.25306 10.23007,-10.24039 1.2375,0.005 5.175,2.2049 8.75,4.88803 11.187,8.39612 19.15376,8.88193 26.42435,1.61134 3.43025,-3.43025 4.24832,-5.89354 6.30393,-18.98177 0.60349,-3.84246 1.34822,-5.2727 3.27637,-6.29225 3.06013,-1.61811 11.60883,-1.06375 13.49968,0.87542 0.74524,0.76429 1.83384,4.88956 2.41911,9.16727 1.71092,12.50505 6.26548,18.57778 15.0839,20.1118 5.12485,0.89151 9.2596,-0.65669 16.91965,-6.33533 C 642.67669,141.27436 646.70209,139 647.87231,139 650.819,139 658,146.38132 658,149.4102 c 0,1.32561 -1.74678,4.62005 -3.88174,7.32098 -5.67306,7.17695 -7.47152,11.16221 -7.40834,16.4163 0.12663,10.53083 6.59013,15.50115 22.54364,17.3357 6.80004,0.78196 7.74644,1.97436 7.74644,9.75995 0,7.44295 -1.06904,8.44266 -10.37749,9.70442 -13.22606,1.79278 -19.79635,7.3308 -19.91075,16.78253 -0.0652,5.38756 1.68988,9.30668 7.4065,16.53874 4.95276,6.26571 4.93196,8.68096 -0.11826,13.73118 -5.03639,5.03639 -7.39927,5.06017 -13.61937,0.13706 -7.13123,-5.64425 -11.25191,-7.49061 -16.57425,-7.42645 -9.60662,0.11581 -15.04637,6.54068 -16.85883,19.9119 -0.69253,5.10899 -1.641,8.3168 -2.6988,9.12749 -0.89706,0.6875 -4.15899,1.25 -7.24875,1.25 -3.08976,0 -6.35169,-0.5625 -7.24875,-1.25 z M 608,234.78417 c 20.95076,-6.30866 31.4804,-31.47072 21.45862,-51.27842 -8.81152,-17.41566 -30.3065,-24.65179 -48.29587,-16.25847 -6.00957,2.8039 -14.0667,10.88509 -17.20136,17.25272 -2.14145,4.35008 -2.46139,6.36483 -2.46139,15.5 0,12.58189 1.92458,17.52355 9.95052,25.54948 10.01114,10.01114 23.03927,13.30287 36.54948,9.23469 z m -136.86643,-13.6506 c -1.02653,-1.02653 -2.18758,-4.00803 -2.5801,-6.62555 -0.97364,-6.49271 -4.08649,-9.51693 -9.75802,-9.4802 -3.18806,0.0207 -5.30815,0.79407 -8.22359,3 -4.83604,3.65913 -6.83063,3.72996 -9.49928,0.33732 -2.72068,-3.45878 -2.63748,-4.20299 1.0269,-9.18577 3.56646,-4.84963 4.13369,-9.64837 1.59793,-13.51842 -1.57195,-2.3991 -3.28691,-3.12741 -11.98142,-5.08826 -5.90627,-1.33202 -5.90627,-9.81336 0,-11.14538 8.69451,-1.96085 10.40947,-2.68916 11.98142,-5.08826 2.56243,-3.91076 1.9643,-8.59068 -1.76093,-13.77797 -2.86768,-3.99317 -3.1248,-4.85235 -2.11522,-7.06814 0.63211,-1.38732 2.28436,-3.03957 3.67168,-3.67168 2.21579,-1.00958 3.07497,-0.75246 7.06814,2.11522 5.18729,3.72523 9.86721,4.32336 13.77797,1.76093 2.3991,-1.57195 3.12741,-3.28691 5.08826,-11.98142 1.33202,-5.90627 9.81336,-5.90627 11.14538,0 1.96085,8.69451 2.68916,10.40947 5.08826,11.98142 3.87005,2.53576 8.66879,1.96853 13.51842,-1.59793 4.98278,-3.66438 5.72699,-3.74758 9.18577,-1.0269 3.39264,2.66865 3.32181,4.66324 -0.33732,9.49928 -6.03372,7.97438 -3.18639,16.39617 6.06172,17.92926 C 520.90633,169.63116 522,170.52967 522,175 c 0,4.47033 -1.09367,5.36884 -7.91046,6.49888 -9.24811,1.53309 -12.09544,9.95488 -6.06172,17.92926 3.57793,4.72873 3.70438,6.53537 0.65773,9.39755 -3.06269,2.87724 -4.57219,2.74714 -9.25741,-0.79787 -2.91544,-2.20593 -5.03553,-2.97935 -8.22359,-3 -5.67153,-0.0367 -8.78438,2.98749 -9.75802,9.4802 C 480.67069,219.68166 478.15163,223 475,223 c -1.1,0 -2.83989,-0.83989 -3.86643,-1.86643 z m 11.64855,-26.68662 c 7.8381,-3.27416 13.17396,-11.15077 13.17396,-19.44695 0,-11.30972 -9.67002,-21 -20.95608,-21 -14.56603,0 -25.01186,15.46015 -19.44695,28.78212 4.46081,10.67885 16.86665,15.99346 27.22907,11.66483 z M 152.62724,129.47099 C 152.28226,128.57198 152,104.28037 152,75.489641 c 0,-46.254652 0.18288,-52.529667 1.57143,-53.918212 1.84273,-1.84273 2.86643,-1.942644 5.49431,-0.536245 C 160.6202,21.867106 161,23.156491 161,27.601839 v 5.531471 l 4.78774,-4.915389 c 6.83561,-7.017866 13.91,-9.539035 25.2931,-9.013959 6.77193,0.312374 9.75308,0.969337 14.14151,3.116395 14.28497,6.988983 21.9334,23.511956 20.47165,44.225081 -1.75289,24.838711 -16.11777,38.518542 -39.10264,37.237882 -9.61199,-0.53556 -16.77005,-3.3078 -21.70962,-8.407908 L 161.5,91.883765 161,111.19188 160.5,130.5 l -3.62276,0.30278 c -2.62452,0.21935 -3.79559,-0.14762 -4.25,-1.33179 z M 200.5,93.612691 c 10.83509,-5.131001 15.58649,-13.642978 16.29019,-29.183318 0.64346,-14.209969 -2.58851,-24.347531 -9.92054,-31.117305 -9.29342,-8.580752 -26.87677,-8.339488 -36.2129,0.496883 -12.97055,12.276244 -12.47049,46.603964 0.82664,56.746179 7.82309,5.966959 20.13359,7.264151 29.01661,3.057561 z m 367.84419,34.390989 c -2.19261,-0.88439 -2.70495,-2.37611 -3.95103,-11.50368 -0.53852,-3.94473 -1.47143,-5.79145 -4.42023,-8.75 -3.3255,-3.3365 -4.28981,-3.75 -8.74527,-3.75 -4.36271,0 -5.79491,0.57955 -11.12046,4.5 -3.36205,2.475 -6.83155,4.5 -7.71001,4.5 C 530.30108,113 524,106.66461 524,104.55709 c 0,-0.9036 1.87812,-4.13045 4.1736,-7.170795 3.41409,-4.521932 4.25544,-6.514852 4.62336,-10.951384 0.43268,-5.217571 0.30119,-5.572057 -3.46312,-9.336364 -3.13452,-3.13452 -4.89962,-4.043599 -8.87336,-4.570046 -9.63827,-1.276893 -10.54364,-1.618016 -11.60128,-4.371127 -1.08776,-2.831533 -0.52397,-8.892605 0.96576,-10.382332 0.49366,-0.493664 4.2225,-1.387173 8.2863,-1.985575 6.50671,-0.958123 7.83639,-1.533638 11.13874,-4.821088 3.33711,-3.322058 3.75,-4.284445 3.75,-8.740723 0,-4.36271 -0.57955,-5.794902 -4.5,-11.120456 C 526.025,27.745151 524,24.275647 524,23.397191 524,21.324776 530.32478,15 532.39719,15 c 0.87846,0 4.34796,2.025 7.71001,4.5 5.26529,3.876088 6.78598,4.5 10.96801,4.5 8.14759,0 13.90135,-6.83195 13.91921,-16.5274938 C 565.00406,2.2421682 567.40618,0 573,0 c 5.59382,0 7.99594,2.2421682 8.00558,7.4725062 0.0102,5.5321408 1.98423,10.3113618 5.55351,13.4452278 2.89035,2.537768 4.3682,3.082266 8.3657,3.082266 4.18203,0 5.70272,-0.623912 10.96801,-4.5 3.36205,-2.475 6.83155,-4.5 7.71001,-4.5 2.07241,0 8.39719,6.324776 8.39719,8.397191 0,0.878456 -2.025,4.34796 -4.5,7.710009 -3.92045,5.325554 -4.5,6.757746 -4.5,11.120456 0,4.456278 0.41289,5.418665 3.75,8.740723 3.30235,3.28745 4.63203,3.862965 11.13874,4.821088 4.0638,0.598402 7.79264,1.491911 8.2863,1.985575 1.48973,1.489727 2.05352,7.550799 0.96576,10.382332 -1.05764,2.753111 -1.96301,3.094234 -11.60128,4.371127 -3.93783,0.521689 -5.74174,1.438425 -8.75,4.446689 C 613.41249,80.352215 613,81.30979 613,85.772344 c 0,4.36271 0.57955,5.794902 4.5,11.120456 2.475,3.36205 4.5,6.83155 4.5,7.71001 0,2.07241 -6.32478,8.39719 -8.39719,8.39719 -0.87846,0 -4.34796,-2.025 -7.71001,-4.5 -5.32555,-3.92045 -6.75775,-4.5 -11.12046,-4.5 -4.46255,0 -5.42012,0.41249 -8.79715,3.78952 -3.00826,3.00826 -3.925,4.81217 -4.44669,8.75 -1.25976,9.50897 -1.63873,10.55189 -4.18623,11.52045 -2.98317,1.1342 -6.09484,1.11473 -8.99808,-0.0563 z m 16.87335,-37.775708 c 10.46957,-4.631192 17.40138,-16.297123 16.5121,-27.789177 -1.55434,-20.08669 -20.50565,-32.358452 -39.18079,-25.37119 -17.56298,6.571154 -23.91144,28.228857 -12.92752,44.102064 7.3119,10.566646 23.10239,14.584913 35.59621,9.058303 z M 23.299837,102.13789 C 10.948304,97.870058 3.8001493,89.431149 1.4721535,76.36875 -1.0351342,62.300342 0.33461439,45.994931 4.740707,37.460072 7.7023209,31.723252 14.058649,25.517251 20.215646,22.351115 27.698688,18.503081 40.965931,17.855288 49.147094,20.938494 62.698067,26.0454 71.95358,40.715986 71.988131,57.143011 c 0.0089,4.230858 -0.38397,5.794909 -1.569918,6.25 C 69.548229,63.726855 55.085273,64 38.27831,64 H 7.7201943 l 0.5536183,5.364045 c 1.1954092,11.5824 8.2187564,21.367232 18.0250844,25.112303 5.659749,2.161478 17.467322,1.74619 22.344984,-0.785903 5.06159,-2.627574 9.501832,-7.740322 12.54102,-14.440445 2.568336,-5.662094 3.119221,-6.25 5.85644,-6.25 4.06022,0 4.713156,2.195756 2.504645,8.422864 -3.842596,10.834569 -11.056201,17.869364 -21.505569,20.972496 -7.141302,2.12074 -18.190604,2.00575 -24.74058,-0.25747 z M 63,53.037513 C 63,48.698254 59.487453,40.041736 56.021875,35.840231 47.368421,25.349186 29.694818,24.032897 18.739132,33.063499 14.782042,36.325267 9.5490588,46.164215 8.5345216,52.25 L 7.9093739,56 H 35.454687 63 Z M 298.20496,102.16979 C 283.42657,96.886585 274.65184,82.330034 274.5933,63 274.53505,43.765688 282.27508,28.941101 295.85849,22.270468 300.93539,19.777271 302.55085,19.5 312,19.5 c 9.43454,0 11.00736,0.268942 15.5,2.65039 11.02026,5.841596 17.59112,16.077109 19.64513,30.601472 0.91632,6.479508 0.89451,8.495446 -0.10495,9.699722 -1.07053,1.28991 -5.97943,1.560244 -32.40093,1.784325 L 283.5,64.5 l 0.32727,5 c 0.62162,9.497028 6.85141,19.682669 14.54852,23.786679 5.9656,3.180784 20.29744,3.172697 26.27748,-0.01483 5.26016,-2.803804 9.93263,-8.413227 12.1326,-14.565474 1.19961,-3.354767 2.38882,-4.96298 3.96189,-5.357847 6.03065,-1.513787 6.85796,3.118694 2.21596,12.408164 -3.48926,6.982616 -9.19534,12.571903 -15.84132,15.517068 -6.74674,2.98983 -21.75938,3.455 -28.91744,0.89603 z M 338.4683,55.051296 C 339.38472,53.568485 336.99673,44.931115 334.41407,40.387152 329.44,31.635709 321.51366,26.986532 311.62788,27.021962 297.92773,27.071063 286.2579,37.543459 284.3441,51.50618 L 283.72815,56 h 27.07691 c 15.99656,0 27.31684,-0.388226 27.66324,-0.948704 z m 37.93628,47.345044 C 365.33632,98.993637 356.6621,88.803623 356.55184,79.074384 356.50017,74.515148 356.51143,74.5 359.95255,74.5 c 3.23788,0 3.56378,0.310888 5.24141,5 4.40509,12.312578 12.86377,17.232928 27.88794,16.222217 C 406.15035,94.843072 413,89.760246 413,80.941867 c 0,-8.687609 -6.41853,-13.256852 -23,-16.373306 -17.42995,-3.275924 -26.60584,-7.987622 -29.62423,-15.211649 -3.06819,-7.343212 -0.97719,-18.792571 4.30436,-23.568717 6.63767,-6.002496 25.17104,-8.717625 36.67607,-5.373023 10.15242,2.951388 17.57311,11.927622 17.62184,21.315776 0.0192,3.693216 -0.29743,4.311109 -2.49103,4.861667 -3.40712,0.855133 -4.85756,-0.61189 -6.34568,-6.418224 -2.21094,-8.626635 -9.65024,-13.17962 -21.51706,-13.168814 -8.23968,0.0075 -13.12667,1.511488 -17.2804,5.3181 -6.63873,6.083939 -5.07794,15.189559 3.28807,19.182587 2.12743,1.015406 10.34372,3.336146 18.25842,5.157199 19.3546,4.453203 24.74914,7.779028 27.95669,17.23576 3.89153,11.473318 -3.29573,24.42224 -15.62231,28.145897 -6.36849,1.92382 -23.04379,2.12704 -28.82016,0.35122 z m 76.32989,0.5767 C 441.15702,100.0576 432.73958,91.292179 430.67345,80 c -0.85763,-4.687275 0.29336,-6.220566 4.37202,-5.824183 3.04656,0.296078 3.43692,0.722788 4.50272,4.922039 2.628,10.354341 10.19159,15.986269 22.41999,16.69416 17.7682,1.028586 28.91747,-7.518383 25.05888,-19.21001 C 484.99228,70.416548 478.8299,67.350572 461.5,63.881503 440.07936,59.593556 432.05972,52.352031 433.22117,38.346464 c 0.50745,-6.119158 2.4387,-9.291142 8.48123,-13.930003 5.23189,-4.016528 13.68549,-5.804365 24.70946,-5.225754 14.69036,0.771047 23.66548,7.173627 26.77575,19.101019 1.4677,5.628427 0.48356,8.04347 -3.47121,8.518206 -2.84584,0.341618 -4.03543,-1.202749 -5.04969,-6.555655 -1.57369,-8.305342 -9.39767,-13.227972 -21.05069,-13.244508 -8.79869,-0.01249 -14.04328,1.584369 -18.25764,5.559027 C 442.50227,35.262454 442,36.417415 442,40.291352 c 0,3.39811 0.63409,5.308772 2.49628,7.521853 3.17192,3.769618 7.14624,5.334034 22.01443,8.665557 14.95583,3.351161 20.53079,5.71789 24.92443,10.581122 3.88669,4.3021 5.0114,8.541837 4.35757,16.426276 -0.65458,7.893303 -4.12,12.565041 -12.31214,16.59802 -5.93012,2.91939 -7.6351,3.27918 -16.79046,3.54322 -5.60456,0.16163 -11.8846,-0.13283 -13.95564,-0.65436 z M 74.628174,101.71738 c -1.905711,-1.39349 -0.367521,-3.758472 20.202745,-31.061944 4.571839,-6.068327 7.871561,-11.35345 7.492091,-12 C 101.95004,58.019946 95.874778,49.99563 88.822437,40.823623 81.770097,31.651615 76,23.447689 76,22.592675 c 0,-2.060331 4.538543,-3.123959 7.524594,-1.763423 1.307411,0.595696 7.38044,7.740309 13.495619,15.876916 C 103.13539,44.842776 108.5263,51.5 109,51.5 c 0.4737,0 5.86461,-6.657224 11.97979,-14.793832 6.11518,-8.136607 12.1882,-15.28122 13.49562,-15.876916 C 137.16127,19.60549 142,20.459044 142,22.156593 c 0,0.615169 -6.075,9.127303 -13.5,18.915855 -7.425,9.788551 -13.5,18.05717 -13.5,18.374709 0,0.317539 6.525,9.27286 14.5,19.900714 7.975,10.627854 14.5,20.063768 14.5,20.968699 0,1.90388 -3.91639,3.16213 -6.89743,2.21598 C 135.97959,102.17614 129.398,94.148003 122.47681,84.69226 115.55562,75.236517 109.4978,67.5 109.015,67.5 c -0.4828,0 -6.5246,7.516803 -13.426211,16.704007 C 81.246781,103.29561 79.165147,105.0349 74.628174,101.71738 Z M 238.75,101.9199 C 237.13017,100.97644 237,97.968745 237,61.485494 237,23.54037 237.07214,22.03176 238.93426,21.035184 243.39965,18.64538 246,21.268981 246,28.164098 v 5.021241 l 4.83499,-4.34267 c 10.69249,-9.603724 29.47119,-11.394363 25.38235,-2.420328 -0.95914,2.105077 -1.86591,2.578681 -4.9459,2.583236 -6.20543,0.0092 -10.75271,1.785676 -15.68591,6.128056 -8.81606,7.7602 -9.0147,8.571611 -9.58553,39.154668 -0.41706,22.344837 -0.74881,26.945279 -2,27.734689 -1.89822,1.19763 -3.05582,1.1749 -5.25,-0.10309 z"
       id="path86"
       inkscape:connector-curvature="0" />
    <path
       style="fill:#b0b0b0"
       d="m 590.70455,278.75 c -1.11817,-0.83311 -2.04263,-3.90079 -2.77191,-9.19819 -1.92723,-13.99913 -6.60099,-19.61087 -16.95691,-20.35995 -6.42186,-0.46451 -9.41554,0.73792 -17.24455,6.9264 -6.10443,4.82527 -8.65369,4.89256 -13.19785,0.34841 -4.53052,-4.53053 -4.46769,-7.02489 0.32961,-13.08604 6.15047,-7.77082 7.41074,-10.92028 6.9452,-17.35636 C 547.05973,215.67771 541.62714,211.15502 527.5,209.11755 518.24562,207.78285 517,206.70123 517,200 c 0,-6.72051 1.24419,-7.80027 10.44819,-9.06736 13.99913,-1.92723 19.61087,-6.60099 20.35995,-16.95691 0.46451,-6.42186 -0.73792,-9.41554 -6.9264,-17.24455 -4.82527,-6.10443 -4.89256,-8.65369 -0.34841,-13.19785 4.54416,-4.54415 7.09342,-4.47686 13.19785,0.34841 7.82901,6.18848 10.82269,7.39091 17.24455,6.9264 10.35592,-0.74908 15.02968,-6.36082 16.95691,-20.35995 C 589.19973,121.24419 590.27949,120 597,120 c 6.70123,0 7.78285,1.24562 9.11755,10.5 2.03747,14.12714 6.56016,19.55973 16.90672,20.30814 6.43608,0.46554 9.58554,-0.79473 17.35636,-6.9452 6.06115,-4.7973 8.55551,-4.86013 13.08604,-0.32961 4.54415,4.54416 4.47686,7.09342 -0.34841,13.19785 C 647.55091,163.77439 646,167.25713 646,172.71594 c 0,10.35042 6.81433,16.41429 20.5,18.24232 9.26378,1.2374 10.5,2.30193 10.5,9.04174 0,6.70584 -1.24414,7.78465 -10.5,9.10468 -13.70681,1.95479 -19.58064,6.86203 -20.31173,16.96925 -0.46053,6.36683 0.75508,9.38305 6.92999,17.19489 4.82527,6.10443 4.89256,8.65369 0.34841,13.19785 -4.54416,4.54415 -7.09342,4.47686 -13.19785,-0.34841 C 633.26986,250.5859 629.74571,249 624.45079,249 c -10.59821,0 -16.34415,6.34181 -18.28917,20.18582 C 604.81322,278.78329 603.78244,280 597,280 c -2.53976,0 -5.37271,-0.5625 -6.29545,-1.25 z m 22.83207,-45.47487 c 6.98959,-3.57605 13.14995,-9.83847 17.15082,-17.43492 C 633.25322,210.96857 633.5,209.5787 633.5,200 c 0,-9.84093 -0.19814,-10.87891 -3.15668,-16.53662 -3.83364,-7.33118 -10.55829,-13.7356 -18.16817,-17.30297 C 607.27822,163.86482 605.19729,163.5 597,163.5 c -8.19729,0 -10.27822,0.36482 -15.17515,2.66041 -7.94563,3.72477 -14.22196,9.86952 -18.07492,17.69598 -2.97677,6.04669 -3.24993,7.40181 -3.24993,16.12258 0,8.19753 0.36631,10.30226 2.63517,15.14104 4.50062,9.59848 12.3161,16.66865 22.70901,20.54341 2.39943,0.89458 6.74884,1.2491 12.65582,1.0316 7.70711,-0.2838 9.86719,-0.77508 15.03662,-3.41989 z M 471.21603,220.75 c -0.56587,-0.6875 -1.36219,-3.48833 -1.76959,-6.22407 -1.52433,-10.23603 -9.8288,-13.65355 -18.28774,-7.52593 -4.76864,3.45438 -7.16972,3.7503 -9.50371,1.17126 -2.29252,-2.53321 -2.07173,-4.00254 1.36321,-9.07174 6.02366,-8.88959 2.71724,-17.01785 -7.54413,-18.54596 C 429.43291,179.65392 428,178.5892 428,175 c 0,-3.5892 1.43291,-4.65392 7.47407,-5.55356 10.26137,-1.52811 13.56779,-9.65637 7.54413,-18.54596 -3.46929,-5.1199 -3.70695,-6.96719 -1.18946,-9.24549 2.53321,-2.29252 4.00254,-2.07173 9.07174,1.36321 8.88959,6.02366 17.01785,2.71724 18.54596,-7.54413 C 470.34608,129.43291 471.4108,128 475,128 c 3.5892,0 4.65392,1.43291 5.55356,7.47407 1.52811,10.26137 9.65637,13.56779 18.54596,7.54413 5.1199,-3.46929 6.96719,-3.70695 9.24549,-1.18946 2.08513,2.30404 2.12497,5.53632 0.089,7.22598 -2.53852,2.10679 -4.43406,6.58374 -4.43406,10.47254 0,5.30013 4.05832,9.01802 10.86577,9.95428 4.28851,0.58982 5.43035,1.16711 6.17324,3.12107 0.54865,1.44305 0.54865,3.35173 0,4.79478 -0.74289,1.95396 -1.88473,2.53125 -6.17324,3.12107 -10.56928,1.45365 -14.00416,9.54901 -7.88397,18.58106 3.46929,5.1199 3.70695,6.96719 1.18946,9.24549 -2.53321,2.29252 -4.00254,2.07173 -9.07174,-1.36321 -8.88959,-6.02366 -17.01785,-2.71724 -18.54596,7.54413 C 479.65392,220.56709 478.5892,222 475,222 c -1.51531,0 -3.2181,-0.5625 -3.78397,-1.25 z M 481.5,195.8815 c 2.47422,-0.68495 5.76879,-2.87614 8.63708,-5.74442 9.18115,-9.18115 9.18115,-21.09301 0,-30.27416 -9.18115,-9.18115 -21.09301,-9.18115 -30.27416,0 -8.94083,8.94084 -9.14794,20.73546 -0.5238,29.82996 6.22154,6.56086 13.48712,8.58983 22.16088,6.18862 z M 154.24122,130.17024 c -0.99156,-0.62948 -1.20384,-12.24884 -1,-54.734682 L 153.5,21.5 h 3 c 2.93245,0 3.00692,0.123841 3.30728,5.5 0.16901,3.025 0.66227,5.858257 1.09613,6.296128 0.43387,0.43787 2.01895,-0.816624 3.52241,-2.787766 7.7994,-10.225531 23.3756,-13.846736 38.09138,-8.855602 7.19053,2.438803 16.36033,11.866687 19.32495,19.868852 4.21203,11.369179 4.4345,28.705804 0.50847,39.623724 -4.06601,11.307203 -13.85401,19.591064 -25.81496,21.847934 -11.57921,2.18484 -24.27575,-1.07049 -30.98893,-7.945419 -2.12946,-2.18076 -4.24861,-3.732097 -4.70924,-3.447417 C 160.37687,91.885114 160,100.59333 160,110.95203 c 0,16.25165 -0.21688,18.91722 -1.58179,19.44098 -2.03759,0.7819 -2.64552,0.74948 -4.17699,-0.22277 z M 200.25097,94.539605 C 214.59964,88.544347 221.58723,68.393367 216.13529,48.731989 212.95703,37.270215 207.33968,30.826757 197.71505,27.602807 184.34131,23.123022 170.60954,28.949242 164.31095,41.775753 161.63612,47.222801 161.5,48.177957 161.5,61.5 c 0,14.859809 0.61935,17.747556 5.3218,24.813225 2.82824,4.249572 9.5931,8.652123 15.07554,9.811116 4.93782,1.043861 13.91835,0.268441 18.35363,-1.584736 z m 367.90821,32.579935 c -0.73746,-0.46741 -1.95163,-4.36719 -2.69817,-8.66618 -1.16943,-6.73429 -1.85134,-8.31036 -4.92584,-11.38485 -3.27338,-3.27338 -4.04958,-3.56851 -9.38542,-3.56851 -5.31264,0 -6.29448,0.36844 -11.3257,4.25 -3.02984,2.3375 -6.2202,4.25 -7.0897,4.25 C 530.21516,112 525,107.03656 525,104.63895 c 0,-1.20079 1.28447,-3.74829 2.85437,-5.661106 7.42571,-9.047687 8.06472,-16.525423 1.93593,-22.654215 -2.91538,-2.915381 -4.59481,-3.630047 -11.24366,-4.784643 -4.29899,-0.746536 -8.19877,-1.960709 -8.66618,-2.698162 -1.09789,-1.732188 -1.09789,-7.94946 0,-9.681648 0.46741,-0.737453 4.36719,-1.951626 8.66618,-2.698162 6.64885,-1.154596 8.32828,-1.869262 11.24366,-4.784643 6.12879,-6.128792 5.48978,-13.606528 -1.93593,-22.654215 -3.59073,-4.375045 -3.60301,-6.930733 -0.0497,-10.335065 3.57635,-3.426359 5.8849,-3.388564 10.21744,0.167279 9.04768,7.425705 16.52542,8.064718 22.65421,1.935925 2.91538,-2.91538 3.63005,-4.594807 4.78464,-11.2436508 0.74654,-4.29899 1.96071,-8.1987719 2.69817,-8.66618204 1.73218,-1.09788952 7.94946,-1.09788952 9.68164,0 0.73746,0.46741014 1.95163,4.36719204 2.69817,8.66618204 1.15459,6.6488438 1.86926,8.3282708 4.78464,11.2436508 6.12879,6.128793 13.60653,5.48978 22.65421,-1.935925 C 609.89066,17.284466 612.43816,16 613.63895,16 616.03656,16 621,21.215157 621,23.734354 c 0,0.869497 -1.9125,4.059858 -4.25,7.089692 -3.88156,5.031226 -4.25,6.013066 -4.25,11.325705 0,5.33584 0.29513,6.112041 3.56851,9.385421 3.07449,3.074498 4.65056,3.756408 11.38485,4.925842 4.29899,0.746536 8.19877,1.960709 8.66618,2.698162 1.09789,1.732188 1.09789,7.94946 0,9.681648 -0.46741,0.737453 -4.36719,1.951626 -8.66618,2.698162 -6.73429,1.169434 -8.31036,1.851344 -11.38485,4.925842 -3.27338,3.27338 -3.56851,4.049581 -3.56851,9.385421 0,5.312639 0.36844,6.294479 4.25,11.325705 2.3375,3.029836 4.25,6.289336 4.25,7.243336 0,2.24645 -5.33426,7.58071 -7.58071,7.58071 -0.954,0 -4.2135,-1.9125 -7.24334,-4.25 -5.03122,-3.88156 -6.01306,-4.25 -11.3257,-4.25 -5.33584,0 -6.11204,0.29513 -9.38542,3.56851 -3.0745,3.07449 -3.75641,4.65056 -4.92584,11.38485 -0.74654,4.29899 -1.96071,8.19877 -2.69817,8.66618 -0.73745,0.46741 -2.91582,0.84983 -4.84082,0.84983 -1.925,0 -4.10337,-0.38242 -4.84082,-0.84983 z m 17.70836,-36.297461 c 5.84017,-2.827181 11.19641,-8.264487 14.18448,-14.399168 C 601.93174,72.56373 602.44986,69.87942 602.44986,64 602.44986,55.21776 599.91298,48.912981 594,43 588.11217,37.112169 581.78727,34.565986 573,34.54614 563.90641,34.5256 558.16183,36.838167 552,43 c -19.55691,19.556906 -4.12406,52.790742 23.44463,50.486782 3.26954,-0.273241 7.95985,-1.472358 10.42291,-2.664703 z M 26.383506,102.58822 C 12.639871,99.252851 3.745293,89.154973 1.1298144,73.918087 -0.37528669,65.149882 -0.2942376,58.713778 1.4351003,49.675344 3.2057332,40.421081 5.8523574,35.095011 11.473684,29.473684 28.324821,12.622548 56.675388,17.142033 66.936065,38.315181 70.178994,45.00704 72.58955,56.514909 71.58596,60.513533 L 70.961896,63 40.230948,63.015313 c -16.902021,0.0084 -31.3607234,0.414058 -32.1304489,0.901413 -1.1752578,0.744121 -1.200422,1.898 -0.1570496,7.20136 1.6136425,8.201988 4.9358555,14.636709 9.8481585,19.07468 C 22.799618,94.717201 27.80016,96.43017 36,96.43017 c 3.575,0 8.246319,-0.601099 10.380708,-1.335775 5.6572,-1.947259 11.528902,-7.744217 14.765932,-14.577969 2.732763,-5.769185 4.967417,-7.759221 7.60336,-6.771052 2.118142,0.794055 1.393199,5.648615 -1.796831,12.03243 -4.812868,9.631401 -12.240351,15.064766 -23.418553,17.131166 -7.247201,1.33972 -10.564662,1.27767 -17.15111,-0.32075 z M 63.537302,51.75 C 63.186131,49.4125 61.455427,44.575 59.691295,41 53.146492,27.737012 38.572742,22.671932 24.661598,28.825493 16.255515,32.543903 9.7043587,41.582001 8.3726236,51.298067 L 7.728152,56 h 28.223822 28.223822 z m 239.869408,51.28009 c -6.83052,-1.4556 -11.1316,-3.692613 -16.18115,-8.415871 -7.90564,-7.394806 -12.2387,-18.776537 -12.21078,-32.074318 0.0308,-14.663718 4.62754,-26.270485 13.68124,-34.545061 6.78263,-6.198941 13.20247,-8.479646 23.85148,-8.473454 7.08833,0.0041 8.85149,0.400481 14.79302,3.325486 C 339.16955,28.670284 346.09675,40.378954 346.36328,55 L 346.5,62.5 315,63 283.5,63.5 283.16769,67 c -0.46766,4.925634 2.44747,13.797345 6.25868,19.047277 1.91908,2.643517 5.43494,5.664027 8.65305,7.433921 4.78465,2.631448 6.35913,2.974155 13.42058,2.92117 6.64346,-0.04985 8.89182,-0.516633 13.25937,-2.752792 5.72429,-2.9308 10.10944,-8.120743 12.78834,-15.135328 1.72431,-4.515039 3.97255,-5.921854 6.8713,-4.299637 3.71228,2.0775 -1.69122,14.147533 -9.46085,21.133099 -7.49777,6.74114 -20.78571,9.97658 -31.55145,7.68238 z M 338.62538,51.25 c -0.91979,-6.758259 -5.06594,-14.615295 -9.89265,-18.746777 -10.75238,-9.203638 -25.92831,-8.344716 -36.39545,2.059898 -4.15892,4.134084 -5.56855,6.445809 -7.25,11.889714 C 283.93928,50.169644 283,53.838269 283,54.605335 283,55.765176 287.73734,56 311.13592,56 h 28.13593 z M 380,102.66768 c -6.80064,-1.58401 -12.65927,-4.596751 -16.19105,-8.326097 -5.76766,-6.090301 -8.98974,-18.567506 -5.17303,-20.032115 2.54413,-0.976273 4.55749,0.899807 5.92081,5.517115 1.79679,6.085339 5.80697,10.813238 11.75528,13.859164 4.30713,2.205535 6.5463,2.663311 13.18799,2.696161 17.36827,0.0859 27.06962,-7.86193 23.62602,-19.355629 -2.01435,-6.723296 -8.76761,-10.332083 -25.22862,-13.481595 -16.02494,-3.066077 -25.39958,-8.602035 -27.72817,-16.374175 -3.46882,-11.577887 1.75214,-21.261288 13.89944,-25.779524 5.74912,-2.138409 20.73038,-2.384352 27.39994,-0.449817 7.32797,2.125511 14.87317,9.813295 16.5085,16.820454 C 419.50856,44.323706 418.91306,46 415.05044,46 c -2.47191,0 -3.12157,-0.493358 -3.6212,-2.75 -2.20459,-9.957266 -5.13477,-13.236401 -14.17664,-15.864946 -9.86862,-2.868886 -22.72097,-0.182435 -27.75632,5.801741 -3.51484,4.177141 -3.51342,11.423647 0.003,15.217896 3.40253,3.671387 7.84167,5.376994 22.50075,8.645237 18.33747,4.088338 23.27382,6.646157 27.0279,14.00476 2.33928,4.585373 2.63065,13.433426 0.60222,18.288127 -1.90215,4.552494 -9.10357,10.423334 -14.89556,12.143375 -7.16646,2.12821 -18.372,2.66346 -24.73456,1.18149 z m 73.74139,-0.22977 c -7.19495,-1.74352 -10.32777,-3.369928 -14.64298,-7.601918 -6.44766,-6.323318 -10.4058,-18.736584 -6.45753,-20.251678 2.7085,-1.039349 5.31795,0.381083 5.93808,3.232336 1.19824,5.50933 2.75556,8.236981 6.86609,12.025935 5.47553,5.047166 10.2887,6.6466 19.73248,6.557178 C 479.24799,96.266533 488,90.520351 488,81.415544 488,71.574511 482.42176,67.651951 462.57385,63.53613 441.36793,59.138703 434.85864,54.19001 434.16642,41.93935 c -0.31626,-5.596928 10e-4,-7.465203 1.81734,-10.696658 2.46405,-4.384193 8.4743,-8.713117 14.50691,-10.448701 5.36001,-1.542078 19.98399,-1.533187 25.21728,0.01533 9.57323,2.832694 17.54397,12.511657 17.039,20.690679 -0.22854,3.701884 -0.46567,4 -3.1816,4 -2.67431,0 -3.04485,-0.431938 -4.17669,-4.868757 -2.46361,-9.657325 -9.26201,-13.917755 -22.41535,-14.047279 -7.25712,-0.07146 -9.2672,0.293883 -13.5,2.453707 -6.03571,3.07977 -8.80367,7.615425 -8.11042,13.289945 0.91706,7.506476 5.97289,10.456485 25.41826,14.83122 7.54537,1.697524 15.33646,3.904716 17.31353,4.904871 14.74713,7.460224 15.62326,28.156896 1.54128,36.409484 -4.82821,2.829519 -15.8443,5.529869 -22.13596,5.426129 -2.2,-0.0363 -6.59138,-0.6939 -9.75861,-1.46141 z M 74.666667,101.33333 C 74.3,100.96667 74,100.36792 74,100.00278 74,99.637635 80.525,90.636386 88.5,80 96.475,69.363614 103,60.1299 103,59.480635 103,58.83137 96.896817,50.360249 89.437371,40.655922 81.977924,30.951594 76.154482,22.55906 76.496388,22.005845 77.588458,20.238838 83.799154,20.866849 85.711045,22.93761 86.69497,24.003295 92,30.962354 97.5,38.402185 c 5.5,7.439831 10.675,13.526966 11.5,13.526966 0.825,0 6,-6.082547 11.5,-13.516772 5.5,-7.434225 10.96563,-14.427696 12.14585,-15.541048 2.24715,-2.11983 7.39314,-2.307855 8.05273,-0.294231 0.19405,0.592406 -5.72988,9.079137 -13.16428,18.859403 -7.67832,10.101138 -13.21973,18.274989 -12.82866,18.922899 0.37865,0.627329 7.16441,9.781943 15.07948,20.343587 7.91506,10.561644 14.09983,19.674141 13.74393,20.250001 -1.04715,1.69434 -7.06925,1.21313 -8.79748,-0.70299 -0.86813,-0.9625 -6.80316,-8.95 -13.18896,-17.75 -6.38581,-8.8 -12.0144,-16 -12.50799,-16 -0.49359,0 -6.62979,7.65 -13.63599,17 -7.006203,9.35 -13.224568,17.33061 -13.81859,17.73469 -1.35548,0.92205 -6.023361,0.98866 -6.913373,0.0986 z M 238.06726,100.12567 C 237.36626,98.815851 237,85.476823 237,61.256871 c 0,-39.730152 0.13445,-40.796528 5.05603,-40.101841 2.25598,0.318434 2.46687,0.825731 2.74169,6.59497 0.16374,3.4375 0.56828,6.25 0.89898,6.25 0.33069,0 2.19176,-1.637683 4.1357,-3.639297 4.89149,-5.036605 13.11463,-8.623252 20.07237,-8.754864 5.54936,-0.104971 5.59523,-0.08173 5.59523,2.835293 0,2.847482 -0.21959,2.981661 -6.8963,4.213929 -10.41477,1.922173 -16.88261,7.048908 -21.31931,16.898766 -1.50652,3.344619 -1.85423,7.909606 -2.28094,29.946173 l -0.50345,26 -2.68274,0.30993 c -1.86608,0.21559 -3.00763,-0.29713 -3.75,-1.68426 z"
       id="path84"
       inkscape:connector-curvature="0" />
    <path
       style="fill:#8c8c8c"
       d="m 592.0626,278.25 c -1.62941,-1.32075 -2.41181,-3.57607 -3.18976,-9.19464 -1.89075,-13.6556 -7.39713,-20.104 -17.81027,-20.85722 -6.46222,-0.46743 -9.29848,0.65016 -17.64757,6.95378 C 550.6118,257.26837 547.43493,259 546.3553,259 543.89277,259 538,253.03568 538,250.54326 c 0,-1.02384 1.73163,-4.15506 3.84808,-6.95826 6.30362,-8.34909 7.42121,-11.18535 6.95378,-17.64757 -0.31116,-4.30164 -1.10386,-6.64458 -3.16029,-9.34071 -3.61528,-4.73987 -7.3018,-6.52494 -16.956,-8.21034 -4.39511,-0.76729 -8.59736,-1.89821 -9.33834,-2.51317 -1.8408,-1.52773 -1.77111,-10.27653 0.0942,-11.8246 0.79278,-0.65795 4.70537,-1.64859 8.69463,-2.20142 13.45762,-1.86493 19.91632,-7.42318 20.6658,-17.78462 0.46743,-6.46222 -0.65016,-9.29848 -6.95378,-17.64757 C 539.73163,153.6118 538,150.43493 538,149.3553 538,146.89277 543.96432,141 546.45674,141 c 1.02384,0 4.15506,1.73163 6.95826,3.84808 8.34909,6.30362 11.18535,7.42121 17.64757,6.95378 10.36144,-0.74948 15.91969,-7.20818 17.78462,-20.6658 0.55283,-3.98926 1.54347,-7.90185 2.20142,-8.69463 0.74113,-0.893 3.04329,-1.44143 6.05078,-1.44143 6.02042,0 7.38801,1.78787 8.35782,10.92626 1.31312,12.37335 7.26111,19.13641 17.48022,19.8756 6.50814,0.47075 9.49712,-0.70077 17.65494,-6.91976 2.80081,-2.13516 5.97503,-3.8821 7.05383,-3.8821 2.46135,0 8.3538,5.96507 8.3538,8.45674 0,1.02384 -1.73163,4.15506 -3.84808,6.95826 -6.30362,8.34909 -7.42121,11.18535 -6.95378,17.64757 0.74835,10.34583 7.86943,16.4587 20.55301,17.64311 7.726,0.72147 11.24885,3.2701 11.24885,8.13808 0,5.12312 -2.6399,7.12411 -11,8.33782 -13.78562,2.00138 -20.04899,7.34761 -20.80186,17.75585 -0.46743,6.46222 0.65016,9.29848 6.95378,17.64757 2.11645,2.8032 3.84808,5.98007 3.84808,7.0597 0,2.46253 -5.96432,8.3553 -8.45674,8.3553 -1.02384,0 -4.15506,-1.73163 -6.95826,-3.84808 -8.34909,-6.30362 -11.18535,-7.42121 -17.64757,-6.95378 -10.53098,0.76175 -15.883,7.13848 -17.73539,21.13108 -1.1488,8.67779 -2.55478,10.58542 -7.84126,10.63898 -1.72656,0.0175 -4.11075,-0.7557 -5.29818,-1.7182 z m 21.38331,-43.81276 c 7.53305,-3.72127 14.2126,-10.3776 18.05409,-17.99133 2.76534,-5.48082 3,-6.76722 3,-16.44591 0,-9.67202 -0.2355,-10.96537 -2.98645,-16.40152 C 627.4336,175.53612 621.26528,169.4946 613.22477,165.68565 607.13382,162.80025 605.60462,162.5 597,162.5 c -8.3075,0 -10.25316,0.35128 -15.5,2.79847 -7.87502,3.67299 -15.60984,11.37485 -19.1787,19.09695 -2.46869,5.34162 -2.8213,7.2919 -2.8213,15.60458 0,8.55627 0.3077,10.14571 3.09741,16 3.75916,7.88869 9.54824,14.02485 16.61824,17.61457 7.9134,4.01796 9.49756,4.35005 19.28435,4.04262 7.59689,-0.23864 9.92697,-0.74063 14.94591,-3.21995 z M 471.57093,219.81387 c -0.22843,-0.72263 -0.94455,-3.67357 -1.59137,-6.55765 C 468.53549,206.81742 464.58791,203 459.37361,203 c -3.75216,0 -8.23908,1.92804 -10.31889,4.43406 -2.48435,2.99347 -8.08017,1.33345 -8.03652,-2.38406 0.01,-0.8525 1.36001,-3.53022 3,-5.95048 6.17281,-9.1097 2.8376,-16.88273 -8.306,-19.35792 C 429.6015,178.38431 429.5,178.30684 429.5,175 c 0,-3.30684 0.1015,-3.38431 6.2122,-4.7416 11.1436,-2.47519 14.47881,-10.24822 8.306,-19.35792 -3.24094,-4.7829 -3.67218,-6.8465 -1.8182,-8.70048 1.85398,-1.85398 3.91758,-1.42274 8.70048,1.8182 9.1097,6.17281 16.88273,2.8376 19.35792,-8.306 1.35729,-6.1107 1.43476,-6.2122 4.7416,-6.2122 3.30684,0 3.38431,0.1015 4.7416,6.2122 2.47519,11.1436 10.24822,14.47881 19.35792,8.306 2.42026,-1.63999 5.09798,-2.98999 5.95048,-3 3.71751,-0.0437 5.37753,5.55217 2.38406,8.03652 -2.50602,2.07981 -4.43406,6.56673 -4.43406,10.31889 0,5.51731 3.8951,9.31977 11.06351,10.80038 4.13063,0.85317 6.10148,1.77048 6.49972,3.02523 1.19386,3.76153 -0.37584,5.36192 -6.49972,6.62679 -10.85567,2.2422 -14.20684,10.23418 -8.08171,19.27351 3.24094,4.7829 3.67218,6.8465 1.8182,8.70048 -1.85398,1.85398 -3.91758,1.42274 -8.70048,-1.8182 -9.11144,-6.17399 -16.88767,-2.83639 -19.35203,8.306 -1.30837,5.9157 -1.52637,6.22718 -4.56759,6.52607 -1.99004,0.19558 -3.35017,-0.18129 -3.60897,-1 z m 14.99925,-25.3113 c 10.79259,-6.30056 14.38678,-21.30984 7.54309,-31.49984 -8.34866,-12.43087 -24.64111,-14.23959 -34.99562,-3.88508 -10.09518,10.09518 -8.49049,26.80968 3.33694,34.75754 6.98069,4.69093 16.72084,4.94433 24.11559,0.62738 z M 153.62775,128.47231 c -0.95849,-2.49777 -0.71741,-103.782541 0.25065,-105.309802 0.46628,-0.735621 1.92189,-1.185621 3.23469,-1 2.18681,0.3092 2.41187,0.861433 2.68463,6.587492 0.16374,3.4375 0.55701,6.25 0.87393,6.25 0.31691,0 2.37743,-2.0463 4.57893,-4.547333 2.2015,-2.501033 6.30823,-5.761371 9.12607,-7.245195 4.51994,-2.380119 6.24222,-2.698427 14.62335,-2.702667 8.16701,-0.0041 10.28387,0.362795 15.08648,2.61501 7.26498,3.406956 12.47478,8.718071 16.05356,16.365746 8.33831,17.818571 5.10648,43.580108 -6.8498,54.601025 -7.31308,6.740964 -12.07216,8.383504 -24.29024,8.383504 -12.34984,0 -17.38331,-1.77148 -23.78931,-8.372425 C 163.02353,91.843949 160.9659,90 160.63816,90 c -0.32773,0 -0.71789,8.8875 -0.86702,19.75 L 159.5,129.5 l -2.62225,0.3041 c -1.70869,0.19815 -2.84096,-0.26583 -3.25,-1.33179 z m 45.50012,-33.000212 c 6.5684,-2.238081 11.37878,-6.711609 14.79363,-13.757696 9.9514,-20.533385 3.30097,-46.516093 -13.79204,-53.884459 -3.66169,-1.578463 -6.31854,-1.926063 -12.70944,-1.662793 -6.91407,0.284821 -8.78992,0.769944 -13,3.361991 -5.45043,3.355699 -10.71927,10.375107 -12.62042,16.813524 -1.98479,6.721663 -1.63688,26.145216 0.58291,32.543454 5.03907,14.524454 21.28042,21.855411 36.74536,16.585979 z M 568.27228,125.75 c -0.53494,-0.6875 -1.45784,-4.28532 -2.0509,-7.99515 -1.23642,-7.73431 -3.72043,-11.81472 -8.60282,-14.13156 -6.36282,-3.01936 -11.73684,-1.79194 -19.76246,4.51372 -4.45704,3.50186 -6.23107,3.57893 -9.40155,0.40844 -3.17049,-3.17048 -3.09342,-4.94451 0.40844,-9.401546 6.30566,-8.02562 7.53308,-13.399647 4.51372,-19.762469 -2.31684,-4.882384 -6.39725,-7.366399 -14.13156,-8.602813 C 515.53532,70.185565 511.9375,69.26266 511.25,68.727723 510.5625,68.192786 510,66.065311 510,64 c 0,-4.689773 1.11753,-5.596454 8,-6.490594 10.38009,-1.348537 15.83986,-5.909055 16.75092,-13.991948 0.51804,-4.595978 -1.05273,-8.507285 -5.88793,-14.661362 -3.46794,-4.413867 -3.60379,-6.811527 -0.54854,-9.681782 3.07954,-2.893075 5.17546,-2.741801 9.54165,0.688671 2.00414,1.574642 5.18097,3.64976 7.05961,4.611374 6.6978,3.428376 16.19728,0.06732 19.45731,-6.884285 1.27745,-2.723997 3.30609,-13.9558907 2.84756,-15.766039 -0.27854,-1.09962115 5.55101,-2.03311204 8.56397,-1.37135538 2.13168,0.46819563 2.83568,1.24882568 3.00261,3.32945528 0.94357,11.7609841 3.77164,17.8315551 9.59428,20.5945781 6.36282,3.019357 11.73684,1.791934 19.76246,-4.513728 4.45704,-3.501857 6.23107,-3.578928 9.40155,-0.40844 3.17049,3.170489 3.09342,4.944512 -0.40844,9.401551 -6.30566,8.02562 -7.53308,13.399647 -4.51372,19.762469 2.31684,4.882384 6.39725,7.366399 14.13156,8.602813 3.70983,0.593057 7.30765,1.515962 7.99515,2.050899 0.6875,0.534937 1.25,2.662412 1.25,4.727723 0,2.065311 -0.5625,4.192786 -1.25,4.727723 -0.6875,0.534937 -4.28532,1.457842 -7.99515,2.050899 -7.73431,1.236414 -11.81472,3.720429 -14.13156,8.602813 -3.01936,6.362822 -1.79194,11.736849 4.51372,19.762469 3.50186,4.457036 3.57893,6.231066 0.40844,9.401546 -3.17048,3.17049 -4.94451,3.09342 -9.40155,-0.40844 -8.02562,-6.30566 -13.39964,-7.53308 -19.76246,-4.51372 -4.88239,2.31684 -7.3664,6.39725 -8.60282,14.13156 -0.59306,3.70983 -1.51596,7.30765 -2.0509,7.99515 -0.53493,0.6875 -2.66241,1.25 -4.72772,1.25 -2.06531,0 -4.19279,-0.5625 -4.72772,-1.25 z m 12.10026,-32.258817 c 11.43167,-2.977572 19.22155,-10.920884 22.32903,-22.768848 1.55741,-5.937968 1.55878,-6.831891 0.0201,-13.067174 -2.91446,-11.81022 -10.31104,-19.673938 -21.68122,-23.050518 -7.04619,-2.092493 -9.4652,-2.02611 -17.58758,0.48264 -9.53431,2.944847 -16.42071,9.831247 -19.36556,19.365552 -2.56701,8.311011 -2.59414,10.740446 -0.20563,18.414742 3.29874,10.598854 10.68441,17.709327 21.38953,20.592528 6.79638,1.830462 8.18211,1.833314 15.10136,0.03108 z M 24.950561,101.70197 C 11.523497,97.891912 3.2265165,87.018574 0.83334341,70.095938 -2.1594223,48.933454 6.4217155,29.577852 21.82433,22.748699 27.617521,20.180135 39.040221,19.330375 45.841597,20.962 59.981882,24.354202 71.706596,41.333877 70.806886,57.116611 L 70.5,62.5 38.75,62.764047 7,63.028094 v 3.804452 c 0,2.092448 0.7129341,6.205161 1.5842979,9.139361 C 12.75323,90.010225 21.955263,97.009364 36.217881,96.990231 48.70795,96.973476 56.143449,92.159201 61.686535,80.5 c 2.067387,-4.348495 3.46772,-6.088118 5.087481,-6.320137 3.251171,-0.465706 3.593622,1.762512 1.238348,8.057544 -2.725494,7.284537 -8.758507,14.00204 -15.566892,17.333073 -6.580285,3.21943 -19.995783,4.25945 -27.494911,2.13149 z M 64,53.614835 C 64,43.994711 56.450705,32.312332 47.521886,28.115292 41.138779,25.114877 31.21134,25.222632 24.461898,28.365591 17.235874,31.730475 11.446675,38.718947 8.8770166,47.178987 7.7328565,50.945885 7.0533391,54.696616 7.366978,55.513946 7.852724,56.77978 12.091236,57 35.968615,57 H 64 Z M 299.29984,101.19596 C 283.3292,95.499268 275.57078,82.250603 275.77921,61.030936 c 0.13536,-13.781666 5.62137,-27.292031 13.5258,-33.309917 7.80193,-5.939857 11.56513,-7.159104 22.19499,-7.191007 8.94486,-0.02684 10.59726,0.263293 15.66054,2.74977 10.51212,5.162294 16.7291,14.740398 18.83977,29.025243 0.88949,6.019921 0.87897,8.135509 -0.046,9.25 C 344.95599,62.75796 339.57771,63 313.84617,63 c -35.12434,0 -32.85361,-0.64159 -30.96755,8.749819 3.19169,15.89256 12.12855,24.251819 26.79577,25.063913 13.52598,0.748906 21.96693,-4.335139 27.51584,-16.573 2.41812,-5.33305 3.24787,-6.318404 5.09893,-6.055151 3.02214,0.4298 3.3,3.694091 0.79625,9.354232 -3.36073,7.597498 -7.62247,12.10696 -14.76496,15.623195 -5.56583,2.740052 -7.88175,3.282742 -15.19362,3.560332 -6.51477,0.24733 -9.89996,-0.12661 -13.82699,-1.52738 z M 339.20607,52 c -0.34139,-5.226483 -3.72596,-13.128111 -7.5697,-17.672248 -9.72824,-11.500874 -30.88244,-11.036125 -41.10188,0.902991 -4.68582,5.474322 -8.14886,14.776013 -7.64518,20.53483 0.087,0.995123 6.14766,1.208821 28.36069,1 L 339.5,56.5 Z m 39.51143,49.97035 C 367.00872,99.021563 358.10902,89.580116 357.67958,79.651806 357.51568,75.862485 357.71413,75.5 359.95255,75.5 c 2.02433,0 2.75246,0.838277 4.17023,4.801023 3.92444,10.96908 11.1105,15.91502 24.02331,16.534497 9.66924,0.463871 17.21413,-1.603538 21.63862,-5.929293 3.83122,-3.745732 4.64734,-6.380756 3.93463,-12.703917 -0.89391,-7.930746 -7.75531,-11.823555 -27.67314,-15.700339 -19.06652,-3.711085 -26.05056,-9.667911 -26.04246,-22.212133 0.009,-13.651678 12.04441,-21.238691 31.8711,-20.090942 14.79818,0.856654 24.42752,8.115021 25.7667,19.422323 0.64801,5.471368 -0.23892,6.958731 -3.5272,5.915071 -1.20659,-0.382958 -2.08404,-1.910259 -2.47874,-4.314547 -1.01378,-6.175355 -4.12283,-10.097635 -10.21475,-12.886611 -4.84238,-2.216913 -6.60345,-2.487152 -14.22375,-2.182656 -6.3616,0.254201 -9.77125,0.907958 -12.6971,2.434511 -8.35686,4.360166 -11.00463,13.282981 -5.78303,19.488492 3.61887,4.300792 8.25155,6.193572 23.94429,9.782962 7.23869,1.655701 14.94458,3.920151 17.12421,5.032112 7.85437,4.007003 12.03,12.143256 10.80792,21.059323 -0.92165,6.724168 -4.80169,11.535049 -12.26742,15.210414 -5.60984,2.76171 -7.5833,3.18496 -16.10949,3.45496 -5.34406,0.16923 -11.4186,-0.12097 -13.49898,-0.6449 z m 73.16086,-0.42341 c -9.86532,-2.71996 -17.54548,-10.596639 -19.69254,-20.196449 -1.09055,-4.875983 -0.29966,-6.653596 2.75313,-6.187983 1.67343,0.255233 2.64985,1.633531 4.00605,5.654877 2.21106,6.55614 6.73807,11.369797 13.37977,14.226981 7.16863,3.083863 21.10824,2.5379 27.58665,-1.080468 6.40816,-3.579134 8.58858,-6.999224 8.58858,-13.471566 0,-4.539138 -0.43961,-5.819863 -2.86757,-8.354101 -3.85228,-4.020916 -10.16559,-6.588311 -22.14669,-9.006259 -17.67561,-3.567178 -24.148,-6.974633 -27.57262,-14.515884 -4.00237,-8.813482 -1.26423,-18.534923 6.63076,-23.541781 10.83846,-6.873548 30.93051,-6.859666 40.43857,0.02794 8.68495,6.291342 12.93364,19.486298 6.67137,20.718958 -1.67011,0.328743 -3.01706,-1.988839 -4.09906,-7.052865 -0.91335,-4.274688 -6.1002,-9.425452 -11.26294,-11.184576 -6.46875,-2.204123 -18.6627,-2.05273 -23.83319,0.2959 C 444.23025,30.708823 441,35.169745 441,40.941867 c 0,9.061251 4.67182,12.050058 26.5,16.953445 16.4829,3.702647 21.66156,6.39044 25.24924,13.104688 1.99871,3.740523 2.34517,5.615646 2.05285,11.110354 -0.41381,7.778058 -3.23723,12.332069 -10.08598,16.268077 -7.80216,4.483939 -22.81323,5.932359 -32.83775,3.168509 z M 75,99.98775 C 75,99.431012 81.609291,90.167654 89.687312,79.402508 102.58204,62.218396 104.2296,59.597298 103.1864,57.926867 102.53288,56.88041 96.565979,48.995598 89.926626,40.405063 83.287273,31.814527 77.6035,24.130313 77.296019,23.32903 c -0.443766,-1.156437 0.276809,-1.39214 3.494155,-1.142954 3.955285,0.30634 4.326906,0.676328 15.381519,15.313924 6.230567,8.25 11.990637,15 12.800147,15 0.80951,0 6.5845,-6.75 12.83331,-15 C 132.17842,23.804678 133.4638,22.473005 136.58331,22.189635 138.6498,22.001919 140,22.328322 140,23.015601 c 0,0.624982 -5.6932,8.626849 -12.65156,17.781928 -6.95836,9.155079 -12.83531,17.348277 -13.0599,18.207107 -0.23321,0.891767 5.8365,9.833474 14.15156,20.847644 C 136.44804,90.459654 143,99.557271 143,100.06921 143,100.58114 141.44418,101 139.54263,101 c -3.94379,0 -3.08881,0.93184 -19.0386,-20.75 -5.7655,-7.8375 -11.05001,-14.233138 -11.74337,-14.21253 -0.69336,0.02061 -7.10041,7.895609 -14.237883,17.5 C 82.323197,99.953581 81.349437,101 78.272777,101 76.47275,101 75,100.54449 75,99.98775 Z m 163.45635,-0.240906 c -0.26449,-0.689236 -0.36286,-18.351736 -0.21862,-39.25 L 238.5,22.5 l 2.75,-0.316422 c 2.68751,-0.309233 2.7516,-0.195616 2.82029,5 0.0386,2.924032 0.39155,6.131033 0.78421,7.126669 0.61658,1.563384 1.14978,1.267898 3.90997,-2.16679 5.56834,-6.929051 22.21953,-13.016604 25.80281,-9.433319 1.77828,1.778284 1.77739,1.802338 -0.13871,3.718433 -0.86428,0.864286 -3.22678,1.581312 -5.25,1.593391 -5.13631,0.03067 -11.31075,3.081524 -15.98564,7.89867 -7.95814,8.200321 -9.14336,13.92815 -9.17282,44.329368 L 244,101 h -2.53138 c -1.39227,0 -2.74779,-0.56392 -3.01227,-1.253156 z"
       id="path82"
       inkscape:connector-curvature="0" />
    <path
       style="fill:#7c7c7c"
       d="m 592.26805,277.18683 c -0.67757,-0.43041 -1.71489,-4.36101 -2.30516,-8.73469 -1.93418,-14.33162 -8.61823,-21.40266 -20.26255,-21.43569 -6.48699,-0.0184 -9.62047,1.293 -16.96916,7.10181 C 550.03025,256.25322 547.22043,258 546.48713,258 544.75617,258 539,252.24383 539,250.51287 c 0,-0.7333 1.74678,-3.54312 3.88174,-6.24405 5.73548,-7.25593 7.26112,-10.78696 7.26112,-16.80563 0,-6.44686 -2.30793,-11.72457 -6.53802,-14.95102 -4.1984,-3.20228 -7.54084,-4.36849 -15.9307,-5.55839 -3.89835,-0.55288 -7.43792,-1.55616 -7.86571,-2.22951 -1.00802,-1.58664 -1.00487,-7.86681 0.005,-9.45622 0.43041,-0.67757 4.36101,-1.72258 8.73469,-2.32224 12.91659,-1.77096 19.568,-6.88988 21.35054,-16.43137 1.39798,-7.483 -0.17541,-12.12844 -7.0561,-20.83316 C 540.72904,153.0078 539,150.22043 539,149.48713 539,147.75617 544.75617,142 546.48713,142 c 0.7333,0 3.54312,1.74678 6.24405,3.88174 7.05565,5.57717 10.74492,7.22872 16.24285,7.27131 12.42616,0.0962 18.91255,-6.58605 20.97178,-21.60519 0.59966,-4.37368 1.64467,-8.30428 2.32224,-8.73469 1.63515,-1.03866 7.88764,-1.00084 9.55746,0.0578 0.73434,0.46557 1.72902,4.05396 2.23026,8.04584 1.6836,13.40825 6.71324,20.16631 16.34829,21.96633 7.56541,1.41338 12.29703,-0.17189 20.97657,-7.02793 2.68434,-2.12038 5.44925,-3.85524 6.14424,-3.85524 1.82233,0 7.47513,5.529 7.47513,7.31141 0,0.82995 -1.74678,3.71884 -3.88174,6.41977 -5.7417,7.26379 -7.11826,10.50472 -7.11826,16.759 0,12.2924 6.5834,18.53301 21.50535,20.38558 4.42892,0.54985 8.14153,1.53814 8.62134,2.29498 1.05827,1.66932 1.10074,7.92307 0.0649,9.55353 -0.42779,0.67335 -4.1334,1.70017 -8.23468,2.28183 C 651.04908,209.12038 644,215.61806 644,227.24544 c 0,6.54217 1.3103,9.67577 7.11826,17.02338 2.13496,2.70093 3.88174,5.49778 3.88174,6.21522 0,1.85378 -5.50809,7.51596 -7.31141,7.51596 -0.82995,0 -3.71884,-1.74678 -6.41977,-3.88174 C 634.00503,248.37656 630.7641,247 624.50982,247 c -9.02567,0 -15.4016,4.32476 -18.53806,12.57428 -0.59293,1.55952 -1.47016,5.95823 -1.9494,9.77492 -0.47924,3.81669 -1.46782,7.3176 -2.19685,7.7798 -1.66982,1.05867 -7.92231,1.09649 -9.55746,0.0578 z M 613.5,235.69475 c 7.8703,-3.6619 15.60782,-11.3637 19.1787,-19.09017 2.52834,-5.4707 2.8213,-7.19487 2.8213,-16.60458 0,-9.45456 -0.28617,-11.11954 -2.87417,-16.72237 -3.52158,-7.624 -11.32513,-15.31015 -19.37319,-19.08174 C 608.14966,161.80445 606.31421,161.5 597,161.5 c -9.29907,0 -11.154,0.30653 -16.21807,2.68006 -7.98459,3.74237 -15.13706,10.76459 -19.04065,18.69391 -3.03246,6.1598 -3.24128,7.26179 -3.24128,17.105 0,9.27787 0.31137,11.18509 2.63517,16.14104 4.51464,9.62837 11.56626,16.29583 21.75729,20.57198 4.79138,2.01046 6.99023,2.31228 15.10754,2.07368 7.93278,-0.23318 10.48983,-0.73979 15.5,-3.07092 z M 472.68514,219.29957 c -0.27696,-0.44814 -0.82957,-2.61137 -1.228,-4.80719 C 469.88855,205.8478 465.96911,202 458.73219,202 c -3.2781,0 -5.36824,0.75751 -8.55349,3.09997 -6.95102,5.11184 -10.30434,1.81708 -5.25081,-5.15912 4.91572,-6.78595 3.82479,-15.86211 -2.30061,-19.14032 -1.14922,-0.61505 -4.34799,-1.6198 -7.10838,-2.23279 C 431.16047,177.59989 430.5,177.13039 430.5,175 c 0,-2.13039 0.66047,-2.59989 5.0189,-3.56774 2.76039,-0.61299 5.95916,-1.61774 7.10838,-2.23279 6.1254,-3.27821 7.21633,-12.35437 2.30061,-19.14032 -5.03767,-6.9543 -1.82304,-10.16893 5.13126,-5.13126 6.78595,4.91572 15.86211,3.82479 19.14032,-2.30061 0.61505,-1.14922 1.6198,-4.34799 2.23279,-7.10838 0.96785,-4.35843 1.43735,-5.0189 3.56774,-5.0189 2.13039,0 2.59989,0.66047 3.56774,5.0189 0.61299,2.76039 1.61774,5.95916 2.23279,7.10838 3.27821,6.1254 12.35437,7.21633 19.14032,2.30061 6.9543,-5.03767 10.16893,-1.82304 5.13126,5.13126 -2.31769,3.19948 -3.07211,5.31779 -3.07211,8.62607 0,7.28635 3.82925,11.19992 12.49771,12.77292 4.40549,0.79942 5.49719,1.84535 4.78175,4.58121 -0.32069,1.22631 -1.82668,2.04239 -4.62743,2.50755 C 505.93327,179.99497 502,183.96425 502,191.31478 c 0,3.30828 0.75442,5.42659 3.07211,8.62607 5.03767,6.9543 1.82304,10.16893 -5.13126,5.13126 -6.78595,-4.91572 -15.86211,-3.82479 -19.14032,2.30061 -0.61505,1.14922 -1.61814,4.34799 -2.2291,7.10838 -0.86941,3.92814 -1.57503,5.08566 -3.24677,5.32609 -1.17477,0.16895 -2.36255,-0.0595 -2.63952,-0.50762 z m 12.93726,-23.12256 c 8.3684,-4.30299 12.81021,-11.64589 12.81021,-21.17701 0,-13.74757 -9.68117,-23.42602 -23.43261,-23.42602 -13.75144,0 -23.43261,9.67845 -23.43261,23.42602 0,11.20039 6.22062,19.45494 17.42614,23.12391 3.85168,1.26113 12.31754,0.26995 16.62887,-1.9469 z M 154.48699,128.82391 C 154.20817,128.09576 154.09703,103.875 154.24002,75 L 154.5,22.5 l 2.25,-0.319551 c 2.12837,-0.302277 2.25083,0.02207 2.26531,6 0.0223,9.202191 0.99349,9.938085 5.26642,3.990483 4.32034,-6.013595 13.47334,-10.980531 21.82276,-11.842267 10.22821,-1.055645 22.20072,3.511172 28.38806,10.828396 12.70037,15.019605 13.14114,44.523745 0.9048,60.566405 -5.39815,7.077339 -19.87823,12.297654 -30.21701,10.893734 -9.247,-1.25565 -14.40392,-3.668751 -19.92465,-9.323432 -2.89063,-2.960763 -5.3446,-5.250582 -5.45327,-5.088487 -0.10866,0.162096 -0.44616,9.514271 -0.75,20.782609 -0.49816,18.47552 -0.72461,20.5209 -2.30544,20.82391 -0.96417,0.18481 -1.98116,-0.25974 -2.25999,-0.98789 z m 45.89647,-33.21077 c 14.42599,-6.027565 21.76255,-25.639472 17.0582,-45.599606 -2.81747,-11.954315 -10.15462,-20.662938 -19.82948,-23.536064 -14.20429,-4.218222 -27.68096,1.817731 -34.34171,15.381023 -2.646,5.38805 -2.7692,6.292951 -2.74217,20.141507 0.0245,12.543273 0.30928,15.108274 2.11052,19.007513 4.02886,8.721527 10.60059,14.190045 19.36118,16.110986 4.68169,1.026558 14.18651,0.24824 18.38346,-1.505359 z m 368.21941,29.1948 c -0.20836,-0.71936 -0.87202,-4.22845 -1.4748,-7.79796 -1.20815,-7.15436 -3.09324,-10.33036 -8.22002,-13.84905 -4.73501,-3.24982 -12.12783,-2.66705 -17.96732,1.41635 -9.11303,6.37251 -8.58739,6.2306 -11.668,3.14999 -3.08061,-3.08061 -3.22252,-2.55497 3.14999,-11.668004 4.0834,-5.839485 4.66617,-13.232301 1.41635,-17.967318 -3.61913,-5.273108 -6.86795,-7.119026 -14.91627,-8.475123 L 511.5,68.366124 V 64 59.633876 l 7.4228,-1.250701 c 8.04832,-1.356097 11.29714,-3.202015 14.91627,-8.475123 3.24982,-4.735017 2.66705,-12.127833 -1.41635,-17.967318 -6.37251,-9.113033 -6.2306,-8.587397 -3.14999,-11.668007 3.08061,-3.08061 2.55497,-3.222515 11.668,3.149992 5.83949,4.0834 13.23231,4.666171 17.96732,1.416354 1.87443,-1.28649 4.26674,-3.498813 5.31624,-4.916273 2.204,-2.976731 4.94993,-17.0902655 3.51072,-18.0444312 -1.30679,-0.8663733 4.61075,-1.62800539 8.3663,-1.07680716 1.70572,0.25034676 2.67938,0.73490996 2.16368,1.07680716 -1.43921,0.9541657 1.30672,15.0677002 3.51072,18.0444312 1.0495,1.41746 3.44181,3.629783 5.31624,4.916273 4.73501,3.249817 12.12783,2.667046 17.96732,-1.416354 9.11303,-6.372507 8.58739,-6.230602 11.668,-3.149992 3.08061,3.08061 3.22252,2.554974 -3.14999,11.668007 -4.0834,5.839485 -4.66617,13.232301 -1.41635,17.967318 3.61913,5.273108 6.86795,7.119026 14.91627,8.475123 L 634.5,59.633876 V 64 68.366124 l -7.4228,1.250701 c -8.04832,1.356097 -11.29714,3.202015 -14.91627,8.475123 -3.24982,4.735017 -2.66705,12.127833 1.41635,17.967318 6.37251,9.113034 6.2306,8.587394 3.14999,11.668004 -3.08061,3.08061 -2.55497,3.22252 -11.668,-3.14999 -5.83949,-4.0834 -13.23231,-4.66617 -17.96732,-1.41635 -5.27478,3.62028 -7.11969,6.86929 -8.46997,14.91627 l -1.24554,7.4228 -4.19737,0.30794 c -2.81341,0.20641 -4.32228,-0.12331 -4.5762,-1 z m 17.24026,-31.848947 c 6.17767,-2.722394 13.50674,-10.069585 16.32674,-16.367103 3.13358,-6.997791 3.11567,-18.005555 -0.041,-25.18378 -2.7913,-6.347538 -10.06218,-13.60177 -16.62887,-16.590818 -7.33735,-3.339842 -18.05497,-3.214093 -25.56658,0.29997 -20.12518,9.414918 -24.92294,35.785797 -9.32062,51.230722 9.39363,9.298868 23.23648,11.896494 35.23033,6.611009 z M 26.5,101.59427 C 19.942277,99.973664 16.319694,97.996841 11.735139,93.537167 -1.7616876,80.407987 -3.3941369,51.158578 8.4408846,34.512367 23.410144,13.457783 55.972838,16.184592 66.568489,39.379989 69.112728,44.949693 71.634604,57.903865 70.666032,60.427923 70.135511,61.81044 66.335786,62 39.15383,62 12.447166,62 8.06988,62.210873 6.9576456,63.551034 c -1.9349062,2.331419 1.1580172,15.395751 5.0987584,21.536864 7.783321,12.129254 23.653854,16.014932 37.766407,9.24657 5.75779,-2.761427 9.771026,-7.403113 12.840952,-14.851771 1.805153,-4.379899 3.630299,-6.037025 5.426479,-4.926924 2.777769,1.716755 -1.737175,13.024494 -7.502306,18.789625 C 52.336977,101.59636 39.286983,104.7543 26.5,101.59427 Z M 64.207031,52.029298 C 63.772502,45.398402 59.382181,36.506383 54.360222,32.085878 37.27662,17.048289 10.101873,28.457351 7.3337895,51.829481 L 6.7177307,57.031135 35.608865,56.765567 64.5,56.5 Z M 301.24359,101.45304 c -15.78946,-4.251446 -25.27088,-18.875674 -25.22881,-38.913139 0.0459,-21.837838 9.90473,-36.742595 27.24158,-41.184089 12.44097,-3.187228 24.40225,0.207751 32.69315,9.279325 5.91997,6.477384 9.0156,14.107962 9.78311,24.114863 l 0.55606,7.25 -30.89434,0.01531 c -16.99189,0.0084 -31.5234,0.413617 -32.29226,0.900434 -1.04855,0.663918 -1.26008,2.347013 -0.84639,6.734688 1.05938,11.23614 6.89804,20.315358 16.15429,25.120195 4.31958,2.242257 6.30092,2.630454 13.09002,2.564681 12.7634,-0.123651 20.46761,-4.858249 25.61448,-15.741297 2.97762,-6.296188 4.35722,-7.733974 6.59644,-6.874702 2.68268,1.029441 -0.89995,10.786587 -6.33022,17.240097 -3.92309,4.66233 -9.48611,7.852894 -16.62835,9.536874 -7.67713,1.81009 -12.66676,1.79903 -19.50876,-0.0432 z m 38.45015,-49.391078 c -1.41033,-11.90806 -9.59625,-22.470688 -19.75179,-25.48656 -11.11232,-3.300004 -19.60652,-1.070828 -28.03461,7.357256 -4.88783,4.887827 -6.08298,6.835132 -7.93274,12.925048 -1.19783,3.943602 -1.92126,7.83891 -1.60762,8.65624 C 282.85314,56.78087 287.16493,57 311.60791,57 h 28.67067 z m 40.27851,49.642998 c -11.43002,-2.593842 -18.87713,-9.339417 -21.53701,-19.508171 -0.9663,-3.694195 -0.96832,-4.971462 -0.009,-5.983533 2.00339,-2.114524 4.101,-0.431585 5.36841,4.30715 1.49622,5.594171 6.84564,11.598953 12.98511,14.575903 3.70095,1.794545 6.44879,2.292522 12.72068,2.30531 17.07159,0.03481 26.76999,-7.378578 25.01645,-19.122391 -1.17675,-7.880916 -8.76663,-12.318811 -27.05135,-15.817257 -19.14216,-3.6625 -27.51557,-10.485314 -27.44314,-22.361194 0.0332,-5.449943 3.28719,-11.616103 7.64954,-14.495715 8.07811,-5.332407 23.13831,-6.821079 34.5907,-3.419225 6.39143,1.89853 13.12313,9.083479 14.71069,15.701156 1.35455,5.646415 0.65775,7.579645 -2.50746,6.956787 -1.15416,-0.227118 -2.17424,-2.028347 -3.00599,-5.307876 -2.42256,-9.552001 -13.18563,-15.47656 -25.73347,-14.16505 C 373.27784,26.67194 366,32.438271 366,41 c 0,9.239842 4.70004,12.285793 26.37977,17.095927 21.14824,4.692209 27.56895,9.868298 27.60378,22.252944 0.0384,13.636786 -9.05398,20.967339 -27.48355,22.158199 -3.85,0.24877 -9.48749,-0.11218 -12.52775,-0.80211 z m 75.43446,0.32746 c -6.27666,-1.34115 -10.68107,-3.456406 -14.8879,-7.150045 -6.43972,-5.654156 -10.88317,-18.037854 -7.00608,-19.525635 2.0859,-0.800433 4.48727,1.421889 4.48727,4.15269 0,4.412704 6.07685,11.729934 12.43076,14.968077 5.3306,2.71663 6.81577,3.012722 14.67623,2.925938 15.0171,-0.165797 23.89798,-6.307689 23.88927,-16.521479 -0.008,-9.794048 -6.33275,-14.179885 -26.4686,-18.355414 -13.35798,-2.770017 -18.69665,-5.042216 -23.50637,-10.004584 -2.91919,-3.01184 -3.45231,-4.332625 -3.82423,-9.474401 -0.53829,-7.441808 0.10268,-10.061909 3.42844,-14.014345 8.17759,-9.71851 31.39863,-11.843045 43.76002,-4.003684 C 487.63756,28.36028 492,35.850008 492,41.536307 c 0,3.116632 -0.28945,3.559675 -2.14501,3.283244 -1.54483,-0.23014 -2.48721,-1.483597 -3.368,-4.479803 C 483.43702,29.964628 476.40584,25.526662 463,25.515142 c -7.07069,-0.0061 -9.34053,0.412422 -13.49855,2.488776 -9.70839,4.847987 -12.34452,14.354851 -5.86572,21.153997 3.79207,3.979574 7.4587,5.423049 22.36427,8.804357 6.875,1.559584 14.40677,3.602653 16.73727,4.540154 14.23085,5.724711 16.37107,25.717766 3.68367,34.411312 -6.61154,4.530302 -21.93321,7.059032 -31.01423,5.118682 z M 75.637095,100.22182 C 75.372578,99.793827 81.646021,90.801519 89.578078,80.238916 97.510135,69.676314 104,60.327469 104,59.463705 104,58.599942 98.160506,50.37975 91.023346,41.196613 83.886187,32.013476 78.036187,23.9375 78.023346,23.25 78.0098,22.524737 79.249526,22 80.976552,22 83.652644,22 85.169144,23.615076 96,38 c 6.62579,8.8 12.47579,16 13,16 0.52421,0 6.37421,-7.2 13,-16 10.99496,-14.60288 12.31615,-16 15.13044,-16 2.20502,0 2.93326,0.391622 2.55607,1.374564 -0.29011,0.75601 -5.66338,8.06851 -11.9406,16.25 -6.27723,8.18149 -12.1823,16.063389 -13.12239,17.515331 l -1.70925,2.639895 14.54286,19.476341 C 135.45571,89.968118 142,99.242665 142,99.866236 142,100.48981 140.68846,101 139.08546,101 136.46079,101 134.89289,99.242425 123.32103,83.328523 116.25359,73.60921 109.94522,65.481741 109.30244,65.267481 108.65966,65.05322 102.01923,73.005385 94.545924,82.938958 83.489606,97.635101 80.50723,101 78.538066,101 c -1.331017,0 -2.636455,-0.35018 -2.900971,-0.77818 z M 238.62728,99.471085 c -0.95993,-2.501525 -0.71571,-74.783223 0.25786,-76.319478 0.46998,-0.741616 1.70059,-1.186964 2.73469,-0.989662 1.58177,0.301798 1.9271,1.428379 2.17586,7.098393 0.16263,3.706814 0.71586,6.739662 1.2294,6.739662 0.51355,0 2.75332,-1.974028 4.97727,-4.386729 4.84966,-5.261261 12.57821,-8.828319 19.48563,-8.993451 4.34769,-0.103938 5.01201,0.139298 5.01201,1.835113 0,1.600506 -1.15557,2.188819 -6.37385,3.244984 -7.61592,1.541441 -11.75892,3.939925 -16.90596,9.787269 -6.09168,6.920524 -6.50842,9.107869 -7.14696,37.512814 -0.56246,25.0208 -0.61312,25.50569 -2.69595,25.80287 -1.25203,0.17864 -2.38002,-0.36763 -2.75,-1.331785 z"
       id="path80"
       inkscape:connector-curvature="0" />
    <path
       style="fill:#4e4e4e"
       d="M 154.4869,127.82391 C 154.20803,127.09576 154.09689,103.325 154.23993,75 L 154.5,23.5 l 2.25,-0.319551 c 2.16517,-0.307503 2.25,-0.03101 2.25,7.333333 0,4.744316 0.38664,7.524004 1.01732,7.31378 0.55952,-0.186508 2.69702,-2.542056 4.75,-5.23455 2.18566,-2.866517 6.01217,-6.179742 9.23268,-7.994228 5.08517,-2.86506 6.21653,-3.097939 15,-3.087577 7.80987,0.0092 10.42994,0.429658 14.72705,2.363271 14.38855,6.474551 22.49222,25.693087 19.49748,46.239946 -2.10548,14.445712 -7.89119,23.613797 -18.04293,28.590972 -5.00061,2.451694 -6.82026,2.786104 -15.1816,2.790084 -13.20165,0.006 -17.13007,-1.39372 -24.20803,-8.627202 -3.6578,-3.738174 -6.00061,-5.470791 -6.30063,-4.659618 -0.2627,0.710237 -0.59321,10.060511 -0.73448,20.77839 -0.23276,17.65836 -0.42137,19.51865 -2.00988,19.8239 -0.96417,0.18528 -1.9812,-0.25889 -2.26008,-0.98704 z M 199.12787,96.472098 C 214.02812,91.395071 222.42588,72.586597 218.61025,52.837376 215.05016,34.41081 205.04001,25 189,25 c -11.92281,0 -20.52373,5.265623 -25.93889,15.880208 -4.70336,9.219348 -5.18434,28.369926 -0.99383,39.57006 2.67161,7.140529 8.85004,13.653992 15.01825,15.832627 5.74388,2.028762 16.3757,2.120022 22.04234,0.189203 z M 23.332455,100.21373 C 13.051524,96.531984 6.5954445,89.07283 2.8738871,76.576537 0.44993255,68.437351 0.04660742,56.485442 1.9934257,50.48544 6.4375428,36.788882 9.8713973,31.420323 17.325505,26.514951 23.963397,22.146711 30.275018,20.623758 39.290484,21.214942 56.729586,22.358502 69.108895,36.046849 69.39244,54.5 L 69.5,61.5 38,62 6.5,62.5 6.1532608,65.5 C 5.7350365,69.118492 7.684731,78.429058 9.6733314,82.309737 12.251006,87.339972 18.391542,93.263226 23.5,95.647151 30.537323,98.931204 41.482351,98.919978 48.56609,95.621442 54.510997,92.853203 60.532236,86.335081 62.996696,80 c 1.207565,-3.104138 2.41016,-4.599122 3.876942,-4.819551 2.62792,-0.394925 2.640651,0.369966 0.118362,7.111385 -2.701799,7.221207 -7.889298,13.021566 -14.568093,16.289196 -7.449318,3.64461 -21.30236,4.42209 -29.091452,1.6327 z M 64.387874,52 C 64.24932,45.203621 61.023211,38.023211 55.729993,32.729993 41.670047,18.670047 16.192099,24.506938 9.1202744,43.408084 6.6864545,49.913051 5.5880095,55.524368 6.469307,56.950338 c 0.4592021,0.743004 9.61911,0.997331 29.349118,0.814885 L 64.5,57.5 Z M 300.5,100.65852 c -6.2347,-2.061157 -9.69699,-4.174629 -13.63982,-8.326099 -5.91835,-6.23153 -8.28765,-11.934224 -9.7978,-23.582421 -2.4966,-19.256906 5.29677,-37.207556 19.33002,-44.523293 4.51947,-2.356066 6.25907,-2.666352 15.1076,-2.694686 8.60022,-0.02754 10.6891,0.307134 14.92291,2.39089 6.47249,3.185568 11.70952,8.545546 14.84084,15.189268 2.75619,5.847798 5.45819,20.565881 4.03655,21.987519 -0.47916,0.479164 -15.03025,0.990254 -32.33575,1.135755 L 281.5,62.5 l 0.1762,5.515239 c 0.40245,12.596987 8.50864,24.815331 18.78712,28.317564 6.24493,2.127861 15.8144,2.132642 22.04104,0.01101 5.69945,-1.941995 12.24403,-8.057991 14.81394,-13.843813 2.76653,-6.228458 3.28194,-6.977538 5.03888,-7.323324 4.20042,-0.826689 0.17675,10.119015 -6.30451,17.150362 -5.73658,6.223455 -12.44211,8.939082 -23.05267,9.335942 -5.21714,0.19513 -10.04488,-0.19281 -12.5,-1.00446 z m 40.11495,-44.097487 c 0.82106,-2.139639 -1.3926,-11.666263 -3.75109,-16.14306 C 331.53734,30.307374 322.8081,25.012034 311.5,25.031731 c -14.39121,0.02507 -24.8989,8.878704 -28.9356,24.38075 -1.13862,4.372644 -1.2505,6.260823 -0.42955,7.25 1.70283,2.051791 57.6911,1.954665 58.4801,-0.101448 z m 37.05738,44.068917 C 367.79274,97.846336 359.83655,89.43006 358.40646,80.25 357.80425,76.384294 357.93506,76 359.85314,76 c 1.47356,0 2.30785,0.828346 2.76971,2.75 3.12973,13.021753 13.91147,19.892651 29.89863,19.05354 C 407.20686,97.032754 415,90.99454 415,80.386913 415,70.505472 408.36169,66.027549 387.54446,61.866559 367.50794,57.861619 361,52.623154 361,40.5 c 0,-6.63323 1.75154,-10.445973 6.44248,-14.023922 6.86932,-5.239486 22.73009,-7.098838 33.43561,-3.919642 9.0628,2.691365 16.97316,12.389111 15.9584,19.564297 -0.58279,4.120841 -3.04274,2.652784 -4.85137,-2.895224 -2.15289,-6.604011 -4.17928,-8.895627 -10.48512,-11.857475 -9.08926,-4.26922 -25.23121,-2.766304 -31.31654,2.915767 -8.31911,7.767818 -6.18766,18.891442 4.49924,23.480685 2.64951,1.137773 10.82129,3.445388 18.1595,5.128034 14.83852,3.40246 20.49718,5.999289 23.81881,10.930743 6.9424,10.307037 2.33182,23.901461 -9.90373,29.20144 -6.57593,2.848447 -21.70838,3.683627 -29.08495,1.605247 z m 73.52801,-0.3525 C 441.70237,97.479448 433.86573,88.424189 432.78634,79 c -0.21408,-1.869075 0.18062,-2.5 1.56395,-2.5 1.29654,0 2.40907,1.472067 3.71742,4.918783 4.00649,10.554702 13.40544,16.55887 25.93229,16.565871 8.68913,0.0049 13.41757,-1.108707 18.02568,-4.245109 4.61417,-3.14052 7.03192,-6.750126 7.66055,-11.436877 C 491.08416,71.880286 482.5326,65.449084 462.66442,61.980915 447.97898,59.417442 439.3291,54.779001 436.6233,48.016556 432.5032,37.719397 436.85123,27.891004 447.5,23.430652 c 5.26748,-2.206341 18.54408,-2.981441 25.67688,-1.499038 6.99389,1.453535 13.09752,5.725768 15.82867,11.079272 2.50843,4.916925 3.13964,11.489114 1.10344,11.489114 -1.60704,0 -2.74505,-1.838492 -3.57481,-5.775211 -0.95281,-4.520545 -7.03644,-10.398733 -12.71378,-12.284443 -7.00882,-2.327955 -19.70234,-1.620492 -25.60963,1.427332 -8.30743,4.286155 -11.01202,14.64977 -5.52495,21.170785 3.5327,4.19838 8.45932,6.200246 23.42596,9.518828 14.46475,3.207298 19.38475,5.142894 23.0746,9.077869 C 492.7343,71.418767 494,75.019899 494,81.330701 c 0,6.749482 -2.47788,11.358934 -8.2002,15.254345 -7.75607,5.279874 -23.50533,6.960604 -34.59946,3.692404 z M 76,99.769859 c 0,-0.199643 6.517542,-9.117033 14.483427,-19.816423 7.965885,-10.69939 14.490883,-19.925286 14.500003,-20.501992 0.009,-0.576705 -6.054797,-8.901705 -13.475357,-18.5 C 78.801302,24.515578 78.164682,23.481246 80.568545,23.177742 c 1.403819,-0.177241 3.213846,0.226695 4.022281,0.897637 0.808435,0.670942 6.269782,7.69815 12.136325,15.616019 7.439369,10.040657 11.184019,14.30725 12.377199,14.102364 C 110.04527,53.632193 115.93404,46.75 122.19052,38.5 131.35535,26.414934 134.09392,23.43851 136.28296,23.183578 137.77733,23.009545 139,23.10546 139,23.39672 c 0,0.291261 -5.85,8.246955 -13,17.67932 -7.15,9.432365 -13,17.697702 -13,18.367415 C 113,60.113169 119.525,69.363614 127.5,80 135.475,90.636386 142,99.487635 142,99.669442 142,99.851249 140.67934,100 139.06519,100 136.41744,100 134.87705,98.284641 123.31691,82.462984 113.93133,69.617509 110.02013,65.002752 108.6968,65.212984 107.70236,65.370968 101.18289,73.142612 94.195078,82.5 83.756812,96.4779 81.011131,99.556251 78.75,99.816422 77.2375,99.990455 76,99.969501 76,99.769859 Z M 239,61.5 c 0,-36.909045 0.0771,-38.5 1.86563,-38.5 1.59637,0 1.93829,1.015462 2.36904,7.035701 0.27687,3.869636 0.76884,7.301139 1.09326,7.625562 0.32442,0.324424 2.88207,-1.918182 5.68366,-4.983568 3.63089,-3.972766 6.59583,-6.135411 10.3238,-7.530222 5.89339,-2.205 11.56256,-2.946613 13.47757,-1.763072 2.21218,1.367202 -0.68096,3.613317 -4.6854,3.637561 -5.44209,0.03295 -12.07168,3.506393 -17.2908,9.059175 -7.41761,7.89183 -8.00992,10.594832 -8.58313,39.168863 C 242.78474,98.62384 242.65268,100 240.87857,100 239.07301,100 239,98.503761 239,61.5 Z"
       id="path78"
       inkscape:connector-curvature="0" />
    <path
       style="fill:#353535"
       d="m 155.24108,75.75 c 0.16945,-34.194162 0.60449,-52.167917 1.25892,-52.012468 0.55,0.130643 1.225,3.730643 1.5,8 0.61093,9.484665 1.698,9.841015 6.9018,2.262468 2.91643,-4.247331 5.23669,-6.262461 10.18739,-8.847682 6.15654,-3.214904 6.76777,-3.33124 15.41081,-2.93314 10.43172,0.480488 17.04343,3.218913 22.34188,9.253515 14.67458,16.713423 13.1955,51.044008 -2.72509,63.251671 -7.87162,6.035836 -21.82457,8.036426 -32.96843,4.727052 C 172.04203,97.935002 165.8432,92.869011 161.92823,87.012791 158.61869,82.062191 158,85.219433 158,107.05902 158,125.06157 157.78827,128 156.49108,128 c -1.32928,0 -1.47809,-6.22056 -1.25,-52.25 z m 45.09222,21.226488 c 7.02004,-2.626534 12.18661,-7.746108 16.0543,-15.908263 2.98756,-6.304767 3.1124,-7.090511 3.1124,-19.589252 0,-12.699394 -0.0812,-13.185941 -3.28675,-19.69736 -6.19871,-12.591382 -16.0643,-18.446571 -29.59229,-17.562925 -8.59533,0.561445 -13.66438,2.93501 -19.2809,9.028215 -6.65837,7.223476 -8.6899,13.945402 -8.6899,28.753097 0,15.468975 2.03219,21.77759 9.38318,29.128573 7.73978,7.739781 20.88333,10.119427 32.29996,5.847915 z M 23.378796,99.221646 C 17.328769,97.063157 12.544855,93.304312 8.7393382,87.719046 5.9518623,83.627934 3.0129008,75.379678 2.9846872,71.568499 2.9720881,69.866574 2.7975846,69.765826 2,71 1.3387924,72.023146 1.0306255,69.320972 1.0306255,62.5 c 0,-5.769985 0.3548006,-9.440404 0.838769,-8.677084 0.5527146,0.871748 1.0539433,-0.246952 1.4697034,-3.280252 C 4.7696089,40.105948 12.431971,29.429388 21.805128,24.81252 25.763066,22.862986 28.069657,22.5 36.5,22.5 c 8.684502,0 10.641538,0.327634 14.876768,2.490566 9.877053,5.044213 16.356593,15.950869 17.374296,29.245206 l 0.515635,6.735771 -31.88335,0.264229 L 5.5,61.5 5.1905652,65.78964 c -0.7070747,9.802055 5.6020708,22.897417 13.5764018,28.179395 6.179338,4.093024 11.32708,5.341911 19.800205,4.803705 C 50.703679,98.001839 60.454459,90.743093 64.070068,79.787692 64.757596,77.704462 65.923092,76 66.66006,76 c 1.707729,0 1.716789,-0.08225 -0.703567,6.386736 -2.475983,6.617658 -8.470095,13.057007 -14.800162,15.899505 -6.599501,2.963489 -20.756765,3.440229 -27.777535,0.935405 z M 64.900043,58.082938 C 66.992649,56.758007 65.718999,47.395987 62.528693,40.652235 55.486529,25.766322 37.939321,19.692597 23.222196,27.046831 13.669897,31.820171 8.4881076,38.962752 5.9325557,50.878879 4.1225922,59.318448 2.9744505,59.002325 35.372445,58.984687 50.8426,58.976265 64.130019,58.570478 64.900043,58.082938 Z M 301,100.12078 C 287.84125,95.8093 280.18696,85.678637 277.95307,69.617535 c -2.68223,-19.284451 4.83675,-37.378537 18.42358,-44.335573 6.78873,-3.476118 18.98395,-4.319365 26.4765,-1.830736 6.59698,2.191164 14.34145,9.18198 17.55448,15.846161 2.64551,5.487089 5.19705,17.684461 4.22776,20.210381 C 344.14481,60.786208 339.63444,61 313.15383,61 c -35.36456,0 -33.80209,-0.393592 -32.63326,8.220431 1.23096,9.071864 4.33735,15.767928 9.89171,21.322284 C 296.33392,96.464351 302.50548,99 310.99664,99 c 14.24449,0 24.08193,-6.880615 28.9521,-20.25 1.1169,-3.066075 3.06329,-3.708597 3.0293,-1 -0.0801,6.381419 -8.50493,16.919379 -16.2364,20.308805 -5.62578,2.466315 -20.79829,3.681665 -25.74164,2.061975 z m 40.02889,-42.655595 c 1.02613,-1.236409 1.03136,-2.618112 0.0269,-7.106627 -1.84665,-8.2517 -3.67069,-11.983441 -8.34738,-17.07758 -8.23664,-8.97185 -20.21897,-11.680907 -32.06374,-7.24921 C 291.14819,29.584856 282.856,40.475887 281.36501,51.353823 280.25071,59.483355 278.38704,59 310.84617,59 c 24.76833,0 29.09138,-0.219831 30.18272,-1.534815 z m 35.4502,41.796529 C 366.93164,95.840329 361.05335,89.445298 359.4632,80.75 c -1.0317,-5.641551 1.79184,-4.984378 3.33241,0.77561 C 365.48267,91.572237 376.61628,99 388.98829,99 c 12.30971,0 20.17179,-3.174357 24.82641,-10.023797 1.97505,-2.906344 2.29622,-4.420632 1.95919,-9.237326 -0.71476,-10.214958 -6.8229,-14.333386 -27.7855,-18.734434 -15.40556,-3.234359 -21.51901,-6.262304 -24.57491,-12.171749 -2.01795,-3.902294 -1.9951,-12.80728 0.043,-16.748492 3.55597,-6.876499 14.47127,-10.692691 28.29496,-9.89245 13.69835,0.792985 22.8836,7.390499 23.99305,17.233553 0.6674,5.921166 -1.14023,6.031448 -2.61873,0.159767 -2.32192,-9.221174 -9.9571,-14.596355 -21.83526,-15.372067 -16.88805,-1.102888 -28.80488,7.06741 -26.95299,18.479248 1.39976,8.625734 7.00386,12.099325 26.87694,16.659152 22.34936,5.128005 27.28557,9.058513 27.28557,21.726437 0,5.713957 -0.37995,7.075983 -2.89304,10.370808 -4.58156,6.006744 -11.90751,8.82304 -24.07661,9.25571 -7.81409,0.27783 -11.13975,-0.0409 -15.05126,-1.442646 z m 75.32671,0.401277 c -2.5818,-0.729012 -5.5068,-1.941411 -6.5,-2.694222 C 438.35295,91.69871 434.90786,86.748944 433.66935,80.25 c -0.90266,-4.736641 1.71454,-4.249757 3.16416,0.588636 1.78668,5.963419 6.30824,11.377862 12.2436,14.661364 5.01753,2.77575 6.17568,3 15.4936,3 9.20538,0 10.58017,-0.257774 16,-3 4.90532,-2.481908 6.33716,-3.822349 8.29107,-7.76179 1.88849,-3.807554 2.22901,-5.647096 1.69928,-9.179619 C 489.33003,70.349522 483.02702,65.679165 469,62.582443 c -22.0307,-4.86368 -27.73646,-7.467014 -31.00871,-14.148167 -3.63199,-7.415644 -2.07004,-15.66589 3.92016,-20.706309 8.7937,-7.399417 31.18637,-7.778941 41.13186,-0.697127 3.37564,2.403666 7.93053,10.887932 7.94692,14.802493 0.0137,3.272082 -2.29578,2.204895 -3.04723,-1.408098 C 485.62836,29.296503 475.79538,23.380174 460.88992,24.147894 447.43624,24.840838 439,31.236716 439,40.743591 c 0,10.609376 5.06675,13.814472 31.19751,19.734754 16.41103,3.718142 21.63721,7.746181 22.56396,17.390981 0.70294,7.315666 -0.37127,11.349269 -4.02347,15.107951 -5.23503,5.387659 -10.79773,7.309773 -22.238,7.684043 -6.26007,0.20479 -11.7556,-0.16857 -14.6942,-0.998329 z M 78,98.982847 C 78,98.423413 84.3,89.576645 92,79.323364 99.7,69.070083 106,60.14681 106,59.49387 106,58.84093 100.15246,50.700198 93.005468,41.403353 85.858476,32.106509 80.008476,24.1625 80.005468,23.75 80.002461,23.3375 80.664448,23 81.476552,23 82.288655,23 88.374207,30.2 95,39 c 8.35243,11.093221 12.64586,16 14,16 1.35414,0 5.64757,-4.906779 14,-16 6.62579,-8.8 12.41134,-16 12.85678,-16 2.4189,0 0.83198,2.604253 -10.95209,17.973206 C 117.80711,50.229974 112,58.535394 112,59.429695 c 0,0.8943 6.09401,9.726208 13.54225,19.626461 C 139.40462,97.482123 141.03537,100 139.10699,100 c -1.76893,0 -3.92755,-2.604281 -15.90817,-19.192546 -12.08398,-16.731371 -13.50771,-18.352619 -15.19884,-17.30744 -0.5982,0.369707 -7.15234,8.733447 -14.564759,18.58609 C 81.132045,98.439582 78,101.86819 78,98.982847 Z M 240.48036,98.809425 C 239.48647,96.219379 240.47104,23.5 241.5,23.5 c 0.55552,0 1.12982,3.44471 1.29206,7.75 0.26111,6.928387 0.49964,7.75 2.25,7.75 C 246.11893,39 247,38.539946 247,37.977657 c 0,-2.207789 8.2998,-9.859886 12.77295,-11.776163 5.26163,-2.254058 13.03613,-3.245734 13.33931,-1.701494 0.10798,0.55 -2.13797,1.335938 -4.991,1.746529 -7.17167,1.032102 -12.0503,3.768444 -17.47394,9.800836 C 243.62319,43.859894 243,47.044164 243,75.122484 c 0,14.872053 -0.3767,23.992295 -1.00706,24.381881 -0.55389,0.34232 -1.23455,0.0296 -1.51258,-0.69494 z"
       id="path76"
       inkscape:connector-curvature="0" />
  </g>
</svg>
