<?xml version="1.0" encoding="UTF-8" standalone="no"?>
<!-- Created with Inkscape (http://www.inkscape.org/) -->

<svg
   xmlns:dc="http://purl.org/dc/elements/1.1/"
   xmlns:cc="http://creativecommons.org/ns#"
   xmlns:rdf="http://www.w3.org/1999/02/22-rdf-syntax-ns#"
   xmlns:svg="http://www.w3.org/2000/svg"
   xmlns="http://www.w3.org/2000/svg"
   xmlns:sodipodi="http://sodipodi.sourceforge.net/DTD/sodipodi-0.dtd"
   xmlns:inkscape="http://www.inkscape.org/namespaces/inkscape"
   version="1.1"
   id="svg61"
   width="1601"
   height="636"
   viewBox="0 0 1601 636"
   sodipodi:docname="node-js-logo.svg"
   inkscape:version="0.92.2 5c3e80d, 2017-08-06">
  <metadata
     id="metadata67">
    <rdf:RDF>
      <cc:Work
         rdf:about="">
        <dc:format>image/svg+xml</dc:format>
        <dc:type
           rdf:resource="http://purl.org/dc/dcmitype/StillImage" />
        <dc:title></dc:title>
      </cc:Work>
    </rdf:RDF>
  </metadata>
  <defs
     id="defs65" />
  <sodipodi:namedview
     pagecolor="#ffffff"
     bordercolor="#666666"
     borderopacity="1"
     objecttolerance="10"
     gridtolerance="10"
     guidetolerance="10"
     inkscape:pageopacity="0"
     inkscape:pageshadow="2"
     inkscape:window-width="1440"
     inkscape:window-height="816"
     id="namedview63"
     showgrid="false"
     inkscape:zoom="0.57239874"
     inkscape:cx="788.82746"
     inkscape:cy="208.75518"
     inkscape:window-x="0"
     inkscape:window-y="1"
     inkscape:window-maximized="1"
     inkscape:current-layer="svg61" />
  <g
     id="g71"
     transform="matrix(0.93392946,0,0,0.86201174,55.955865,53.967901)">
    <path
       style="fill:#fefefe"
       d="M 0,318 V 0 H 800.5 1601 V 318 636 H 800.5 0 Z"
       id="path87"
       inkscape:connector-curvature="0" />
    <path
       style="fill:#99a3a5"
       d="m 575,634.12727 c -5.32521,-2.10544 -163.07806,-89.37291 -167.61561,-92.72346 -1.71359,-1.26533 -4.07609,-4.34391 -5.25,-6.8413 C 400.00298,530.02814 400,529.89174 400,436.87692 c 0,-70.65156 0.29606,-94.13305 1.226,-97.2369 0.6743,-2.25061 2.84248,-5.67782 4.81818,-7.61602 2.23969,-2.19717 34.59778,-20.65525 85.94198,-49.024 45.29239,-25.025 83.73671,-46.02826 85.43182,-46.67392 5.2813,-2.01162 10.66005,-1.52609 17.08202,1.54194 7.65184,3.65559 163.06698,89.69858 166.77264,92.33088 1.52495,1.08324 3.68396,3.75586 4.79779,5.93915 1.99324,3.90707 2.02403,5.47577 1.95451,99.56281 -0.0772,104.4387 0.23237,98.87927 -5.82108,104.54327 -2.97053,2.77943 -164.68574,92.6824 -170.12632,94.57899 -4.78382,1.66765 -11.82533,1.38074 -17.07754,-0.69585 z m 438,-0.21525 c -3.2613,-0.52309 -26.93503,-13.1587 -86,-45.90153 -44.825,-24.84887 -82.96648,-46.08084 -84.75885,-47.18215 -1.79236,-1.10132 -4.49236,-4.10073 -6,-6.66537 L 833.5,529.5 v -95 -95 l 2.15268,-4 c 1.18398,-2.2 3.20898,-4.94787 4.5,-6.10638 1.73316,-1.55527 151.07101,-84.69114 167.84732,-93.44003 3.8877,-2.02744 9.758,-2.79538 14.0304,-1.83543 2.1412,0.4811 20.0801,9.87632 39.8641,20.87828 19.7841,11.00196 36.4514,20.00356 37.0383,20.00356 0.7509,0 1.0672,-39.57777 1.0672,-133.54966 0,-148.0677348 -0.4285,-138.7165194 6.4156,-140.000475 1.8758,-0.3519049 4.4621,-0.336036 5.7475,0.035264 1.2853,0.3713002 20.7356,10.876542 43.2229,23.344981 35.6523,19.768031 41.2205,23.172551 43.5,26.59678 l 2.614,3.926889 0.2583,235.435491 c 0.1695,154.49582 -0.085,236.71107 -0.7408,239.14588 -0.5495,2.04072 -2.4658,5.34813 -4.2583,7.34981 -4.5785,5.11269 -169.438,96.27259 -175.2592,96.91051 -2.2,0.24108 -6.025,0.11353 -8.5,-0.28345 z m 10.2997,-111.53073 c 15.5166,-7.84821 72.6909,-40.14117 74.4503,-42.05077 l 2.25,-2.44205 v -43.75714 -43.75715 l -2.75,-2.53466 c -3.1308,-2.88561 -70.7448,-40.55774 -76.0933,-42.39646 -1.9944,-0.68563 -4.6125,-0.88403 -6.0797,-0.46071 -4.6861,1.35198 -75.53167,41.05816 -77.827,43.61895 l -2.25,2.51023 0.0147,42.69423 c 0.011,31.90474 0.32691,43.29716 1.25,45.08002 1.61981,3.12848 76.9681,45.0539 81.035,45.08963 1.5398,0.0135 4.2398,-0.70383 6,-1.59412 z m 389.3474,111.9207 c -2.27,-0.36179 -139.3137,-75.47317 -166.8723,-91.45995 -5.0832,-2.94879 -7.4027,-5.0538 -9.5,-8.62167 L 1233.5,529.5 v -95 -95 l 2.1527,-4 c 1.184,-2.2 3.209,-4.94787 4.5,-6.10638 1.7331,-1.55527 151.071,-84.69114 167.8473,-93.44003 3.8697,-2.01809 9.7516,-2.79681 13.9684,-1.84935 5.0101,1.12569 169.5867,92.14687 173.6414,96.03454 5.0881,4.87861 5.3902,7.43462 5.3902,45.60512 0,38.74637 -0.1859,40.07375 -6.2385,44.54747 -8.0504,5.9504 -83.5451,48.70863 -86.0008,48.70863 -1.4571,0 -3.9118,-1.08546 -5.4549,-2.41213 l -2.8058,-2.41212 -0.5,-37.06171 c -0.4775,-35.3965 -0.5899,-37.14906 -2.5,-39.00579 -1.1,-1.06925 -18.7739,-11.25102 -39.2752,-22.62617 C 1430.6063,350.15807 1420.0855,344.8 1417.6144,344.8 c -2.4669,0 -13.0672,5.38176 -40.7247,20.67601 -20.5643,11.3718 -38.2897,21.55394 -39.3897,22.62697 -1.931,1.88365 -2.0087,3.44232 -2.2519,45.17399 -0.1927,33.06519 0.042,43.79409 1,45.65297 0.9099,1.76612 24.2149,14.9574 85.3079,48.2866 65.9478,35.97775 84.421,46.47444 85.75,48.72435 2.27,3.84277 2.137,8.22619 -0.3453,11.38191 -1.1707,1.4883 -18.9529,11.93858 -41.75,24.53571 -41.3592,22.85413 -43.7044,23.85546 -52.5636,22.44348 z M 5.0510991,600.61362 C 3.7042037,599.84533 2.273332,598.38047 1.8713844,597.35837 0.72339249,594.43917 0.84443336,341.10013 1.9958002,336.95564 c 0.5415555,-1.94939 2.4515458,-4.95155 4.244423,-6.67146 4.1540808,-3.98502 168.6624668,-95.02756 173.7913568,-96.17994 4.21685,-0.94746 10.09867,-0.16874 13.96842,1.84935 16.77631,8.74889 166.11416,91.88476 167.84732,93.44003 1.29102,1.15851 3.31602,3.90638 4.5,6.10638 l 2.15268,4 v 128.33199 128.332 l -3.37266,3.0135 c -2.39712,2.14186 -4.1326,2.90061 -6,2.62321 -2.91993,-0.43376 -83.26313,-46.77216 -86.96916,-50.15997 -1.288,-1.1774 -2.863,-3.04073 -3.5,-4.14073 -0.83835,-1.44771 -1.29625,-23.4629 -1.65818,-79.72276 -0.48934,-76.06603 -0.54263,-77.76436 -2.5,-79.674 -1.1,-1.07317 -18.82536,-11.25543 -39.38968,-22.62723 C 197.53011,350.22451 186.84886,344.8 184.3978,344.8 c -2.44899,0 -13.22999,5.46658 -40.99578,20.78722 -20.72013,11.43297 -38.512,21.68783 -39.53749,22.78856 -1.78508,1.91606 -1.86547,5.24241 -1.88649,78.06278 -0.0208,72.01402 -0.12102,76.27955 -1.88347,80.16037 -1.023835,2.25441 -3.151452,5.00192 -4.728042,6.10557 -7.177641,5.02453 -83.019288,48.46837 -85.301707,48.86279 -1.4106513,0.24377 -3.6668264,-0.18538 -5.0137219,-0.95367 z M 1401.581,460.17529 c -7.8371,-4.38514 -14.2514,-8.63747 -14.6797,-9.73176 -0.4184,-1.06894 -0.7924,-8.53118 -0.831,-16.58275 -0.06,-12.56614 0.1775,-14.92726 1.6797,-16.67326 1.5931,-1.85163 24.1849,-14.90052 28.6153,-16.52805 1.8674,-0.68598 22.1412,9.69213 29.3847,15.04196 l 3.25,2.40035 v 16.29412 c 0,14.27693 -0.2166,16.48086 -1.75,17.80249 -3.1883,2.74805 -27.8491,15.80194 -29.8173,15.78338 -1.063,-0.01 -8.1963,-3.52295 -15.8517,-7.80648 z"
       id="path85"
       inkscape:connector-curvature="0" />
    <path
       style="fill:#7b868a"
       d="m 578.25,635.29427 c -1.2375,-0.23836 -2.25,-0.82175 -2.25,-1.29643 0,-0.47469 -0.94722,-1.1637 -2.10494,-1.53115 -4.29287,-1.3625 -164.49641,-90.71244 -167.12731,-93.21151 -6.09963,-5.79401 -5.88341,-1.74036 -5.5614,-104.26373 L 401.5,341.5 l 2.22736,-4.16579 c 1.22505,-2.29118 3.47686,-5.0555 5.00403,-6.14294 1.52717,-1.08744 39.89985,-22.56637 85.27264,-47.73096 81.9185,-45.43352 82.54232,-45.75701 89.11714,-46.21262 6.01204,-0.41661 7.25402,-0.14418 13.5,2.96132 13.15929,6.54278 159.90177,88.02544 163.37883,90.72043 7.48509,5.80151 6.99927,-1.44562 6.97648,104.07056 -0.0194,89.73888 -0.11342,94.70153 -1.86652,98.5 -1.01537,2.2 -2.91799,4.96076 -4.22804,6.13501 -1.73456,1.55476 -116.18691,65.54585 -169.88192,94.98214 -2.38902,1.30969 -7.93625,1.60429 -12.75,0.67712 z m 431.1386,-3.20528 C 1001.7131,628.60334 845.52109,541.81319 842,539.0773 834.51217,533.25924 835.00269,540.62958 835.00668,434 l 0.004,-95.5 2.24487,-3.67409 c 1.23469,-2.02076 3.36988,-4.53216 4.74488,-5.58091 1.375,-1.04874 39.83478,-22.54872 85.46618,-47.77773 77.45019,-42.82124 83.34119,-45.89805 88.60739,-46.27897 7.2615,-0.52525 7.1228,-0.58914 47.977,22.09764 18.3972,10.21614 34.1244,18.71864 34.9494,18.89443 1.3256,0.28247 1.5581,-15.41671 2,-135.01708 l 0.5,-135.3367054 2.8058,-2.4132923 C 1105.8489,2.0859815 1107.9328,1 1108.9365,1 c 1.9384,0 83.2443,44.974169 86.4547,47.822231 1.0402,0.922773 2.7178,3.477769 3.7281,5.677769 1.7658,3.845403 1.8368,13.063253 1.8368,238.5 0,226.14406 -0.066,234.64253 -1.852,238.5 -1.0185,2.2 -3.1461,5.1956 -4.728,6.65688 -3.1342,2.89529 -164.7305,92.73064 -170.2753,94.66021 -4.8385,1.68375 -9.9593,1.43033 -14.7122,-0.7281 z m 49.2498,-127.92863 c 20.7099,-11.4618 38.7134,-21.85903 40.0079,-23.10496 L 1101,478.79008 V 434.4508 390.11153 l -2.25,-2.43274 c -1.2375,-1.338 -19.125,-11.77039 -39.75,-23.18308 -27.6105,-15.27805 -38.4252,-20.77657 -41.0083,-20.84976 -4.9668,-0.14074 -80.48991,41.51658 -82.58834,45.55439 C 934.26251,391.39555 934,399.94317 934,434.89458 v 42.99389 l 2.25,2.55466 c 3.60633,4.09463 77.605,44.55265 81.4921,44.55495 2.35,0.001 13.603,-5.73232 40.8963,-20.83772 z m 350.7502,127.92863 c -7.7509,-3.51989 -163.8855,-90.28978 -167.2833,-92.96564 -1.8671,-1.4704 -4.2296,-4.23016 -5.25,-6.1328 -1.7697,-3.2997 -1.8553,-7.83422 -1.8553,-98.25707 0,-102.57166 -0.2212,-98.32117 5.4062,-103.89327 1.4773,-1.46289 40.3398,-23.49137 86.361,-48.95218 78.1144,-43.21614 84.0494,-46.31948 89.3112,-46.70008 4.1111,-0.29737 6.8251,0.11947 10.029,1.54033 6.5903,2.92266 163.9016,90.0965 167.5402,92.84217 1.7312,1.30635 4.0937,4.32948 5.25,6.71809 2.0115,4.15513 2.1024,5.8289 2.1024,38.71146 0,32.63785 -0.1035,34.58244 -2.0562,38.61609 -1.3582,2.80568 -3.6496,5.2546 -6.75,7.21421 -14.0889,8.9047 -79.893,46.35954 -82.2915,46.83925 -2.2392,0.44783 -3.4502,-0.0636 -5.8622,-2.47564 L 1501,462.15385 v -36.12238 -36.12238 l -2.25,-2.20709 c -1.2375,-1.21389 -19.3156,-11.63344 -40.1735,-23.15454 -26.2935,-14.52347 -38.867,-20.9468 -41,-20.9453 -4.6756,0.003 -80.2968,41.95633 -82.1754,45.58918 -1.1376,2.19978 -1.4011,10.78048 -1.4011,45.62414 0,41.43378 0.069,43.00275 2.0046,45.4633 1.2046,1.53137 34.4305,20.20612 83.25,46.79105 44.685,24.3334 82.6891,45.30584 84.4537,46.60541 2.0762,1.52913 3.4306,3.54827 3.8385,5.72233 1.3199,7.03604 0.5687,7.60166 -40.0871,30.1828 -20.7153,11.50579 -39.5308,21.68266 -41.812,22.61525 -5.4582,2.23136 -11.1936,2.19375 -16.2591,-0.10663 z M 6.3569985,600.00842 c -1.1786508,-0.47565 -2.8661508,-1.89725 -3.75,-3.15912 C 1.151514,594.7713 1,582.60089 1,467.7666 V 340.9782 l 2.1343865,-4.54071 c 1.1739126,-2.49739 3.5364126,-5.59855 5.25,-6.89146 3.6174475,-2.72939 160.9553735,-89.91169 167.5082235,-92.81775 3.20389,-1.42086 5.9179,-1.8377 10.02897,-1.54033 5.26183,0.3806 11.19678,3.48394 89.31124,46.70008 46.02118,25.46081 84.88364,47.48929 86.36102,48.95218 5.68747,5.63164 5.40616,-1.4981 5.40616,137.01689 0,123.49531 -0.0647,128.00128 -1.87116,130.23212 -3.77155,4.65766 -6.18272,3.66533 -42.62884,-17.54416 -52.71289,-30.6758 -50.44516,-29.21271 -52.58624,-33.92754 -1.77278,-3.9038 -1.87098,-8.02601 -1.8918,-79.41718 -0.0182,-62.58195 -0.25859,-75.75725 -1.42302,-78.009 -1.06879,-2.06683 -10.4955,-7.719 -39.75,-23.83376 -21.09192,-11.61842 -39.32841,-21.42171 -40.52554,-21.78508 -1.21088,-0.36755 -3.80837,0.0211 -5.8544,0.87601 -7.86932,3.28801 -75.0944,40.91532 -77.219,43.22113 l -2.25,2.44189 v 75.07821 c 0,53.43742 -0.32958,76.17825 -1.143394,78.89453 -0.628866,2.09897 -2.316366,4.93876 -3.75,6.31064 -2.232919,2.13674 -71.666905,43.21049 -82.316768,48.69457 -4.1147528,2.11886 -4.3785919,2.15148 -7.4328395,0.91894 z M 1402.5,459.22525 l -14,-7.75595 -0.2738,-16.64961 -0.2738,-16.64962 2.7738,-1.91268 C 1396.3891,412.35253 1415.9069,402 1417.6059,402 c 2.202,0 27.4463,13.70604 29.1441,15.82336 0.8764,1.09301 1.25,6.08775 1.25,16.71278 0,13.17812 -0.2282,15.35495 -1.75,16.69603 -2.5361,2.23486 -27.0101,15.76955 -28.4951,15.75843 -0.6902,-0.005 -7.5549,-3.49958 -15.2549,-7.76535 z"
       id="path83"
       inkscape:connector-curvature="0" />
    <path
       style="fill:#4aac4e"
       d="m 577,634.19243 c -60.27337,-33.24045 -162.6718,-90.14374 -166.05362,-92.27677 -2.5045,-1.57967 -5.542,-4.63069 -6.75,-6.78005 L 402,531.22769 l 0.022,-94.86384 c 0.0207,-89.56901 0.12352,-95.08711 1.84152,-98.86385 1.00076,-2.2 2.54649,-4.60151 3.43495,-5.33669 0.88847,-0.73517 39.77229,-22.47248 86.40848,-48.30512 L 578.5,236.88975 l 6.53783,0.32582 6.53784,0.32583 82.96216,45.88039 c 45.6292,25.23421 84.16105,46.71554 85.62634,47.73628 1.4653,1.02074 3.6028,3.79482 4.75,6.16463 2.06956,4.27513 2.08566,5.04167 2.06387,98.24302 -0.0209,89.58216 -0.10857,94.12498 -1.89116,98.05037 -1.02805,2.26385 -3.38067,5.24245 -5.22803,6.61912 -1.84737,1.37667 -40.25885,22.90695 -85.35885,47.84508 -45.1,24.93812 -82.29608,45.76906 -82.65796,46.29097 -0.36188,0.52191 -3.06188,1.12949 -6,1.35017 -3.97012,0.29819 -6.2409,-0.0945 -8.84204,-1.529 z m 432.5,-2.60102 c -1.65,-0.73166 -39.675,-21.64458 -84.5,-46.47315 -54.30236,-30.07807 -82.56018,-46.27523 -84.67692,-48.53613 -1.74731,-1.8663 -3.6573,-5.12327 -4.24443,-7.23771 -1.46725,-5.28406 -1.48695,-185.334 -0.0208,-190.61331 0.57565,-2.07288 2.51422,-5.22288 4.30793,-7 4.49354,-4.45196 167.52702,-94.51074 173.65252,-95.92468 3.7806,-0.87265 5.6011,-0.78342 9.2275,0.45223 2.4848,0.84665 20.4119,10.3753 39.8381,21.17477 19.4262,10.79947 36.0169,19.50128 36.8681,19.33735 1.3853,-0.26672 1.6006,-14.51381 2.048,-135.52504 l 0.5,-135.2269959 2.7065,-2.5093721 C 1106.6949,2.1292174 1108.2966,1 1108.7658,1 c 1.4777,0 83.6165,46.14029 86.1131,48.372783 5.4323,4.857661 5.1211,-9.957639 5.1211,243.779377 0,234.5274 -0.01,235.22871 -2.0352,239.42049 -1.1193,2.31225 -3.7068,5.33723 -5.75,6.72218 -4.5144,3.06009 -160.0732,89.27175 -165.7148,91.84018 -4.6824,2.13172 -12.7344,2.3479 -17,0.4564 z m 48.4331,-126.3075 c 20.6618,-11.39385 39.0294,-22.14885 40.8169,-23.9 L 1102,478.2 l -0.015,-43.35 c -0.011,-32.69843 -0.3225,-43.96428 -1.267,-45.85 -1.858,-3.70941 -77.8595,-45.95096 -82.7268,-45.97946 -3.6986,-0.0216 -7.681,2.03652 -57.4915,29.71267 -24.01389,13.34282 -25.05053,14.04306 -26.28111,17.7525 -0.97865,2.95005 -1.21474,13.71936 -1,45.61589 0.26914,39.97622 0.36627,41.86632 2.28111,44.38907 1.19175,1.5701 15.53814,10.1213 35.5,21.15985 43.373,23.9845 44.0675,24.34481 46.9331,24.34734 1.3382,0.001 19.3382,-9.3201 40,-20.71395 z M 1409.5,631.59141 c -1.65,-0.73166 -39.675,-21.64458 -84.5,-46.47315 -54.3024,-30.07807 -82.5602,-46.27523 -84.6769,-48.53613 -1.7473,-1.8663 -3.6573,-5.12327 -4.2444,-7.23771 -1.5535,-5.59443 -1.4889,-183.82954 0.069,-190.01572 0.6819,-2.70775 2.4323,-5.82946 4.3136,-7.69282 4.8161,-4.77024 167.8555,-94.59959 174.0362,-95.88825 4.4618,-0.93027 5.6517,-0.77116 11.0028,1.47113 11.2403,4.71008 164.867,90.42689 168.5,94.01548 6.9423,6.85741 6.471,4.00187 6.8074,41.23976 0.169,18.7143 0.044,35.4472 -0.2781,37.18422 -0.3237,1.7461 -2.2496,4.82834 -4.3074,6.89348 -5.1214,5.13977 -83.6119,50.4483 -87.3944,50.4483 -1.5551,0 -3.7275,-0.9 -4.8275,-2 -1.925,-1.92499 -2,-3.33333 -2,-37.54966 0,-28.77554 -0.2709,-36.0736 -1.4219,-38.29923 C 1498.623,385.37036 1422.4938,343 1417.6558,343 c -2.319,0 -13.8702,5.87234 -41.1893,20.93951 -20.8816,11.51673 -38.9551,21.89091 -40.1633,23.05374 -1.2464,1.19954 -2.4597,3.92969 -2.8045,6.31049 -0.3343,2.30794 -0.4708,22.27634 -0.3032,44.37422 0.2908,38.36809 0.3946,40.29797 2.3045,42.84243 1.3109,1.7464 30.4264,18.15176 84.5,47.61221 45.375,24.72125 83.5125,46.07975 84.75,47.46333 2.7303,3.0526 2.9644,8.32962 0.5,11.27177 -1.45,1.73113 -61.4459,35.60492 -77.4668,43.73785 -5.3696,2.7259 -13.3846,3.15808 -18.2832,0.98586 z M 3.9908984,597.14174 1,594.28347 V 468.32889 342.37431 l 2.4648987,-5.10949 c 1.3556943,-2.81022 3.9431943,-6.20948 5.75,-7.55391 C 14.945126,325.4471 175.3124,237.24864 179.67823,235.95985 c 3.19763,-0.94395 5.23739,-0.96672 8.69115,-0.0971 6.03092,1.5186 169.0786,91.72085 173.23433,95.83776 2.25064,2.22962 3.57627,4.80822 4.36976,8.5 0.82729,3.84903 1.05522,39.60363 0.83278,130.63791 L 366.5,596.17691 l -2.36078,1.91155 C 362.84078,599.13981 360.78545,600 359.5718,600 358.35815,600 338.49551,589.04636 315.43259,575.65857 283.46172,557.09982 272.96548,550.53165 271.25,548.01069 L 269,544.70423 v -74.72711 c 0,-41.09992 -0.28296,-76.14192 -0.6288,-77.87113 -0.34584,-1.7292 -1.58334,-4.06267 -2.75,-5.18549 -1.16666,-1.12282 -19.20613,-11.46426 -40.08772,-22.98099 C 197.57223,348.51816 186.69226,343 184.24775,343 c -5.06318,0 -80.71896,42.07674 -82.76301,46.0295 C 100.21043,391.49375 100,402.54186 100,466.98246 c 0,81.69145 0.16874,79.18328 -5.655471,84.06423 C 89.316042,555.26079 11.471606,600 9.1677333,600 7.9654682,600 5.6358925,598.71378 3.9908984,597.14174 Z M 1413.4852,464.88975 c -11.6155,-6.15067 -24.0754,-13.35924 -24.7336,-14.30941 -0.4116,-0.59419 -0.6366,-8.27346 -0.5,-17.06505 l 0.2484,-15.98471 14,-7.75589 c 7.7,-4.26574 14.5647,-7.76012 15.2549,-7.76529 1.2144,-0.009 25.4425,13.17795 28.0186,15.25015 0.9595,0.77178 1.2061,5.09534 1,17.53197 l -0.2735,16.50756 -14,7.83223 c -7.7,4.30772 -14.2317,7.84043 -14.5148,7.85046 -0.2832,0.01 -2.3082,-0.93138 -4.5,-2.09202 z"
       id="path81"
       inkscape:connector-curvature="0" />
    <path
       style="fill:#526067"
       d="m 1009.5,631.59141 c -1.65,-0.73166 -39.675,-21.64458 -84.5,-46.47315 -54.30236,-30.07807 -82.56018,-46.27523 -84.67692,-48.53613 -1.74731,-1.8663 -3.6573,-5.12327 -4.24443,-7.23771 -1.46725,-5.28406 -1.48695,-185.334 -0.0208,-190.61331 0.57565,-2.07288 2.51422,-5.22288 4.30793,-7 4.49354,-4.45196 167.52702,-94.51074 173.65252,-95.92468 3.7806,-0.87265 5.6011,-0.78342 9.2275,0.45223 2.4848,0.84665 20.4119,10.3753 39.8381,21.17477 19.4262,10.79947 36.0169,19.50128 36.8681,19.33735 1.3853,-0.26672 1.6006,-14.51381 2.048,-135.52504 l 0.5,-135.2269959 2.7065,-2.5093721 C 1106.6949,2.1292174 1108.2966,1 1108.7658,1 c 1.4777,0 83.6165,46.14029 86.1131,48.372783 5.4323,4.857661 5.1211,-9.957639 5.1211,243.779377 0,234.5274 -0.01,235.22871 -2.0352,239.42049 -1.1193,2.31225 -3.7068,5.33723 -5.75,6.72218 -4.5144,3.06009 -160.0732,89.27175 -165.7148,91.84018 -4.6824,2.13172 -12.7344,2.3479 -17,0.4564 z m 48.4331,-126.3075 c 20.6618,-11.39385 39.0294,-22.14885 40.8169,-23.9 L 1102,478.2 l -0.015,-43.35 c -0.011,-32.69843 -0.3225,-43.96428 -1.267,-45.85 -1.858,-3.70941 -77.8595,-45.95096 -82.7268,-45.97946 -3.6986,-0.0216 -7.681,2.03652 -57.4915,29.71267 -24.01389,13.34282 -25.05053,14.04306 -26.28111,17.7525 -0.97865,2.95005 -1.21474,13.71936 -1,45.61589 0.26914,39.97622 0.36627,41.86632 2.28111,44.38907 1.19175,1.5701 15.53814,10.1213 35.5,21.15985 43.373,23.9845 44.0675,24.34481 46.9331,24.34734 1.3382,0.001 19.3382,-9.3201 40,-20.71395 z M 1409.5,631.59141 c -1.65,-0.73166 -39.675,-21.64458 -84.5,-46.47315 -54.3024,-30.07807 -82.5602,-46.27523 -84.6769,-48.53613 -1.7473,-1.8663 -3.6573,-5.12327 -4.2444,-7.23771 -1.5535,-5.59443 -1.4889,-183.82954 0.069,-190.01572 0.6819,-2.70775 2.4323,-5.82946 4.3136,-7.69282 4.8161,-4.77024 167.8555,-94.59959 174.0362,-95.88825 4.4618,-0.93027 5.6517,-0.77116 11.0028,1.47113 11.2403,4.71008 164.867,90.42689 168.5,94.01548 6.9423,6.85741 6.471,4.00187 6.8074,41.23976 0.169,18.7143 0.044,35.4472 -0.2781,37.18422 -0.3237,1.7461 -2.2496,4.82834 -4.3074,6.89348 -5.1214,5.13977 -83.6119,50.4483 -87.3944,50.4483 -1.5551,0 -3.7275,-0.9 -4.8275,-2 -1.925,-1.92499 -2,-3.33333 -2,-37.54966 0,-28.77554 -0.2709,-36.0736 -1.4219,-38.29923 C 1498.623,385.37036 1422.4938,343 1417.6558,343 c -2.319,0 -13.8702,5.87234 -41.1893,20.93951 -20.8816,11.51673 -38.9551,21.89091 -40.1633,23.05374 -1.2464,1.19954 -2.4597,3.92969 -2.8045,6.31049 -0.3343,2.30794 -0.4708,22.27634 -0.3032,44.37422 0.2908,38.36809 0.3946,40.29797 2.3045,42.84243 1.3109,1.7464 30.4264,18.15176 84.5,47.61221 45.375,24.72125 83.5125,46.07975 84.75,47.46333 2.7303,3.0526 2.9644,8.32962 0.5,11.27177 -1.45,1.73113 -61.4459,35.60492 -77.4668,43.73785 -5.3696,2.7259 -13.3846,3.15808 -18.2832,0.98586 z m -919,-45.9459 c -44,-24.3808 -81.43818,-45.73851 -83.19595,-47.46159 -1.75777,-1.72308 -3.55777,-4.60686 -4,-6.4084 -0.44223,-1.80153 -0.6776,-43.75299 -0.52305,-93.22545 l 0.281,-89.94992 26.05822,43.44992 c 14.33202,23.89746 26.64506,44.12493 27.36231,44.94993 3.3861,3.89477 116.30441,192.99839 115.23724,192.98712 C 571.0489,629.98004 534.5,610.02631 490.5,585.64551 Z M 3.9908984,597.14174 1,594.28347 V 468.32889 342.37431 l 2.4648987,-5.10949 c 1.3556943,-2.81022 3.9431943,-6.20948 5.75,-7.55391 C 14.945126,325.4471 175.3124,237.24864 179.67823,235.95985 c 3.19763,-0.94395 5.23739,-0.96672 8.69115,-0.0971 6.03092,1.5186 169.0786,91.72085 173.23433,95.83776 2.25064,2.22962 3.57627,4.80822 4.36976,8.5 0.82729,3.84903 1.05522,39.60363 0.83278,130.63791 L 366.5,596.17691 l -2.36078,1.91155 C 362.84078,599.13981 360.78545,600 359.5718,600 358.35815,600 338.49551,589.04636 315.43259,575.65857 283.46172,557.09982 272.96548,550.53165 271.25,548.01069 L 269,544.70423 v -74.72711 c 0,-41.09992 -0.28296,-76.14192 -0.6288,-77.87113 -0.34584,-1.7292 -1.58334,-4.06267 -2.75,-5.18549 -1.16666,-1.12282 -19.20613,-11.46426 -40.08772,-22.98099 C 197.57223,348.51816 186.69226,343 184.24775,343 c -5.06318,0 -80.71896,42.07674 -82.76301,46.0295 C 100.21043,391.49375 100,402.54186 100,466.98246 c 0,81.69145 0.16874,79.18328 -5.655471,84.06423 C 89.316042,555.26079 11.471606,600 9.1677333,600 7.9654682,600 5.6358925,598.71378 3.9908984,597.14174 Z M 742.05758,483.75 C 729.73533,463.2625 717.06094,442.45 713.89226,437.5 698.33667,413.19957 596.2468,242.45511 597.09372,242.15542 c 0.53557,-0.18952 37.46558,19.83548 82.06668,44.5 63.4854,35.10758 81.6625,45.58756 83.71625,48.26643 l 2.62335,3.42186 0.26546,91.32814 c 0.146,50.23048 -0.0876,91.32815 -0.51917,91.32815 -0.43155,0 -10.86647,-16.7625 -23.18871,-37.25 z m 669.67752,-20.79309 c -3.1708,-1.67135 -9.4708,-5.16241 -14,-7.75792 l -8.2351,-4.71911 -0.2743,-16.13718 -0.2743,-16.13719 13.8613,-7.60275 c 7.6236,-4.18152 14.321,-7.60276 14.8829,-7.60276 0.562,0 7.1106,3.38523 14.5524,7.52273 9.6421,5.36078 13.7022,8.16283 14.1277,9.75 0.7475,2.78865 0.7889,25.51307 0.052,28.25758 -0.3604,1.34121 -5.2526,4.65043 -14.4139,9.75 -7.6275,4.24583 -14.0134,7.71872 -14.1908,7.71755 -0.1774,-10e-4 -2.9167,-1.36961 -6.0874,-3.04095 z"
       id="path79"
       inkscape:connector-curvature="0" />
    <path
       style="fill:#368b3a"
       d="m 1413.9383,631.98142 c -3.4388,-0.58449 -163.983,-88.71879 -170.7971,-93.76288 -1.8474,-1.3675 -4.2,-4.3386 -5.2281,-6.60245 -1.782,-3.92421 -1.8699,-8.42811 -1.8856,-96.61609 -0.01,-59.51719 0.3453,-93.80203 0.9979,-96.15154 0.5748,-2.06957 2.6303,-5.10472 4.7444,-7.0058 2.0516,-1.84484 41.0802,-24.03562 86.7302,-49.31285 l 83,-45.9586 6.01,-0.0356 6.01,-0.0356 82.99,45.89098 c 45.6445,25.24003 84.2799,46.79551 85.8565,47.90106 1.5766,1.10556 3.7042,3.85462 4.7281,6.10903 1.0238,2.25441 1.9162,3.42393 1.9831,2.59893 0.067,-0.825 0.4819,-0.375 0.9223,1 0.4404,1.375 0.8006,17.35 0.8006,35.5 0,18.15 -0.3602,34.125 -0.8006,35.5 -0.4404,1.375 -0.8557,1.825 -0.9231,1 -0.067,-0.825 -0.8568,-0.01 -1.7543,1.81142 -1.8055,3.66369 -3.1599,4.51159 -55.2773,34.60407 -18.4441,10.64958 -31.496,17.5845 -33.095,17.5845 -5.9161,0 -5.9503,-0.22501 -5.9503,-39.18086 0,-35.22582 -0.019,-35.55013 -2.25,-38.71804 -3.0551,-4.33782 -76.2837,-45.08019 -82.25,-45.76164 -3.6895,-0.4214 -7.0275,1.21456 -43,21.07407 -21.45,11.84202 -39.7875,22.49329 -40.75,23.66949 -1.6089,1.96612 -1.75,5.75673 -1.75,47.01199 v 44.87344 l 2.75,2.94854 c 1.6298,1.74752 36.1509,21.12086 84.75,47.562 45.1,24.5374 82.7875,45.54251 83.75,46.67802 2.0374,2.40361 2.3004,7.72826 0.5,10.12436 -1.0065,1.33952 -60.4751,34.86831 -76.25,42.99021 -4.9945,2.57149 -9.95,3.49368 -14.5617,2.70984 z m -403.6914,-1.01374 c -4.1248,-1.65778 -163.6905,-90.22279 -167.10575,-92.75001 -1.84736,-1.36702 -4.19998,-4.33773 -5.22803,-6.60158 -1.78206,-3.92421 -1.86996,-8.42811 -1.88558,-96.61609 -0.0107,-60.4473 0.34053,-93.78511 1.01363,-96.20867 0.56651,-2.03977 2.29158,-4.96477 3.8335,-6.5 1.54191,-1.53523 40.5634,-23.70077 86.71441,-49.25675 l 83.91092,-46.46542 6.0141,-0.0346 c 5.9765,-0.0344 6.2451,0.0935 42.9859,20.46542 20.608,11.42664 38.0846,20.5 39.4859,20.5 h 2.5141 l 0.2536,-135.42525 C 1102.9863,17.801598 1103.1432,6.4992361 1104.6586,4.824751 1105.5669,3.8211379 1107.4426,3 1108.8268,3 c 1.4121,0 19.2313,9.30209 40.5951,21.191721 46.0051,25.603357 45.172,25.094295 47.6106,29.093701 1.932,3.16868 1.9601,6.581076 1.9638,238.996698 0,256.73798 0.4037,239.33531 -5.6231,244.84404 -2.2978,2.10025 -150.085,84.62201 -166.0834,92.73802 -4.4551,2.26009 -12.8179,2.80157 -17.0429,1.1035 z m 50.4602,-126.25369 c 33.7089,-18.61775 39.0242,-21.87049 40.5578,-24.81983 1.6203,-3.11614 1.7432,-6.96926 1.5,-47.04005 -0.2511,-41.37139 -0.3646,-43.75597 -2.1773,-45.7582 -1.0518,-1.16177 -19.3229,-11.78362 -40.6024,-23.60411 -40.7526,-22.63759 -41.8949,-23.1077 -48.2849,-19.87046 -15.73965,7.97399 -74.69501,41.19228 -76.4503,43.07581 l -2.25,2.41438 v 44.92846 44.92846 l 2.75,2.90841 c 2.17825,2.30372 33.9054,20.33847 75.75,43.05876 2.6685,1.44889 5.0676,2.01079 7.2071,1.68796 1.7639,-0.26615 20.6639,-10.12547 42,-21.90959 z M 490.5,585.64551 c -44,-24.3808 -81.43818,-45.73851 -83.19595,-47.46159 -1.75777,-1.72308 -3.55777,-4.60686 -4,-6.4084 -0.44223,-1.80153 -0.6776,-43.75299 -0.52305,-93.22545 l 0.281,-89.94992 26.05822,43.44992 c 14.33202,23.89746 26.64506,44.12493 27.36231,44.94993 3.3861,3.89477 116.30441,192.99839 115.23724,192.98712 C 571.0489,629.98004 534.5,610.02631 490.5,585.64551 Z M 4.6549876,597.17126 C 3.1331896,595.48969 3,585.06462 3,467.63142 3,342.38116 3.0381014,339.84564 4.9773607,336.04438 c 1.0875483,-2.13177 3.2250483,-4.74983 4.75,-5.81791 6.9435813,-4.8633 166.9782893,-92.61824 170.5630293,-93.52815 2.85799,-0.72543 5.2823,-0.6925 8.29269,0.11266 5.86971,1.5699 168.10472,91.49409 172.16197,95.42653 1.80098,1.74558 3.71759,4.76874 4.25915,6.71813 1.32672,4.77569 1.35688,252.96444 0.0312,256.45133 -1.17571,3.09236 -5.198,4.29559 -8.82911,2.64115 -1.45545,-0.66315 -20.57613,-11.62634 -42.4904,-24.36266 -32.71391,-19.01294 -40.2353,-23.78583 -42.03,-26.6712 L 269.5,543.5 269,465.78508 c -0.44901,-69.78977 -0.66473,-77.87958 -2.11537,-79.32965 -0.88845,-0.88811 -19.11345,-11.28031 -40.5,-23.09379 -35.76474,-19.75568 -39.20557,-21.44371 -42.88463,-21.03858 -6.06479,0.66783 -79.21063,41.32774 -82.25,45.72068 L 99,391.29577 v 75.90177 c 0,83.60116 0.323676,79.24499 -6.248949,84.10105 C 84.96458,557.05149 11.174538,599 8.8413123,599 7.4490769,599 5.5652307,598.17707 4.6549876,597.17126 Z M 1.4848168,468 c 0,-69.575 0.119272,-98.0375 0.265049,-63.25 0.145777,34.7875 0.145777,91.7125 0,126.5 -0.145777,34.7875 -0.265049,6.325 -0.265049,-63.25 z M 742.05758,483.75 C 729.73533,463.2625 717.06094,442.45 713.89226,437.5 698.33667,413.19957 596.2468,242.45511 597.09372,242.15542 c 0.53557,-0.18952 37.46558,19.83548 82.06668,44.5 63.4854,35.10758 81.6625,45.58756 83.71625,48.26643 l 2.62335,3.42186 0.26546,91.32814 c 0.146,50.23048 -0.0876,91.32815 -0.51917,91.32815 -0.43155,0 -10.86647,-16.7625 -23.18871,-37.25 z m 669.67752,-20.79309 c -3.1708,-1.67135 -9.4708,-5.16241 -14,-7.75792 l -8.2351,-4.71911 -0.2743,-16.13718 -0.2743,-16.13719 13.8613,-7.60275 c 7.6236,-4.18152 14.321,-7.60276 14.8829,-7.60276 0.562,0 7.1106,3.38523 14.5524,7.52273 9.6421,5.36078 13.7022,8.16283 14.1277,9.75 0.7475,2.78865 0.7889,25.51307 0.052,28.25758 -0.3604,1.34121 -5.2526,4.65043 -14.4139,9.75 -7.6275,4.24583 -14.0134,7.71872 -14.1908,7.71755 -0.1774,-10e-4 -2.9167,-1.36961 -6.0874,-3.04095 z"
       id="path77"
       inkscape:connector-curvature="0" />
    <path
       style="fill:#2e7d32"
       d="m 1413.9383,631.98142 c -3.4388,-0.58449 -163.983,-88.71879 -170.7971,-93.76288 -1.8474,-1.3675 -4.2,-4.3386 -5.2281,-6.60245 -1.782,-3.92421 -1.8699,-8.42811 -1.8856,-96.61609 -0.01,-59.51719 0.3453,-93.80203 0.9979,-96.15154 0.5748,-2.06957 2.6303,-5.10472 4.7444,-7.0058 2.0516,-1.84484 41.0802,-24.03562 86.7302,-49.31285 l 83,-45.9586 6.01,-0.0356 6.01,-0.0356 82.99,45.89098 c 45.6445,25.24003 84.2799,46.79551 85.8565,47.90106 1.5766,1.10556 3.7042,3.85462 4.7281,6.10903 1.0238,2.25441 1.9162,3.42393 1.9831,2.59893 0.067,-0.825 0.4819,-0.375 0.9223,1 0.4404,1.375 0.8006,17.35 0.8006,35.5 0,18.15 -0.3602,34.125 -0.8006,35.5 -0.4404,1.375 -0.8557,1.825 -0.9231,1 -0.067,-0.825 -0.8568,-0.01 -1.7543,1.81142 -1.8055,3.66369 -3.1599,4.51159 -55.2773,34.60407 -18.4441,10.64958 -31.496,17.5845 -33.095,17.5845 -5.9161,0 -5.9503,-0.22501 -5.9503,-39.18086 0,-35.22582 -0.019,-35.55013 -2.25,-38.71804 -3.0551,-4.33782 -76.2837,-45.08019 -82.25,-45.76164 -3.6895,-0.4214 -7.0275,1.21456 -43,21.07407 -21.45,11.84202 -39.7875,22.49329 -40.75,23.66949 -1.6089,1.96612 -1.75,5.75673 -1.75,47.01199 v 44.87344 l 2.75,2.94854 c 1.6298,1.74752 36.1509,21.12086 84.75,47.562 45.1,24.5374 82.7875,45.54251 83.75,46.67802 2.0374,2.40361 2.3004,7.72826 0.5,10.12436 -1.0065,1.33952 -60.4751,34.86831 -76.25,42.99021 -4.9945,2.57149 -9.95,3.49368 -14.5617,2.70984 z m -403.6914,-1.01374 c -4.1248,-1.65778 -163.6905,-90.22279 -167.10575,-92.75001 -1.84736,-1.36702 -4.19998,-4.33773 -5.22803,-6.60158 -1.78206,-3.92421 -1.86996,-8.42811 -1.88558,-96.61609 -0.0107,-60.4473 0.34053,-93.78511 1.01363,-96.20867 0.56651,-2.03977 2.29158,-4.96477 3.8335,-6.5 1.54191,-1.53523 40.5634,-23.70077 86.71441,-49.25675 l 83.91092,-46.46542 6.0141,-0.0346 c 5.9765,-0.0344 6.2451,0.0935 42.9859,20.46542 20.608,11.42664 38.0846,20.5 39.4859,20.5 h 2.5141 l 0.2536,-135.42525 C 1102.9863,17.801598 1103.1432,6.4992361 1104.6586,4.824751 1105.5669,3.8211379 1107.4426,3 1108.8268,3 c 1.4121,0 19.2313,9.30209 40.5951,21.191721 46.0051,25.603357 45.172,25.094295 47.6106,29.093701 1.932,3.16868 1.9601,6.581076 1.9638,238.996698 0,256.73798 0.4037,239.33531 -5.6231,244.84404 -2.2978,2.10025 -150.085,84.62201 -166.0834,92.73802 -4.4551,2.26009 -12.8179,2.80157 -17.0429,1.1035 z m 50.4602,-126.25369 c 33.7089,-18.61775 39.0242,-21.87049 40.5578,-24.81983 1.6203,-3.11614 1.7432,-6.96926 1.5,-47.04005 -0.2511,-41.37139 -0.3646,-43.75597 -2.1773,-45.7582 -1.0518,-1.16177 -19.3229,-11.78362 -40.6024,-23.60411 -40.7526,-22.63759 -41.8949,-23.1077 -48.2849,-19.87046 -15.73965,7.97399 -74.69501,41.19228 -76.4503,43.07581 l -2.25,2.41438 v 44.92846 44.92846 l 2.75,2.90841 c 2.17825,2.30372 33.9054,20.33847 75.75,43.05876 2.6685,1.44889 5.0676,2.01079 7.2071,1.68796 1.7639,-0.26615 20.6639,-10.12547 42,-21.90959 z M 490.5,584.68883 C 447.6,560.89342 411.2846,540.61667 409.79911,539.62939 406.51909,537.44944 403,530.51396 403,526.2296 c 0,-2.32885 6.61798,-14.13949 25.64309,-45.76341 24.48967,-40.70721 25.72034,-42.54218 27.36041,-40.79532 0.94453,1.00602 26.58875,43.22913 56.98716,93.82913 30.3984,50.6 55.71631,92.5625 56.26203,93.25 0.54571,0.6875 0.5996,1.23948 0.11975,1.22661 C 568.8926,627.96375 533.4,608.48425 490.5,584.68883 Z M 4.6549876,597.17126 C 3.1331896,595.48969 3,585.06462 3,467.63142 3,342.38116 3.0381014,339.84564 4.9773607,336.04438 c 1.0875483,-2.13177 3.2250483,-4.74983 4.75,-5.81791 6.9435813,-4.8633 166.9782893,-92.61824 170.5630293,-93.52815 2.85799,-0.72543 5.2823,-0.6925 8.29269,0.11266 5.86971,1.5699 168.10472,91.49409 172.16197,95.42653 1.80098,1.74558 3.71759,4.76874 4.25915,6.71813 1.32672,4.77569 1.35688,252.96444 0.0312,256.45133 -1.17571,3.09236 -5.198,4.29559 -8.82911,2.64115 -1.45545,-0.66315 -20.57613,-11.62634 -42.4904,-24.36266 -32.71391,-19.01294 -40.2353,-23.78583 -42.03,-26.6712 L 269.5,543.5 269,465.78508 c -0.44901,-69.78977 -0.66473,-77.87958 -2.11537,-79.32965 -0.88845,-0.88811 -19.11345,-11.28031 -40.5,-23.09379 -35.76474,-19.75568 -39.20557,-21.44371 -42.88463,-21.03858 -6.06479,0.66783 -79.21063,41.32774 -82.25,45.72068 L 99,391.29577 v 75.90177 c 0,83.60116 0.323676,79.24499 -6.248949,84.10105 C 84.96458,557.05149 11.174538,599 8.8413123,599 7.4490769,599 5.5652307,598.17707 4.6549876,597.17126 Z M 1.4848168,468 c 0,-69.575 0.119272,-98.0375 0.265049,-63.25 0.145777,34.7875 0.145777,91.7125 0,126.5 -0.145777,34.7875 -0.265049,6.325 -0.265049,-63.25 z M 662.95647,350.25 c -27.7113,-46.0625 -53.4039,-88.69654 -57.09468,-94.74231 -3.69078,-6.04577 -6.53646,-11.16636 -6.32373,-11.37908 0.21272,-0.21273 11.31618,5.65861 24.67436,13.04741 138.36857,76.53578 135.98761,75.17617 138.62623,79.15981 1.87593,2.83216 2.51325,5.05624 2.43572,8.5 -0.0955,4.24181 -2.39914,8.48651 -25.43969,46.8752 -13.93407,23.21607 -25.59554,42.22857 -25.91436,42.25 -0.31882,0.0214 -23.25256,-37.64853 -50.96385,-83.71103 z"
       id="path75"
       inkscape:connector-curvature="0" />
    <path
       style="fill:#36464e"
       d="m 1413.9383,631.98142 c -3.4388,-0.58449 -163.983,-88.71879 -170.7971,-93.76288 -1.8474,-1.3675 -4.2,-4.3386 -5.2281,-6.60245 -1.782,-3.92421 -1.8699,-8.42811 -1.8856,-96.61609 -0.01,-59.51719 0.3453,-93.80203 0.9979,-96.15154 0.5748,-2.06957 2.6303,-5.10472 4.7444,-7.0058 2.0516,-1.84484 41.0802,-24.03562 86.7302,-49.31285 l 83,-45.9586 6.01,-0.0356 6.01,-0.0356 82.99,45.89098 c 45.6445,25.24003 84.2799,46.79551 85.8565,47.90106 1.5766,1.10556 3.7042,3.85462 4.7281,6.10903 1.0238,2.25441 1.9162,3.42393 1.9831,2.59893 0.067,-0.825 0.4819,-0.375 0.9223,1 0.4404,1.375 0.8006,17.35 0.8006,35.5 0,18.15 -0.3602,34.125 -0.8006,35.5 -0.4404,1.375 -0.8557,1.825 -0.9231,1 -0.067,-0.825 -0.8568,-0.01 -1.7543,1.81142 -1.8055,3.66369 -3.1599,4.51159 -55.2773,34.60407 -18.4441,10.64958 -31.496,17.5845 -33.095,17.5845 -5.9161,0 -5.9503,-0.22501 -5.9503,-39.18086 0,-35.22582 -0.019,-35.55013 -2.25,-38.71804 -3.0551,-4.33782 -76.2837,-45.08019 -82.25,-45.76164 -3.6895,-0.4214 -7.0275,1.21456 -43,21.07407 -21.45,11.84202 -39.7875,22.49329 -40.75,23.66949 -1.6089,1.96612 -1.75,5.75673 -1.75,47.01199 v 44.87344 l 2.75,2.94854 c 1.6298,1.74752 36.1509,21.12086 84.75,47.562 45.1,24.5374 82.7875,45.54251 83.75,46.67802 2.0374,2.40361 2.3004,7.72826 0.5,10.12436 -1.0065,1.33952 -60.4751,34.86831 -76.25,42.99021 -4.9945,2.57149 -9.95,3.49368 -14.5617,2.70984 z m -403.6914,-1.01374 c -4.1248,-1.65778 -163.6905,-90.22279 -167.10575,-92.75001 -1.84736,-1.36702 -4.19998,-4.33773 -5.22803,-6.60158 -1.78206,-3.92421 -1.86996,-8.42811 -1.88558,-96.61609 -0.0107,-60.4473 0.34053,-93.78511 1.01363,-96.20867 0.56651,-2.03977 2.29158,-4.96477 3.8335,-6.5 1.54191,-1.53523 40.5634,-23.70077 86.71441,-49.25675 l 83.91092,-46.46542 6.0141,-0.0346 c 5.9765,-0.0344 6.2451,0.0935 42.9859,20.46542 20.608,11.42664 38.0846,20.5 39.4859,20.5 h 2.5141 l 0.2536,-135.42525 C 1102.9863,17.801598 1103.1432,6.4992361 1104.6586,4.824751 1105.5669,3.8211379 1107.4426,3 1108.8268,3 c 1.4121,0 19.2313,9.30209 40.5951,21.191721 46.0051,25.603357 45.172,25.094295 47.6106,29.093701 1.932,3.16868 1.9601,6.581076 1.9638,238.996698 0,256.73798 0.4037,239.33531 -5.6231,244.84404 -2.2978,2.10025 -150.085,84.62201 -166.0834,92.73802 -4.4551,2.26009 -12.8179,2.80157 -17.0429,1.1035 z m 50.4602,-126.25369 c 33.7089,-18.61775 39.0242,-21.87049 40.5578,-24.81983 1.6203,-3.11614 1.7432,-6.96926 1.5,-47.04005 -0.2511,-41.37139 -0.3646,-43.75597 -2.1773,-45.7582 -1.0518,-1.16177 -19.3229,-11.78362 -40.6024,-23.60411 -40.7526,-22.63759 -41.8949,-23.1077 -48.2849,-19.87046 -15.73965,7.97399 -74.69501,41.19228 -76.4503,43.07581 l -2.25,2.41438 v 44.92846 44.92846 l 2.75,2.90841 c 2.17825,2.30372 33.9054,20.33847 75.75,43.05876 2.6685,1.44889 5.0676,2.01079 7.2071,1.68796 1.7639,-0.26615 20.6639,-10.12547 42,-21.90959 z M 4.6549876,597.17126 C 3.1331896,595.48969 3,585.06462 3,467.63142 3,342.38116 3.0381014,339.84564 4.9773607,336.04438 c 1.0875483,-2.13177 3.2250483,-4.74983 4.75,-5.81791 6.9435813,-4.8633 166.9782893,-92.61824 170.5630293,-93.52815 2.85799,-0.72543 5.2823,-0.6925 8.29269,0.11266 5.86971,1.5699 168.10472,91.49409 172.16197,95.42653 1.80098,1.74558 3.71759,4.76874 4.25915,6.71813 1.32672,4.77569 1.35688,252.96444 0.0312,256.45133 -1.17571,3.09236 -5.198,4.29559 -8.82911,2.64115 -1.45545,-0.66315 -20.57613,-11.62634 -42.4904,-24.36266 -32.71391,-19.01294 -40.2353,-23.78583 -42.03,-26.6712 L 269.5,543.5 269,465.78508 c -0.44901,-69.78977 -0.66473,-77.87958 -2.11537,-79.32965 -0.88845,-0.88811 -19.11345,-11.28031 -40.5,-23.09379 -35.76474,-19.75568 -39.20557,-21.44371 -42.88463,-21.03858 -6.06479,0.66783 -79.21063,41.32774 -82.25,45.72068 L 99,391.29577 v 75.90177 c 0,83.60116 0.323676,79.24499 -6.248949,84.10105 C 84.96458,557.05149 11.174538,599 8.8413123,599 7.4490769,599 5.5652307,598.17707 4.6549876,597.17126 Z M 1.4848168,468 c 0,-69.575 0.119272,-98.0375 0.265049,-63.25 0.145777,34.7875 0.145777,91.7125 0,126.5 -0.145777,34.7875 -0.265049,6.325 -0.265049,-63.25 z"
       id="path73"
       inkscape:connector-curvature="0" />
  </g>
</svg>
