<?xml version="1.0" encoding="UTF-8" standalone="no"?>
<!-- Created with Inkscape (http://www.inkscape.org/) -->

<svg
   xmlns:dc="http://purl.org/dc/elements/1.1/"
   xmlns:cc="http://creativecommons.org/ns#"
   xmlns:rdf="http://www.w3.org/1999/02/22-rdf-syntax-ns#"
   xmlns:svg="http://www.w3.org/2000/svg"
   xmlns="http://www.w3.org/2000/svg"
   xmlns:sodipodi="http://sodipodi.sourceforge.net/DTD/sodipodi-0.dtd"
   xmlns:inkscape="http://www.inkscape.org/namespaces/inkscape"
   version="1.1"
   id="svg61"
   width="600"
   height="600"
   viewBox="0 0 600 600"
   sodipodi:docname="query-javascript.svg"
   inkscape:version="0.92.2 5c3e80d, 2017-08-06">
  <metadata
     id="metadata67">
    <rdf:RDF>
      <cc:Work
         rdf:about="">
        <dc:format>image/svg+xml</dc:format>
        <dc:type
           rdf:resource="http://purl.org/dc/dcmitype/StillImage" />
        <dc:title></dc:title>
      </cc:Work>
    </rdf:RDF>
  </metadata>
  <defs
     id="defs65" />
  <sodipodi:namedview
     pagecolor="#ffffff"
     bordercolor="#666666"
     borderopacity="1"
     objecttolerance="10"
     gridtolerance="10"
     guidetolerance="10"
     inkscape:pageopacity="0"
     inkscape:pageshadow="2"
     inkscape:window-width="1440"
     inkscape:window-height="816"
     id="namedview63"
     showgrid="false"
     inkscape:zoom="0.90509668"
     inkscape:cx="348.81124"
     inkscape:cy="223.34585"
     inkscape:window-x="0"
     inkscape:window-y="1"
     inkscape:window-maximized="1"
     inkscape:current-layer="svg61" />
  <g
     id="g71"
     transform="translate(0.99502483,0.99502577)">
    <path
       style="fill:#fefefe"
       d="M 0,300 V 0 H 300 600 V 300 600 H 300 0 Z"
       id="path87"
       inkscape:connector-curvature="0" />
    <path
       style="fill:#adcae0"
       d="m 52.109466,555.6319 c -1.412684,-1.70218 2.282462,-18.88236 4.447767,-20.6794 0.772989,-0.64152 3.762383,-1.45578 6.643097,-1.80945 4.789126,-0.58798 5.425379,-0.97783 7.42969,-4.55231 3.378702,-6.02557 6.198826,-15.99614 9.389866,-33.19794 4.052468,-21.84546 6.669558,-30.32423 9.717704,-31.48313 2.673552,-1.01648 17.52508,-1.21395 21.01241,-0.27938 1.2375,0.33163 2.25,1.34192 2.25,2.24508 0,2.3483 -9.49479,45.38446 -13.154597,59.62463 -1.696239,6.6 -4.182411,14.35058 -5.524827,17.22351 -2.83846,6.07465 -8.664291,11.46368 -14.179019,13.11593 -5.658178,1.69523 -26.581493,1.54032 -28.032091,-0.20754 z M 153,523.10002 c -13.01648,-0.74559 -18.08607,-2.56801 -24.51658,-8.81324 -15.47249,-15.02669 -12.33902,-53.31883 6.4041,-78.26045 10.66189,-14.18785 27.5205,-21.70342 46.61248,-20.77983 15.30751,0.74051 26.41743,6.26167 33.78719,16.79082 9.51179,13.58944 9.15278,28.51909 -1.37978,57.379 -1.59908,4.38157 -2.90741,8.55536 -2.90741,9.27508 0,0.85315 1.34958,1.3086 3.87756,1.3086 5.93165,0 6.3634,1.25441 3.97808,11.55779 -1.13861,4.91821 -2.58443,9.45659 -3.21292,10.08529 -1.40113,1.40156 -45.64499,2.43059 -62.64272,1.45694 z M 189.25645,481 c 6.18069,-22.60914 6.57485,-26.15056 3.56163,-32 -3.09203,-6.00243 -8.87798,-9.0086 -17.27997,-8.97804 -12.31908,0.0448 -18.72255,5.5763 -23.38275,20.19863 -5.50842,17.2838 -6.39485,29.6093 -2.4481,34.04007 3.52604,3.95846 7.06936,4.70189 21.27897,4.46457 L 184.47246,498.5 Z m 141.64428,42.04164 C 315.99308,521.12782 309,513.59137 309,499.4392 c 0,-8.52315 3.17821,-24.05945 7.19857,-35.18934 2.65556,-7.35161 4.0508,-9.639 8.73103,-14.31389 9.78801,-9.77682 22.95665,-14.46815 38.52532,-13.72464 11.10147,0.53017 17.82113,3.19475 23.44622,9.29724 4.48247,4.86292 6.08524,9.50054 6.09328,17.63096 0.006,5.9995 -2.40811,20.86068 -3.99772,24.61047 l -0.95382,2.25 h -25.95405 c -25.0758,0 -25.97553,0.0677 -26.58883,2 -0.95911,3.02188 0.23125,5.55476 3.26922,6.95636 1.78538,0.82371 10.06987,1.446 23.92971,1.79747 15.40751,0.39073 21.32756,0.87281 21.66977,1.7646 0.55804,1.45423 -3.13608,18.63566 -4.24743,19.75487 -1.12334,1.13128 -41.48555,1.76134 -49.22054,0.76834 z M 366.2191,466 c -0.87568,-7.7936 -14.12982,-9.52933 -21.74048,-2.84708 -6.10033,5.35616 -5.13316,5.94315 9.27138,5.62696 L 366.5,468.5 Z m -128.03726,54.40333 c -10.12854,-5.04727 -12.77365,-14.29331 -9.70809,-33.93485 2.46385,-15.78631 8.27523,-44.13094 9.52786,-46.4715 C 238.96495,438.19697 240.09908,438 249.5,438 c 8.91648,0 10.56286,0.25389 11.34795,1.75 1.15918,2.209 0.10734,9.86704 -3.74283,27.25 -3.59531,16.2323 -4.68367,26.46197 -3.21838,30.25 1.05744,2.73366 1.12047,2.75 10.60995,2.75 8.94702,0 9.60678,-0.14122 10.51165,-2.25 0.531,-1.2375 3.65268,-14.5564 6.93707,-29.59755 3.2844,-15.04116 6.49539,-27.97866 7.13555,-28.75 0.84587,-1.01921 3.70412,-1.40245 10.4597,-1.40245 10.39343,0 12.45569,0.47258 12.46743,2.85699 0.0155,3.1438 -16.34055,79.65138 -17.29355,80.89301 -0.72265,0.94151 -7.17403,1.25 -26.14064,1.25 -25.10546,0 -25.19689,-0.008 -30.39206,-2.59667 z m 154.13033,0.96778 c -0.64722,-1.68663 15.21956,-78.48778 16.87132,-81.66352 0.8695,-1.67172 2.90988,-1.77271 30.30307,-1.5 28.05584,0.27932 29.49712,0.38663 32.19212,2.39694 4.43934,3.31147 6.5864,7.8632 6.71064,14.2264 L 478.5,460.5 l -24.28154,0.26785 c -24.09915,0.26584 -24.28767,0.28462 -25.09876,2.5 -0.44948,1.22768 -3.41472,14.60715 -6.58944,29.73215 -3.17472,15.125 -6.22287,28.0625 -6.77368,28.75 -0.69094,0.86241 -4.38404,1.25 -11.91041,1.25 -9.15799,0 -11.00927,-0.26145 -11.534,-1.62889 z m 67.22857,0.69481 c -0.31751,-0.51375 0.21843,-2.87625 1.19098,-5.25 3.04399,-7.4296 2.28311,-19.94967 -2.08443,-34.29859 C 456.64128,475.92686 455,469.06436 455,467.26733 V 464 h 12.37756 c 13.52309,0 13.56146,0.0154 15.57271,6.25921 0.666,2.06756 1.59916,3.51926 2.07368,3.22599 0.47452,-0.29327 8.11168,-11.09742 16.97145,-24.00921 L 518.10408,426 h 13.94796 C 545.42083,426 546,426.0846 546,428.03836 c 0,2.86674 -9.54491,16.72041 -24.43239,35.46164 -19.4849,24.52873 -26.9751,36.54285 -35.3808,56.75 l -1.14393,2.75 h -12.46242 c -6.85434,0 -12.72221,-0.42034 -13.03972,-0.93408 z M 89.321041,458.39424 c -0.728876,-1.89942 2.414059,-17.3383 3.897245,-19.14424 0.712027,-0.86697 4.52258,-1.25 12.435544,-1.25 9.82807,0 11.49959,0.23623 12.06315,1.70485 0.80702,2.10306 -2.16242,16.92202 -3.78185,18.87331 -0.8939,1.07708 -3.94639,1.42184 -12.58896,1.42184 -9.552767,0 -11.50919,-0.26125 -12.025129,-1.60576 z M 291.41142,374.53533 C 247.6824,368.64808 207.71848,347.79577 175.88295,314.25507 148.57012,285.4793 131.36355,251.68338 124.33079,213 c -2.5952,-14.27479 -2.34331,-40.29256 0.52022,-53.73367 4.84648,-22.74892 15.55447,-44.24032 30.15195,-60.51633 8.14311,-9.079463 9.48603,-7.970222 6.86276,5.66862 -4.61727,24.0061 -5.03888,56.86969 -0.9844,76.73262 5.64446,27.65229 17.33736,51.6322 36.25338,74.34876 22.22267,26.68758 63.08741,54.65242 95.75302,65.52639 58.60297,19.50819 124.8046,8.25345 164.2656,-27.92631 10.92098,-10.01288 11.88392,-7.50497 2.82395,7.3547 -22.64189,37.13597 -61.2758,63.69936 -105.60742,72.61215 -13.85701,2.78593 -47.36694,3.56749 -62.95843,1.4684 z M 352,264.97021 C 333.52672,263.10303 312.80726,256.5865 297.7393,247.90453 273.47021,233.92098 250.36454,209.6846 238.24616,185.5 224.42225,157.91167 221.74503,121.3339 231.6268,95.062376 236.32721,82.56593 249.433,62 252.69604,62 c 1.63479,0 1.62205,0.999113 -0.18482,14.5 -4.46326,33.34928 1.1215,63.07024 16.55652,88.11041 7.61897,12.36023 25.97163,30.74761 39.93226,40.0078 19.92881,13.21893 39.3624,21.84279 58.5,25.95999 11.83239,2.54558 35.13819,2.3767 47.0594,-0.34101 19.38056,-4.41825 35.38149,-12.66629 51.3843,-26.48719 4.93542,-4.2625 9.21712,-7.75 9.51489,-7.75 2.58799,0 -4.86829,15.05566 -12.43859,25.1159 -19.79104,26.30053 -53.1797,42.34125 -92.02,44.20862 -5.775,0.27765 -14.325,0.11821 -19,-0.35431 z m 34.34157,-98.38793 c -10.15019,-1.92941 -16.55626,-4.17555 -26.68071,-9.35496 C 341.16532,147.76548 324.1297,127.0669 316.28029,104.51918 312.94261,94.93157 312.08177,79.12075 314.40083,70 c 2.7063,-10.643675 11.71704,-28 14.53653,-28 0.45957,0 0.81614,7.0875 0.79237,15.75 -0.0358,13.043586 0.32197,17.088037 2.08201,23.536718 6.28477,23.027132 24.69109,43.843002 49.68826,56.192922 13.91808,6.87627 22.60255,8.94865 37.5,8.94865 13.46041,0 21.83185,-1.72566 33.58349,-6.9228 7.33209,-3.24259 8.83587,-2.16113 4.89743,3.52204 -6.71875,9.69517 -18.47637,18.04161 -30.98092,21.99261 -8.89755,2.81131 -29.3927,3.60856 -40.15843,1.56214 z"
       id="path85"
       inkscape:connector-curvature="0" />
    <path
       style="fill:#95b8d2"
       d="m 56.5,556.34026 c -1.65,-0.27178 -3.378988,-0.86102 -3.842195,-1.3094 -1.051691,-1.01804 2.063869,-15.73508 3.97586,-18.78086 0.985618,-1.57008 2.387585,-2.25413 4.639388,-2.26365 5.943147,-0.0252 7.735756,-1.07022 10.209569,-5.95206 3.681609,-7.2653 6.162167,-16.07686 9.515807,-33.80252 3.628237,-19.17703 6.416774,-28.79338 8.591453,-29.62789 C 90.455413,464.27175 95.640894,464 101.11317,464 c 8.26447,0 10.05528,0.2754 10.57359,1.62608 1.05762,2.75612 -12.454941,62.38042 -16.703847,73.70588 -2.69622,7.18678 -7.158657,12.41584 -12.679807,14.85814 -4.271061,1.88931 -19.621226,3.16844 -25.803106,2.15016 z m 90.40073,-34.37447 c -20.34991,-2.3786 -30.40961,-19.30558 -27.09058,-45.58399 3.21502,-25.45496 15.81127,-46.08405 33.36246,-54.63831 9.97465,-4.86153 16.5049,-6.10894 29.05791,-5.55065 8.98321,0.39952 11.3518,0.89115 16.97794,3.52394 12.39015,5.79805 19.60826,15.34576 21.95721,29.04376 1.48814,8.67818 -0.012,16.82804 -6.83424,37.12849 -4.90701,14.60144 -4.86237,15.0662 1.44995,15.09566 1.8391,0.009 3.51177,0.61567 3.80553,1.38121 0.83075,2.16488 -3.52809,18.00171 -5.33516,19.3841 -1.85384,1.41817 -55.59121,1.59034 -67.35102,0.21579 z M 184.8411,498.25 c 1.21768,-2.33794 7.71205,-25.95789 9.56559,-34.78995 2.284,-10.88319 0.0107,-17.52949 -7.51122,-21.96005 -2.59488,-1.52843 -5.16384,-1.99454 -10.89547,-1.97682 -8.0836,0.025 -13.38356,2.01321 -17.69893,6.63959 -4.82802,5.17598 -10.31089,22.11467 -11.76196,36.33723 -0.80685,7.9083 1.25205,12.13828 7.42278,15.25 3.93135,1.98247 5.97827,2.25 17.21482,2.25 11.13175,0 12.86879,-0.22246 13.66439,-1.75 z m 60.36508,23.72913 c -6.93956,-1.01115 -12.42265,-4.72913 -15.08503,-10.22887 -3.74339,-7.7328 -2.96773,-17.214 4.51387,-55.1749 3.81241,-19.3438 2.37797,-17.69507 15.10314,-17.35931 L 260.5,439.5 l -0.28077,6 c -0.15442,3.3 -1.68726,11.85 -3.40632,19 -2.45717,10.22004 -3.14558,15.35227 -3.21923,24 l -0.0937,11 10.41321,0.28679 c 5.72727,0.15773 10.76851,-0.0685 11.20275,-0.50275 0.43424,-0.43424 3.55593,-13.38829 6.93708,-28.78678 3.38115,-15.3985 6.56825,-28.78476 7.08244,-29.74726 0.79471,-1.48761 2.43371,-1.75 10.93109,-1.75 8.34762,0 10.10013,0.27083 10.62636,1.64216 1.05032,2.73711 -15.45649,79.64381 -17.40853,81.10784 -1.88344,1.41259 -38.7503,1.58829 -48.07822,0.22913 z m 82.69678,0.008 c -9.50796,-1.6083 -15.99109,-7.55343 -17.99327,-16.5001 -1.37574,-6.14746 0.45717,-19.6549 4.60895,-33.96511 3.24177,-11.17361 6.62352,-17.4765 12.07098,-22.49779 11.41043,-10.51777 32.08182,-15.16867 47.49875,-10.68685 6.93032,2.0147 14.02383,8.01754 16.4212,13.89634 2.21508,5.43179 2.11472,16.25945 -0.25735,27.76635 L 388.5,488.5 362,489.04182 c -14.575,0.298 -26.6125,0.6355 -26.75,0.75 -0.1375,0.1145 -0.25,1.71344 -0.25,3.55319 0,6.49479 1.45369,6.94234 25.79744,7.94225 11.93641,0.49028 22.05741,1.22856 22.49111,1.64063 1.11813,1.06235 -2.8611,18.18552 -4.46197,19.20045 -1.64528,1.04309 -44.62693,0.92392 -50.92362,-0.14118 z m 38.90177,-55.62153 c 0.87841,-9.03487 -16.44692,-11.09293 -23.71338,-2.81689 -5.43124,6.18585 -4.84366,6.54621 10.15865,6.23029 l 13.25,-0.279 0.30473,-3.13437 z m 25.84609,54.87841 c -0.25696,-0.41578 3.42898,-18.97828 8.19099,-41.25 L 409.5,439.5 l 15,-0.6775 c 8.25,-0.37263 21.87134,-0.35513 30.26964,0.0389 l 15.26964,0.71637 3.08512,3.08512 c 2.17955,2.17955 3.50365,4.89678 4.51098,9.25708 0.78422,3.39457 1.16052,6.60128 0.83622,7.12601 C 478.12415,459.60814 468.09905,460 454.06343,460 c -17.86026,0 -24.06615,0.31269 -24.80836,1.25 -0.5444,0.6875 -3.59268,13.625 -6.77395,28.75 -3.18126,15.125 -6.15481,28.5125 -6.60787,29.75 -0.78584,2.14646 -1.32835,2.25 -11.78948,2.25 -6.03116,0 -11.17598,-0.34018 -11.43295,-0.75596 z m 67.91484,-0.13781 c -0.30381,-0.49157 0.20479,-2.62907 1.13022,-4.75 3.09926,-7.10296 2.29686,-17.77349 -2.60416,-34.63099 -3.46217,-11.90844 -4.05798,-15.06096 -3.07117,-16.25 0.94156,-1.13452 3.73133,-1.47524 12.07884,-1.47524 10.22606,0 10.94184,0.13329 12.36301,2.30227 0.82968,1.26625 1.7963,3.74125 2.14805,5.5 0.35175,1.75875 1.1458,3.17721 1.76455,3.15213 0.61875,-0.0251 8.47557,-10.78255 17.45961,-23.90549 10.69282,-15.61897 17.0825,-24.06052 18.5,-24.44075 1.19096,-0.31947 6.94779,-0.587 12.79295,-0.59451 14.3909,-0.0185 14.58306,0.30068 6.99945,11.62541 -3.26355,4.87352 -11.6366,16.06094 -18.60677,24.86094 -20.16197,25.45494 -30.29927,41.78532 -35.84911,57.75 -0.53374,1.53534 -2.07689,1.75 -12.58073,1.75 -6.5848,0 -12.22094,-0.40219 -12.52474,-0.89377 z M 89.765281,457.75 c -0.246784,-0.6875 0.492571,-5.075 1.643011,-9.75 L 93.5,439.5 l 11.4157,-0.2843 c 6.27863,-0.15637 11.80282,0.10282 12.27597,0.57597 0.85904,0.85904 -1.36157,12.65978 -3.19114,16.95833 -0.91338,2.14599 -1.48531,2.25 -12.3721,2.25 -8.225591,0 -11.539805,-0.34921 -11.863149,-1.25 z M 290,373.37096 C 217.12013,363.49168 152.29447,307.52474 130.61187,235.76395 125.21733,217.91017 123.63006,206.91819 123.57023,187 c -0.0444,-14.78646 0.30773,-19.11553 2.27099,-27.91878 2.71921,-12.19298 6.04789,-21.84358 10.89297,-31.58122 7.40616,-14.88491 22.48302,-34.719857 25.142,-33.076519 0.69309,0.428351 0.99319,1.474521 0.6669,2.324821 -1.92961,5.028478 -4.74697,28.000348 -5.24325,42.751698 -1.12035,33.30172 4.05656,57.83795 17.82871,84.5 8.475,16.40707 17.54127,28.6413 31.87145,43.00802 17.89183,17.93746 37.2007,31.86821 62.49305,45.08679 60.0316,31.37441 141.77279,23.69642 187.25649,-17.58908 3.43725,-3.11999 6.72202,-5.51521 7.29949,-5.32272 0.59975,0.19992 -0.30679,2.91557 -2.11425,6.33349 -5.56725,10.52767 -14.14049,21.69839 -24.93025,32.4835 -25.24047,25.22958 -55.80142,40.46611 -91.28305,45.51025 -12.91159,1.83554 -41.68365,1.76361 -55.72148,-0.13929 z M 350,263.93561 C 315.15653,260.10513 282.01771,241.92582 258.06157,213.5 236.34331,187.7296 226.75699,162.48018 226.7392,131 c -0.0103,-18.1751 2.67722,-30.7316 9.52443,-44.5 3.80636,-7.653834 11.06677,-18.538377 14.41913,-21.616608 L 253.27839,62.5 l -0.69441,6 c -0.38193,3.3 -1.11615,9.6 -1.63161,14 -3.44323,29.39188 2.70168,58.70055 17.26661,82.3545 6.93409,11.2612 26.78631,31.37461 39.36605,39.88396 24.80158,16.77663 47.82762,25.81137 72.06711,28.27702 31.50815,3.20501 61.89078,-6.78192 86.84708,-28.54708 4.20184,-3.66455 7.86291,-6.43961 8.13571,-6.1668 0.71536,0.71536 -5.22567,12.18335 -9.94579,19.1984 -5.17623,7.69291 -17.4915,20.00916 -25.18914,25.19115 -24.47506,16.4764 -58.78669,24.62089 -89.5,21.24446 z M 385.5,165.5163 C 366.809,162.03657 351.0663,153.39729 338.30243,139.61523 327.93199,128.41752 318.52789,111.58128 315.52222,98.831638 313.5648,90.528531 313.59559,76.349373 315.58773,68.661433 317.76269,60.26799 325.92762,44 327.96534,44 c 0.44122,0 0.77151,6.4125 0.73397,14.25 -0.081,16.906386 1.37703,23.871018 7.79801,37.25 12.50912,26.06444 43.12657,47.6465 73.25268,51.63539 11.66213,1.54414 24.03612,0.095 36.25,-4.24531 12.443,-4.42172 12,-4.33097 12,-2.45832 0,0.91576 -3.2625,4.91612 -7.25,8.8897 -8.36149,8.3323 -18.39538,13.86104 -29.3791,16.18811 -8.38124,1.77569 -26.35101,1.77906 -35.8709,0.007 z"
       id="path83"
       inkscape:connector-curvature="0" />
    <path
       style="fill:#9ea1a6"
       d="m 57,556.33428 c -1.925,-0.26228 -3.878988,-0.84628 -4.342195,-1.29777 -1.051189,-1.02461 2.062919,-15.73922 3.97586,-18.78651 1.122392,-1.78796 2.331796,-2.25 5.889388,-2.25 8.812656,0 12.301245,-7.5191 18.451001,-39.76823 3.666775,-19.22844 6.449166,-28.79646 8.615828,-29.62789 C 90.455413,464.27175 95.640894,464 101.11317,464 c 8.2999,0 10.05397,0.27198 10.57905,1.64033 1.05238,2.74246 -12.472617,62.35222 -16.727517,73.72446 -2.669632,7.13524 -7.142793,12.38405 -12.61806,14.80605 C 78.085261,556.05587 63.865012,557.26963 57,556.33428 Z m 90.44369,-34.35093 C 127.92255,519.92209 117.699,504.8797 119.43826,480.77763 122.2536,441.76368 145.72364,416 178.449,416 c 23.90771,0 39.10324,11.68864 42.73599,32.87319 1.46647,8.55182 -0.0618,16.80622 -6.85356,37.01584 -4.90701,14.60144 -4.86237,15.0662 1.44995,15.09566 1.8391,0.009 3.51177,0.61567 3.80553,1.38121 0.83075,2.16488 -3.52809,18.00171 -5.33516,19.3841 -1.83462,1.40347 -54.00091,1.58568 -66.80806,0.23335 z M 188.82723,485.25 c 5.94697,-21.37194 7.21975,-28.10782 6.18121,-32.71256 -2.01223,-8.922 -8.03885,-13.04816 -19.00844,-13.01426 -8.0836,0.025 -13.38356,2.01321 -17.69893,6.63959 -6.62376,7.10114 -14.05642,35.98845 -11.3611,44.15535 2.52826,7.6607 7.24864,9.49803 24.67147,9.60293 l 13.11144,0.079 4.10435,-14.75 z m 56.37895,36.72913 c -6.64917,-0.96884 -12.33255,-4.6707 -14.79989,-9.63989 -3.34358,-6.73393 -2.58162,-20.90191 2.51904,-46.83924 2.37951,-12.1 4.71441,-23.02778 5.18868,-24.28395 0.83424,-2.20962 1.21258,-2.27471 11.62415,-2 L 260.5,439.5 l -0.23913,5.48802 c -0.13152,3.0184 -1.8364,12.59059 -3.78862,21.27153 -2.88332,12.82128 -3.49532,17.42166 -3.26087,24.51198 L 253.5,499.5 l 10.41321,0.28679 c 5.72727,0.15773 10.76538,-0.0673 11.19579,-0.5 0.43042,-0.43274 3.5108,-13.16179 6.84531,-28.28679 3.3345,-15.125 6.49925,-28.5125 7.03277,-29.75 0.91391,-2.11979 1.5518,-2.25 11.02287,-2.25 8.35647,0 10.15803,0.27417 10.6763,1.62478 1.02815,2.67929 -15.51304,79.65986 -17.43177,81.12522 -1.84994,1.41283 -38.71796,1.58864 -48.0483,0.22913 z M 329,522.0682 c -13.60118,-2.00867 -21.31548,-12.41081 -19.50616,-26.30256 1.31599,-10.10402 4.72178,-24.32261 7.65728,-31.96782 4.92338,-12.82248 14.15524,-20.90664 28.78038,-25.20244 6.94235,-2.03916 22.0343,-2.09167 28.74095,-0.10001 6.38956,1.89749 13.55652,8.12515 15.81041,13.73828 2.17939,5.42761 2.08023,16.29823 -0.25329,27.76635 L 388.5,488.5 362,489.04182 c -14.575,0.298 -26.6125,0.6355 -26.75,0.75 -0.58417,0.48645 -0.15522,6.80908 0.53566,7.89562 1.55669,2.44817 6.44021,3.15883 26.58052,3.86803 11.38025,0.40074 20.9113,1.08449 21.18012,1.51945 0.84035,1.35971 -3.32325,18.16808 -4.71972,19.05342 -1.53941,0.97597 -43.15094,0.92574 -49.82658,-0.0601 z m 37.80473,-55.70257 c 0.87841,-9.03487 -16.44692,-11.09293 -23.71338,-2.81689 -5.43124,6.18585 -4.84366,6.54621 10.15865,6.23029 L 366.5,469.5 Z m 25.98453,54.50215 c -0.49234,-1.47703 16.18837,-80.10238 17.23287,-81.22795 0.43901,-0.47309 13.36511,-0.86017 28.72466,-0.86017 29.53193,0 31.24328,0.23692 35.47323,4.91097 1.95756,2.16307 5.21082,13.80324 4.27913,15.31074 C 478.11621,459.62098 468.842,460 454.06343,460 c -17.85652,0 -24.06806,0.31289 -24.81538,1.25 -0.54826,0.6875 -3.76277,14.2457 -7.14335,30.12933 -3.38059,15.88363 -6.38867,29.27113 -6.68463,29.75 -0.83025,1.34337 -22.17807,1.09666 -22.63081,-0.26155 z m 67.79503,0.26861 c -0.31405,-0.50816 0.18616,-2.65923 1.11159,-4.78016 3.11048,-7.12867 2.32226,-17.78949 -2.56273,-34.66132 -3.40788,-11.77014 -4.04078,-15.10128 -3.08743,-16.25 1.44362,-1.73945 19.91576,-2.07108 23.01362,-0.41315 1.09561,0.58635 2.41357,2.96068 3.05297,5.5 0.61882,2.45753 1.6342,4.45338 2.2564,4.43522 0.62221,-0.0182 8.48535,-10.77654 17.47364,-23.90752 10.66175,-15.57571 17.09236,-24.0757 18.5,-24.45333 4.28325,-1.14905 22.22119,-0.64576 24.02622,0.67411 1.61684,1.18226 1.3765,1.85193 -3.14032,8.75 -2.69014,4.10837 -10.01638,13.99476 -16.28053,21.96976 -24.12973,30.71997 -30.62495,40.55512 -36.63963,55.48021 l -3.2319,8.01979 -11.96044,0.28016 c -6.57824,0.15408 -12.2174,-0.13561 -12.53146,-0.64377 z M 89.765281,457.75 c -0.246784,-0.6875 0.492571,-5.075 1.643011,-9.75 L 93.5,439.5 l 11.4157,-0.2843 c 6.27863,-0.15637 11.80282,0.10282 12.27597,0.57597 0.85904,0.85904 -1.36157,12.65978 -3.19114,16.95833 -0.91338,2.14599 -1.48531,2.25 -12.3721,2.25 -8.225591,0 -11.539805,-0.34921 -11.863149,-1.25 z M 304.5,374.41997 c -2.2,-0.21382 -8.05,-0.88015 -13,-1.48074 C 212.87877,363.40001 143.90799,299.07345 126.98282,219.5 c -3.02093,-14.2029 -3.78027,-41.33322 -1.53929,-54.99759 1.85323,-11.30007 6.90779,-27.2636 11.61212,-36.6739 6.45409,-12.91041 22.56399,-34.456971 24.42087,-32.662251 0.37913,0.366443 -0.002,4.191443 -0.84731,8.500001 -3.20902,16.35946 -3.9641,24.38895 -3.98098,42.33374 -0.019,20.22645 0.97477,28.65808 5.40486,45.85535 11.27974,43.78721 42.00944,81.78171 89.5278,110.69305 21.43264,13.04015 36.04807,19.43575 54.91911,24.03219 55.29576,13.46844 112.60515,1.53007 150.25,-31.29922 3.4375,-2.99777 6.25,-4.94748 6.25,-4.33269 0,4.32813 -12.29157,22.23463 -22.87736,33.32798 -24.28237,25.44668 -54.8708,41.91316 -88.72424,47.76239 -11.35936,1.96268 -37.53083,3.29134 -46.8984,2.38092 z m 37,-112.36379 C 321.77408,258.54461 300.7077,249.53026 284.62474,237.71913 267.3282,225.01675 248.65103,203.28092 239.75389,185.5 c -9.13225,-18.25076 -12.2163,-32.02323 -12.20414,-54.5 0.0102,-18.87664 1.8316,-28.46336 7.90535,-41.609184 5.17403,-11.198517 15.4609,-25.979955 16.91208,-24.301352 0.1952,0.225795 -0.23303,4.235536 -0.95162,8.910536 -1.8298,11.904255 -1.76464,37.46785 0.12302,48.25921 7.19389,41.12613 34.34865,74.19763 79.37893,96.67479 20.26482,10.11532 34.05531,13.87273 54.14865,14.75354 31.21092,1.36817 58.62639,-8.18429 80.88519,-28.18309 3.54825,-3.18798 6.61204,-5.31427 6.80844,-4.72509 0.50742,1.52227 -3.21488,8.54657 -8.91607,16.82537 -16.15671,23.46146 -44.62255,39.89534 -77.84372,44.9407 -12.72065,1.9319 -32.09602,1.71889 -44.5,-0.48925 z m 50.09694,-96.13003 c -11.33582,-1.56121 -18.53894,-3.76549 -29.24839,-8.95052 -12.76909,-6.1822 -24.54593,-16.85754 -33.36509,-30.24441 -13.99506,-21.24352 -18.02759,-41.63916 -12.01702,-60.779343 2.20873,-7.033531 9.05617,-20.290593 10.37298,-20.082731 0.45126,0.07123 0.93118,6.992315 1.06649,15.380183 0.27198,16.860456 1.65827,22.958099 8.15384,35.865006 11.42111,22.694095 38.41969,43.051315 65.44025,49.342675 13.86006,3.22711 33.43716,1.50586 47.79308,-4.20205 3.46119,-1.37617 6.53515,-2.26006 6.83102,-1.96419 2.02201,2.022 -12.06602,15.18225 -20.86289,19.48894 -3.44366,1.68592 -8.96121,3.75827 -12.26121,4.60521 -7.79775,2.0013 -23.17025,2.74394 -31.90306,1.54123 z"
       id="path81"
       inkscape:connector-curvature="0" />
    <path
       style="fill:#5994c0"
       d="m 55.25,555.35456 c -2.717816,-0.5963 -2.75652,-1.77285 -0.361592,-10.99176 2.341983,-9.01511 2.563789,-9.342 6.420609,-9.46248 1.755041,-0.0548 4.312598,-0.41181 5.683461,-0.79331 C 72.140696,532.67432 77.188805,519.36355 81.444569,496 84.509081,479.17626 86.707333,470.41621 88.659115,467.25 89.954814,465.14809 90.735698,465 100.52305,465 110.84652,465 111,465.0344 111,467.34452 c 0,2.93853 -10.11207,48.61734 -13.623459,61.54068 -5.858595,21.56199 -11.015519,26.1685 -29.876541,26.68773 -5.5,0.15142 -11.0125,0.0531 -12.25,-0.21837 z m 90.21134,-34.34435 c -14.72597,-2.16353 -23.9533,-13.56605 -25.19196,-31.13052 -1.94966,-27.64662 12.65765,-57.30943 33.22822,-67.47595 14.67555,-7.25306 32.52285,-7.84363 46.04977,-1.52381 8.5332,3.98674 12.90291,8.22884 16.98558,16.48956 6.50471,13.1614 5.79402,22.94497 -3.65893,50.36979 -2.13071,6.1816 -3.87402,11.63613 -3.87402,12.12117 0,0.48504 2.25,1.18036 5,1.54516 2.75,0.3648 5,1.06927 5,1.56549 0,1.5969 -3.81043,16.91315 -4.47538,17.98906 -0.74378,1.20346 -60.91585,1.24707 -69.06328,0.0501 z M 190.30961,483 c 5.17839,-18.8418 6.33617,-25.74414 5.27081,-31.42299 -2.78834,-14.86315 -26.96382,-18.1548 -38.32259,-5.21789 -4.71287,5.36767 -9.15305,18.52881 -11.213,33.23644 -1.54408,11.02448 0.55865,15.88348 8.45517,19.53822 3.37066,1.56003 6.12402,1.81315 17.5,1.60876 L 185.5,500.5 Z m 52.39423,37.57537 c -2.63789,-0.7093 -6.18081,-2.59142 -7.87316,-4.1825 -8.07722,-7.59386 -8.0599,-16.2643 0.11307,-56.61406 1.59072,-7.85335 3.20291,-15.51631 3.58264,-17.02881 l 0.69043,-2.75 h 10.52927 10.52927 l -0.65803,5.59884 c -0.36192,3.07936 -2.04363,11.74186 -3.73714,19.25 -3.12231,13.84272 -4.68207,28.82006 -3.49423,33.55279 L 253.0381,501 H 264.5 275.9619 l 0.71308,-2.75 c 0.39219,-1.5125 3.44219,-15.125 6.77778,-30.25 l 6.06469,-27.5 10.24128,-0.28498 L 310,439.93003 v 2.49504 c 0,2.82027 -15.63782,77.1799 -16.53683,78.63453 -0.91406,1.47897 -45.0231,1.05819 -50.75933,-0.48423 z m 84.62256,0.38025 c -8.31326,-1.64378 -13.62075,-6.18622 -16.1883,-13.85484 -1.52067,-4.54186 -1.43726,-7.98825 0.46406,-19.17456 2.06099,-12.1257 6.55516,-26.20589 10.19789,-31.94987 7.18639,-11.33177 21.886,-18.30019 38.69995,-18.3459 20.35863,-0.0553 30.8572,8.58676 30.81934,25.36955 -0.015,6.64433 -2.74399,23.67443 -4.00615,25 -0.26184,0.275 -12.25192,0.725 -26.64463,1 l -26.16856,0.5 -0.30697,3.69303 c -0.63434,7.63156 2.05838,8.42874 31.16408,9.22607 9.27141,0.25399 17.08451,0.68919 17.36245,0.96712 0.71622,0.71623 -2.72878,15.85637 -3.95097,17.36378 -1.17536,1.44966 -44.27925,1.62195 -51.44219,0.20562 z m 39.09181,-50.56261 c 2.53254,-0.97183 2.00717,-6.64476 -0.86529,-9.34329 -3.08526,-2.89846 -9.85176,-4.245 -14.81605,-2.94842 -6.28532,1.64161 -13.11323,8.86268 -11.2424,11.88975 0.67155,1.0866 24.22331,1.43822 26.92374,0.40196 z m 27.88512,50.81562 c -1.46638,-0.9322 15.07038,-80.19124 16.98513,-81.40807 1.78349,-1.13341 47.53253,-0.96796 53.82505,0.19465 6.79058,1.25463 10.23969,4.76162 11.78927,11.98709 0.61158,2.85166 0.85708,5.59724 0.54557,6.10127 -0.31636,0.51188 -10.80377,0.92319 -23.75737,0.93174 -12.75504,0.008 -23.78834,0.39402 -24.51844,0.85689 -0.77765,0.49301 -3.96737,13.18578 -7.70128,30.64556 -3.63396,16.99238 -6.9321,30.15811 -7.67254,30.6278 -1.63326,1.03602 -17.88223,1.08859 -19.49539,0.0631 z M 461,520.5651 c 0,-0.2392 0.48234,-1.7017 1.07187,-3.25 3.71883,-9.76691 3.1935,-17.28465 -2.61899,-37.47879 -1.93505,-6.72292 -3.28701,-12.82619 -3.00433,-13.56283 0.39649,-1.03323 3.08264,-1.27467 11.75329,-1.05641 l 11.23933,0.28293 1.84545,5 c 1.01499,2.75 2.20956,5.37133 2.6546,5.82519 0.44503,0.45385 8.09994,-9.78613 17.01091,-22.75552 8.91097,-12.96939 16.87428,-24.25322 17.69625,-25.07519 1.15809,-1.1581 4.16613,-1.49448 13.36403,-1.49448 6.52826,0 12.1314,0.42368 12.45144,0.94151 0.81,1.3106 -10.26613,17.38778 -23.27495,33.78397 -20.23883,25.50882 -27.95428,37.34435 -33.44017,51.29736 L 484.61236,521 H 472.80618 C 466.31278,521 461,520.80429 461,520.5651 Z M 90.643252,457.23179 c -0.282895,-0.45774 0.412306,-4.52214 1.54489,-9.03202 L 94.247386,440 h 11.421624 11.42162 l -0.67699,3.60865 c -0.37234,1.98475 -1.18997,5.92225 -1.81696,8.75 l -1.13997,5.14135 -11.14955,0.28201 c -6.132256,0.15511 -11.381014,-0.0925 -11.663908,-0.55022 z M 304.5,374.41997 c -2.2,-0.21382 -8.05,-0.88015 -13,-1.48074 C 212.87877,363.40001 143.90799,299.07345 126.98282,219.5 c -3.02093,-14.2029 -3.78027,-41.33322 -1.53929,-54.99759 1.85323,-11.30007 6.90779,-27.2636 11.61212,-36.6739 6.45409,-12.91041 22.56399,-34.456971 24.42087,-32.662251 0.37913,0.366443 -0.002,4.191443 -0.84731,8.500001 -3.20902,16.35946 -3.9641,24.38895 -3.98098,42.33374 -0.019,20.22645 0.97477,28.65808 5.40486,45.85535 11.27974,43.78721 42.00944,81.78171 89.5278,110.69305 21.43264,13.04015 36.04807,19.43575 54.91911,24.03219 55.29576,13.46844 112.60515,1.53007 150.25,-31.29922 3.4375,-2.99777 6.25,-4.94748 6.25,-4.33269 0,4.32813 -12.29157,22.23463 -22.87736,33.32798 -24.28237,25.44668 -54.8708,41.91316 -88.72424,47.76239 -11.35936,1.96268 -37.53083,3.29134 -46.8984,2.38092 z m 37,-112.36379 C 321.77408,258.54461 300.7077,249.53026 284.62474,237.71913 267.3282,225.01675 248.65103,203.28092 239.75389,185.5 c -9.13225,-18.25076 -12.2163,-32.02323 -12.20414,-54.5 0.0102,-18.87664 1.8316,-28.46336 7.90535,-41.609184 5.17403,-11.198517 15.4609,-25.979955 16.91208,-24.301352 0.1952,0.225795 -0.23303,4.235536 -0.95162,8.910536 -1.8298,11.904255 -1.76464,37.46785 0.12302,48.25921 7.19389,41.12613 34.34865,74.19763 79.37893,96.67479 20.26482,10.11532 34.05531,13.87273 54.14865,14.75354 31.21092,1.36817 58.62639,-8.18429 80.88519,-28.18309 3.54825,-3.18798 6.61204,-5.31427 6.80844,-4.72509 0.50742,1.52227 -3.21488,8.54657 -8.91607,16.82537 -16.15671,23.46146 -44.62255,39.89534 -77.84372,44.9407 -12.72065,1.9319 -32.09602,1.71889 -44.5,-0.48925 z m 50.09694,-96.13003 c -11.33582,-1.56121 -18.53894,-3.76549 -29.24839,-8.95052 -12.76909,-6.1822 -24.54593,-16.85754 -33.36509,-30.24441 -13.99506,-21.24352 -18.02759,-41.63916 -12.01702,-60.779343 2.20873,-7.033531 9.05617,-20.290593 10.37298,-20.082731 0.45126,0.07123 0.93118,6.992315 1.06649,15.380183 0.27198,16.860456 1.65827,22.958099 8.15384,35.865006 11.42111,22.694095 38.41969,43.051315 65.44025,49.342675 13.86006,3.22711 33.43716,1.50586 47.79308,-4.20205 3.46119,-1.37617 6.53515,-2.26006 6.83102,-1.96419 2.02201,2.022 -12.06602,15.18225 -20.86289,19.48894 -3.44366,1.68592 -8.96121,3.75827 -12.26121,4.60521 -7.79775,2.0013 -23.17025,2.74394 -31.90306,1.54123 z"
       id="path79"
       inkscape:connector-curvature="0" />
    <path
       style="fill:#595e67"
       d="m 55.25,555.35456 c -2.717816,-0.5963 -2.75652,-1.77285 -0.361592,-10.99176 2.341983,-9.01511 2.563789,-9.342 6.420609,-9.46248 1.755041,-0.0548 4.312598,-0.41181 5.683461,-0.79331 C 72.140696,532.67432 77.188805,519.36355 81.444569,496 84.509081,479.17626 86.707333,470.41621 88.659115,467.25 89.954814,465.14809 90.735698,465 100.52305,465 110.84652,465 111,465.0344 111,467.34452 c 0,2.93853 -10.11207,48.61734 -13.623459,61.54068 -5.858595,21.56199 -11.015519,26.1685 -29.876541,26.68773 -5.5,0.15142 -11.0125,0.0531 -12.25,-0.21837 z m 90.21134,-34.34435 c -14.72597,-2.16353 -23.9533,-13.56605 -25.19196,-31.13052 -1.94966,-27.64662 12.65765,-57.30943 33.22822,-67.47595 14.67555,-7.25306 32.52285,-7.84363 46.04977,-1.52381 8.5332,3.98674 12.90291,8.22884 16.98558,16.48956 6.50471,13.1614 5.79402,22.94497 -3.65893,50.36979 -2.13071,6.1816 -3.87402,11.63613 -3.87402,12.12117 0,0.48504 2.25,1.18036 5,1.54516 2.75,0.3648 5,1.06927 5,1.56549 0,1.5969 -3.81043,16.91315 -4.47538,17.98906 -0.74378,1.20346 -60.91585,1.24707 -69.06328,0.0501 z M 190.30961,483 c 5.17839,-18.8418 6.33617,-25.74414 5.27081,-31.42299 -2.78834,-14.86315 -26.96382,-18.1548 -38.32259,-5.21789 -4.71287,5.36767 -9.15305,18.52881 -11.213,33.23644 -1.54408,11.02448 0.55865,15.88348 8.45517,19.53822 3.37066,1.56003 6.12402,1.81315 17.5,1.60876 L 185.5,500.5 Z m 52.39423,37.57537 c -2.63789,-0.7093 -6.18081,-2.59142 -7.87316,-4.1825 -8.07722,-7.59386 -8.0599,-16.2643 0.11307,-56.61406 1.59072,-7.85335 3.20291,-15.51631 3.58264,-17.02881 l 0.69043,-2.75 h 10.52927 10.52927 l -0.65803,5.59884 c -0.36192,3.07936 -2.04363,11.74186 -3.73714,19.25 -3.12231,13.84272 -4.68207,28.82006 -3.49423,33.55279 L 253.0381,501 H 264.5 275.9619 l 0.71308,-2.75 c 0.39219,-1.5125 3.44219,-15.125 6.77778,-30.25 l 6.06469,-27.5 10.24128,-0.28498 L 310,439.93003 v 2.49504 c 0,2.82027 -15.63782,77.1799 -16.53683,78.63453 -0.91406,1.47897 -45.0231,1.05819 -50.75933,-0.48423 z m 84.62256,0.38025 c -8.31326,-1.64378 -13.62075,-6.18622 -16.1883,-13.85484 -1.52067,-4.54186 -1.43726,-7.98825 0.46406,-19.17456 2.06099,-12.1257 6.55516,-26.20589 10.19789,-31.94987 7.18639,-11.33177 21.886,-18.30019 38.69995,-18.3459 20.35863,-0.0553 30.8572,8.58676 30.81934,25.36955 -0.015,6.64433 -2.74399,23.67443 -4.00615,25 -0.26184,0.275 -12.25192,0.725 -26.64463,1 l -26.16856,0.5 -0.30697,3.69303 c -0.63434,7.63156 2.05838,8.42874 31.16408,9.22607 9.27141,0.25399 17.08451,0.68919 17.36245,0.96712 0.71622,0.71623 -2.72878,15.85637 -3.95097,17.36378 -1.17536,1.44966 -44.27925,1.62195 -51.44219,0.20562 z m 39.09181,-50.56261 c 2.53254,-0.97183 2.00717,-6.64476 -0.86529,-9.34329 -3.08526,-2.89846 -9.85176,-4.245 -14.81605,-2.94842 -6.28532,1.64161 -13.11323,8.86268 -11.2424,11.88975 0.67155,1.0866 24.22331,1.43822 26.92374,0.40196 z m 27.88512,50.81562 c -1.46638,-0.9322 15.07038,-80.19124 16.98513,-81.40807 1.78349,-1.13341 47.53253,-0.96796 53.82505,0.19465 6.79058,1.25463 10.23969,4.76162 11.78927,11.98709 0.61158,2.85166 0.85708,5.59724 0.54557,6.10127 -0.31636,0.51188 -10.80377,0.92319 -23.75737,0.93174 -12.75504,0.008 -23.78834,0.39402 -24.51844,0.85689 -0.77765,0.49301 -3.96737,13.18578 -7.70128,30.64556 -3.63396,16.99238 -6.9321,30.15811 -7.67254,30.6278 -1.63326,1.03602 -17.88223,1.08859 -19.49539,0.0631 z M 461,520.5651 c 0,-0.2392 0.48234,-1.7017 1.07187,-3.25 3.71883,-9.76691 3.1935,-17.28465 -2.61899,-37.47879 -1.93505,-6.72292 -3.28701,-12.82619 -3.00433,-13.56283 0.39649,-1.03323 3.08264,-1.27467 11.75329,-1.05641 l 11.23933,0.28293 1.84545,5 c 1.01499,2.75 2.20956,5.37133 2.6546,5.82519 0.44503,0.45385 8.09994,-9.78613 17.01091,-22.75552 8.91097,-12.96939 16.87428,-24.25322 17.69625,-25.07519 1.15809,-1.1581 4.16613,-1.49448 13.36403,-1.49448 6.52826,0 12.1314,0.42368 12.45144,0.94151 0.81,1.3106 -10.26613,17.38778 -23.27495,33.78397 -20.23883,25.50882 -27.95428,37.34435 -33.44017,51.29736 L 484.61236,521 H 472.80618 C 466.31278,521 461,520.80429 461,520.5651 Z M 90.643252,457.23179 c -0.282895,-0.45774 0.412306,-4.52214 1.54489,-9.03202 L 94.247386,440 h 11.421624 11.42162 l -0.67699,3.60865 c -0.37234,1.98475 -1.18997,5.92225 -1.81696,8.75 l -1.13997,5.14135 -11.14955,0.28201 c -6.132256,0.15511 -11.381014,-0.0925 -11.663908,-0.55022 z M 300,372.8857 C 255.14239,368.92285 214.78849,349.73631 181.44453,316.51767 154.1389,289.31466 135.8443,256.02998 127.8449,219 c -1.95311,-9.04112 -2.26786,-13.41776 -2.2654,-31.5 0.002,-17.90626 0.31564,-22.32589 2.12593,-30 3.06159,-12.97854 7.66487,-24.98295 13.47236,-35.13318 C 146.235,113.52792 158.41816,97 159.87634,97 c 0.42228,0 -0.0387,4.51668 -1.02438,10.03706 -15.57646,87.23641 18.56405,154.76138 102.26712,202.2695 30.8552,17.51277 60.91993,24.69411 97.88092,23.38009 37.22116,-1.32327 71.18732,-13.52904 95.79818,-34.42515 2.914,-2.47416 5.51171,-4.28495 5.77268,-4.02397 0.80462,0.80462 -10.92559,17.96139 -17.51437,25.61677 -3.43264,3.98832 -9.91212,10.38899 -14.39883,14.22371 C 392.97189,364.57808 350.6079,377.35655 300,372.8857 Z M 349.5,262.39011 C 316.23403,257.49203 291.17017,244.95237 267.5995,221.41459 247.39975,201.24302 235.82348,180.61249 230.33273,155 c -1.35232,-6.30811 -1.80811,-12.6259 -1.76751,-24.5 0.0597,-17.47495 1.0986,-23.5066 6.4294,-37.329837 2.94373,-7.633339 14.65821,-26.850667 15.72022,-25.788653 0.29063,0.290625 -0.0192,4.261178 -0.68844,8.82345 -1.71086,11.662558 -1.47031,35.38617 0.46937,46.29066 6.97965,39.23821 31.39008,70.79335 72.2338,93.37599 13.35866,7.38605 26.34475,12.68443 38.8292,15.84249 10.06847,2.54691 12.41693,2.76274 29.44123,2.7058 16.71293,-0.0559 19.44448,-0.31578 28.27735,-2.69023 16.40068,-4.40883 33.32505,-13.33493 46.47265,-24.5102 2.8875,-2.45433 5.25,-4.09643 5.25,-3.64911 0,1.76823 -8.15226,14.30105 -13.47941,20.72249 -14.20885,17.1276 -37.39348,30.04629 -65.02059,36.23009 -6.81432,1.52526 -36.55217,2.81655 -43,1.86717 z m 43,-97.38841 c -31.71205,-3.91056 -55.55964,-21.48538 -69.96528,-51.56193 -5.0475,-10.53832 -6.87648,-18.452481 -6.91915,-29.93977 -0.0415,-11.176949 2.03982,-19.257322 7.71945,-29.969194 l 3.16498,-5.969194 0.6694,14.469194 c 0.88394,19.106349 3.73836,28.793022 12.45536,42.268134 11.69756,18.08257 32.59784,33.78077 54.91609,41.24746 6.2359,2.08626 10.6069,2.77745 20.18831,3.1924 13.42164,0.58125 20.27563,-0.3595 32.09988,-4.40594 4.03098,-1.37946 7.58006,-2.2571 7.88684,-1.95031 1.21203,1.21202 -11.68494,12.35346 -18.36076,15.8615 -11.6772,6.1362 -28.22147,8.68551 -43.85512,6.75765 z"
       id="path77"
       inkscape:connector-curvature="0" />
    <path
       style="fill:#0967aa"
       d="m 56.75,554.28375 c -1.5125,-0.22913 -2.731554,-0.7242 -2.709008,-1.10017 0.234475,-3.91007 3.824535,-15.66493 4.973015,-16.28303 0.817296,-0.43987 3.620412,-1.07455 6.229146,-1.4104 4.264856,-0.54907 4.988358,-1.03313 7.174804,-4.8004 3.842994,-6.6215 6.464291,-15.6736 10.616778,-36.66281 C 85.159491,483.28712 87.527716,472.7 88.297457,470.5 l 1.399529,-4 10.151507,-0.28498 C 108.45806,465.97332 110,466.16461 110,467.47442 c 0,0.84941 -2.26248,11.77765 -5.02773,24.28498 -9.991186,45.19045 -13.072421,54.29319 -19.90953,58.81778 -5.450806,3.60717 -18.066445,5.25875 -28.31274,3.70657 z m 89.97467,-34.335 c -11.04229,-1.28491 -17.58863,-6.04134 -22.21108,-16.1381 -8.57396,-18.72799 0.29458,-55.89589 17.16641,-71.94419 17.79925,-16.93044 49.76085,-19.06465 66.05918,-4.41105 6.23483,5.60564 9.90882,12.45474 11.42555,21.29966 1.48493,8.65943 -0.0102,16.8304 -6.74923,36.88487 -2.42853,7.22697 -4.4155,13.82224 -4.4155,14.65617 0,1.0611 1.50082,1.72263 5,2.20389 2.75,0.37822 4.99229,0.98295 4.98286,1.34384 -0.0375,1.43545 -3.76915,15.00135 -4.41315,16.04336 -0.80326,1.29971 -55.76955,1.35033 -66.84504,0.0616 z M 185.78873,500.75 c 1.06251,-1.28493 7.17487,-22.18482 9.87049,-33.75 2.15552,-9.24795 1.90556,-15.22279 -0.84131,-20.11019 -5.93644,-10.56248 -23.48454,-12.9847 -34.78174,-4.80105 -6.83241,4.94937 -12.61273,19.21146 -15.0751,37.19556 -0.94417,6.89585 -0.86558,8.67718 0.54586,12.37301 1.69517,4.43874 5.5207,7.91826 10.28443,9.35426 4.5916,1.38411 28.81119,1.1729 29.99737,-0.26159 z m 58.98729,19.219 c -6.02866,-1.01553 -10.26683,-4.05058 -12.92086,-9.25291 -1.84937,-3.62507 -2.03852,-5.3131 -1.58734,-14.16578 0.44562,-8.74365 5.91429,-40.88612 8.81323,-51.80031 l 0.99604,-3.75 h 9.55529 9.5553 l -0.67396,5.25 c -0.37067,2.8875 -2.04493,11.1 -3.72057,18.25 -3.02762,12.91893 -4.67728,29.84121 -3.40372,34.91546 L 252.0381,502 h 11.92194 c 8.39944,0 12.16096,-0.36717 12.73094,-1.24269 0.44496,-0.68348 3.73402,-14.29598 7.30902,-30.25 l 6.5,-29.00731 9.25,-0.28753 c 7.91338,-0.24597 9.25,-0.0575 9.25,1.30441 0,2.45485 -14.97642,73.68522 -16.02826,76.23312 -0.92437,2.23913 -1.03165,2.24943 -22.2003,2.13238 -11.69929,-0.0647 -23.39723,-0.47571 -25.99542,-0.91338 z M 328.5,520.0312 c -11.8152,-2.17518 -16.996,-8.4668 -16.90632,-20.53124 0.0977,-13.14294 6.33552,-36.46133 11.90262,-44.49466 13.23584,-19.09932 55.10924,-22.20533 64.13208,-4.75708 3.47209,6.71428 3.55347,15.42691 0.29427,31.50174 l -1.06445,5.25 h -24.364 c -13.7596,0 -25.50437,0.43357 -26.98405,0.99614 -2.38007,0.9049 -2.59212,1.42234 -2.3151,5.64938 0.24349,3.71542 0.85784,5.06455 3.04825,6.69411 2.45534,1.82664 4.97369,2.13365 23.99077,2.92472 11.6861,0.48612 21.33334,0.96973 21.4383,1.07469 0.10497,0.10497 -0.56703,3.78412 -1.49333,8.1759 l -1.68418,7.98506 -22.99743,0.13382 C 342.84884,520.70742 330.7,520.43626 328.5,520.03124 Z m 38.91821,-48.63823 c 1.829,-0.70185 2.16411,-6.43641 0.55215,-9.4484 -2.90045,-5.41954 -15.59408,-7.19574 -22.20762,-3.10748 -4.61305,2.85163 -9.16687,9.971 -7.59177,11.86887 0.78007,0.93994 4.71192,1.294 14.36969,1.294 7.31267,0 14.00757,-0.27314 14.87755,-0.60699 z M 395.00869,518.25 c 0.0113,-2.28421 15.86005,-76.45207 16.46638,-77.05841 0.25508,-0.25507 12.76816,-0.45771 27.80686,-0.45031 31.47913,0.0155 32.4718,0.2275 35.05788,7.48742 0.83681,2.34922 1.78627,5.5088 2.10989,7.0213 l 0.5884,2.75 h -23.99599 c -23.80135,0 -24.00741,0.0183 -25.40246,2.25 -0.77355,1.2375 -3.95552,14.4 -7.07105,29.25 -3.11552,14.85 -5.89832,27.7875 -6.18398,28.75 -0.44706,1.50627 -1.8331,1.75 -9.95201,1.75 -8.32008,0 -9.43159,-0.2064 -9.42392,-1.75 z m 68.71229,-2 c 3.00452,-6.95954 2.13383,-18.73114 -2.56235,-34.64266 -2.25518,-7.64096 -3.86189,-14.27846 -3.57046,-14.75 0.87454,-1.41505 20.16748,-1.05583 21.08927,0.39266 0.43751,0.6875 1.47657,3.27333 2.30902,5.74628 0.83245,2.47296 2.18854,4.61393 3.01354,4.75773 0.96597,0.16836 7.55239,-8.55288 18.5,-24.49629 l 17,-24.75772 11.75,-0.28174 c 8.12417,-0.19479 11.75,0.0614 11.75,0.83021 0,1.83332 -11.11832,17.43013 -24.55907,34.45153 -18.94566,23.99284 -27.63766,37.65263 -32.92958,51.75 L 483.72828,520 H 472.91517 462.10205 Z M 92.005577,455.28498 c 0.0031,-0.98174 0.409394,-3.35998 0.902949,-5.28498 0.493555,-1.925 1.174619,-4.7375 1.513475,-6.25 L 95.038104,441 H 105.01905 115 l -0.096,2.75 c -0.0528,1.5125 -0.61758,5 -1.25508,7.75 l -1.15908,5 -10.24492,0.28498 c -9.275029,0.25801 -10.244392,0.116 -10.239343,-1.5 z M 300,372.8857 C 255.14239,368.92285 214.78849,349.73631 181.44453,316.51767 154.1389,289.31466 135.8443,256.02998 127.8449,219 c -1.95311,-9.04112 -2.26786,-13.41776 -2.2654,-31.5 0.002,-17.90626 0.31564,-22.32589 2.12593,-30 3.06159,-12.97854 7.66487,-24.98295 13.47236,-35.13318 C 146.235,113.52792 158.41816,97 159.87634,97 c 0.42228,0 -0.0387,4.51668 -1.02438,10.03706 -15.57646,87.23641 18.56405,154.76138 102.26712,202.2695 30.8552,17.51277 60.91993,24.69411 97.88092,23.38009 37.22116,-1.32327 71.18732,-13.52904 95.79818,-34.42515 2.914,-2.47416 5.51171,-4.28495 5.77268,-4.02397 0.80462,0.80462 -10.92559,17.96139 -17.51437,25.61677 -3.43264,3.98832 -9.91212,10.38899 -14.39883,14.22371 C 392.97189,364.57808 350.6079,377.35655 300,372.8857 Z M 349.5,262.39011 C 316.23403,257.49203 291.17017,244.95237 267.5995,221.41459 247.39975,201.24302 235.82348,180.61249 230.33273,155 c -1.35232,-6.30811 -1.80811,-12.6259 -1.76751,-24.5 0.0597,-17.47495 1.0986,-23.5066 6.4294,-37.329837 2.94373,-7.633339 14.65821,-26.850667 15.72022,-25.788653 0.29063,0.290625 -0.0192,4.261178 -0.68844,8.82345 -1.71086,11.662558 -1.47031,35.38617 0.46937,46.29066 6.97965,39.23821 31.39008,70.79335 72.2338,93.37599 13.35866,7.38605 26.34475,12.68443 38.8292,15.84249 10.06847,2.54691 12.41693,2.76274 29.44123,2.7058 16.71293,-0.0559 19.44448,-0.31578 28.27735,-2.69023 16.40068,-4.40883 33.32505,-13.33493 46.47265,-24.5102 2.8875,-2.45433 5.25,-4.09643 5.25,-3.64911 0,1.76823 -8.15226,14.30105 -13.47941,20.72249 -14.20885,17.1276 -37.39348,30.04629 -65.02059,36.23009 -6.81432,1.52526 -36.55217,2.81655 -43,1.86717 z m 43,-97.38841 c -31.71205,-3.91056 -55.55964,-21.48538 -69.96528,-51.56193 -5.0475,-10.53832 -6.87648,-18.452481 -6.91915,-29.93977 -0.0415,-11.176949 2.03982,-19.257322 7.71945,-29.969194 l 3.16498,-5.969194 0.6694,14.469194 c 0.88394,19.106349 3.73836,28.793022 12.45536,42.268134 11.69756,18.08257 32.59784,33.78077 54.91609,41.24746 6.2359,2.08626 10.6069,2.77745 20.18831,3.1924 13.42164,0.58125 20.27563,-0.3595 32.09988,-4.40594 4.03098,-1.37946 7.58006,-2.2571 7.88684,-1.95031 1.21203,1.21202 -11.68494,12.35346 -18.36076,15.8615 -11.6772,6.1362 -28.22147,8.68551 -43.85512,6.75765 z"
       id="path75"
       inkscape:connector-curvature="0" />
    <path
       style="fill:#131b27"
       d="m 56.75,554.28375 c -1.5125,-0.22913 -2.731554,-0.7242 -2.709008,-1.10017 0.234475,-3.91007 3.824535,-15.66493 4.973015,-16.28303 0.817296,-0.43987 3.620412,-1.07455 6.229146,-1.4104 4.264856,-0.54907 4.988358,-1.03313 7.174804,-4.8004 3.842994,-6.6215 6.464291,-15.6736 10.616778,-36.66281 C 85.159491,483.28712 87.527716,472.7 88.297457,470.5 l 1.399529,-4 10.151507,-0.28498 C 108.45806,465.97332 110,466.16461 110,467.47442 c 0,0.84941 -2.26248,11.77765 -5.02773,24.28498 -9.991186,45.19045 -13.072421,54.29319 -19.90953,58.81778 -5.450806,3.60717 -18.066445,5.25875 -28.31274,3.70657 z m 89.97467,-34.335 c -11.04229,-1.28491 -17.58863,-6.04134 -22.21108,-16.1381 -8.57396,-18.72799 0.29458,-55.89589 17.16641,-71.94419 17.79925,-16.93044 49.76085,-19.06465 66.05918,-4.41105 6.23483,5.60564 9.90882,12.45474 11.42555,21.29966 1.48493,8.65943 -0.0102,16.8304 -6.74923,36.88487 -2.42853,7.22697 -4.4155,13.82224 -4.4155,14.65617 0,1.0611 1.50082,1.72263 5,2.20389 2.75,0.37822 4.99229,0.98295 4.98286,1.34384 -0.0375,1.43545 -3.76915,15.00135 -4.41315,16.04336 -0.80326,1.29971 -55.76955,1.35033 -66.84504,0.0616 z M 185.78873,500.75 c 1.06251,-1.28493 7.17487,-22.18482 9.87049,-33.75 2.15552,-9.24795 1.90556,-15.22279 -0.84131,-20.11019 -5.93644,-10.56248 -23.48454,-12.9847 -34.78174,-4.80105 -6.83241,4.94937 -12.61273,19.21146 -15.0751,37.19556 -0.94417,6.89585 -0.86558,8.67718 0.54586,12.37301 1.69517,4.43874 5.5207,7.91826 10.28443,9.35426 4.5916,1.38411 28.81119,1.1729 29.99737,-0.26159 z m 58.98729,19.219 c -6.02866,-1.01553 -10.26683,-4.05058 -12.92086,-9.25291 -1.84937,-3.62507 -2.03852,-5.3131 -1.58734,-14.16578 0.44562,-8.74365 5.91429,-40.88612 8.81323,-51.80031 l 0.99604,-3.75 h 9.55529 9.5553 l -0.67396,5.25 c -0.37067,2.8875 -2.04493,11.1 -3.72057,18.25 -3.02762,12.91893 -4.67728,29.84121 -3.40372,34.91546 L 252.0381,502 h 11.92194 c 8.39944,0 12.16096,-0.36717 12.73094,-1.24269 0.44496,-0.68348 3.73402,-14.29598 7.30902,-30.25 l 6.5,-29.00731 9.25,-0.28753 c 7.91338,-0.24597 9.25,-0.0575 9.25,1.30441 0,2.45485 -14.97642,73.68522 -16.02826,76.23312 -0.92437,2.23913 -1.03165,2.24943 -22.2003,2.13238 -11.69929,-0.0647 -23.39723,-0.47571 -25.99542,-0.91338 z M 328.5,520.0312 c -11.8152,-2.17518 -16.996,-8.4668 -16.90632,-20.53124 0.0977,-13.14294 6.33552,-36.46133 11.90262,-44.49466 13.23584,-19.09932 55.10924,-22.20533 64.13208,-4.75708 3.47209,6.71428 3.55347,15.42691 0.29427,31.50174 l -1.06445,5.25 h -24.364 c -13.7596,0 -25.50437,0.43357 -26.98405,0.99614 -2.38007,0.9049 -2.59212,1.42234 -2.3151,5.64938 0.24349,3.71542 0.85784,5.06455 3.04825,6.69411 2.45534,1.82664 4.97369,2.13365 23.99077,2.92472 11.6861,0.48612 21.33334,0.96973 21.4383,1.07469 0.10497,0.10497 -0.56703,3.78412 -1.49333,8.1759 l -1.68418,7.98506 -22.99743,0.13382 C 342.84884,520.70742 330.7,520.43626 328.5,520.03124 Z m 38.91821,-48.63823 c 1.829,-0.70185 2.16411,-6.43641 0.55215,-9.4484 -2.90045,-5.41954 -15.59408,-7.19574 -22.20762,-3.10748 -4.61305,2.85163 -9.16687,9.971 -7.59177,11.86887 0.78007,0.93994 4.71192,1.294 14.36969,1.294 7.31267,0 14.00757,-0.27314 14.87755,-0.60699 z M 395.00869,518.25 c 0.0113,-2.28421 15.86005,-76.45207 16.46638,-77.05841 0.25508,-0.25507 12.76816,-0.45771 27.80686,-0.45031 31.47913,0.0155 32.4718,0.2275 35.05788,7.48742 0.83681,2.34922 1.78627,5.5088 2.10989,7.0213 l 0.5884,2.75 h -23.99599 c -23.80135,0 -24.00741,0.0183 -25.40246,2.25 -0.77355,1.2375 -3.95552,14.4 -7.07105,29.25 -3.11552,14.85 -5.89832,27.7875 -6.18398,28.75 -0.44706,1.50627 -1.8331,1.75 -9.95201,1.75 -8.32008,0 -9.43159,-0.2064 -9.42392,-1.75 z m 68.71229,-2 c 3.00452,-6.95954 2.13383,-18.73114 -2.56235,-34.64266 -2.25518,-7.64096 -3.86189,-14.27846 -3.57046,-14.75 0.87454,-1.41505 20.16748,-1.05583 21.08927,0.39266 0.43751,0.6875 1.47657,3.27333 2.30902,5.74628 0.83245,2.47296 2.18854,4.61393 3.01354,4.75773 0.96597,0.16836 7.55239,-8.55288 18.5,-24.49629 l 17,-24.75772 11.75,-0.28174 c 8.12417,-0.19479 11.75,0.0614 11.75,0.83021 0,1.83332 -11.11832,17.43013 -24.55907,34.45153 -18.94566,23.99284 -27.63766,37.65263 -32.92958,51.75 L 483.72828,520 H 472.91517 462.10205 Z M 92.005577,455.28498 c 0.0031,-0.98174 0.409394,-3.35998 0.902949,-5.28498 0.493555,-1.925 1.174619,-4.7375 1.513475,-6.25 L 95.038104,441 H 105.01905 115 l -0.096,2.75 c -0.0528,1.5125 -0.61758,5 -1.25508,7.75 l -1.15908,5 -10.24492,0.28498 c -9.275029,0.25801 -10.244392,0.116 -10.239343,-1.5 z"
       id="path73"
       inkscape:connector-curvature="0" />
  </g>
</svg>
