<?xml version="1.0" encoding="UTF-8" standalone="no"?>
<!-- Created with Inkscape (http://www.inkscape.org/) -->

<svg
   xmlns:dc="http://purl.org/dc/elements/1.1/"
   xmlns:cc="http://creativecommons.org/ns#"
   xmlns:rdf="http://www.w3.org/1999/02/22-rdf-syntax-ns#"
   xmlns:svg="http://www.w3.org/2000/svg"
   xmlns="http://www.w3.org/2000/svg"
   xmlns:sodipodi="http://sodipodi.sourceforge.net/DTD/sodipodi-0.dtd"
   xmlns:inkscape="http://www.inkscape.org/namespaces/inkscape"
   version="1.1"
   id="svg64"
   width="1098.6667"
   height="898.66669"
   viewBox="0 0 1098.6667 898.66669"
   sodipodi:docname="basicSphere.svg"
   inkscape:version="0.92.2 5c3e80d, 2017-08-06">
  <metadata
     id="metadata70">
    <rdf:RDF>
      <cc:Work
         rdf:about="">
        <dc:format>image/svg+xml</dc:format>
        <dc:type
           rdf:resource="http://purl.org/dc/dcmitype/StillImage" />
        <dc:title></dc:title>
      </cc:Work>
    </rdf:RDF>
  </metadata>
  <defs
     id="defs68" />
  <sodipodi:namedview
     pagecolor="#ffffff"
     bordercolor="#666666"
     borderopacity="1"
     objecttolerance="10"
     gridtolerance="10"
     guidetolerance="10"
     inkscape:pageopacity="0"
     inkscape:pageshadow="2"
     inkscape:window-width="1440"
     inkscape:window-height="816"
     id="namedview66"
     showgrid="false"
     inkscape:zoom="0.67099405"
     inkscape:cx="549.33337"
     inkscape:cy="449.33334"
     inkscape:window-x="0"
     inkscape:window-y="1"
     inkscape:window-maximized="1"
     inkscape:current-layer="svg64" />
  <g
     id="g74"
     transform="translate(1.4903262)">
    <path
       style="fill:#fdfdfd;stroke-width:0.66666669"
       d="M 0,449.33334 V 0 H 549.33335 1098.6667 V 449.33334 898.66669 H 549.33335 0 Z"
       id="path90"
       inkscape:connector-curvature="0" />
    <path
       style="fill:#e5e5e5;stroke-width:0.66666669"
       d="m 476.00001,844.98049 c -57.38333,-8.92553 -114.03685,-17.7166 -125.8967,-19.53574 l -21.56337,-3.30753 -8.0784,-7.90193 C 263.49178,758.50989 159.64744,655.25412 158.69956,653.39016 158.03106,652.07558 145.26788,603.6213 130.33695,545.71399 109.75396,465.88607 103.27997,439.85232 103.56272,438.04732 c 0.6321,-4.03512 75.42977,-247.09448 76.57931,-248.8489 1.05784,-1.61447 242.9565,-164.080965 246.67506,-165.674472 1.29895,-0.556635 2.41568,-0.609055 3.57609,-0.167865 0.92803,0.352836 4.89422,0.622305 8.81375,0.598818 8.67392,-0.05197 3.16584,-0.240077 51.79308,1.768756 39.90036,1.648318 72.50954,3.914534 162.33334,11.281563 15.58334,1.278089 30.28334,2.474698 32.66667,2.659131 2.38333,0.184433 5.83333,0.480412 7.66667,0.657732 1.83333,0.177319 5.28333,0.482926 7.66666,0.679125 2.38334,0.196199 6.45114,0.57619 9.03954,0.844426 l 4.70627,0.4877 89.74326,86.655166 89.74321,86.65517 36.8444,110.67817 c 23.8336,71.59462 36.8476,111.61984 36.85347,113.34484 0.007,1.56102 -11.2914,41.57318 -27.246,96.50354 l -27.25507,93.83688 -29.39867,37.24285 c -16.1692,20.48353 -31.6408,39.45894 -34.3812,42.16754 -2.7404,2.70853 -25.49187,23.5164 -50.55887,46.23966 l -45.5764,41.31494 -83.34227,32.18066 c -72.86064,28.13341 -83.77171,32.17274 -86.75696,32.11827 -1.87809,-0.0343 -50.36471,-7.365 -107.74805,-16.29053 z M 367.72032,726.69269 c 67.00515,-6.99934 98.06341,-10.139 135.61303,-13.7092 10.08333,-0.95874 36.78333,-3.65354 59.33333,-5.98847 22.55,-2.33494 47.45001,-4.8808 55.33334,-5.65747 8.13407,-0.8014 15.058,-1.80447 16.00883,-2.31927 1.42745,-0.77286 10.80405,-0.57206 63.33337,1.35634 33.9118,1.245 71.2578,2.41286 82.99114,2.59533 11.73333,0.18247 24.079,0.52233 27.4348,0.75527 l 6.10146,0.4236 5.5994,-7.5744 c 3.07967,-4.16594 9.99387,-13.751 15.36487,-21.30014 l 9.76547,-13.72572 -2.58513,-20.94094 c -1.4218,-11.51752 -3.3566,-27.39094 -4.2996,-35.27427 -2.16987,-18.14122 -5.22054,-41.8009 -14.26627,-110.64292 l -7.22374,-54.97626 1.19954,-5.02375 c 0.65973,-2.76306 10.93807,-45.52374 22.8408,-95.02374 27.11893,-112.78009 30.6776,-127.98614 30.22747,-129.15929 -0.42914,-1.11816 -2.81354,-1.80718 -140.16201,-40.502 l -104.00289,-29.30046 -15.33042,2.3485 c -16.54277,2.53423 -69.91285,10.80679 -201.9971,31.31034 -76.2037,11.82917 -84.13401,13.17537 -85.44389,14.50448 -2.49461,2.53124 -156.88945,249.04693 -156.88945,250.49872 0,1.51356 1.59898,4.27062 48.31021,83.29971 102.44193,173.31787 120.74872,204.16961 121.85416,205.35621 0.73615,0.79013 2.09216,1.31046 3.41525,1.31046 1.20688,0 13.57019,-1.18833 27.47403,-2.64066 z"
       id="path88"
       inkscape:connector-curvature="0" />
    <path
       style="fill:#d7d7d7;stroke-width:0.66666669"
       d="M 455.51553,841.37289 328.69771,821.62355 320.8728,813.97842 C 267.31422,761.65062 160.90452,655.83906 159.59871,653.61086 158.40026,651.56585 150.18908,620.75931 130.66012,545.03963 L 103.39475,439.32355 141.00357,316.49511 c 20.68485,-67.55564 38.19227,-124.05225 38.90537,-125.54802 1.19872,-2.5144 10.49011,-8.87675 123.15796,-84.33333 67.02379,-44.887568 122.62756,-81.936287 123.56394,-82.330487 1.25259,-0.527322 15.26811,-0.132786 53.03584,1.492954 52.17669,2.245986 64.75342,3.119037 207.74241,14.421059 l 27.07567,2.140098 16.92433,16.400562 c 9.30833,9.020309 49.75053,48.085274 89.87153,86.811024 l 72.94727,70.41046 36.6724,110.18696 c 31.16261,93.63217 36.66714,110.73784 36.63747,113.85362 -0.0267,2.78485 -6.4658,25.79209 -26.77506,95.66667 -14.70707,50.6 -27.17321,92.9 -27.70261,94 -0.5294,1.1 -4.93226,6.95 -9.7842,13 -4.85186,6.05 -17.81053,22.4 -28.797,36.33334 -10.98646,13.93333 -20.407,25.78333 -20.93453,26.33333 -0.85113,0.8874 -1.05647,0.86894 -1.82313,-0.1638 -0.4752,-0.64007 -1.05174,-2.89007 -1.2812,-5 -0.22947,-2.10993 -1.0074,-8.3362 -1.72867,-13.8362 -0.72133,-5.5 -1.6398,-13.3 -2.04107,-17.33333 -0.40126,-4.03334 -1.9212,-16.48334 -3.37766,-27.66667 -1.45647,-11.18333 -3.98987,-30.68333 -5.62974,-43.33333 -1.63986,-12.65 -5.06906,-39.05001 -7.62033,-58.66667 -4.57887,-35.20621 -8.63934,-67.04105 -11.33307,-88.85242 -1.26553,-10.24721 -1.29873,-11.53375 -0.3958,-15.33333 11.28174,-47.47362 28.07034,-117.72938 41.77434,-174.81426 9.72693,-40.51841 11.23993,-47.12769 11.2428,-49.11231 0,-1.98612 -1.24947,-2.51524 -15.3308,-6.47744 -3.85,-1.08332 -33.70001,-9.51988 -66.33334,-18.74793 -32.63333,-9.22804 -82.13334,-23.19306 -110,-31.03336 -27.86667,-7.8403 -51.71667,-14.6105 -53,-15.04488 -1.28334,-0.43439 -8.25044,-4.19351 -15.48246,-8.35361 C 603.95222,127.40372 597.87126,124 597.67098,124 c -0.20027,0 -1.48316,-0.70436 -2.85088,-1.56525 -2.9873,-1.88031 -25.14141,-14.25069 -31.83404,-17.77543 -2.61831,-1.37896 -5.34526,-2.87235 -6.05987,-3.31864 -1.43913,-0.89874 -15.33814,1.09627 -51.59284,7.40546 -45.136,7.85475 -112.96152,22.48565 -148.0952,31.94616 -2.23717,0.60241 -3.24617,1.86738 -12.08363,15.14916 -5.30344,7.97054 -11.98802,18.09188 -14.85461,22.49188 -2.86659,4.4 -5.88079,8.52634 -6.69822,9.16965 -0.81743,0.64331 -3.11691,3.79331 -5.10996,7 -1.99304,3.20669 -30.72605,49.03035 -63.85114,101.83035 -86.13587,137.297 -87.89641,140.12575 -88.35964,141.97139 -0.23077,0.91946 -0.0984,2.59317 0.29422,3.71934 0.88389,2.53555 167.14085,283.74055 168.96769,285.78995 0.72594,0.81433 2.35563,1.82247 3.62154,2.24027 1.26591,0.4178 8.9468,4.2862 17.06863,8.5964 16.10343,8.54606 44.9168,23.52693 66.43365,34.5406 l 13.66667,6.99546 10.66666,1.2094 c 27.2671,3.0914 65.95352,6.34747 98.00001,8.2482 21.89504,1.2986 58.87873,2.69914 59.33109,2.2468 0.53266,-0.53266 5.96164,-16.03006 10.12102,-28.89113 2.01591,-6.23333 4.95288,-15.23333 6.52658,-20 1.57371,-4.76667 4.8623,-14.96667 7.30797,-22.66667 2.44567,-7.7 4.96187,-15.5 5.59155,-17.33333 l 1.14488,-3.33334 4.32179,0.054 c 2.37698,0.03 9.87179,0.1144 16.65512,0.188 6.78333,0.0736 45.48333,1.30954 86,2.74654 40.51667,1.43706 78.46667,2.62013 84.33334,2.62913 12.6352,0.0193 24.2386,0.68947 24.6938,1.42607 0.17887,0.2894 -0.35407,1.29173 -1.18427,2.2274 -0.83026,0.93567 -22.80213,21.02387 -48.82647,44.64047 l -47.31693,42.93933 -83.0164,32.00547 c -45.65903,17.60307 -84.21641,32.13907 -85.68307,32.3022 -1.60056,0.17807 -53.36739,-7.59893 -129.48449,-19.4526 z"
       id="path86"
       inkscape:connector-curvature="0" />
    <path
       style="fill:#c6c6c6;stroke-width:0.66666669"
       d="m 580.00002,860.20942 c -0.91667,-0.15166 -57.76667,-8.98446 -126.33334,-19.6284 l -124.66667,-19.35267 -7.31178,-7.11413 C 278.21474,771.81562 161.08789,655.36236 159.80226,653.15924 c -1.16298,-1.99293 -9.631,-33.77584 -28.72841,-107.82589 -14.89365,-57.75 -27.07812,-105.48087 -27.07661,-106.06858 10e-4,-0.58771 5.52384,-19.03771 12.27184,-41 6.74798,-21.96229 23.80633,-77.5291 37.90743,-123.4818 14.64778,-47.7342 26.20896,-84.3146 26.9694,-85.33314 0.73206,-0.98052 11.04872,-8.28713 22.9259,-16.2369 C 365.99273,64.834079 424.60118,25.777212 426.29762,25.120905 c 1.30375,-0.504388 5.15196,-0.714458 10.70239,-0.584232 4.76667,0.111836 10.31667,0.199248 12.33334,0.194248 2.01666,-0.005 23.46666,0.886094 47.66667,1.980212 36.57266,1.653503 55.08474,2.887678 109.66667,7.311326 36.11666,2.927112 67.61666,5.459588 70,5.627724 2.38333,0.168136 6.13333,0.468456 8.33333,0.667378 2.2,0.198922 5.8,0.508083 8,0.687025 2.2,0.178942 8.06693,0.701114 13.03767,1.160382 l 9.03767,0.835033 30.02226,29.000001 c 16.51227,15.95 56.75014,54.799998 89.41754,86.333338 l 59.39527,57.33333 35.15033,105.66667 c 19.3326,58.11667 35.84547,108.06667 36.6952,111 1.95334,6.74346 1.94787,8.61626 -0.0467,16 -3.91947,14.50794 -51.77874,178.86717 -52.60781,180.66668 -0.93353,2.02628 -54.99966,71.0018 -58.509,74.6436 -1.16273,1.2066 -2.12373,1.72613 -2.4664,1.33333 -0.496,-0.56867 -1.31813,-6.87853 -5.12173,-39.31027 -0.83547,-7.12376 -2.904,-23.28646 -9.64133,-75.33333 -4.681,-36.16147 -6.7488,-52.39282 -7.43147,-58.33334 -0.659,-5.7343 -2.51207,-20.81746 -7.70827,-62.74218 l -1.78587,-14.40885 1.546,-6.96527 c 1.42887,-6.43727 1.7148,-7.07588 3.77214,-8.42449 1.22433,-0.80256 2.97273,-1.45921 3.8854,-1.45921 1.44987,0 1.61553,-0.23147 1.31247,-1.83333 -0.1908,-1.00834 -1.32127,-8.01894 -2.51214,-15.57912 l -2.16526,-13.74578 1.77633,-7.58755 c 0.977,-4.17315 3.6518,-15.68755 5.944,-25.58755 3.94027,-17.0182 9.9282,-42.52783 17.3702,-74.00001 1.82073,-7.7 6.7552,-28.3458 10.9654,-45.87957 4.2102,-17.53377 8.1754,-34.408 8.81147,-37.4983 1.13346,-5.50636 1.13026,-5.64404 -0.15994,-6.88513 -0.87193,-0.83872 -14.60013,-5.02966 -40.64986,-12.40958 -74.54761,-21.11935 -83.53767,-23.66068 -143.40874,-40.53895 -58.2416,-16.41888 -60.27639,-17.04664 -66.6667,-20.5677 -3.62533,-1.99756 -19.04151,-10.79321 -34.25817,-19.5459 -15.21667,-8.75269 -30.06667,-17.245091 -33,-18.872004 -2.93334,-1.626914 -16.13334,-9.11206 -29.33334,-16.633661 -50.80491,-28.949574 -62.69637,-35.639419 -72,-40.505461 -4.03333,-2.109539 -7.66635,-4.09876 -8.07336,-4.420492 -0.44301,-0.350192 -5.56839,0.407962 -12.77038,1.889018 l -12.03036,2.473986 -9.98198,15.030205 c -10.87248,16.371064 -13.98817,21.151704 -27.82686,42.696872 -5.06356,7.883337 -12.39446,19.283337 -16.2909,25.333337 -3.89644,6.05 -9.56478,14.9 -12.59631,19.66666 -22.02613,34.63308 -27.11703,42.35162 -29.68053,45 -2.44804,2.52909 -25.47362,38.69371 -54.75519,86.00001 -3.74481,6.05 -28.07546,44.9 -54.06811,86.33333 l -47.25936,75.33334 -0.0744,5.33333 c -0.0409,2.93333 -0.28859,15.68334 -0.55041,28.33334 l -0.47605,23 5.78108,12.33333 c 15.86466,33.84565 38.09614,78.18104 54.82397,109.33334 19.0681,35.51058 49.0641,88 50.28915,88 0.2809,0 2.6923,1.01613 5.35868,2.25813 11.37391,5.29794 21.75369,9.90454 35.51462,15.76167 8.06667,3.43347 15.74414,6.9074 17.06105,7.7198 1.31692,0.8124 10.61692,5.74193 20.66667,10.95447 10.04975,5.21253 39.12228,20.493 64.60562,33.95646 25.48333,13.46354 50.38333,26.586 55.33333,29.16114 16.38775,8.52533 69.35306,36.21413 89.17234,46.61687 10.72811,5.631 19.87811,10.23273 20.33333,10.2262 0.45521,-0.007 1.5571,-2.3316 2.44863,-5.16667 0.89153,-2.83513 3.47692,-10.85473 5.74531,-17.8214 4.44985,-13.6664 13.15113,-40.61074 20.02196,-62 2.35568,-7.33334 7.77807,-23.86607 12.04976,-36.73934 l 7.76671,-23.40606 13.06432,-6.2606 13.06431,-6.26067 21.33334,0.77313 c 11.73333,0.4252 26.28333,0.79313 32.33333,0.81767 6.05,0.0247 32,0.8002 57.66667,1.7238 25.66667,0.92353 54.11627,1.7952 63.2214,1.937 9.98494,0.15553 16.824,0.52713 17.23334,0.93647 0.46033,0.46033 -0.15247,1.504 -1.90574,3.24526 -3.59026,3.56574 -93.52607,85.13227 -94.45873,85.66854 -0.41634,0.2394 -37.7918,14.73226 -83.05667,32.20633 -59.27026,22.88074 -82.90537,31.71887 -84.46421,31.58454 -1.1905,-0.10254 -2.38064,0.0293 -2.64475,0.29373 -0.49335,0.49333 -0.73815,0.49493 -3.59131,0.0227 z"
       id="path84"
       inkscape:connector-curvature="0" />
    <path
       style="fill:#b9b9b9;stroke-width:0.66666669"
       d="M 453.18197,840.40176 328.69725,820.95642 320.8734,813.31155 C 287.56988,780.76989 162.46727,656.87311 161.96526,655.93509 c -0.83954,-1.56867 -0.79756,-1.93507 0.22165,-1.93507 0.89423,0 9.1898,3.39535 15.25987,6.24582 7.30318,3.42952 102.45037,44.69911 146.55323,63.56665 6.41667,2.74506 12.14029,5.41026 12.71916,5.92266 0.57887,0.51234 1.24873,0.93154 1.48859,0.93154 0.37567,0 25.13964,13.0296 97.70531,51.40773 8.93552,4.72573 16.3785,8.59227 16.53997,8.59227 0.16147,0 14.15059,7.3226 31.08695,16.2724 16.93635,8.9498 45.60993,24.0998 63.71908,33.66667 18.10915,9.56686 33.14741,17.39426 33.41837,17.39426 0.27096,0 0.86612,0.45 1.32258,1 0.7147,0.8612 0.47151,0.9894 -1.75171,0.92354 -1.41989,-0.042 -58.59975,-8.82687 -127.06634,-19.5218 z m 133.27309,19.09826 c -0.39774,-0.685 12.69593,-40.69967 14.09159,-43.06433 0.90094,-1.52647 4.18464,-3.29774 16.7867,-9.055 60.9872,-27.86227 131.39014,-63.58594 187.66667,-95.22534 l 10,-5.62213 9.33334,0.4194 c 5.13333,0.2306 12.97153,0.48213 17.41813,0.5588 5.5774,0.0962 7.9972,0.36787 7.8022,0.876 -0.15546,0.40507 -21.90466,20.35327 -48.3316,44.32933 l -48.04893,43.59287 -76.41994,29.5334 c -65.73261,25.40327 -88.74106,34.157 -89.77838,34.157 -0.1262,0 -0.36011,-0.225 -0.51978,-0.5 z m 265.6643,-157.66667 c 0.05,-1.55833 -1.18147,-12.75327 -2.73613,-24.8776 l -2.82667,-22.04426 6.01513,-19.62241 c 17.55154,-57.25605 33.91214,-118.02357 46.74487,-173.6224 5.11067,-22.14226 5.7204,-23.66667 9.46633,-23.66667 1.03607,0 1.8838,-0.31383 1.8838,-0.69739 0,-1.25124 -3.977,-26.52182 -7.39193,-46.96928 -8.26593,-49.49449 -19.1404,-104.28932 -30.2604,-152.47791 l -2.8794,-12.47791 1.3068,-5.85542 c 1.47573,-6.6126 1.20173,-9.74894 -0.97287,-11.13523 -0.80786,-0.51501 -6.26886,-2.29741 -12.13553,-3.96089 -5.86667,-1.66348 -25.06667,-7.10224 -42.66667,-12.08614 -51.9256,-14.70408 -122.73947,-34.88251 -131,-37.32849 -4.21667,-1.24857 -15.31667,-4.40699 -24.66667,-7.01869 -9.35,-2.6117 -19.83807,-5.62847 -23.30683,-6.70394 -3.46876,-1.07546 -6.98055,-1.95538 -7.804,-1.95538 -0.82344,0 -3.02356,-0.9 -4.88917,-2 -1.86561,-1.1 -3.5196,-2 -3.67555,-2 -0.15595,0 -2.76775,-1.46092 -5.804,-3.24648 -8.02674,-4.72037 -62.81161,-36.152924 -67.52045,-38.739531 -2.2,-1.20848 -14.05,-7.965393 -26.33334,-15.015374 -44.5991,-25.597497 -89.04199,-50.898499 -90.8506,-51.72056 -2.03156,-0.9234 -2.08662,-2.396715 -0.0777,-2.077776 0.69387,0.110158 2.6259,0.173096 4.29339,0.139864 1.66749,-0.03323 24.46749,0.858134 50.66667,1.980813 34.94083,1.497273 59.00494,2.924989 90.30153,5.357557 84.08235,6.535411 135.37107,10.612424 137.59413,10.937557 1.79034,0.261838 4.14887,2.147939 11.33334,9.063103 4.98987,4.80285 44.77253,43.084843 88.40587,85.071087 43.63333,41.98625 79.8466,76.99363 80.47393,77.79419 1.2184,1.55484 70.95641,210.93473 72.87187,218.78889 0.7506,3.07784 1.01567,6.02851 0.77854,8.66666 -0.21234,2.36224 -11.2298,41.48689 -26.9086,95.55644 l -26.54907,91.55644 -28.02867,35.51666 c -31.9312,40.46174 -31.3156,39.7038 -32.2472,39.7038 -0.38773,0 -0.65527,-1.25326 -0.6048,-2.83333 z M 159.26898,650.92248 c -0.50655,-0.61037 -13.13549,-48.47026 -28.0643,-106.35533 L 104.0614,439.32159 141.94568,315.66853 c 28.5907,-93.31912 38.30579,-124.20569 39.60251,-125.90579 1.11048,-1.4559 44.094,-30.6402 121.51988,-82.50773 65.89089,-44.140255 120.35882,-80.527136 121.03984,-80.859735 0.68102,-0.332599 1.39533,-0.447601 1.58738,-0.25556 0.19204,0.192042 -1.7495,3.614168 -4.31452,7.604727 -2.56503,3.990557 -9.65424,15.055559 -15.75379,24.588893 -6.09955,9.533333 -16.47283,25.733334 -23.05173,36.000001 C 375.99636,104.6 366.22138,119.9 360.85307,128.33334 c -29.17583,45.83375 -37.11005,58.10026 -38.20243,59.0619 -1.05201,0.92612 -5.4545,1.12546 -34.42844,1.55888 -18.27221,0.27332 -35.43292,0.69547 -38.13492,0.93809 l -4.91273,0.44113 -8.96485,16.66667 c -19.65296,36.53704 -42.39824,81.48171 -57.97885,114.56621 l -4.976,10.56622 -2.27461,35.76712 c -1.25104,19.67192 -2.60574,41.46712 -3.01044,48.43378 -0.40471,6.96667 -1.03788,14.16667 -1.40705,16 -0.36918,1.83334 -0.79828,7.98334 -0.95357,13.66667 -1.97943,72.44484 -3.0189,116.17489 -3.03464,127.66667 -0.0241,17.55413 -1.60179,77.58282 -2.05092,78.03194 -0.18349,0.18349 -0.74808,-0.16578 -1.25464,-0.77614 z"
       id="path82"
       inkscape:connector-curvature="0" />
    <path
       style="fill:#a7a7a7;stroke-width:0.66666669"
       d="m 462.00001,841.31349 c -62.88333,-9.82654 -118.60843,-18.5286 -123.83356,-19.33794 l -9.50022,-1.47146 -82.99978,-81.96854 c -45.64988,-45.08267 -82.99978,-82.24607 -82.99978,-82.58534 0,-0.33927 0.23411,-0.61686 0.52024,-0.61686 0.57355,0 9.25257,3.60885 14.98584,6.23131 2.01233,0.92045 17.42169,7.57062 34.24302,14.77822 16.82133,7.20754 32.08424,13.79054 33.91757,14.62894 3.0875,1.41186 63.55917,27.32447 78.66667,33.70933 3.66667,1.5496 12.96667,6.1896 20.66667,10.31107 7.7,4.12147 16.85,8.931 20.33333,10.6878 5.73308,2.8914 46.16541,24.19893 129.79015,68.3984 16.56791,8.75687 30.2471,15.9216 30.3982,15.9216 0.54567,0 53.49422,28.08367 54.11166,28.70054 0.39971,0.3994 -0.21508,0.60453 -1.66667,0.55606 -1.265,-0.042 -53.75,-8.1166 -116.63334,-17.94313 z m 126.33334,16.87773 c 1.39117,-1.3546 259.73748,-150.34267 260.08774,-149.99233 0.20227,0.20226 0.11534,0.80846 -0.19326,1.34706 -0.30867,0.5386 -21.71114,20.1762 -47.56114,43.63914 l -47,42.65986 -80.6404,31.1422 c -72.92181,28.16147 -86.83139,33.28627 -84.69294,31.20407 z M 852.66669,703.78295 c 0,-0.57587 5.4324,-13.5876 12.07207,-28.915 6.6396,-15.32735 18.378,-42.41793 26.08533,-60.20127 7.70734,-17.78333 18.45107,-42.68333 23.87507,-55.33333 36.90294,-86.06659 50.96134,-117.97483 51.18934,-116.18388 0.122,0.95823 -0.14534,3.11661 -0.59414,4.79639 -3.9,14.59874 -52.13813,180.14749 -52.901,181.55133 -1.156,2.12725 -57.2114,73.24529 -58.71707,74.49489 -0.8288,0.6878 -1.0096,0.65034 -1.0096,-0.20913 z m -694.58255,-55.9496 c -1.12123,-3.54163 -53.61367,-207.42912 -53.62724,-208.29519 -0.0241,-1.53796 75.13803,-246.08223 75.99506,-247.2543 0.47718,-0.65259 1.01551,-1.03862 1.19628,-0.85784 0.34745,0.34744 -2.11163,37.72459 -2.66939,40.57399 -0.17944,0.91666 -1.97056,27.91666 -3.98027,60 -2.00971,32.08333 -4.85556,77.4854 -6.32412,100.89347 -1.46855,23.40808 -2.83415,42.82558 -3.03465,43.14999 -0.47768,0.77291 -3.12619,97.11837 -2.72944,99.28988 0.23262,1.2732 -2.56542,113.73271 -2.84881,114.5 -0.3182,0.86155 -1.42632,-0.25922 -1.97742,-2 z M 963.63496,432.16668 c -3.27966,-7.81122 -19.50013,-47.05661 -27.6228,-66.83334 -9.23547,-22.48606 -34.61807,-83.93793 -53.75767,-130.14877 -5.27333,-12.73183 -9.5878,-23.58499 -9.5878,-24.11814 0,-1.35532 -4.5056,-4.92511 -6.87233,-5.44493 -1.08173,-0.23759 -11.75293,-6.94685 -23.71387,-14.90947 C 792.86496,157.94826 743.92442,127.3924 693.68755,98.063349 l -17.31246,-10.10728 -5.4034,5.521967 c -2.9718,3.03708 -10.48122,10.942134 -16.68751,17.566784 -6.20629,6.62464 -14.4303,15.39964 -18.27559,19.5 -3.84528,4.10035 -7.4139,7.45518 -7.93026,7.45518 -0.51636,0 -4.40502,-1.99024 -8.64148,-4.42275 -4.23645,-2.43252 -8.91783,-5.07071 -10.40307,-5.86264 -3.16029,-1.68509 -26.38217,-14.86168 -52.3671,-29.714221 -10.08333,-5.76346 -20.13333,-11.4683 -22.33333,-12.677427 -2.2,-1.20912 -13.9,-7.888833 -26,-14.843807 -12.1,-6.954977 -27.85,-15.953778 -35,-19.997339 -10.03197,-5.673408 -43.86333,-25.017991 -44.43892,-25.409922 -0.61382,-0.417963 15.67056,0.07767 16.31958,0.496705 0.48437,0.312728 2.17814,0.374029 3.76394,0.136224 5.63771,-0.845426 82.16138,2.936193 121.68873,6.013568 57.99984,4.515539 88.31977,6.942564 95.33334,7.631165 3.48333,0.341997 8.28333,0.762891 10.66667,0.935319 2.38333,0.172429 6.13333,0.476805 8.33333,0.676393 2.2,0.199588 5.8,0.509424 8,0.688525 2.2,0.179101 7.928,0.706167 12.7288,1.171257 l 8.72887,0.845618 8.81893,8.333333 c 4.85047,4.583334 45.15727,43.370175 89.57074,86.192979 l 80.75173,77.85965 35.4722,106.72847 c 30.30881,91.19304 36.92774,111.88558 35.78861,111.88558 -0.0964,0 -0.64767,-1.125 -1.22494,-2.5 z M 183.66667,188.12025 c 1.16358,-1.18893 236.78221,-159.235913 239.83334,-160.874099 1.5918,-0.854649 1.46426,0.0061 -0.40979,2.76576 -0.86705,1.276782 -7.51625,11.621423 -14.77598,22.98809 -7.25973,11.366667 -19.04801,29.816668 -26.19618,41.000001 C 374.9699,105.18334 362.32452,124.98334 354.01722,138 c -8.30729,13.01667 -18.80233,29.44167 -23.3223,36.5 l -8.21814,12.83334 -3.40505,0.0409 c -1.87278,0.0225 -19.60505,0.31785 -39.40505,0.65633 -19.80001,0.33848 -49.80001,0.80366 -66.66667,1.03374 l -30.66667,0.41832 1.33333,-1.36239 z"
       id="path80"
       inkscape:connector-curvature="0" />
    <path
       style="fill:#929292;stroke-width:0.66666669"
       d="m 573.33335,857.98222 c -1.65,-0.2944 -15,-2.35653 -29.66667,-4.5824 -26.60212,-4.03726 -111.41512,-17.08073 -179,-27.5286 l -35.66667,-5.5136 -8.66667,-8.3296 C 301.16368,793.60395 166.03337,659.81689 164.99809,658.23686 c -1.08479,-1.6556 -1.07617,-1.68481 0.36271,-1.22813 0.81067,0.2573 15.01112,6.30425 31.55657,13.43769 16.54545,7.1334 53.03264,22.8218 81.08264,34.86313 59.14918,25.39154 58.40705,25.0644 58.98727,26.0032 0.24376,0.3944 2.29634,1.6428 4.5613,2.77414 4.59054,2.29306 40.40166,21.06133 99.1181,51.9468 21.45,11.28293 43.05,22.58586 48,25.1176 14.90627,7.624 88.28567,46.35227 88.96667,46.95493 0.73795,0.65307 -0.0772,0.62954 -4.3,-0.124 z m 19,-1.48313 c 0.73333,-0.52253 19.18334,-11.2462 41,-23.8304 21.81667,-12.58414 78.78314,-45.4912 126.59214,-73.1268 47.809,-27.6356 87.109,-50.06214 87.33334,-49.8368 0.22433,0.22533 -0.20214,0.90886 -0.9476,1.519 -0.74554,0.61006 -20.67847,18.65926 -44.29547,40.10926 -23.61694,21.45 -44.32234,40.2492 -46.01194,41.77594 -2.7978,2.52813 -7.1162,4.3338 -48.37127,20.22586 -24.91453,9.59747 -60.31472,23.23641 -78.66702,30.30874 -18.3523,7.07233 -34.40231,13.07173 -35.66667,13.332 -2.11626,0.43567 -2.19294,0.3978 -0.96551,-0.4768 z M 854.00003,701.60548 c 0,-0.217 13.22426,-30.892 29.38726,-68.16668 16.16307,-37.27466 40.98807,-94.54413 55.16667,-127.26548 14.17867,-32.72135 25.95547,-59.49635 26.17067,-59.5 0.64147,-0.0109 -1.2284,6.73868 -15.69673,56.66003 -7.59814,26.21666 -18.88307,65.17051 -25.07747,86.5641 -8.79987,30.39175 -11.66587,39.43833 -13.10654,41.37103 -6.48926,8.70548 -55.86213,70.73154 -56.30253,70.73154 -0.29773,0 -0.54133,-0.17754 -0.54133,-0.39454 z M 158.45962,647.33335 c -0.21708,-0.55 -4.31108,-16.15 -9.0978,-34.66667 -4.78672,-18.51666 -16.82904,-65.10728 -26.76071,-103.5347 l -18.05758,-69.86804 32.77405,-106.79863 c 18.02574,-58.73925 34.89206,-113.69864 37.48071,-122.13197 2.58866,-8.43333 4.96992,-15.6202 5.29167,-15.97081 0.33806,-0.36838 0.43231,1.03873 0.22328,3.33333 -0.19895,2.18395 -1.24945,18.22081 -2.33445,35.63748 -6.20081,99.5373 -12.77217,202.59216 -13.30577,208.66667 -0.3382,3.85 -0.6172,13.45 -0.62,21.33334 -0.008,21.61707 -4.07045,180.70414 -4.67344,183 -0.35942,1.36849 -0.6499,1.68425 -0.91996,1 z M 960.8681,423.4904 c -0.75534,-1.73638 -5.9592,-14.25706 -11.56414,-27.82372 -5.605,-13.56667 -25.14127,-60.73768 -43.41407,-104.82449 -18.27273,-44.0868 -33.2232,-80.42506 -33.2232,-80.7517 0,-0.32664 -0.50186,-1.00562 -1.11526,-1.50886 -0.61334,-0.50322 -16.0898,-16.66496 -34.39214,-35.91496 -18.30227,-19.25 -35.47013,-37.1 -38.15087,-39.66667 -7.9832,-7.6437 -71.8248,-75.072479 -71.44153,-75.455766 0.19427,-0.194285 1.606,0.653782 3.13707,1.884594 1.53113,1.230812 38.72446,36.887841 82.65186,79.237842 l 79.86794,77 34.00473,102.33334 c 33.30541,100.22883 35.79147,107.86899 35.26941,108.39101 -0.141,0.14104 -0.87447,-1.16425 -1.6298,-2.90062 z M 185.63588,187.38316 c 0.24949,-0.40368 14.60848,-10.13642 31.90887,-21.62832 17.30039,-11.49189 70.27457,-46.89364 117.7204,-78.670564 47.44583,-31.776917 86.36094,-57.680424 86.47801,-57.563348 0.11708,0.117075 -3.36981,5.747762 -7.74865,12.512636 -4.37884,6.764874 -10.73603,16.649771 -14.1271,21.966438 -10.16133,15.931393 -9.10978,14.867607 -27.20073,27.517394 -37.7059,26.365204 -75.02276,53.425274 -111.05601,80.531484 l -20.05599,15.08725 -28.18621,0.49049 c -20.45674,0.35599 -28.06181,0.28923 -27.73259,-0.24346 z M 700.66669,49.250265 c -1.65,-0.332006 -14.4,-2.544897 -28.33334,-4.917535 l -25.33333,-4.313886 -35,-2.312218 c -19.25,-1.27172 -63.8495,-4.195883 -99.10998,-6.49814 -61.34331,-4.005277 -78.63476,-5.648245 -50.35767,-4.784794 7.22387,0.220584 14.93431,0.371267 17.13431,0.334852 11.29973,-0.187038 66.04274,3.005427 101.33334,5.909488 22,1.810378 41.95,3.435316 44.33333,3.610973 2.38334,0.175657 6.28334,0.483461 8.66667,0.684008 2.38333,0.200548 6.13333,0.509875 8.33333,0.687393 13.16062,1.061934 28.9618,2.747024 29.3396,3.128871 0.24267,0.245269 2.05987,0.278877 4.03834,0.07469 2.30986,-0.2384 3.9376,-0.08866 4.54866,0.418437 0.63107,0.523734 2.0932,0.638247 4.34134,0.340014 2.32926,-0.308986 3.70553,-0.18772 4.39873,0.387587 0.68473,0.56828 2.0624,0.697505 4.28827,0.402235 1.99746,-0.264968 3.44446,-0.168007 3.7016,0.248034 0.2322,0.375685 2.12946,0.712734 4.21613,0.748996 2.08673,0.03626 5.41153,0.261262 7.38853,0.5 l 3.59454,0.434068 -3.07967,2.833334 c -3.22533,2.967412 -3.59587,3.05886 -8.44273,2.083597 z M 439.00001,26.000001 c 0.22662,-0.366667 1.59432,-0.666667 3.03935,-0.666667 1.44503,0 2.62732,0.3 2.62732,0.666667 0,0.366666 -1.36771,0.666666 -3.03935,0.666666 -1.85646,0 -2.87898,-0.259458 -2.62732,-0.666666 z"
       id="path78"
       inkscape:connector-curvature="0" />
    <path
       style="fill:#727272;stroke-width:0.66666669"
       d="m 597.0032,854.79496 c 0.71139,-0.7802 243.99809,-141.60234 245.88649,-142.32701 0.61067,-0.23433 1.11034,-0.2992 1.11034,-0.1442 0,0.15507 -12.825,11.91387 -28.50001,26.13067 -15.675,14.2168 -31.50186,28.70553 -35.1708,32.1972 -3.66893,3.4916 -11.3552,10.5484 -17.08066,15.68173 l -10.40994,9.33334 -7.58593,2.819 c -7.0384,2.61553 -45.41647,17.337 -116.91934,44.84927 -33.99023,13.0784 -32.21315,12.4284 -31.33015,11.46 z M 857.00483,696.33335 c 0.9696,-2.2 7.1048,-16.45 13.6338,-31.66667 6.529,-15.21666 29.19593,-67.56666 50.37086,-116.33333 21.17501,-48.76667 39.06787,-89.98413 39.76201,-91.59436 0.69413,-1.61023 1.40946,-2.78024 1.58973,-2.60003 0.51533,0.51536 -49.47987,172.54242 -51.02034,175.55429 -0.75766,1.48128 -2.0614,3.43128 -2.89726,4.33333 -0.83594,0.90206 -12.27154,15.2901 -25.41254,31.97344 -13.141,16.68333 -24.7694,31.23333 -25.84093,32.33333 l -1.94813,2 z M 143.72571,588.15075 c -8.0342,-31.06624 -19.98601,-77.27681 -26.55959,-102.69016 l -11.95196,-46.20609 22.35016,-72.79391 c 12.2926,-40.03665 27.93274,-90.94392 34.75588,-113.12725 6.82314,-22.18333 13.31402,-43.2867 14.42417,-46.89637 1.11016,-3.60966 2.15762,-6.42386 2.32771,-6.25378 0.35531,0.3553 -2.90859,51.46495 -3.41549,53.48348 -0.28518,1.13566 -7.02285,106.35325 -10.7473,167.83334 -0.63861,10.54167 -1.38763,19.16667 -1.66449,19.16667 -0.27686,0 -0.34127,3.075 -0.14313,6.83333 0.27256,5.16989 -3.6411,169.36539 -4.59985,192.98407 -0.15301,3.76948 -1.51022,-1.03742 -14.77611,-52.33333 z M 958.48876,415.8621 c -4.73993,-11.9251 -85.5008,-205.86119 -86.04267,-206.61971 -0.42866,-0.60002 -30.14966,-31.95003 -66.04673,-69.66667 -35.897,-37.71664 -67.247,-70.658705 -69.66667,-73.20458 -8.90287,-9.367339 14.90887,13.315989 84.861,80.83964 l 71.35467,68.87745 33.23687,100.02261 c 18.28033,55.01244 33.104,100.15553 32.94153,100.31798 -0.16246,0.16245 -0.44953,-0.0926 -0.638,-0.56672 z M 644.33335,38.666668 c -0.22661,-0.366667 0.0734,-0.666667 0.66667,-0.666667 0.59328,0 0.89328,0.3 0.66667,0.666667 -0.22662,0.366666 -0.52662,0.666666 -0.66667,0.666666 -0.14005,0 -0.44005,-0.3 -0.66667,-0.666666 z m -10.66666,-0.666667 c -0.24104,-0.389999 0.45063,-0.666667 1.66666,-0.666667 1.21604,0 1.9077,0.276668 1.66667,0.666667 -0.22661,0.366667 -0.97661,0.666667 -1.66667,0.666667 -0.69005,0 -1.44005,-0.3 -1.66666,-0.666667 z m -10,-0.666667 c -0.24921,-0.40322 0.67286,-0.666666 2.33333,-0.666666 1.66047,0 2.58254,0.263446 2.33333,0.666666 -0.22661,0.366667 -1.27661,0.666667 -2.33333,0.666667 -1.05672,0 -2.10672,-0.3 -2.33333,-0.666667 z m -20.33334,-0.99922 c -6.05,-0.447947 -12.35,-1.011591 -14,-1.252543 -2.91199,-0.425242 -103.61197,-7.08157 -107.13324,-7.08157 -0.96561,0 -1.58328,-0.172371 -1.3726,-0.383046 0.80892,-0.808921 53.00744,1.896063 84.83917,4.396458 18.33334,1.440091 38.04216,2.981025 43.79739,3.424297 5.75523,0.443272 10.31252,1.051126 10.12732,1.350786 -0.40146,0.649572 -1.92184,0.60708 -16.25804,-0.454382 z M 471.50001,26.873783 c 0.64167,-0.167684 1.69167,-0.167684 2.33334,0 0.64166,0.167686 0.11666,0.304882 -1.16667,0.304882 -1.28333,0 -1.80833,-0.137196 -1.16667,-0.304882 z"
       id="path76"
       inkscape:connector-curvature="0" />
  </g>
</svg>
