<?xml version="1.0" encoding="UTF-8" standalone="no"?>
<!-- Created with Inkscape (http://www.inkscape.org/) -->

<svg
   xmlns:dc="http://purl.org/dc/elements/1.1/"
   xmlns:cc="http://creativecommons.org/ns#"
   xmlns:rdf="http://www.w3.org/1999/02/22-rdf-syntax-ns#"
   xmlns:svg="http://www.w3.org/2000/svg"
   xmlns="http://www.w3.org/2000/svg"
   xmlns:sodipodi="http://sodipodi.sourceforge.net/DTD/sodipodi-0.dtd"
   xmlns:inkscape="http://www.inkscape.org/namespaces/inkscape"
   version="1.1"
   id="svg83"
   width="720"
   height="396"
   viewBox="0 0 720 396"
   sodipodi:docname="google-analytics-logo.svg"
   inkscape:version="0.92.2 5c3e80d, 2017-08-06">
  <metadata
     id="metadata89">
    <rdf:RDF>
      <cc:Work
         rdf:about="">
        <dc:format>image/svg+xml</dc:format>
        <dc:type
           rdf:resource="http://purl.org/dc/dcmitype/StillImage" />
        <dc:title></dc:title>
      </cc:Work>
    </rdf:RDF>
  </metadata>
  <defs
     id="defs87" />
  <sodipodi:namedview
     pagecolor="#ffffff"
     bordercolor="#666666"
     borderopacity="1"
     objecttolerance="10"
     gridtolerance="10"
     guidetolerance="10"
     inkscape:pageopacity="0"
     inkscape:pageshadow="2"
     inkscape:window-width="1440"
     inkscape:window-height="816"
     id="namedview85"
     showgrid="false"
     inkscape:zoom="1.0767308"
     inkscape:cx="207.7549"
     inkscape:cy="138.1523"
     inkscape:window-x="0"
     inkscape:window-y="1"
     inkscape:window-maximized="1"
     inkscape:current-layer="svg83" />
  <g
     id="g3782"
     transform="translate(-3.3122913,1.0720683)">
    <path
       style="fill:#fefefe"
       d="M 1.9701544,196.02985 V -1.9701482 h 359.9999956 360 v 197.9999982 198 h -360 H 1.9701544 Z"
       id="path3798"
       inkscape:connector-curvature="0" />
    <path
       style="fill:#fad9c9"
       d="m 69.970154,283.78466 v -13.24519 l 38.244656,-38.25434 38.24466,-38.25434 -10.74416,-10.74415 -10.74415,-10.74416 -27.500503,27.48687 -27.500503,27.48686 V 161.27303 95.029852 h 100.999996 101 v 100.999998 101 h -101 -100.999996 z m 150.026456,-73.59494 50.97354,-50.32248 -0.009,-20.6687 -0.009,-20.66869 -49.96405,50.03203 -49.96405,50.03204 -12.02697,-12.02693 -12.02693,-12.02694 v 24.04564 24.04564 l 10.25,9.19382 c 5.6375,5.0566 10.59941,9.07979 11.02646,8.94044 0.42706,-0.13936 23.71456,-22.8985 51.75,-50.57587 z m 266.64021,81.17346 c -1.85442,-1.85441 -0.44426,-3.33333 3.17834,-3.33333 4.59309,0 6.24126,-1.57812 9.01468,-8.63153 l 2.01774,-5.13154 -6.84612,-17.86846 c -3.76536,-9.82766 -7.17612,-18.69557 -7.57946,-19.70647 -0.60514,-1.51664 -0.31675,-1.7789 1.64947,-1.5 2.39783,0.34013 3.17357,2.08789 13.90937,31.338 1.05635,2.87808 1.31801,2.41074 6.43862,-11.5 7.68572,-20.87918 7.26697,-20 9.52594,-20 1.11361,0 2.02475,0.17727 2.02475,0.39393 0,0.21666 -4.48465,12.02916 -9.96589,26.25 -10.90077,28.28156 -12.19396,30.35607 -18.92321,30.35607 -2.07766,0 -4.07757,-0.3 -4.44423,-0.66667 z m -44.16667,-17.49401 c -5.71008,-3.14016 -7.49356,-12.0352 -3.44506,-17.18204 2.5632,-3.25858 10.28618,-5.65728 18.21446,-5.65728 h 5.9064 l -0.70403,-4.25 c -0.94904,-5.72903 -2.0725,-7.61169 -4.97729,-8.34074 -2.54259,-0.63815 -8.91682,-0.11426 -13.84392,1.13781 -2.44316,0.62086 -2.79766,0.45526 -2.48634,-1.16148 0.94072,-4.88522 16.89498,-5.78094 21.4705,-1.20541 3.44728,3.44727 4.31366,8.15092 4.34142,23.56982 0.0227,12.59129 -0.0756,13.25 -1.97614,13.25 -1.46667,0 -2,-0.66667 -2,-2.5 0,-2.85556 -1.1645,-3.21164 -3.05472,-0.93406 -3.36667,4.05658 -12.80182,5.82697 -17.44528,3.27338 z m 16.66799,-6.7013 c 2.26895,-2.5394 2.83201,-4.11614 2.83201,-7.93047 v -4.76091 l -7.25,0.59946 c -3.9875,0.3297 -8.25219,1.13952 -9.47708,1.7996 -4.59347,2.47534 -5.69442,8.7328 -2.15857,12.26865 1.78582,1.78582 2.97727,2.04278 7.66798,1.65379 4.67529,-0.38771 6.00155,-0.96184 8.38566,-3.63012 z m 72.48831,6.75416 c -3.60254,-2.1424 -4.6563,-7.08949 -4.6563,-21.86006 v -14.03212 h -3 c -3.86837,0 -3.86196,-1.80356 0.0112,-3.15376 2.42535,-0.84548 3.22669,-1.90544 4.11871,-5.44798 1.44344,-5.73238 2.68402,-5.59003 3.06528,0.35174 l 0.30479,4.75 5.75,0.2999 c 4.21862,0.22004 5.75,0.68611 5.75,1.75 0,1.1081 -1.4367,1.4501 -6.09172,1.4501 h -6.09171 l 0.34171,14.84846 c 0.4011,17.42846 0.72127,18.15154 8.03749,18.15154 4.17519,0 4.89875,0.27418 4.61819,1.75 -0.25601,1.34664 -1.483,1.80631 -5.32333,1.9943 -2.74484,0.13437 -5.82029,-0.24909 -6.83433,-0.85212 z m 38.79412,-0.29878 c -13.09295,-5.70293 -13.7005,-30.07377 -0.93004,-37.30657 6.06662,-3.43594 20.46164,-2.7101 19.22369,0.96932 -0.29715,0.8832 -2.5001,1.14114 -7.59772,0.88961 -8.1355,-0.40142 -10.92995,0.81137 -14.19035,6.15857 -1.44144,2.36403 -1.94852,5.01735 -1.94852,10.19567 0,7.72769 1.861,12.05727 6.48491,15.08697 2.08353,1.36518 4.04169,1.58568 10.04774,1.13145 6.10422,-0.46166 7.45987,-0.30112 7.45987,0.88345 0,3.27874 -12.51066,4.62192 -18.54958,1.99153 z m 25.79958,0.28782 c -2.32936,-0.67258 -3.25,-1.52987 -3.25,-3.02639 0,-1.77668 0.41001,-1.98617 2.75,-1.40512 14.39473,3.57441 24.58668,-0.12982 20.86984,-7.58506 -1.24098,-2.48916 -2.58309,-3.30207 -12.85232,-7.7846 -5.45893,-2.38283 -7.05544,-3.61597 -8.43972,-6.51884 -3.45615,-7.24761 2.40265,-13.56575 12.57008,-13.55563 5.80687,0.006 13.11354,1.5643 13.08681,2.79142 -0.0513,2.35465 -1.77153,3.23454 -4.38276,2.24175 -3.6463,-1.38632 -11.89136,-1.31963 -15.05488,0.12177 -1.97647,0.90054 -2.54705,1.89591 -2.54705,4.44329 0,3.94364 1.76752,5.36826 11.07116,8.92338 8.33342,3.18438 11.38339,6.25201 11.38339,11.44931 0,6.98486 -6.0735,11.09083 -16.17243,10.93331 -3.18017,-0.0496 -7.24462,-0.51247 -9.03212,-1.02859 z M 358.77296,247.49601 c 7.8646,-19.67318 10.99818,-26.45855 12.11924,-26.24266 1.29506,0.24941 10.04271,20.966 20.06822,47.5265 l 1.98166,5.25 h -2.3849 c -2.07374,0 -2.82623,-1.14157 -5.7677,-8.75 l -3.38281,-8.75 H 370.58514 359.7636 l -3.50145,8.75 c -2.97922,7.44498 -3.8441,8.75 -5.79893,8.75 -2.18787,0 -1.79139,-1.26601 8.30974,-26.53384 z m 17.24489,-5.21616 c -2.05399,-5.3625 -4.07349,-10.65 -4.48777,-11.75 -0.59088,-1.56888 -1.58963,0.13164 -4.63323,7.88872 -2.13399,5.4388 -4.14582,10.7263 -4.47073,11.75 -0.54606,1.72049 0.0869,1.86128 8.36775,1.86128 h 8.9585 z m 21.9523,12.25 c 0,-18.83333 0.0684,-19.5 2,-19.5 1.35528,0 2,0.66667 2,2.06809 0,2.03951 0.0449,2.03606 3.25,-0.25 2.67275,-1.90636 4.52341,-2.31809 10.41944,-2.31809 6.21257,0 7.51405,0.32375 9.75152,2.42574 3.71613,3.49113 4.56718,7.83138 4.57346,23.32426 0.005,12.82661 -0.12156,13.75 -1.88757,13.75 -1.76025,0 -1.9182,-1.08243 -2.25,-15.41951 -0.34021,-14.70037 -0.46992,-15.53986 -2.78116,-18 -4.56271,-4.85663 -16.14845,-2.9723 -19.02645,3.09451 -0.82354,1.73601 -1.52623,8.12539 -1.82288,16.575 -0.44227,12.59752 -0.63962,13.75 -2.35455,13.75 -1.76509,0 -1.87181,-1.1118 -1.87181,-19.5 z m 78,-8.5 v -28 h 2.5 2.5 v 28 28 h -2.5 -2.5 z m 74,8.5 c 0,-18.83333 0.0684,-19.5 2,-19.5 1.93162,0 2,0.66667 2,19.5 0,18.83333 -0.0684,19.5 -2,19.5 -1.93162,0 -2,-0.66667 -2,-19.5 z m 0.0733,-27.91165 c -1.86021,-2.24144 -0.95876,-6.08835 1.4267,-6.08835 1.60976,0 2,0.66667 2,3.41667 0,3.76752 -1.5283,4.95909 -3.42668,2.67168 z m -11.30381,-9.59443 c -13.97446,-2.4299 -21.18503,-12.99395 -16.13416,-23.63786 3.01083,-6.34486 15.26171,-12.35606 25.18176,-12.35606 2.8645,0 3.2751,-0.27428 2.6198,-1.75 -0.42739,-0.9625 -0.96643,-3.60694 -1.19786,-5.87653 -0.4132,-4.05225 -0.50205,-4.13767 -4.93545,-4.74534 -16.77652,-2.29948 -23.42863,-20.723 -11.78704,-32.64507 6.58143,-6.74 11.59448,-8.19331 30.23346,-8.76489 10.00246,-0.30673 16.25,-0.13121 16.25,0.45654 0,1.48195 -6.71065,4.32529 -10.20824,4.32529 h -3.14039 l 2.05734,2.25 c 3.41057,3.72995 5.29129,8.39871 5.29129,13.13524 0,6.39255 -1.39346,9.29804 -7.55973,15.76273 -7.34263,7.69798 -7.33495,7.75379 2.15002,15.61283 6.83176,5.66066 9.40971,10.09137 9.40971,16.17245 0,12.11883 -10.7431,21.01113 -27,22.34849 -3.575,0.2941 -8.62872,0.16458 -11.23049,-0.28782 z m 23.01813,-6.98384 c 8.26935,-3.75315 9.34652,-12.94583 2.26647,-19.34223 -6.71297,-6.06477 -8.53867,-6.92099 -13.27121,-6.22397 -8.41987,1.24008 -12.97419,2.90126 -15.85656,5.78363 -2.46325,2.46325 -2.92634,3.72628 -2.92634,7.98134 0,4.46903 0.40043,5.43265 3.45445,8.31296 5.8526,5.51971 18.24142,7.16082 26.33319,3.48827 z m -6.00285,-46.0849 c 4.98781,-1.73876 6.54163,-5.11896 5.97749,-13.00351 -0.89079,-12.44993 -8.05717,-20.46682 -16.40419,-18.35103 -5.41131,1.37165 -7.6937,5.04296 -7.62567,12.26618 0.0689,7.31954 3.45349,14.68286 8.23376,17.91318 3.74034,2.52757 5.37716,2.72348 9.81861,1.17518 z M 344.8065,182.17072 c -7.44161,-2.45835 -11.67997,-5.16266 -16.8047,-10.72234 -16.94841,-18.38686 -12.57188,-49.64101 8.69661,-62.10518 14.05669,-8.23777 35.94259,-8.58121 51.28852,-0.80484 2.74076,1.38885 4.9832,2.87391 4.9832,3.30013 0,1.16441 -8.24172,8.81772 -10.25,9.5182 -1.95504,0.68191 -2.40591,-1.27093 -0.68966,-2.98718 1.3577,-1.3577 -3.80673,-5.84407 -10.06034,-8.73947 -6.52363,-3.02041 -18.797,-2.86831 -25,0.30982 -6.09329,3.12191 -10.64986,7.5964 -13.83929,13.58999 -2.41666,4.54138 -2.66071,6.00896 -2.66071,16 0,10.29071 0.20541,11.43362 3.18565,17.72477 6.14494,12.97168 17.20953,20.54592 31.43858,21.5212 4.89003,0.33517 9.4948,0.0607 12.33867,-0.73558 l 4.5371,-1.27031 v -8.70467 -8.70466 l -8.25,0.38573 -8.25,0.38573 4,-2.54598 c 3.73262,-2.3758 4.83051,-2.54633 16.42431,-2.55111 l 12.42432,-0.005 -2.17432,2.31445 c -1.91806,2.04159 -2.17429,3.43622 -2.17429,11.83458 v 9.52025 l -10.25,2.33005 c -14.10549,3.20648 -31.14921,3.70641 -38.91363,1.14142 z m 77.66363,-0.018 c -8.93158,-2.3661 -16.87008,-9.28809 -19.97445,-17.41676 -2.2249,-5.82582 -1.74796,-16.51304 0.98951,-22.17292 2.59937,-5.37433 8.70448,-11.28288 14.33577,-13.87423 7.19242,-3.30972 19.90599,-3.04568 26.76891,0.55594 16.23844,8.52184 19.86048,29.91817 7.45621,44.04585 -6.2025,7.06426 -20.35497,11.3049 -29.57595,8.86212 z m 17.77124,-5.94274 c 8.72936,-5.15466 9.08665,-26.17116 0.65661,-38.6235 -2.57692,-3.80652 -8.99261,-7.55663 -12.92783,-7.55663 -4.63769,0 -10.94832,3.97837 -13.14703,8.28819 -4.17015,8.17419 -0.92186,27.34342 5.94374,35.07592 4.74841,5.34797 13.13336,6.56042 19.47453,2.81599 z m 41.93372,4.98696 c -18.96818,-6.77126 -25.18874,-29.67937 -12.09771,-44.55156 8.16494,-9.27586 21.41597,-12.92747 32.97697,-9.08753 10.49331,3.48529 18.9158,15.04816 18.9158,25.96864 0,19.91553 -20.86939,34.42651 -39.79504,27.67042 z m 18.81029,-4.41709 c 8.06087,-4.08581 10.53936,-12.66481 7.54597,-26.11954 -3.09621,-13.91683 -10.742,-21.58023 -20.12658,-20.17293 -9.38835,1.40787 -14.20437,9.15895 -13.10482,21.09139 1.12949,12.2574 6.11012,21.9748 13.01495,25.39267 5.27873,2.61295 7.19457,2.58398 12.67048,-0.19159 z m 122.22819,4.58553 c -5.9312,-2.0993 -12.64893,-9.13068 -15.17581,-15.88438 -2.906,-7.76697 -2.78353,-17.37173 0.30609,-24.00676 7.91271,-16.99269 32.48645,-20.84552 42.15969,-6.61006 1.35664,1.99647 2.46661,4.34475 2.46661,5.21841 0,2.10847 -27.00943,12.94726 -32.26358,12.94726 -4.5387,0 -4.60618,0.65817 -0.87599,8.543 2.98822,6.31645 7.41198,10.8266 12.85745,13.10854 4.27391,1.79099 12.47778,1.71137 16.96778,-0.16467 1.99178,-0.83222 3.79884,-1.3357 4.0157,-1.11885 0.8961,0.89611 -7.97552,7.39754 -11.5598,8.47142 -5.21351,1.56201 -13.70063,1.3357 -18.89814,-0.50391 z m 6.71809,-34.88341 c 10.85925,-4.79251 12.15238,-6.10316 9.70574,-9.8372 -5.13984,-7.84439 -16.27735,-7.70031 -20.91844,0.27062 -1.88102,3.23058 -3.12655,10.34895 -2.27839,13.02126 0.72379,2.28047 0.181,2.41946 13.49109,-3.45468 z m -46.74593,32.79788 c 1.28089,-1.46934 1.63442,-7.72408 2.20437,-39 l 0.67882,-37.25 h -4.04939 c -5.20001,0 -5.13043,-1.05249 0.21488,-3.249998 2.88754,-1.1871 6.94268,-1.75 12.60703,-1.75 8.34891,0 8.34989,3.1e-4 6.01306,1.89257 -3.10346,2.513028 -3.70142,9.959448 -3.80483,47.382178 l -0.0795,28.77475 2.5651,0.97525 c 1.4108,0.53639 3.7159,0.97525 5.12244,0.97525 2.15982,0 2.36383,0.23317 1.31246,1.5 -0.97488,1.17466 -3.74623,1.5 -12.77743,1.5 -10.89787,0 -11.44859,-0.0963 -10.00699,-1.75 z"
       id="path3796"
       inkscape:connector-curvature="0" />
    <path
       style="fill:#d0d0d0"
       d="m 69.970154,284.27498 v -12.75487 l 38.609976,-38.49513 38.60998,-38.49513 -0.54637,23.74325 -0.54636,23.74325 11.10143,10.08812 11.10143,10.08812 51.83496,-51.82776 51.83495,-51.82777 v 69.2464 69.24639 h -101 -100.999996 z m 416.666666,7.0882 c -1.85442,-1.85441 -0.44426,-3.33333 3.17834,-3.33333 4.59309,0 6.24126,-1.57812 9.01468,-8.63153 l 2.01774,-5.13154 -6.84612,-17.86846 c -3.76536,-9.82766 -7.17612,-18.69557 -7.57946,-19.70647 -0.6024,-1.50978 -0.3179,-1.77764 1.59322,-1.5 2.26425,0.32895 4.73868,5.87747 13.97556,31.338 1.13779,3.13621 1.61528,2.07676 12.39435,-27.5 0.83655,-2.29543 2.01713,-3.60998 3.43029,-3.81955 1.1851,-0.17575 2.15473,-0.11099 2.15473,0.14393 0,0.25491 -4.48465,12.09871 -9.96589,26.31955 -10.90077,28.28156 -12.19396,30.35607 -18.92321,30.35607 -2.07766,0 -4.07757,-0.3 -4.44423,-0.66667 z m -44.16667,-17.49401 c -3.80115,-2.09038 -5.45473,-5.16588 -5.47776,-10.18811 -0.0188,-4.10264 0.43492,-5.27584 2.94856,-7.62393 3.48431,-3.25484 9.67533,-5.02728 17.55992,-5.02728 h 5.64508 l -0.70403,-4.25 c -0.95441,-5.76151 -2.0732,-7.61186 -5.05486,-8.36021 -2.65597,-0.66661 -10.28366,-0.0362 -14.26778,1.1791 -1.95133,0.59525 -2.28891,0.39541 -1.98634,-1.17588 0.94207,-4.89223 16.89163,-5.79314 21.47193,-1.21283 3.44728,3.44727 4.31366,8.15092 4.34142,23.56982 0.0227,12.59129 -0.0756,13.25 -1.97614,13.25 -1.46667,0 -2,-0.66667 -2,-2.5 0,-2.85556 -1.1645,-3.21164 -3.05472,-0.93406 -3.36667,4.05658 -12.80182,5.82697 -17.44528,3.27338 z m 16.66799,-6.7013 c 2.26895,-2.5394 2.83201,-4.11614 2.83201,-7.93047 v -4.76091 l -7.25,0.59946 c -3.9875,0.3297 -8.25219,1.13952 -9.47708,1.7996 -4.59347,2.47534 -5.69442,8.7328 -2.15857,12.26865 1.78582,1.78582 2.97727,2.04278 7.66798,1.65379 4.67529,-0.38771 6.00155,-0.96184 8.38566,-3.63012 z m 72.48831,6.75416 c -3.60254,-2.1424 -4.6563,-7.08949 -4.6563,-21.86006 v -14.03212 h -3 c -3.98047,0 -3.80879,-1.63522 0.3543,-3.37467 2.81749,-1.17723 3.45952,-2.05957 4.01182,-5.51342 0.88819,-5.55447 2.4544,-5.20122 2.82909,0.63809 l 0.30479,4.75 5.75,0.2999 c 4.21862,0.22004 5.75,0.68611 5.75,1.75 0,1.1081 -1.4367,1.4501 -6.09172,1.4501 h -6.09171 l 0.34171,14.84846 c 0.4011,17.42846 0.72127,18.15154 8.03749,18.15154 4.17519,0 4.89875,0.27418 4.61819,1.75 -0.25601,1.34664 -1.483,1.80631 -5.32333,1.9943 -2.74484,0.13437 -5.82029,-0.24909 -6.83433,-0.85212 z m 39.3437,-0.0129 c -10.01361,-3.98123 -13.97752,-20.15262 -7.68814,-31.36495 2.98627,-5.32374 8.69006,-8.47667 15.37304,-8.49787 6.04657,-0.0192 10.65614,1.46539 10.05917,3.2397 -0.29715,0.8832 -2.5001,1.14114 -7.59772,0.88961 -8.1355,-0.40142 -10.92995,0.81137 -14.19035,6.15857 -2.73013,4.47754 -2.73013,15.9138 0,20.39134 3.37297,5.53183 6.1131,6.66341 14.58413,6.02275 6.10422,-0.46166 7.45987,-0.30112 7.45987,0.88345 0,3.06907 -12.14416,4.60558 -18,2.2774 z m 26.09464,0.24831 c -2.6283,-0.73545 -4.94381,-3.61174 -3.81572,-4.73984 0.3895,-0.3895 2.4508,-0.18608 4.58065,0.45204 8.4627,2.53549 18.2534,0.66023 19.39763,-3.71531 1.20371,-4.60299 -1.45351,-6.89946 -14.49415,-12.52641 -9.66621,-4.17091 -11.41513,-12.18035 -3.78807,-17.34806 3.69514,-2.50364 11.64355,-3.0392 18.17624,-1.22469 2.9857,0.8293 3.55414,1.38541 3.11858,3.05098 -0.37202,1.4226 -1.02074,1.82707 -2.15122,1.34125 -0.89022,-0.38257 -4.20712,-0.91218 -7.3709,-1.17692 -6.41902,-0.53712 -11.68007,1.0726 -11.86616,3.6307 -0.37734,5.18699 1.42778,6.92565 10.98001,10.57577 8.53771,3.26244 11.59302,6.30098 11.59302,11.52941 0,4.45752 -2.34713,7.61918 -7.17243,9.66152 -3.31672,1.40381 -12.94052,1.67793 -17.18748,0.48956 z M 358.77296,247.49601 c 7.8646,-19.67318 10.99818,-26.45855 12.11924,-26.24266 1.31013,0.25231 8.62325,17.60269 19.82149,47.0265 l 2.18836,5.75 h -2.29739 c -1.95775,0 -2.80914,-1.29359 -5.75891,-8.75 l -3.46151,-8.75 H 370.57392 359.7636 l -3.50145,8.75 c -2.97922,7.44498 -3.8441,8.75 -5.79893,8.75 -2.18787,0 -1.79139,-1.26601 8.30974,-26.53384 z m 17.28578,-5.21616 c -2.06833,-5.3625 -4.1029,-10.65 -4.52126,-11.75 -0.59844,-1.57349 -1.58808,0.10882 -4.64063,7.88872 -2.13399,5.4388 -4.14582,10.7263 -4.47073,11.75 -0.54617,1.72084 0.0877,1.86128 8.40124,1.86128 h 8.99199 z m 21.91141,12.25 c 0,-18.83333 0.0684,-19.5 2,-19.5 1.35528,0 2,0.66667 2,2.06809 0,2.03951 0.0449,2.03606 3.25,-0.25 2.67275,-1.90636 4.52341,-2.31809 10.41944,-2.31809 6.21257,0 7.51405,0.32375 9.75152,2.42574 3.71613,3.49113 4.56718,7.83138 4.57346,23.32426 0.005,12.82661 -0.12156,13.75 -1.88757,13.75 -1.76025,0 -1.9182,-1.08243 -2.25,-15.41951 -0.34021,-14.70037 -0.46992,-15.53986 -2.78116,-18 -4.56077,-4.85458 -16.1167,-2.9776 -19.05189,3.09451 -0.86587,1.79126 -1.52753,7.85651 -1.80817,16.575 -0.40723,12.65122 -0.59335,13.75 -2.32911,13.75 -1.7842,0 -1.88652,-1.05767 -1.88652,-19.5 z m 78,-8.5 v -28 h 2.5 2.5 v 28 28 h -2.5 -2.5 z m 74,8.5 c 0,-18.83333 0.0684,-19.5 2,-19.5 1.93162,0 2,0.66667 2,19.5 0,18.83333 -0.0684,19.5 -2,19.5 -1.93162,0 -2,-0.66667 -2,-19.5 z m 0.0384,-27.95371 c -1.76761,-2.12983 -0.48797,-6.77951 1.74731,-6.34904 1.21851,0.23467 1.71427,1.31426 1.71427,3.73311 0,3.78067 -1.53329,4.93938 -3.46158,2.61593 z M 69.970154,160.77303 V 95.029852 h 100.999996 101 v 10.962888 10.96288 l -50.43965,50.78712 -50.43966,50.78711 -23.30565,-23.248 -23.30565,-23.24799 -27.254693,27.24118 -27.254693,27.24117 z m 468.769506,56.26606 c -13.99901,-2.47951 -21.1836,-13.01232 -16.13418,-23.65318 3.01083,-6.34486 15.26171,-12.35606 25.18176,-12.35606 2.8645,0 3.2751,-0.27428 2.6198,-1.75 -0.42739,-0.9625 -0.96643,-3.60694 -1.19786,-5.87653 -0.41417,-4.0617 -0.49271,-4.13639 -4.99894,-4.75404 -6.41235,-0.87891 -12.31671,-4.63176 -15.11199,-9.6053 -1.95995,-3.48725 -2.28293,-5.24166 -1.94423,-10.56086 0.33557,-5.27 0.936,-7.03724 3.45398,-10.16608 3.6768,-4.56878 8.36611,-7.88394 13.24452,-9.36336 4.73111,-1.43474 35.11763,-2.50847 35.11763,-1.2409 0,1.42726 -6.67137,4.31707 -9.9663,4.31707 h -2.89845 l 3.43237,5.10049 c 2.73315,4.06144 3.43238,6.08533 3.43238,9.9349 0,6.87065 -1.35266,9.6956 -7.75482,16.19548 -6.85849,6.96317 -6.68268,8.12985 2.34511,15.56222 7.5395,6.2071 9.79348,10.56556 9.19517,17.78042 -0.53663,6.47103 -3.43435,11.01332 -9.71255,15.22478 -7.03638,4.72005 -18.82308,6.89011 -28.3034,5.21095 z m 22.91417,-6.95262 c 5.11,-2.32002 7.77639,-6.8341 6.97043,-11.80064 -0.66822,-4.1178 -1.65882,-5.40377 -8.08172,-10.49151 -4.6787,-3.70613 -5.18383,-3.87033 -10,-3.25082 -8.1746,1.05152 -12.61178,2.67958 -15.68856,5.75637 -2.41779,2.41778 -2.88383,3.70074 -2.88383,7.93883 0,4.46903 0.40043,5.43265 3.45445,8.31296 5.81593,5.48513 18.24436,7.16006 26.22923,3.53481 z m -5.89889,-46.13144 c 4.98781,-1.73876 6.54163,-5.11896 5.97749,-13.00351 -0.89079,-12.44993 -8.05717,-20.46682 -16.40419,-18.35103 -5.52948,1.4016 -7.85453,5.20105 -7.68538,12.55899 0.16945,7.37083 3.45961,14.36874 8.28446,17.62037 3.75061,2.52767 5.38666,2.72331 9.82762,1.17518 z m -209.76055,18.53161 c -23.36641,-6.53466 -35.19785,-33.25279 -24.69479,-55.76657 4.85917,-10.41586 13.93119,-18.14602 25.48346,-21.71415 7.93712,-2.45153 21.85427,-2.63532 30.47135,-0.40241 6.44323,1.66961 15.71574,5.93835 15.71574,7.23498 0,1.16441 -8.24172,8.81772 -10.25,9.5182 -1.95504,0.68191 -2.40591,-1.27093 -0.68966,-2.98718 1.3577,-1.3577 -3.80673,-5.84407 -10.06034,-8.73947 -5.72404,-2.6502 -18.5501,-2.77188 -24.27228,-0.23026 -5.46012,2.42522 -11.48382,8.24663 -14.5554,14.06661 -2.42759,4.59975 -2.67232,6.07083 -2.67232,16.06346 0,10.29071 0.20541,11.43362 3.18565,17.72477 6.16827,13.02092 17.4441,20.72512 31.56872,21.56927 4.64519,0.27762 9.55693,-0.0412 12.25,-0.79526 l 4.49563,-1.2587 v -8.70467 -8.70466 l -8.25,0.38573 -8.25,0.38573 4,-2.54598 c 3.73262,-2.3758 4.83051,-2.54633 16.42431,-2.55111 l 12.42432,-0.005 -2.17432,2.31445 c -1.91808,2.04159 -2.17431,3.43622 -2.17431,11.83458 v 9.52025 l -10.25,2.32539 c -13.08337,2.96818 -29.99634,3.62361 -37.72576,1.462 z m 76.47576,-0.33395 c -8.7206,-2.31021 -16.05736,-8.60728 -19.74724,-16.94886 -2.48354,-5.61446 -2.11245,-16.73044 0.75583,-22.64082 2.59437,-5.34595 8.101,-10.67322 14.0685,-13.61025 6.82696,-3.36003 19.91927,-3.46497 26.03938,-0.20871 6.60877,3.51626 10.09413,6.99495 13.03902,13.01408 6.79508,13.88865 0.91614,30.93092 -13.0225,37.75045 -5.64179,2.76028 -15.86577,4.03948 -21.13299,2.64411 z m 17.65574,-5.87452 c 1.46066,-0.8625 3.65004,-3.33729 4.86529,-5.49953 1.94441,-3.45961 2.16094,-5.04256 1.80452,-13.19181 -0.34763,-7.94844 -0.86443,-10.19365 -3.64764,-15.84715 -5.20882,-10.58061 -13.4426,-14.12863 -22.07257,-9.51128 -6.69037,3.57958 -8.31104,7.34215 -7.88308,18.30145 0.2937,7.52139 0.85982,10.08572 3.44586,15.60855 3.03846,6.48904 7.49378,11.0844 11.83188,12.20375 2.9084,0.75045 8.59469,-0.25647 11.65574,-2.06398 z m 43.64747,5.41157 c -12.09248,-3.40801 -20.77863,-14.57115 -20.79763,-26.72839 -0.0241,-15.39995 14.1727,-28.9315 30.35379,-28.9315 8.17597,0 14.3758,2.60473 20.29949,8.52842 10.77643,10.77643 11.13728,26.80857 0.86068,38.23862 -7.41965,8.25244 -20.03217,11.90396 -30.71633,8.89285 z m 17.21202,-4.90989 c 6.50946,-3.29945 8.49602,-7.36105 8.43711,-17.25 -0.10934,-18.35299 -9.20055,-30.81456 -21.17088,-29.0195 -9.22514,1.3834 -14.04336,9.22117 -12.95166,21.06842 1.12949,12.2574 6.11012,21.9748 13.01495,25.39267 5.27873,2.61295 7.19457,2.58398 12.67048,-0.19159 z m 122.22819,4.58553 c -5.9312,-2.0993 -12.64893,-9.13068 -15.17581,-15.88438 -2.906,-7.76697 -2.78353,-17.37173 0.30609,-24.00676 5.98544,-12.85384 22.40365,-18.92694 34.99252,-12.94374 4.03228,1.91646 9.63378,8.58561 9.63378,11.47 0,2.18723 -26.84749,13.02935 -32.26358,13.02935 -4.5387,0 -4.60618,0.65817 -0.87599,8.543 2.98822,6.31645 7.41198,10.8266 12.85745,13.10854 4.27391,1.79099 12.47778,1.71137 16.96778,-0.16467 1.99178,-0.83222 3.79884,-1.3357 4.0157,-1.11885 0.8961,0.89611 -7.97552,7.39754 -11.5598,8.47142 -5.21351,1.56201 -13.70063,1.3357 -18.89814,-0.50391 z m 6.71809,-34.88341 c 5.20384,-2.29661 9.91631,-4.89664 10.47216,-5.77785 1.38713,-2.19906 -1.94337,-6.6181 -6.81044,-9.03636 -3.56033,-1.769 -3.96757,-1.77812 -8.14562,-0.18251 -2.81022,1.07323 -5.09615,2.8285 -6.33203,4.86209 -2.2208,3.65424 -3.60183,10.66963 -2.67516,13.58931 0.72379,2.28047 0.181,2.41946 13.49109,-3.45468 z m -46.74593,32.79788 c 1.28079,-1.46923 1.63428,-7.71678 2.20323,-38.94014 l 0.67767,-37.19015 -4.29824,-0.30985 -4.29824,-0.30986 4.21016,-2.25 c 3.43451,-1.835478 5.80389,-2.249998 12.86079,-2.249998 8.64356,0 8.64871,0.002 6.3134,1.89257 -3.10346,2.513028 -3.70142,9.959448 -3.80483,47.382178 l -0.0795,28.77475 2.5651,0.97525 c 1.4108,0.53639 3.7159,0.97525 5.12244,0.97525 2.15982,0 2.36383,0.23317 1.31246,1.5 -0.97488,1.17466 -3.74623,1.5 -12.77743,1.5 -10.89787,0 -11.44859,-0.0963 -10.00699,-1.75 z"
       id="path3794"
       inkscape:connector-curvature="0" />
    <path
       style="fill:#f9c9a5"
       d="m 69.970154,284.27498 v -12.75487 l 38.609976,-38.49513 38.60998,-38.49513 -0.54637,23.74325 -0.54636,23.74325 11.10143,10.08812 11.10143,10.08812 51.83496,-51.82776 51.83495,-51.82777 v 69.2464 69.24639 h -101 -100.999996 z m 417.249996,7.13844 c -0.6875,-0.30263 -1.25,-1.23652 -1.25,-2.07531 0,-1.11786 0.65223,-1.36138 2.4427,-0.912 4.16869,1.04628 7.19461,-1.19669 9.97619,-7.39486 1.41961,-3.16332 2.58108,-6.14522 2.58103,-6.62645 -4e-5,-0.48122 -3.32032,-9.53745 -7.37839,-20.12495 -6.2252,-16.24151 -7.10341,-19.25 -5.61925,-19.25 1.33771,0 2.9613,3.17378 6.77819,13.25 2.76052,7.2875 5.58545,15.1625 6.27762,17.5 1.14331,3.86103 2.94191,5.80805 2.94191,3.18466 0,-0.58594 2.76475,-8.46094 6.14389,-17.5 4.89766,-13.10105 6.51874,-16.43466 7.9919,-16.43466 1.73376,0 1.75587,0.23186 0.35774,3.75 -0.81965,2.0625 -5.29319,13.61696 -9.9412,25.67657 -5.03755,13.0703 -9.40191,22.87755 -10.80538,24.28103 -2.30768,2.30767 -8.02342,3.76478 -10.49695,2.67597 z m -43.8717,-17.82049 c -8.97609,-3.90661 -8.34007,-16.19361 1.0396,-20.0837 1.69516,-0.70304 6.62162,-1.60625 10.94769,-2.00714 l 7.86559,-0.72888 -0.49733,-4.41226 c -0.90139,-7.99709 -6.57293,-10.938 -15.45489,-8.01395 -2.58115,0.84975 -5.04984,1.32446 -5.48598,1.05491 -4.46505,-2.75956 10.07081,-6.56221 16.70943,-4.37126 6.53535,2.15686 7.48955,5.11718 7.49385,23.2492 0.002,10.09186 -0.36449,15.75 -1.02126,15.75 -0.56375,0 -1.30009,-1.37543 -1.6363,-3.05651 l -0.6113,-3.0565 -2.68898,2.5762 c -4.49862,4.30995 -11.07028,5.53272 -16.66012,3.09989 z m 12.19756,-3.45819 c 4.68978,-2.13001 7.42414,-6.78895 7.42414,-12.64962 v -3.74247 l -6.82384,0.63421 c -12.21494,1.13526 -15.17616,3.07328 -15.17616,9.93226 0,6.79334 6.61981,9.43912 14.57586,5.82562 z m 77.31863,3.78099 c -4.15915,-1.52641 -4.89449,-4.67135 -4.89449,-20.93293 v -14.95295 h -3.08333 c -3.63187,0 -3.54755,-2.14287 0.11837,-3.00827 1.79169,-0.42296 2.64583,-1.59678 3.42586,-4.70803 1.53446,-6.12042 2.5391,-6.29861 2.5391,-0.45037 v 5.16667 h 6 c 4.66667,0 6,0.33333 6,1.5 0,1.16667 -1.33333,1.5 -6,1.5 h -6 v 14.54545 c 0,14.29255 0.0448,14.5902 2.57347,17.11893 2.0892,2.0892 3.21824,2.46883 6,2.01741 2.46335,-0.39975 3.42653,-0.18216 3.42653,0.77409 0,2.51835 -5.15308,3.24755 -10.10551,1.43 z m 40.01908,0.21343 c -8.02306,-2.60212 -11.91357,-8.9528 -11.91357,-19.44715 0,-3.69402 0.60797,-8.17147 1.35104,-9.9499 2.06785,-4.94905 7.81766,-9.45505 13.07001,-10.24269 5.80268,-0.87017 11.95747,0.55188 12.40307,2.8657 0.28455,1.47754 -0.10775,1.62924 -2.49322,0.96409 -4.68778,-1.30712 -11.72692,-0.73121 -14.67536,1.20068 -4.35971,2.85659 -6.0994,7.117 -6.12915,15.00996 -0.0506,13.41307 7.13411,19.19496 20.22361,16.275 2.47786,-0.55275 3.25,-0.38859 3.25,0.69098 0,0.77879 -0.38908,1.65645 -0.86463,1.95036 -1.67096,1.03271 -11.66383,1.5126 -14.2218,0.68297 z m 25.33643,-0.26525 c -3.30684,-0.74054 -4.25,-1.40628 -4.25,-2.9999 0,-1.56478 0.413,-1.87416 1.75,-1.31094 9.73458,4.10072 22.25,1.14547 22.25,-5.25388 0,-3.26356 -3.15357,-5.8373 -11.40652,-9.30927 -8.80699,-3.70505 -11.59348,-6.27682 -11.59348,-10.70013 0,-4.94178 1.42437,-6.87469 6.49224,-8.81013 6.55447,-2.50317 18.50776,-1.03466 18.50776,2.27376 0,1.12813 -0.69489,1.35534 -2.75,0.89917 -7.77567,-1.72597 -11.81293,-1.70785 -15.25,0.0684 -7.24947,3.74657 -4.32343,9.4819 7.05585,13.83016 9.10059,3.47753 11.94415,6.20973 11.94415,11.47637 0,8.62388 -9.61004,12.77895 -22.75,9.83635 z m -249.25,-0.32555 c 0,-1.16988 20.24667,-51.09913 21.06279,-51.94184 0.49713,-0.51334 1.17771,-0.6595 1.5124,-0.32482 0.75382,0.75383 20.42481,50.75474 20.42481,51.91703 0,0.46262 -0.78774,0.84112 -1.75052,0.84112 -1.28822,0 -2.67756,-2.44291 -5.26072,-9.25 l -3.5102,-9.25 h -10.86493 -10.86492 l -3.62436,9.24752 c -2.64776,6.75574 -4.09589,9.24819 -5.37435,9.25 -0.9625,10e-4 -1.75,-0.21869 -1.75,-0.48901 z m 30.52343,-23.25851 c -0.37979,-0.9625 -2.28232,-6.025 -4.22782,-11.25 -1.94551,-5.225 -3.82627,-9.82086 -4.17946,-10.21302 -0.3532,-0.39216 -2.72177,4.67034 -5.26348,11.25 l -4.62129,11.96302 h 9.4913 c 8.63573,0 9.42905,-0.15775 8.80075,-1.75 z m 19.47657,4.25 c 0,-16.66667 0.21795,-19.5 1.5,-19.5 0.94707,0 1.5,0.95432 1.5,2.58889 v 2.5889 l 3.00475,-2.52834 c 6.30459,-5.30495 18.34696,-4.40065 22.03934,1.65502 1.71301,2.80942 1.94889,5.09856 1.95217,18.94553 0.003,13.33499 -0.22626,15.75 -1.49626,15.75 -1.2646,0 -1.5,-2.2833 -1.5,-14.54966 0,-17.25838 -0.80693,-19.713 -7.10034,-21.59855 -5.1951,-1.55649 -11.24211,0.3315 -14.30907,4.46755 -1.85066,2.49576 -2.12775,4.47553 -2.41436,17.25 -0.26201,11.67749 -0.59588,14.43066 -1.75,14.43066 -1.18621,0 -1.42623,-3.28163 -1.42623,-19.5 z m 78,-8.5 c 0,-24.22222 0.20238,-28 1.5,-28 1.29762,0 1.5,3.77778 1.5,28 0,24.22222 -0.20238,28 -1.5,28 -1.29762,0 -1.5,-3.77778 -1.5,-28 z m 73,8.5 c 0,-16.66667 0.21795,-19.5 1.5,-19.5 1.28205,0 1.5,2.83333 1.5,19.5 0,16.66667 -0.21795,19.5 -1.5,19.5 -1.28205,0 -1.5,-2.83333 -1.5,-19.5 z m -0.34279,-28.95091 c -0.87668,-2.28458 0.35616,-4.69316 2.21862,-4.33449 0.97665,0.18809 1.62417,1.29856 1.62417,2.7854 0,2.81428 -2.90752,3.98635 -3.84279,1.54909 z M 69.970154,160.77303 V 95.029852 h 100.999996 101 v 10.962888 10.96288 l -50.43965,50.78712 -50.43966,50.78711 -23.30565,-23.248 -23.30565,-23.24799 -27.254693,27.24118 -27.254693,27.24117 z m 463.754336,54.72133 c -5.9737,-1.91648 -11.43598,-7.2506 -12.33565,-12.04623 -2.11252,-11.26071 7.93673,-20.03158 25.2884,-22.07142 l 5.20709,-0.61214 -1.56281,-3.02215 c -0.93858,-1.815 -1.35339,-4.31267 -1.03851,-6.25306 l 0.5243,-3.23091 -5.82081,-0.42104 c -17.13807,-1.23965 -23.02003,-22.41608 -9.35495,-33.67999 5.92695,-4.88549 11.75088,-6.12802 28.70343,-6.12383 l 15.13517,0.004 -3.27417,1.99626 c -1.80079,1.09768 -4.92248,1.996 -6.93709,1.996 h -3.66292 l 2.63404,2.75 c 1.44872,1.5125 3.33292,4.42305 4.18709,6.46788 3.24156,7.76005 1.30858,14.30706 -6.42476,21.76074 -6.89944,6.64993 -6.70833,8.10409 2.10168,15.99189 3.91812,3.50798 7.74312,7.86025 8.5,9.6717 4.05303,9.70027 -1.57965,20.31622 -13.62387,25.67704 -6.02324,2.68092 -21.50264,3.30855 -28.24566,1.14526 z m 27.60988,-4.84333 c 6.77117,-2.82918 9.5274,-10.09979 6.225,-16.42084 -0.77593,-1.48519 -3.71903,-4.45005 -6.54024,-6.58859 -4.99567,-3.78683 -5.28734,-3.87175 -11.18235,-3.2556 -12.45685,1.302 -19.47928,6.99253 -18.50112,14.99214 0.93562,7.65185 8.72845,12.59352 19.91661,12.62975 3.73016,0.0121 8.26711,-0.59851 10.0821,-1.35686 z m -3.07147,-47.63682 c 3.39371,-2.66949 5.05534,-7.94895 4.17185,-13.25509 -2.52824,-15.18431 -13.16271,-22.44209 -21.69882,-14.80896 -3.09,2.76313 -3.26453,3.28793 -3.24247,9.75 0.0395,11.57483 6.26847,20.24182 14.59183,20.30308 2.14414,0.0158 4.65781,-0.79356 6.17761,-1.98903 z m -210.53265,19.4578 c -12.30863,-2.98331 -19.9811,-9.06364 -25.48217,-20.19431 -3.64893,-7.38311 -3.77793,-8.00443 -3.77793,-18.19599 0,-9.71315 0.24496,-11.06874 3.08181,-17.05472 8.89103,-18.76076 29.85151,-27.579568 53.59186,-22.54798 6.54908,1.38804 17.82633,6.18691 17.82633,7.58574 0,1.33254 -8.95025,8.9651 -10.51284,8.9651 -1.27916,0 -1.35387,-0.38054 -0.418,-2.12923 0.98197,-1.83482 0.74486,-2.45392 -1.71481,-4.47737 -6.42789,-5.28792 -11.2849,-6.8934 -20.85435,-6.8934 -8.09863,0 -9.53408,0.29584 -14.33272,2.95395 -6.3452,3.51479 -9.58865,7.12692 -13.06139,14.54605 -3.50778,7.49399 -3.5994,20.62044 -0.20439,29.28231 6.08256,15.51873 19.87416,25.10504 36.0985,25.09144 3.575,-0.003 8.1875,-0.57321 10.25,-1.26715 l 3.75,-1.2617 v -9.06919 -9.06918 l -7.5,0.63398 c -4.125,0.34869 -7.5,0.42387 -7.5,0.16706 0,-0.25681 1.78207,-1.37607 3.96016,-2.48725 3.27534,-1.67095 5.89607,-2.02032 15.15499,-2.02032 h 11.19483 l -1.90499,2.1026 c -1.53586,1.69518 -1.97034,3.98044 -2.24225,11.79378 l -0.33727,9.69118 -8.16273,1.76796 c -17.91584,3.88039 -27.3103,4.41159 -36.90264,2.08664 z m 277.95338,-0.80935 c -16.57651,-4.6482 -24.79447,-26.21099 -15.95349,-41.85976 7.6766,-13.58778 26.66354,-17.70929 37.30282,-8.09734 3.64102,3.28944 6.55646,8.82353 5.11703,9.71314 -3.17443,1.96191 -26.73792,10.57229 -30.46,11.13045 -5.54435,0.83143 -5.77071,1.69224 -2.36159,8.9807 3.4186,7.30874 10.06166,13.00296 16.9745,14.54998 4.99085,1.11691 6.253,1.03762 11.64982,-0.73182 l 6.05255,-1.98445 -2.18356,2.3243 c -5.4,5.74804 -17.27027,8.46142 -26.13808,5.9748 z m 3.78652,-34.53712 c 11.58654,-5.08668 12.94656,-6.52425 10.49897,-11.09762 -1.53633,-2.87065 -6.8952,-5.98979 -10.29863,-5.99433 -3.87987,-0.005 -8.13485,2.39337 -10.74263,6.05566 -2.72269,3.82366 -4.13098,15.96496 -1.84462,15.90303 0.7628,-0.0207 6.33691,-2.2107 12.38691,-4.86674 z m -211.0372,33.37089 c -17.31928,-6.39792 -22.86834,-29.6358 -10.44664,-43.7476 6.02749,-6.84758 13.34063,-10.07313 22.85764,-10.08162 8.8995,-0.008 13.06953,1.50976 19.08818,6.94726 6.67678,6.03207 8.51402,10.4375 8.51402,20.41538 0,6.79658 -0.43152,9.30161 -2.15326,12.5 -2.5786,4.79011 -8.50439,10.60444 -13.32274,13.07215 -4.73553,2.42529 -18.98687,2.94478 -24.5372,0.89443 z m 22.36169,-4.18148 c 6.47124,-4.82327 8.43526,-13.52514 5.76331,-25.53507 -1.90913,-8.58117 -6.0804,-15.8338 -10.81712,-18.80782 -4.18084,-2.62501 -12.54348,-2.24731 -16.56215,0.74803 -5.08088,3.78706 -6.72081,7.96916 -6.59165,16.80976 0.18306,12.5294 4.89706,22.69733 12.8405,27.69648 3.843,2.41857 11.50945,1.9639 15.36711,-0.91138 z m 38.67551,3.32759 c -18.66765,-8.84014 -21.44363,-34.37967 -5.08104,-46.74653 9.25763,-6.99693 21.93206,-8.37539 31.94868,-3.47472 9.71901,4.75507 14.98413,13.40439 15.02204,24.67761 0.0397,11.81818 -7.48331,22.73044 -18.18441,26.37667 -7.03756,2.39794 -17.67159,2.02425 -23.70527,-0.83303 z m 22.51017,-2.86269 c 5.718,-3.89164 7.38569,-7.064 7.82794,-14.89069 0.72025,-12.74675 -4.29619,-25.11928 -12.11835,-29.88866 -6.91717,-4.21759 -17.03575,-1.19191 -20.81988,6.2256 -4.37074,8.56735 -0.93324,27.70685 6.4079,35.6783 4.92572,5.34865 13.19946,6.62071 18.70239,2.87545 z m 82.36793,1.48573 c 1.14298,-2.21028 1.49884,-10.12645 1.77568,-39.50032 l 0.34622,-36.73606 -4,-0.0806 -4,-0.0806 4,-1.892818 c 2.85485,-1.35094 6.26862,-1.90034 11.92431,-1.91906 l 7.92432,-0.0262 -2.42432,2.579238 -2.42431,2.57925 -0.31821,35.98611 c -0.23668,26.76646 -0.0132,36.35366 0.87245,37.42075 0.67222,0.80998 2.98785,1.4485 5.3182,1.46645 3.84639,0.0296 3.99533,0.13182 2.18643,1.5 -1.41599,1.071 -4.73699,1.4682 -12.27568,1.4682 h -10.33455 l 1.42946,-2.76427 z"
       id="path3792"
       inkscape:connector-curvature="0" />
    <path
       style="fill:#adadad"
       d="m 69.970154,284.27498 v -12.75487 l 38.299526,-38.28984 38.29952,-38.28983 -0.3272,23.7947 -0.3272,23.79471 11.10853,9.91551 11.10854,9.91551 51.17275,-51.16551 c 28.14501,-28.14103 51.50862,-51.16551 51.91914,-51.16551 0.41051,0 0.74639,30.825 0.74639,68.5 v 68.5 h -101 -100.999996 z m 417.249996,7.13844 c -0.6875,-0.30263 -1.25,-1.23652 -1.25,-2.07531 0,-1.11786 0.65223,-1.36138 2.4427,-0.912 4.16869,1.04628 7.19461,-1.19669 9.97619,-7.39486 1.41961,-3.16332 2.58108,-6.14522 2.58103,-6.62645 -4e-5,-0.48122 -3.32032,-9.53745 -7.37839,-20.12495 -6.2252,-16.24151 -7.10341,-19.25 -5.61925,-19.25 1.33771,0 2.9613,3.17378 6.77819,13.25 2.76052,7.2875 5.58545,15.1625 6.27762,17.5 1.14331,3.86103 2.94191,5.80805 2.94191,3.18466 0,-0.58594 2.76475,-8.46094 6.14389,-17.5 4.89766,-13.10105 6.51874,-16.43466 7.9919,-16.43466 1.73376,0 1.75587,0.23186 0.35774,3.75 -0.81965,2.0625 -5.29319,13.61696 -9.9412,25.67657 -5.03755,13.0703 -9.40191,22.87755 -10.80538,24.28103 -2.30768,2.30767 -8.02342,3.76478 -10.49695,2.67597 z m -43.8717,-17.82049 c -8.97609,-3.90661 -8.34007,-16.19361 1.0396,-20.0837 1.69516,-0.70304 6.62162,-1.60625 10.94769,-2.00714 l 7.86559,-0.72888 -0.49733,-4.41226 c -0.90139,-7.99709 -6.57293,-10.938 -15.45489,-8.01395 -2.58115,0.84975 -5.04984,1.32446 -5.48598,1.05491 -4.46505,-2.75956 10.07081,-6.56221 16.70943,-4.37126 6.53535,2.15686 7.48955,5.11718 7.49385,23.2492 0.002,10.09186 -0.36449,15.75 -1.02126,15.75 -0.56375,0 -1.30009,-1.37543 -1.6363,-3.05651 l -0.6113,-3.0565 -2.68898,2.5762 c -4.49862,4.30995 -11.07028,5.53272 -16.66012,3.09989 z m 12.19756,-3.45819 c 4.68978,-2.13001 7.42414,-6.78895 7.42414,-12.64962 v -3.74247 l -6.82384,0.63421 c -12.21494,1.13526 -15.17616,3.07328 -15.17616,9.93226 0,6.79334 6.61981,9.43912 14.57586,5.82562 z m 77.31863,3.78099 c -4.15915,-1.52641 -4.89449,-4.67135 -4.89449,-20.93293 v -14.95295 h -3.08333 c -3.63187,0 -3.54755,-2.14287 0.11837,-3.00827 1.79169,-0.42296 2.64583,-1.59678 3.42586,-4.70803 1.53446,-6.12042 2.5391,-6.29861 2.5391,-0.45037 v 5.16667 h 6 c 4.66667,0 6,0.33333 6,1.5 0,1.16667 -1.33333,1.5 -6,1.5 h -6 v 14.54545 c 0,14.29255 0.0448,14.5902 2.57347,17.11893 2.0892,2.0892 3.21824,2.46883 6,2.01741 2.46335,-0.39975 3.42653,-0.18216 3.42653,0.77409 0,2.51835 -5.15308,3.24755 -10.10551,1.43 z m 40.01908,0.21343 c -8.02306,-2.60212 -11.91357,-8.9528 -11.91357,-19.44715 0,-3.69402 0.60797,-8.17147 1.35104,-9.9499 2.06785,-4.94905 7.81766,-9.45505 13.07001,-10.24269 5.80268,-0.87017 11.95747,0.55188 12.40307,2.8657 0.28455,1.47754 -0.10775,1.62924 -2.49322,0.96409 -4.68778,-1.30712 -11.72692,-0.73121 -14.67536,1.20068 -4.35971,2.85659 -6.0994,7.117 -6.12915,15.00996 -0.0506,13.41307 7.13411,19.19496 20.22361,16.275 2.47786,-0.55275 3.25,-0.38859 3.25,0.69098 0,0.77879 -0.38908,1.65645 -0.86463,1.95036 -1.67096,1.03271 -11.66383,1.5126 -14.2218,0.68297 z m 25.33643,-0.26525 c -3.30684,-0.74054 -4.25,-1.40628 -4.25,-2.9999 0,-1.56478 0.413,-1.87416 1.75,-1.31094 9.73458,4.10072 22.25,1.14547 22.25,-5.25388 0,-3.26356 -3.15357,-5.8373 -11.40652,-9.30927 -8.80699,-3.70505 -11.59348,-6.27682 -11.59348,-10.70013 0,-4.94178 1.42437,-6.87469 6.49224,-8.81013 6.55447,-2.50317 18.50776,-1.03466 18.50776,2.27376 0,1.12813 -0.69489,1.35534 -2.75,0.89917 -7.77567,-1.72597 -11.81293,-1.70785 -15.25,0.0684 -7.24947,3.74657 -4.32343,9.4819 7.05585,13.83016 9.10059,3.47753 11.94415,6.20973 11.94415,11.47637 0,8.62388 -9.61004,12.77895 -22.75,9.83635 z m -249.25,-0.32555 c 0,-1.16988 20.24667,-51.09913 21.06279,-51.94184 0.49713,-0.51334 1.17771,-0.6595 1.5124,-0.32482 0.75382,0.75383 20.42481,50.75474 20.42481,51.91703 0,0.46262 -0.78774,0.84112 -1.75052,0.84112 -1.28822,0 -2.67756,-2.44291 -5.26072,-9.25 l -3.5102,-9.25 h -10.86493 -10.86492 l -3.62436,9.24752 c -2.64776,6.75574 -4.09589,9.24819 -5.37435,9.25 -0.9625,10e-4 -1.75,-0.21869 -1.75,-0.48901 z m 30.52343,-23.25851 c -0.37979,-0.9625 -2.28232,-6.025 -4.22782,-11.25 -1.94551,-5.225 -3.82627,-9.82086 -4.17946,-10.21302 -0.3532,-0.39216 -2.72177,4.67034 -5.26348,11.25 l -4.62129,11.96302 h 9.4913 c 8.63573,0 9.42905,-0.15775 8.80075,-1.75 z m 19.47657,4.25 c 0,-16.66667 0.21795,-19.5 1.5,-19.5 0.94707,0 1.5,0.95432 1.5,2.58889 v 2.5889 l 3.00475,-2.52834 c 6.30459,-5.30495 18.34696,-4.40065 22.03934,1.65502 1.71301,2.80942 1.94889,5.09856 1.95217,18.94553 0.003,13.33499 -0.22626,15.75 -1.49626,15.75 -1.2646,0 -1.5,-2.2833 -1.5,-14.54966 0,-17.25838 -0.80693,-19.713 -7.10034,-21.59855 -5.1951,-1.55649 -11.24211,0.3315 -14.30907,4.46755 -1.85066,2.49576 -2.12775,4.47553 -2.41436,17.25 -0.26201,11.67749 -0.59588,14.43066 -1.75,14.43066 -1.18621,0 -1.42623,-3.28163 -1.42623,-19.5 z m 78,-8.5 c 0,-24.22222 0.20238,-28 1.5,-28 1.29762,0 1.5,3.77778 1.5,28 0,24.22222 -0.20238,28 -1.5,28 -1.29762,0 -1.5,-3.77778 -1.5,-28 z m 73,8.5 c 0,-16.66667 0.21795,-19.5 1.5,-19.5 1.28205,0 1.5,2.83333 1.5,19.5 0,16.66667 -0.21795,19.5 -1.5,19.5 -1.28205,0 -1.5,-2.83333 -1.5,-19.5 z m -0.34279,-28.95091 c -0.87668,-2.28458 0.35616,-4.69316 2.21862,-4.33449 0.97665,0.18809 1.62417,1.29856 1.62417,2.7854 0,2.81428 -2.90752,3.98635 -3.84279,1.54909 z M 69.970154,160.77303 V 95.029852 h 100.999996 101 l -0.0544,10.749998 -0.0544,10.75 -50.44401,50.99886 -50.444,50.99887 -23.24695,-23.24686 -23.24685,-23.24686 -27.254693,27.24118 -27.254693,27.24117 z m 463.754336,54.72133 c -5.9737,-1.91648 -11.43598,-7.2506 -12.33565,-12.04623 -2.11252,-11.26071 7.93673,-20.03158 25.2884,-22.07142 l 5.20709,-0.61214 -1.56281,-3.02215 c -0.93858,-1.815 -1.35339,-4.31267 -1.03851,-6.25306 l 0.5243,-3.23091 -5.82081,-0.42104 c -17.13807,-1.23965 -23.02003,-22.41608 -9.35495,-33.67999 5.92695,-4.88549 11.75088,-6.12802 28.70343,-6.12383 l 15.13517,0.004 -3.27417,1.99626 c -1.80079,1.09768 -4.92248,1.996 -6.93709,1.996 h -3.66292 l 2.63404,2.75 c 1.44872,1.5125 3.33292,4.42305 4.18709,6.46788 3.24156,7.76005 1.30858,14.30706 -6.42476,21.76074 -6.89944,6.64993 -6.70833,8.10409 2.10168,15.99189 3.91812,3.50798 7.74312,7.86025 8.5,9.6717 4.05303,9.70027 -1.57965,20.31622 -13.62387,25.67704 -6.02324,2.68092 -21.50264,3.30855 -28.24566,1.14526 z m 27.60988,-4.84333 c 6.77117,-2.82918 9.5274,-10.09979 6.225,-16.42084 -0.77593,-1.48519 -3.71903,-4.45005 -6.54024,-6.58859 -4.99567,-3.78683 -5.28734,-3.87175 -11.18235,-3.2556 -12.45685,1.302 -19.47928,6.99253 -18.50112,14.99214 0.93562,7.65185 8.72845,12.59352 19.91661,12.62975 3.73016,0.0121 8.26711,-0.59851 10.0821,-1.35686 z m -3.07147,-47.63682 c 3.39371,-2.66949 5.05534,-7.94895 4.17185,-13.25509 -2.52824,-15.18431 -13.16271,-22.44209 -21.69882,-14.80896 -3.09,2.76313 -3.26453,3.28793 -3.24247,9.75 0.0395,11.57483 6.26847,20.24182 14.59183,20.30308 2.14414,0.0158 4.65781,-0.79356 6.17761,-1.98903 z m -210.53265,19.4578 c -12.30863,-2.98331 -19.9811,-9.06364 -25.48217,-20.19431 -3.64893,-7.38311 -3.77793,-8.00443 -3.77793,-18.19599 0,-9.71315 0.24496,-11.06874 3.08181,-17.05472 8.89103,-18.76076 29.85151,-27.579568 53.59186,-22.54798 6.54908,1.38804 17.82633,6.18691 17.82633,7.58574 0,1.33254 -8.95025,8.9651 -10.51284,8.9651 -1.27916,0 -1.35387,-0.38054 -0.418,-2.12923 0.98197,-1.83482 0.74486,-2.45392 -1.71481,-4.47737 -6.42789,-5.28792 -11.2849,-6.8934 -20.85435,-6.8934 -8.09863,0 -9.53408,0.29584 -14.33272,2.95395 -6.3452,3.51479 -9.58865,7.12692 -13.06139,14.54605 -3.50778,7.49399 -3.5994,20.62044 -0.20439,29.28231 6.08256,15.51873 19.87416,25.10504 36.0985,25.09144 3.575,-0.003 8.1875,-0.57321 10.25,-1.26715 l 3.75,-1.2617 v -9.06919 -9.06918 l -7.5,0.63398 c -4.125,0.34869 -7.5,0.42387 -7.5,0.16706 0,-0.25681 1.78207,-1.37607 3.96016,-2.48725 3.27534,-1.67095 5.89607,-2.02032 15.15499,-2.02032 h 11.19483 l -1.90499,2.1026 c -1.53586,1.69518 -1.97034,3.98044 -2.24225,11.79378 l -0.33727,9.69118 -8.16273,1.76796 c -17.91584,3.88039 -27.3103,4.41159 -36.90264,2.08664 z m 277.95338,-0.80935 c -16.57651,-4.6482 -24.79447,-26.21099 -15.95349,-41.85976 7.6766,-13.58778 26.66354,-17.70929 37.30282,-8.09734 3.64102,3.28944 6.55646,8.82353 5.11703,9.71314 -3.17443,1.96191 -26.73792,10.57229 -30.46,11.13045 -5.54435,0.83143 -5.77071,1.69224 -2.36159,8.9807 3.4186,7.30874 10.06166,13.00296 16.9745,14.54998 4.99085,1.11691 6.253,1.03762 11.64982,-0.73182 l 6.05255,-1.98445 -2.18356,2.3243 c -5.4,5.74804 -17.27027,8.46142 -26.13808,5.9748 z m 3.78652,-34.53712 c 11.58654,-5.08668 12.94656,-6.52425 10.49897,-11.09762 -1.53633,-2.87065 -6.8952,-5.98979 -10.29863,-5.99433 -3.87987,-0.005 -8.13485,2.39337 -10.74263,6.05566 -2.72269,3.82366 -4.13098,15.96496 -1.84462,15.90303 0.7628,-0.0207 6.33691,-2.2107 12.38691,-4.86674 z m -211.0372,33.37089 c -17.31928,-6.39792 -22.86834,-29.6358 -10.44664,-43.7476 6.02749,-6.84758 13.34063,-10.07313 22.85764,-10.08162 8.8995,-0.008 13.06953,1.50976 19.08818,6.94726 6.67678,6.03207 8.51402,10.4375 8.51402,20.41538 0,6.79658 -0.43152,9.30161 -2.15326,12.5 -2.5786,4.79011 -8.50439,10.60444 -13.32274,13.07215 -4.73553,2.42529 -18.98687,2.94478 -24.5372,0.89443 z m 22.36169,-4.18148 c 6.47124,-4.82327 8.43526,-13.52514 5.76331,-25.53507 -1.90913,-8.58117 -6.0804,-15.8338 -10.81712,-18.80782 -4.18084,-2.62501 -12.54348,-2.24731 -16.56215,0.74803 -5.08088,3.78706 -6.72081,7.96916 -6.59165,16.80976 0.18306,12.5294 4.89706,22.69733 12.8405,27.69648 3.843,2.41857 11.50945,1.9639 15.36711,-0.91138 z m 38.67551,3.32759 c -18.66765,-8.84014 -21.44363,-34.37967 -5.08104,-46.74653 9.25763,-6.99693 21.93206,-8.37539 31.94868,-3.47472 9.71901,4.75507 14.98413,13.40439 15.02204,24.67761 0.0397,11.81818 -7.48331,22.73044 -18.18441,26.37667 -7.03756,2.39794 -17.67159,2.02425 -23.70527,-0.83303 z m 22.51017,-2.86269 c 5.718,-3.89164 7.38569,-7.064 7.82794,-14.89069 0.72025,-12.74675 -4.29619,-25.11928 -12.11835,-29.88866 -6.91717,-4.21759 -17.03575,-1.19191 -20.81988,6.2256 -4.37074,8.56735 -0.93324,27.70685 6.4079,35.6783 4.92572,5.34865 13.19946,6.62071 18.70239,2.87545 z m 82.36793,1.48573 c 1.14298,-2.21028 1.49884,-10.12645 1.77568,-39.50032 l 0.34622,-36.73606 -4,-0.0806 -4,-0.0806 4,-1.892818 c 2.85485,-1.35094 6.26862,-1.90034 11.92431,-1.91906 l 7.92432,-0.0262 -2.42432,2.579238 -2.42431,2.57925 -0.31821,35.98611 c -0.23668,26.76646 -0.0132,36.35366 0.87245,37.42075 0.67222,0.80998 2.98785,1.4485 5.3182,1.46645 3.84639,0.0296 3.99533,0.13182 2.18643,1.5 -1.41599,1.071 -4.73699,1.4682 -12.27568,1.4682 h -10.33455 l 1.42946,-2.76427 z"
       id="path3790"
       inkscape:connector-curvature="0" />
    <path
       style="fill:#f7ac41"
       d="m 69.970154,284.27498 v -12.75487 l 38.299526,-38.28984 38.29952,-38.28983 -0.3272,23.7947 -0.3272,23.79471 11.10853,9.91551 11.10854,9.91551 51.17275,-51.16551 c 28.14501,-28.14103 51.50862,-51.16551 51.91914,-51.16551 0.41051,0 0.74639,30.825 0.74639,68.5 v 68.5 h -101 -100.999996 z m 416.999996,5.75487 c 0,-0.55 1.15458,-1 2.56574,-1 1.41116,0 3.47777,-0.4881 4.59248,-1.08468 2.04796,-1.09603 6.84178,-10.6117 6.84178,-13.58085 0,-0.88467 -3.15,-9.84145 -7,-19.90396 -3.85,-10.06251 -7,-18.55086 -7,-18.86299 0,-0.31214 0.57451,-0.56752 1.27669,-0.56752 0.7402,0 3.99691,7.35014 7.75,17.49113 3.56032,9.62012 6.76851,17.49512 7.12931,17.5 0.3608,0.005 1.37543,-2.12863 2.25473,-4.74113 5.06646,-15.05294 11.2571,-30.22187 12.33927,-30.23492 0.6875,-0.008 1.25,0.33432 1.25,0.76137 0,1.18222 -17.58028,46.51122 -19.41427,50.05776 -0.88354,1.70858 -2.47219,3.56984 -3.53034,4.13615 -2.46556,1.31952 -9.05539,1.3411 -9.05539,0.0296 z m -138,-16.19551 c 0,-1.48288 20.98209,-52.29852 21.6921,-52.53519 0.99399,-0.33133 21.68749,51.68444 20.8821,52.48983 -1.44772,1.44772 -3.43811,-1.48141 -6.5742,-9.67486 l -3.5,-9.14421 -10.93662,0.27997 -10.93662,0.27997 -3.62821,8.99879 c -2.30645,5.72054 -4.24211,9.11702 -5.31338,9.32332 -0.92684,0.1785 -1.68517,0.17057 -1.68517,-0.0176 z m 31,-21.78102 c 0,-0.82398 -1.89531,-6.13461 -8.21686,-23.02347 -0.83418,-2.22862 -1.46074,-1.14454 -5.77204,9.98692 -2.65996,6.8678 -4.62406,12.8303 -4.36468,13.25 0.70511,1.14088 18.35358,0.93564 18.35358,-0.21345 z m 19,2.47653 c 0,-12.08085 0.37322,-19.5 0.98095,-19.5 0.53952,0 1.25852,1.10594 1.59778,2.45765 l 0.61683,2.45764 2.80557,-2.07424 c 6.00589,-4.44035 16.1474,-4.14483 20.90635,0.60921 2.55011,2.54748 2.59771,2.85943 2.90982,19.06979 0.27786,14.43165 0.1225,16.47995 -1.25,16.47995 -1.35599,0 -1.5673,-2.10016 -1.5673,-15.57692 V 242.876 l -2.92308,-2.92307 c -3.34101,-3.34102 -8.75357,-3.92068 -14.43672,-1.54611 -5.44178,2.27372 -6.6402,6.24864 -6.6402,22.02416 0,11.42122 -0.2402,13.59887 -1.5,13.59887 -1.28205,0 -1.5,-2.83333 -1.5,-19.5 z m 42.36032,18.03983 c -4.64046,-3.25031 -5.52424,-12.27154 -1.55416,-15.8644 3.34226,-3.02471 9.04837,-4.67543 16.16172,-4.67543 h 7.03212 v -3.95295 c 0,-9.69468 -6.63092,-13.41197 -17.19543,-9.63976 -3.00347,1.07244 -3.78789,1.07857 -4.18921,0.0327 -1.13378,-2.95458 13.4385,-4.73951 18.7894,-2.30147 4.58973,2.09122 5.59524,6.18183 5.59524,22.76257 0,14.12914 -0.95949,19.05142 -2.35426,12.07757 l -0.60426,-3.02129 -4.17078,3.02129 c -3.46455,2.50971 -5.12366,3.0213 -9.79823,3.0213 -3.3155,0 -6.48392,-0.59989 -7.71215,-1.46017 z m 14.1499,-1.97965 c 4.44451,-1.85704 7.48124,-6.85069 7.48604,-12.31018 l 0.004,-4.25 -5.25,0.006 c -9.94742,0.0106 -15.95898,2.70662 -17.2177,7.72176 -1.94418,7.7462 6.15183,12.52061 14.97792,8.83284 z m 21.48978,-24.56018 c 0,-24.22222 0.20238,-28 1.5,-28 1.29762,0 1.5,3.77778 1.5,28 0,24.22222 -0.20238,28 -1.5,28 -1.29762,0 -1.5,-3.77778 -1.5,-28 z m 53.07258,25.36514 c -1.89253,-2.40596 -2.07258,-3.96969 -2.07258,-18 v -15.36514 h -3 c -3.86402,0 -3.89508,-1.87098 -0.0438,-2.64123 2.59504,-0.51901 3.03646,-1.12673 3.61354,-4.975 0.85757,-5.71896 2.43026,-5.64374 2.43026,0.11623 v 4.5 h 5.5 c 4.22222,0 5.5,0.34848 5.5,1.5 0,1.15152 -1.27778,1.5 -5.5,1.5 h -5.5 v 15 c 0,13.66667 0.17778,15.17778 2,17 1.33333,1.33333 3.33333,2 6,2 2.2,0 4,0.45 4,1 0,0.55 -2.44234,1 -5.42742,1 -4.67226,0 -5.71579,-0.36661 -7.5,-2.63486 z m 19.92742,-16.86514 c 0,-16.66667 0.21795,-19.5 1.5,-19.5 1.28205,0 1.5,2.83333 1.5,19.5 0,16.66667 -0.21795,19.5 -1.5,19.5 -1.28205,0 -1.5,-2.83333 -1.5,-19.5 z m 18.89788,17.24193 c -10.13397,-6.73455 -10.58165,-26.89565 -0.75604,-34.04788 5.13369,-3.7369 18.95803,-4.13918 19.6438,-0.57162 0.27263,1.4183 -0.24315,1.49541 -4.09956,0.61294 -12.81359,-2.93216 -20.69436,5.01414 -19.38889,19.55013 0.97334,10.83781 8.18435,16.2399 18.7805,14.06931 3.75722,-0.76966 4.92231,-0.71961 4.92231,0.21144 0,1.8055 -2.43526,2.43375 -9.4339,2.43375 -4.83936,0 -7.04578,-0.51532 -9.66822,-2.25807 z m 26.85212,1.17797 c -0.9625,-0.5606 -1.75,-1.61175 -1.75,-2.33587 0,-1.06636 1.02272,-1.03194 5.38088,0.18109 10.06358,2.80106 18.61912,-0.27418 18.61912,-6.69254 0,-3.65949 -3.01416,-6.15492 -11.19056,-9.2647 -8.05733,-3.06449 -11.80944,-6.57047 -11.80944,-11.03478 0,-6.83437 7.22705,-10.1404 18.84304,-8.6198 5.8366,0.76405 7.02954,1.37412 5.56019,2.84347 -0.61793,0.61793 -2.37411,0.57394 -4.89692,-0.12264 -8.27806,-2.28568 -16.50631,0.63375 -16.50631,5.85653 0,3.27906 3.16837,5.84809 11.5,9.32462 3.85,1.60648 8.0125,4.07633 9.25,5.48856 3.9454,4.50246 2.35417,11.22978 -3.28969,13.90797 -3.72907,1.76956 -16.93727,2.08324 -19.71031,0.46809 z m -45.75,-48.9199 c 0,-1.89759 0.51189,-3 1.39301,-3 1.68896,0 2.75784,2.44332 1.96862,4.5 -1.04393,2.72042 -3.36163,1.68623 -3.36163,-1.5 z M 69.970154,160.77303 V 95.029852 h 100.999996 101 l -0.0544,10.749998 -0.0544,10.75 -50.44401,50.99886 -50.444,50.99887 -23.24695,-23.24686 -23.24685,-23.24686 -27.254693,27.24118 -27.254693,27.24117 z m 466.717496,55.22893 c -5.49424,-1.38625 -9.13204,-3.48762 -12.05859,-6.96563 -3.89069,-4.62382 -4.3465,-9.04861 -1.51874,-14.74343 3.16154,-6.36704 9.01185,-9.87813 19.96202,-11.98031 4.6188,-0.8867 8.51226,-1.69001 8.65215,-1.78513 0.13988,-0.0951 -0.45752,-1.59989 -1.32756,-3.34393 -1.01253,-2.02966 -1.34542,-4.24764 -0.92488,-6.16233 0.64942,-2.95681 0.60778,-2.99135 -3.60672,-2.99135 -5.8919,0 -12.4905,-3.43137 -15.58194,-8.10285 -7.89748,-11.9339 0.26136,-27.59105 16.08983,-30.87703 2.8685,-0.5955 11.03879,-0.95614 18.15619,-0.80142 l 12.94074,0.2813 -3.20034,1.75 c -1.76019,0.9625 -4.59389,1.75 -6.29712,1.75 h -3.09679 l 3.12972,3.89452 c 6.85759,8.53335 6.00185,17.06965 -2.61703,26.10564 -6.53026,6.84629 -6.97521,9.66225 -2.17139,13.74213 11.90039,10.10696 14.86691,15.43372 12.81323,23.00771 -2.89787,10.68735 -12.86097,17.20307 -27.24837,17.82003 -4.57155,0.19604 -10.01403,-0.073 -12.09441,-0.59792 z m 25.75832,-5.52766 c 4.3055,-2.04309 6.52418,-5.89203 6.52418,-11.31806 0,-4.55995 -2.55971,-8.16327 -8.9399,-12.58474 -3.70215,-2.56559 -4.63314,-2.76947 -10.49702,-2.29878 -14.57734,1.17013 -22.15483,9.91077 -17.08732,19.71025 4.04699,7.82601 19.94035,11.26498 30.00006,6.49133 z m -5.117,-46.56208 c 6.50819,-2.96533 7.38973,-14.35906 1.86725,-24.13399 -3.89981,-6.90277 -8.69965,-9.52228 -14.3475,-7.83015 -5.93004,1.77669 -8.11673,5.83269 -7.59184,14.08177 0.46635,7.32905 3.21465,13.67603 7.32023,16.90547 2.96269,2.33046 8.79971,2.77762 12.75186,0.9769 z m -205.67093,19.0433 c -13.76017,-2.05798 -26.02742,-11.48059 -30.7782,-23.64109 -3.05181,-7.81167 -3.27104,-21.46279 -0.4661,-29.02358 7.06059,-19.03204 27.72922,-29.87179 50.28373,-26.37152 7.61943,1.18247 16.57802,4.1398 19.8325,6.54694 1.86465,1.37916 1.76662,1.61272 -2.51803,5.9993 -5.01083,5.13005 -6.35596,5.66422 -5.48057,2.1764 0.47734,-1.90189 -0.0897,-2.91342 -2.78601,-4.97 -14.67978,-11.19682 -34.43362,-8.75958 -44.78143,5.52516 -8.64694,11.93676 -7.73804,31.98701 2.03992,45.00025 4.4989,5.98747 13.02028,12.18108 19.28894,14.01981 6.00204,1.76053 19.49604,1.64161 23.17736,-0.20425 2.9503,-1.47933 3.00479,-1.64904 3.28893,-10.24367 l 0.28894,-8.73942 -7.28894,-0.0354 c -6.82601,-0.0332 -7.13016,-0.12623 -4.78893,-1.4646 1.75314,-1.00218 5.90718,-1.43972 13.90499,-1.46456 10.88272,-0.0338 11.33105,0.0463 9.79038,1.74868 -1.19145,1.31654 -1.69071,4.2457 -1.90499,11.17671 l -0.29038,9.3926 -5.5,1.29545 c -13.50183,3.18017 -27.35987,4.46613 -35.31211,3.27679 z m 69.30564,-1.86001 c -7.10999,-2.16276 -14.79261,-8.93665 -17.49553,-15.4261 -5.43001,-13.03689 -0.1483,-27.91815 12.41346,-34.97502 4.47783,-2.51553 6.8152,-3.1137 13.54779,-3.46707 10.30248,-0.54074 16.68789,1.89067 22.59783,8.60471 12.87103,14.62227 6.02132,39.23647 -12.4449,44.72035 -5.24639,1.55801 -14.40406,1.82515 -18.61865,0.54313 z m 17.80613,-3.47065 c 6.92736,-3.6043 9.75281,-10.27101 8.9042,-21.00965 -0.76957,-9.73839 -3.34549,-16.14555 -8.77002,-21.81394 -4.37413,-4.57075 -4.79899,-4.77142 -10.10212,-4.77142 -9.8685,0 -15.98216,5.99884 -16.63983,16.32733 -0.75695,11.88778 4.51113,25.53422 11.73711,30.40381 3.91558,2.6387 10.70179,3.03293 14.87066,0.86387 z m 42.66314,2.81364 c -9.86809,-3.50377 -16.44802,-12.46981 -17.23628,-23.48676 -0.62912,-8.79283 1.44103,-14.58308 7.54803,-21.11196 5.62057,-6.00883 12.637,-8.81381 22.01296,-8.80016 15.76629,0.0229 27.16857,11.35038 27.16857,26.99023 0,16.07914 -12.62403,28.13225 -29.24359,27.92105 -3.41687,-0.0434 -8.02923,-0.724 -10.24969,-1.5124 z m 21.20025,-3.50942 c 1.86952,-1.15543 4.33529,-3.93582 5.4795,-6.17865 1.77821,-3.48558 2.02157,-5.42252 1.67549,-13.33535 -0.35627,-8.1459 -0.81993,-10.07128 -3.86146,-16.0351 -4.33371,-8.4975 -8.19606,-11.35164 -15.35446,-11.34639 -12.0307,0.009 -17.95603,9.26293 -15.61049,24.38028 1.7583,11.33249 7.31526,21.06257 13.50837,23.65274 3.80781,1.59256 10.63259,1.04441 14.16305,-1.13753 z m 118.50533,2.49739 c -5.77538,-2.878 -8.98677,-6.51144 -12.33107,-13.95167 -2.70157,-6.01034 -3.01331,-17.03645 -0.63664,-22.51768 4.10566,-9.46873 13.83576,-15.90019 24.08145,-15.9175 9.28297,-0.0157 15.25199,3.20111 18.7851,10.12358 l 1.85441,3.63335 -13.83026,5.69567 c -8.25303,3.39882 -14.90975,5.56299 -16.50716,5.36665 -2.13314,-0.26219 -0.58539,-1.24821 7.61944,-4.85409 9.60544,-4.22142 10.31663,-4.73143 10.59856,-7.60056 0.24467,-2.48985 -0.40505,-3.69649 -3.41197,-6.3366 -3.3535,-2.94441 -4.18719,-3.21565 -8.58485,-2.79309 -8.23186,0.79097 -12.80539,6.69269 -12.80539,16.52416 0,17.55202 11.73431,31.06555 26,29.94227 3.025,-0.23819 6.4,-0.80488 7.5,-1.25932 1.84044,-0.76033 1.88033,-0.679 0.5,1.01946 -4.83205,5.9457 -19.73599,7.45791 -28.83162,2.92537 z m -36.79823,-0.64662 c 1.13245,-1.79914 1.51056,-9.71429 1.8869,-39.5 l 0.47065,-37.25 -3.61385,-0.0419 -3.61385,-0.0419 3.5,-1.91617 c 2.58316,-1.414218 5.55917,-1.927148 11.36078,-1.958078 7.83279,-0.0418 7.85256,-0.0353 5.55141,1.8281 -2.19387,1.776488 -2.34601,2.739258 -3.04189,19.249998 -1.06914,25.36716 -1.01697,53.36401 0.10495,56.31488 0.79228,2.08385 1.63654,2.5651 4.5,2.5651 3.64262,0 4.72027,1.32726 1.94296,2.39301 -0.86998,0.33385 -5.83035,0.60699 -11.02305,0.60699 h -9.44127 z"
       id="path3788"
       inkscape:connector-curvature="0" />
    <path
       style="fill:#989898"
       d="m 69.970154,284.27264 v -12.75721 l 25.895875,-25.88151 25.895871,-25.88151 13.26975,12.38872 c 11.55796,10.79057 16.4859,15.32338 30.21727,27.79433 l 2.77878,2.52371 28.22122,-27.96556 c 15.52168,-15.38106 38.68373,-38.31149 51.47123,-50.95651 l 23.25,-22.99094 v 68.24184 68.24185 h -100.5 -100.499996 z m 416.999996,5.75721 c 0,-0.55 1.15458,-1 2.56574,-1 1.41116,0 3.47777,-0.4881 4.59248,-1.08468 2.04796,-1.09603 6.84178,-10.6117 6.84178,-13.58085 0,-0.88467 -3.15,-9.84145 -7,-19.90396 -3.85,-10.06251 -7,-18.55086 -7,-18.86299 0,-0.31214 0.57451,-0.56752 1.27669,-0.56752 0.7402,0 3.99691,7.35014 7.75,17.49113 3.56032,9.62012 6.76851,17.49512 7.12931,17.5 0.3608,0.005 1.37543,-2.12863 2.25473,-4.74113 5.06646,-15.05294 11.2571,-30.22187 12.33927,-30.23492 0.6875,-0.008 1.25,0.33432 1.25,0.76137 0,1.18222 -17.58028,46.51122 -19.41427,50.05776 -0.88354,1.70858 -2.47219,3.56984 -3.53034,4.13615 -2.46556,1.31952 -9.05539,1.3411 -9.05539,0.0296 z m -138,-16.19551 c 0,-1.48288 20.98209,-52.29852 21.6921,-52.53519 0.99399,-0.33133 21.68749,51.68444 20.8821,52.48983 -1.44772,1.44772 -3.43811,-1.48141 -6.5742,-9.67486 l -3.5,-9.14421 -10.93662,0.27997 -10.93662,0.27997 -3.62821,8.99879 c -2.30645,5.72054 -4.24211,9.11702 -5.31338,9.32332 -0.92684,0.1785 -1.68517,0.17057 -1.68517,-0.0176 z m 31,-21.78102 c 0,-0.82398 -1.89531,-6.13461 -8.21686,-23.02347 -0.83418,-2.22862 -1.46074,-1.14454 -5.77204,9.98692 -2.65996,6.8678 -4.62406,12.8303 -4.36468,13.25 0.70511,1.14088 18.35358,0.93564 18.35358,-0.21345 z m 19,2.47653 c 0,-12.08085 0.37322,-19.5 0.98095,-19.5 0.53952,0 1.25852,1.10594 1.59778,2.45765 l 0.61683,2.45764 2.80557,-2.07424 c 6.00589,-4.44035 16.1474,-4.14483 20.90635,0.60921 2.55011,2.54748 2.59771,2.85943 2.90982,19.06979 0.27786,14.43165 0.1225,16.47995 -1.25,16.47995 -1.35599,0 -1.5673,-2.10016 -1.5673,-15.57692 V 242.876 l -2.92308,-2.92307 c -3.34101,-3.34102 -8.75357,-3.92068 -14.43672,-1.54611 -5.44178,2.27372 -6.6402,6.24864 -6.6402,22.02416 0,11.42122 -0.2402,13.59887 -1.5,13.59887 -1.28205,0 -1.5,-2.83333 -1.5,-19.5 z m 42.36032,18.03983 c -4.64046,-3.25031 -5.52424,-12.27154 -1.55416,-15.8644 3.34226,-3.02471 9.04837,-4.67543 16.16172,-4.67543 h 7.03212 v -3.95295 c 0,-9.69468 -6.63092,-13.41197 -17.19543,-9.63976 -3.00347,1.07244 -3.78789,1.07857 -4.18921,0.0327 -1.13378,-2.95458 13.4385,-4.73951 18.7894,-2.30147 4.58973,2.09122 5.59524,6.18183 5.59524,22.76257 0,14.12914 -0.95949,19.05142 -2.35426,12.07757 l -0.60426,-3.02129 -4.17078,3.02129 c -3.46455,2.50971 -5.12366,3.0213 -9.79823,3.0213 -3.3155,0 -6.48392,-0.59989 -7.71215,-1.46017 z m 14.1499,-1.97965 c 4.44451,-1.85704 7.48124,-6.85069 7.48604,-12.31018 l 0.004,-4.25 -5.25,0.006 c -9.94742,0.0106 -15.95898,2.70662 -17.2177,7.72176 -1.94418,7.7462 6.15183,12.52061 14.97792,8.83284 z m 21.48978,-24.56018 c 0,-24.22222 0.20238,-28 1.5,-28 1.29762,0 1.5,3.77778 1.5,28 0,24.22222 -0.20238,28 -1.5,28 -1.29762,0 -1.5,-3.77778 -1.5,-28 z m 53.07258,25.36514 c -1.89253,-2.40596 -2.07258,-3.96969 -2.07258,-18 v -15.36514 h -3 c -3.86402,0 -3.89508,-1.87098 -0.0438,-2.64123 2.59504,-0.51901 3.03646,-1.12673 3.61354,-4.975 0.85757,-5.71896 2.43026,-5.64374 2.43026,0.11623 v 4.5 h 5.5 c 4.22222,0 5.5,0.34848 5.5,1.5 0,1.15152 -1.27778,1.5 -5.5,1.5 h -5.5 v 15 c 0,13.66667 0.17778,15.17778 2,17 1.33333,1.33333 3.33333,2 6,2 2.2,0 4,0.45 4,1 0,0.55 -2.44234,1 -5.42742,1 -4.67226,0 -5.71579,-0.36661 -7.5,-2.63486 z m 19.92742,-16.86514 c 0,-16.66667 0.21795,-19.5 1.5,-19.5 1.28205,0 1.5,2.83333 1.5,19.5 0,16.66667 -0.21795,19.5 -1.5,19.5 -1.28205,0 -1.5,-2.83333 -1.5,-19.5 z m 18.89788,17.24193 c -10.13397,-6.73455 -10.58165,-26.89565 -0.75604,-34.04788 5.13369,-3.7369 18.95803,-4.13918 19.6438,-0.57162 0.27263,1.4183 -0.24315,1.49541 -4.09956,0.61294 -12.81359,-2.93216 -20.69436,5.01414 -19.38889,19.55013 0.97334,10.83781 8.18435,16.2399 18.7805,14.06931 3.75722,-0.76966 4.92231,-0.71961 4.92231,0.21144 0,1.8055 -2.43526,2.43375 -9.4339,2.43375 -4.83936,0 -7.04578,-0.51532 -9.66822,-2.25807 z m 26.85212,1.17797 c -0.9625,-0.5606 -1.75,-1.61175 -1.75,-2.33587 0,-1.06636 1.02272,-1.03194 5.38088,0.18109 10.06358,2.80106 18.61912,-0.27418 18.61912,-6.69254 0,-3.65949 -3.01416,-6.15492 -11.19056,-9.2647 -8.05733,-3.06449 -11.80944,-6.57047 -11.80944,-11.03478 0,-6.83437 7.22705,-10.1404 18.84304,-8.6198 5.8366,0.76405 7.02954,1.37412 5.56019,2.84347 -0.61793,0.61793 -2.37411,0.57394 -4.89692,-0.12264 -8.27806,-2.28568 -16.50631,0.63375 -16.50631,5.85653 0,3.27906 3.16837,5.84809 11.5,9.32462 3.85,1.60648 8.0125,4.07633 9.25,5.48856 3.9454,4.50246 2.35417,11.22978 -3.28969,13.90797 -3.72907,1.76956 -16.93727,2.08324 -19.71031,0.46809 z m -45.75,-48.9199 c 0,-1.89759 0.51189,-3 1.39301,-3 1.68896,0 2.75784,2.44332 1.96862,4.5 -1.04393,2.72042 -3.36163,1.68623 -3.36163,-1.5 z m -13.2825,-8.02789 c -5.49424,-1.38625 -9.13204,-3.48762 -12.05859,-6.96563 -3.89069,-4.62382 -4.3465,-9.04861 -1.51874,-14.74343 3.16154,-6.36704 9.01185,-9.87813 19.96202,-11.98031 4.6188,-0.8867 8.51226,-1.69001 8.65215,-1.78513 0.13988,-0.0951 -0.45752,-1.59989 -1.32756,-3.34393 -1.01253,-2.02966 -1.34542,-4.24764 -0.92488,-6.16233 0.64942,-2.95681 0.60778,-2.99135 -3.60672,-2.99135 -5.8919,0 -12.4905,-3.43137 -15.58194,-8.10285 -7.89748,-11.9339 0.26136,-27.59105 16.08983,-30.87703 2.8685,-0.5955 11.03879,-0.95614 18.15619,-0.80142 l 12.94074,0.2813 -3.20034,1.75 c -1.76019,0.9625 -4.59389,1.75 -6.29712,1.75 h -3.09679 l 3.12972,3.89452 c 6.85759,8.53335 6.00185,17.06965 -2.61703,26.10564 -6.53026,6.84629 -6.97521,9.66225 -2.17139,13.74213 11.90039,10.10696 14.86691,15.43372 12.81323,23.00771 -2.89787,10.68735 -12.86097,17.20307 -27.24837,17.82003 -4.57155,0.19604 -10.01403,-0.073 -12.09441,-0.59792 z m 25.75832,-5.52766 c 4.3055,-2.04309 6.52418,-5.89203 6.52418,-11.31806 0,-4.55995 -2.55971,-8.16327 -8.9399,-12.58474 -3.70215,-2.56559 -4.63314,-2.76947 -10.49702,-2.29878 -14.57734,1.17013 -22.15483,9.91077 -17.08732,19.71025 4.04699,7.82601 19.94035,11.26498 30.00006,6.49133 z m -5.117,-46.56208 c 6.50819,-2.96533 7.38973,-14.35906 1.86725,-24.13399 -3.89981,-6.90277 -8.69965,-9.52228 -14.3475,-7.83015 -5.93004,1.77669 -8.11673,5.83269 -7.59184,14.08177 0.46635,7.32905 3.21465,13.67603 7.32023,16.90547 2.96269,2.33046 8.79971,2.77762 12.75186,0.9769 z m -205.67093,19.0433 c -13.76017,-2.05798 -26.02742,-11.48059 -30.7782,-23.64109 -3.05181,-7.81167 -3.27104,-21.46279 -0.4661,-29.02358 7.06059,-19.03204 27.72922,-29.87179 50.28373,-26.37152 7.61943,1.18247 16.57802,4.1398 19.8325,6.54694 1.86465,1.37916 1.76662,1.61272 -2.51803,5.9993 -5.01083,5.13005 -6.35596,5.66422 -5.48057,2.1764 0.47734,-1.90189 -0.0897,-2.91342 -2.78601,-4.97 -14.67978,-11.19682 -34.43362,-8.75958 -44.78143,5.52516 -8.64694,11.93676 -7.73804,31.98701 2.03992,45.00025 4.4989,5.98747 13.02028,12.18108 19.28894,14.01981 6.00204,1.76053 19.49604,1.64161 23.17736,-0.20425 2.9503,-1.47933 3.00479,-1.64904 3.28893,-10.24367 l 0.28894,-8.73942 -7.28894,-0.0354 c -6.82601,-0.0332 -7.13016,-0.12623 -4.78893,-1.4646 1.75314,-1.00218 5.90718,-1.43972 13.90499,-1.46456 10.88272,-0.0338 11.33105,0.0463 9.79038,1.74868 -1.19145,1.31654 -1.69071,4.2457 -1.90499,11.17671 l -0.29038,9.3926 -5.5,1.29545 c -13.50183,3.18017 -27.35987,4.46613 -35.31211,3.27679 z m 69.30564,-1.86001 c -7.10999,-2.16276 -14.79261,-8.93665 -17.49553,-15.4261 -5.43001,-13.03689 -0.1483,-27.91815 12.41346,-34.97502 4.47783,-2.51553 6.8152,-3.1137 13.54779,-3.46707 10.30248,-0.54074 16.68789,1.89067 22.59783,8.60471 12.87103,14.62227 6.02132,39.23647 -12.4449,44.72035 -5.24639,1.55801 -14.40406,1.82515 -18.61865,0.54313 z m 17.80613,-3.47065 c 6.92736,-3.6043 9.75281,-10.27101 8.9042,-21.00965 -0.76957,-9.73839 -3.34549,-16.14555 -8.77002,-21.81394 -4.37413,-4.57075 -4.79899,-4.77142 -10.10212,-4.77142 -9.8685,0 -15.98216,5.99884 -16.63983,16.32733 -0.75695,11.88778 4.51113,25.53422 11.73711,30.40381 3.91558,2.6387 10.70179,3.03293 14.87066,0.86387 z m 42.66314,2.81364 c -9.86809,-3.50377 -16.44802,-12.46981 -17.23628,-23.48676 -0.62912,-8.79283 1.44103,-14.58308 7.54803,-21.11196 5.62057,-6.00883 12.637,-8.81381 22.01296,-8.80016 15.76629,0.0229 27.16857,11.35038 27.16857,26.99023 0,16.07914 -12.62403,28.13225 -29.24359,27.92105 -3.41687,-0.0434 -8.02923,-0.724 -10.24969,-1.5124 z m 21.20025,-3.50942 c 1.86952,-1.15543 4.33529,-3.93582 5.4795,-6.17865 1.77821,-3.48558 2.02157,-5.42252 1.67549,-13.33535 -0.35627,-8.1459 -0.81993,-10.07128 -3.86146,-16.0351 -4.33371,-8.4975 -8.19606,-11.35164 -15.35446,-11.34639 -12.0307,0.009 -17.95603,9.26293 -15.61049,24.38028 1.7583,11.33249 7.31526,21.06257 13.50837,23.65274 3.80781,1.59256 10.63259,1.04441 14.16305,-1.13753 z m 118.50533,2.49739 c -5.77538,-2.878 -8.98677,-6.51144 -12.33107,-13.95167 -2.70157,-6.01034 -3.01331,-17.03645 -0.63664,-22.51768 4.10566,-9.46873 13.83576,-15.90019 24.08145,-15.9175 9.28297,-0.0157 15.25199,3.20111 18.7851,10.12358 l 1.85441,3.63335 -13.83026,5.69567 c -8.25303,3.39882 -14.90975,5.56299 -16.50716,5.36665 -2.13314,-0.26219 -0.58539,-1.24821 7.61944,-4.85409 9.60544,-4.22142 10.31663,-4.73143 10.59856,-7.60056 0.24467,-2.48985 -0.40505,-3.69649 -3.41197,-6.3366 -3.3535,-2.94441 -4.18719,-3.21565 -8.58485,-2.79309 -8.23186,0.79097 -12.80539,6.69269 -12.80539,16.52416 0,17.55202 11.73431,31.06555 26,29.94227 3.025,-0.23819 6.4,-0.80488 7.5,-1.25932 1.84044,-0.76033 1.88033,-0.679 0.5,1.01946 -4.83205,5.9457 -19.73599,7.45791 -28.83162,2.92537 z m -36.79823,-0.64662 c 1.13245,-1.79914 1.51056,-9.71429 1.8869,-39.5 l 0.47065,-37.25 -3.61385,-0.0419 -3.61385,-0.0419 3.5,-1.91617 c 2.58316,-1.414218 5.55917,-1.927148 11.36078,-1.958078 7.83279,-0.0418 7.85256,-0.0353 5.55141,1.8281 -2.19387,1.776488 -2.34601,2.739258 -3.04189,19.249998 -1.06914,25.36716 -1.01697,53.36401 0.10495,56.31488 0.79228,2.08385 1.63654,2.5651 4.5,2.5651 3.64262,0 4.72027,1.32726 1.94296,2.39301 -0.86998,0.33385 -5.83035,0.60699 -11.02305,0.60699 h -9.44127 z"
       id="path3786"
       inkscape:connector-curvature="0" />
    <path
       style="fill:#ef5a29"
       d="m 69.970154,284.27264 v -12.75721 l 25.895875,-25.88151 25.895871,-25.88151 13.26975,12.38872 c 11.55796,10.79057 16.4859,15.32338 30.21727,27.79433 l 2.77878,2.52371 28.22122,-27.96556 c 15.52168,-15.38106 38.68373,-38.31149 51.47123,-50.95651 l 23.25,-22.99094 v 68.24184 68.24185 h -100.5 -100.499996 z"
       id="path3784"
       inkscape:connector-curvature="0" />
  </g>
</svg>
